<svg width="101" height="88" viewBox="0 0 101 88" fill="none" xmlns="http://www.w3.org/2000/svg">
<path d="M100.175 50.4875V66.7875L86.125 71.9042L85.8 72.1333L86.0167 72.2875L100.392 67.0542L100.5 66.9042V50.25L100.279 50.1L100.175 50.4875ZM98.9208 17.3125L86.2542 21.925V38.225L100.167 33.1625V16.8583L98.9208 17.3125ZM100.167 49.975V33.6708L86.2667 38.7333V55.0375L100.167 49.975ZM85.7917 55.1958V38.9042L72.0417 43.9042V60.2083L85.7917 55.1958ZM71.475 77.2208V60.9208L57.6708 65.9458V82.2458L71.475 77.2208ZM72.0417 60.8083V76.925L85.85 71.9V55.7792L72.0417 60.8083ZM80.7625 68.65C79.2333 69.2083 78 68.3417 78 66.7208C78 65.1 79.2333 63.3292 80.7625 62.775C82.2833 62.2208 83.5208 63.0875 83.5208 64.7083C83.5208 66.3292 82.2833 68.1 80.7625 68.65ZM55.6042 32.7167L57.125 32.1667L43.4375 27.1792L29.5917 32.2208L30.0167 32.375L43.2833 37.2083L55.6042 32.7167ZM85.9458 38.3375V22.0333L72.0417 27.0917V43.3958L85.9458 38.3375ZM71.575 43.5625V27.2583L57.8167 32.2667V48.5667L71.575 43.5625ZM57.3458 32.4292L43.4458 37.4917V53.7958L57.3458 48.7333V32.4292ZM29.2792 48.7583L43.1208 53.7958V37.4917L29.2792 32.4542V48.7583ZM43.5833 26.7083L57.2542 31.6792V15.5625L43.5875 10.5917L43.5833 26.7083ZM85.9458 5.21667L72.125 10.2458V26.55L85.9458 21.5208V5.21667ZM71.125 10.1667L57.6833 5.27917L44.0625 10.2375L57.5 15.1292L71.125 10.1667ZM64.5208 13.0958L57.7542 15.5625V31.6792L71.575 26.65V10.5333L64.5208 13.0958ZM62.8917 24.6708C61.3625 25.2292 60.1333 24.3625 60.1333 22.7375C60.1333 21.1125 61.3625 19.35 62.8917 18.7958C64.4167 18.2417 65.6542 19.1042 65.6542 20.7292C65.6542 22.3542 64.4167 24.1167 62.8917 24.6708ZM43.1208 70.6125V54.3042L29.2792 49.2667V65.5708L43.1208 70.6125ZM57.4917 65.4958V49.1917L43.4458 54.3042V70.6083L57.4917 65.4958ZM57.8167 65.3792L71.5667 60.3792V44.0708L57.8167 49.0708V65.3792ZM57.4917 82.3083L43.4458 87.4208V71.1208H43.1208V87.4208L29.2792 82.3833V66.0792L29.0583 65.8375L28.9542 65.5875L15.0542 60.5458V44.0958L15.1958 44.15L28.8917 49.1333L28.9542 48.8083L15.3667 43.8625L28.95 38.9167V38.4625L16.65 33.9875L15.3708 33.5208L28.9542 28.5708V32.225L29.2833 31.9958V22.1083L42.8542 27.0458L43.0958 26.7917L30.0167 22.0292L29.5917 21.875L43.0917 16.9625V16.6167L29.0583 21.725V21.8L28.9542 21.875V28.2208L14.8333 33.3625V33.4458L14.7292 33.5167V50.2125L0.604167 55.35V55.4292L0.5 55.5042V72.15L0.604167 72.3042L14.7708 77.4583L14.8042 77.4333L14.8333 77.475L29 82.6333L29.0333 82.6083L29.0583 82.65L43.225 87.8042L43.2833 87.7667L43.3333 87.8083L57.7083 82.575L57.8167 82.4208L57.4917 82.3083ZM15.0542 33.75L28.625 38.6875L15.0542 43.6333V33.75ZM14.6667 77.0708L0.825 72.0375V55.7333L10.6625 59.3167L14.6625 60.7708V77.075L14.6667 77.0708ZM14.7292 60.4458L1.89583 55.7792L1.1375 55.5042L14.7292 50.5583V60.4458ZM28.8917 82.2417L15.0542 77.2042V60.9042L28.8917 65.9417V82.2417ZM99.6292 16.5458L86.2542 11.6708V21.4125L99.6292 16.5458ZM85.4458 4.91667L71.9458 0L58.3208 4.95833L71.85 9.88333L85.4458 4.91667Z" fill="#9FA0A0"/>
</svg>
