<svg width="46" height="46" viewBox="0 0 46 46" fill="none" xmlns="http://www.w3.org/2000/svg">
<path d="M39.6728 34.0156C42.866 34.0156 44.0467 31.7884 45.1564 28.4495C46.3064 25.011 46.2566 21.7028 45.1564 17.2983C44.3648 14.1262 42.8679 11.7323 39.6728 11.7323H35.5577V16.6026C35.5577 20.3803 32.353 23.5639 28.6999 23.5639H17.7326C14.733 23.5639 12.249 26.1304 12.249 29.1395V39.5931C12.249 42.5697 14.8365 44.3158 17.7326 45.1687C21.2018 46.1845 24.5407 46.3685 28.6979 45.1687C31.4599 44.3675 34.1815 42.7537 34.1815 39.5931V35.4128H23.2239V34.0175H39.6728V34.0156ZM29.386 38.1958C30.5245 38.1958 31.4503 39.1312 31.4503 40.2812C31.4503 41.4427 30.5264 42.3761 29.386 42.3761C28.8353 42.3695 28.3094 42.1457 27.9228 41.7534C27.5362 41.3611 27.3202 40.832 27.3218 40.2812C27.3217 39.7317 27.5385 39.2045 27.9251 38.814C28.3116 38.4235 28.8366 38.2014 29.386 38.1958Z" fill="#FDFDFD"/>
<path d="M6.60039 34.0178H10.3686V29.0057C10.3686 25.3813 13.5004 22.1862 17.2264 22.1862H28.1917C31.2412 22.1862 33.6754 19.6715 33.6754 16.6106V6.14934C33.6754 3.17274 31.1703 0.941733 28.1917 0.441481C24.5156 -0.166105 20.5212 -0.131605 17.2264 0.452981L17.2284 0.451064C12.5862 1.2714 11.7467 2.98491 11.7467 6.15701V10.3373H22.7235V11.7345H7.62773C4.43454 11.7345 1.64003 13.655 0.769859 17.3006C-0.236396 21.4808 -0.276646 24.0875 0.769859 28.4518C1.54803 31.6967 3.40912 34.0178 6.60039 34.0178ZM16.5403 7.54468C15.9902 7.54113 15.464 7.31962 15.0771 6.9287C14.6901 6.53779 14.474 6.00938 14.476 5.45934C14.474 4.9084 14.6898 4.37899 15.0765 3.98655C15.4632 3.59411 15.9894 3.37048 16.5403 3.36441C17.6711 3.36441 18.6045 4.30742 18.6045 5.45934C18.6045 6.61126 17.6807 7.54468 16.5403 7.54468Z" fill="#FDFDFD"/>
</svg>
