<svg width="177" height="160" viewBox="0 0 177 160" fill="none" xmlns="http://www.w3.org/2000/svg">
<rect x="0.5" y="0.5" width="175.79" height="159" rx="19.5" fill="#101112"/>
<rect x="0.5" y="0.5" width="175.79" height="159" rx="19.5" stroke="#9FA0A0"/>
<path d="M120.187 84.6484V96.1575L111.195 99.7703L110.987 99.9321L111.126 100.041L120.326 96.3458L120.395 96.2399V84.4807L120.254 84.3748L120.187 84.6484ZM119.384 61.2241L111.278 64.4809V75.99L120.182 72.4155V60.9034L119.384 61.2241ZM120.182 84.2865V72.7744L111.286 76.349V87.8611L120.182 84.2865ZM110.982 87.9729V76.4696L102.182 80V91.5121L110.982 87.9729ZM101.819 103.524V92.0152L92.9844 95.5633V107.072L101.819 103.524ZM102.182 91.9357V103.315L111.019 99.7674V88.3847L102.182 91.9357ZM107.763 97.4726C106.784 97.8668 105.995 97.2549 105.995 96.1105C105.995 94.966 106.784 93.7157 107.763 93.3244C108.736 92.9331 109.528 93.545 109.528 94.6895C109.528 95.8339 108.736 97.0843 107.763 97.4726ZM91.6617 72.1007L92.6351 71.7123L83.8751 68.1908L75.0137 71.7506L75.2857 71.8594L83.7764 75.2722L91.6617 72.1007ZM111.08 76.0695V64.5574L102.182 68.129V79.6411L111.08 76.0695ZM101.883 79.7588V68.2467L93.0777 71.783V83.2921L101.883 79.7588ZM92.7764 71.8977L83.8804 75.4722V86.9843L92.7764 83.4098V71.8977ZM74.8137 83.4274L83.6724 86.9843V75.4722L74.8137 71.9153V83.4274ZM83.9684 67.8583L92.7177 71.3681V59.9884L83.9711 56.4786L83.9684 67.8583ZM111.08 52.6834L102.235 56.2344V67.7465L111.08 64.1955V52.6834ZM101.595 56.1785L92.9924 52.7275L84.2751 56.2285L92.8751 59.6825L101.595 56.1785ZM97.3684 58.2467L93.0377 59.9884V71.3681L101.883 67.8171V56.4374L97.3684 58.2467ZM96.3257 66.4197C95.3471 66.8139 94.5604 66.202 94.5604 65.0546C94.5604 63.9072 95.3471 62.6627 96.3257 62.2714C97.3017 61.8801 98.0937 62.4891 98.0937 63.6365C98.0937 64.7839 97.3017 66.0284 96.3257 66.4197ZM83.6724 98.8583V87.3433L74.8137 83.7864V95.2985L83.6724 98.8583ZM92.8697 95.2455V83.7334L83.8804 87.3433V98.8554L92.8697 95.2455ZM93.0777 95.1631L101.878 91.6327V80.1177L93.0777 83.6481V95.1631ZM92.8697 107.117L83.8804 110.726V99.2172H83.6724V110.726L74.8137 107.169V95.6574L74.6724 95.4868L74.6057 95.3102L65.7097 91.7504V80.1353L65.8004 80.1736L74.5657 83.6922L74.6057 83.4627L65.9097 79.9706L74.6031 76.4784V76.1577L66.7311 72.998L65.9124 72.6685L74.6057 69.1734V71.7535L74.8164 71.5917V64.6103L83.5017 68.0966L83.6564 67.9171L75.2857 64.5544L75.0137 64.4456L83.6537 60.9769V60.7328L74.6724 64.3397V64.3926L74.6057 64.4456V68.9263L65.5684 72.5567V72.6155L65.5017 72.6656V84.4542L56.4617 88.0817V88.1376L56.3951 88.1906V99.9439L56.4617 100.053L65.5284 103.692L65.5497 103.674L65.5684 103.704L74.6351 107.346L74.6564 107.328L74.6724 107.358L83.7391 110.997L83.7764 110.971L83.8084 111L93.0084 107.305L93.0777 107.196L92.8697 107.117ZM65.7097 72.8303L74.3951 76.3166L65.7097 79.8088V72.8303ZM65.4617 103.418L56.6031 99.8645V88.3524L62.8991 90.8825L65.4591 91.9093V103.421L65.4617 103.418ZM65.5017 91.6798L57.2884 88.3847L56.8031 88.1906L65.5017 84.6984V91.6798ZM74.5657 107.069L65.7097 103.513V92.0034L74.5657 95.5603V107.069ZM119.838 60.6827L111.278 57.2406V64.119L119.838 60.6827ZM110.76 52.4716L102.12 49L93.4004 52.501L102.059 55.9785L110.76 52.4716Z" fill="#9FA0A0"/>
</svg>
