<svg version="1.2" xmlns="http://www.w3.org/2000/svg" viewBox="0 0 587 301" width="141" height="84">
    <style>
        .s0 { fill: #FFFFFF;stroke: #000000;stroke-width: 1.6 }
    </style>
    <g id="SVGRepo_bgCarrier">
    </g>
    <g id="SVGRepo_tracerCarrier">
    </g>
    <g id="SVGRepo_iconCarrier">
        <g>
            <path class="s0" d="m244.08 20.77l1.76 1.18c20.64 13.63 35.44 32.33 45.18 54.92 2.34 3.5 0.78 5.45-3.89 6.62l-7.91 2.02c-17.89 4.61-32.08 8.48-49.73 13.09l-10.07 2.63c-3.63 0.89-4.63 0.52-8.48-3.87l-0.55-0.63c-5.49-6.23-9.61-10.39-16.9-14.11l-1.4-0.69c-24.54-12.07-48.3-8.57-70.5 5.84-26.49 17.14-40.12 42.46-39.73 74.01 0.39 31.16 21.81 56.87 52.58 61.15 26.49 3.51 48.69-5.84 66.22-25.71 3.5-4.28 6.62-8.95 10.51-14.41h-75.17c-8.18 0-10.13-5.06-7.4-11.68l1.35-3.18c5-11.65 12.77-28.39 17.81-37.96l1.1-2.06c1.35-2.34 4.08-5.49 9.34-5.49h125.35c5.63-17.84 14.76-34.69 26.95-50.64 28.43-37.39 62.71-56.87 109.06-65.04 39.73-7.02 77.12-3.12 111.01 19.86 30.77 21.03 49.86 49.47 54.92 86.86 6.62 52.58-8.57 95.43-44.79 132.04-25.71 26.1-57.26 42.46-93.49 49.86-10.51 1.95-21.03 2.34-31.16 3.51-35.44-0.78-67.77-10.91-95.04-34.28-19.17-16.58-32.38-36.95-38.95-60.67q-6.82 13.81-16.36 26.39c-28.04 37.01-64.65 59.99-111.01 66.22-38.17 5.06-73.61-2.34-104.77-25.71-28.83-21.81-45.19-50.63-49.47-86.47-5.06-42.46 7.4-80.63 33.11-114.13 27.65-36.22 64.27-59.2 109.06-67.38 35.94-6.5 70.37-2.49 101.46 17.91zm185.3 55.82l-1.25 0.28c-36.23 8.18-59.6 31.16-68.16 67.77-7.02 30.38 7.79 61.15 35.83 73.62 21.42 9.35 42.85 8.18 63.49-2.34 30.77-15.97 47.52-40.9 49.47-74.4-0.39-5.06-0.39-8.95-1.17-12.85-6.93-38.13-41.67-59.88-78.21-52.08zm-460.48 71.17c1.56 0 2.34 1.17 2.34 2.72l-0.78 9.35c0 1.56-1.56 2.73-2.73 2.73l-84.91-0.39c-1.56 0-1.95-1.17-1.17-2.34l5.45-9.74c0.78-1.16 2.34-2.33 3.9-2.33zm8.57-35.84c1.56 0 2.33 1.17 1.95 2.34l-3.12 9.35c-0.39 1.56-1.95 2.33-3.51 2.33l-184.23 0.39c-1.56 0-1.95-0.77-1.17-1.94l8.18-10.52c0.78-1.17 2.72-1.95 4.28-1.95zm20.26-35.83c1.55 0 1.94 1.17 1.17 2.33l-6.63 10.13c-0.78 1.17-2.72 2.34-3.89 2.34l-141-0.39c-1.56 0-1.95-0.78-1.17-1.95l8.18-10.51c0.78-1.17 2.72-1.95 4.28-1.95z"/>
        </g>
    </g>
</svg>
