<svg width="102" height="101" viewBox="0 0 102 101" fill="none" xmlns="http://www.w3.org/2000/svg">
<path d="M54.708 8.41602H25.2497C23.0174 8.41602 20.8766 9.30277 19.2982 10.8812C17.7198 12.4596 16.833 14.6004 16.833 16.8327V84.166C16.833 86.3983 17.7198 88.5391 19.2982 90.1175C20.8766 91.6959 23.0174 92.5827 25.2497 92.5827H75.7497C77.9819 92.5827 80.1227 91.6959 81.7011 90.1175C83.2796 88.5391 84.1663 86.3983 84.1663 84.166V37.8743L54.708 8.41602Z" fill="#707071"/>
<path d="M54.708 8.41602V37.8743H84.1663" fill="#707071"/>
<path d="M50.54 66C49.9533 66 49.46 65.8133 49.06 65.44C48.6867 65.04 48.5 64.5467 48.5 63.96V46.16C48.5 45.5467 48.6867 45.0533 49.06 44.68C49.46 44.3067 49.9533 44.12 50.54 44.12C51.1533 44.12 51.6467 44.3067 52.02 44.68C52.3933 45.0533 52.58 45.5467 52.58 46.16V63.96C52.58 64.5467 52.3933 65.04 52.02 65.44C51.6467 65.8133 51.1533 66 50.54 66ZM50.54 40.56C49.82 40.56 49.1933 40.3067 48.66 39.8C48.1533 39.2667 47.9 38.64 47.9 37.92C47.9 37.2 48.1533 36.5867 48.66 36.08C49.1933 35.5467 49.82 35.28 50.54 35.28C51.26 35.28 51.8733 35.5467 52.38 36.08C52.9133 36.5867 53.18 37.2 53.18 37.92C53.18 38.64 52.9133 39.2667 52.38 39.8C51.8733 40.3067 51.26 40.56 50.54 40.56Z" fill="#101112"/>
</svg>
