<svg width="102" height="101" viewBox="0 0 102 101" fill="none" xmlns="http://www.w3.org/2000/svg">
<path d="M55.209 8.41602H25.7507C23.5184 8.41602 21.3776 9.30277 19.7992 10.8812C18.2207 12.4596 17.334 14.6004 17.334 16.8327V84.166C17.334 86.3983 18.2207 88.5391 19.7992 90.1175C21.3776 91.6959 23.5184 92.5827 25.7507 92.5827H76.2506C78.4829 92.5827 80.6237 91.6959 82.2021 90.1175C83.7806 88.5391 84.6673 86.3983 84.6673 84.166V37.8743L55.209 8.41602Z" fill="#707071"/>
<path d="M55.209 8.41602V37.8743H84.6673" fill="#707071"/>
<path d="M33.856 60.384C33.408 60.384 33.016 60.224 32.68 59.904C32.36 59.568 32.2 59.176 32.2 58.728C32.2 58.264 32.36 57.872 32.68 57.552C33.016 57.216 33.408 57.048 33.856 57.048C34.32 57.048 34.712 57.216 35.032 57.552C35.352 57.872 35.512 58.264 35.512 58.728C35.512 59.176 35.352 59.568 35.032 59.904C34.712 60.224 34.32 60.384 33.856 60.384ZM35.5187 65.616C35.1667 65.616 34.8787 65.496 34.6547 65.256C34.4307 65.032 34.3187 64.744 34.3187 64.392C34.3187 64.024 34.4307 63.728 34.6547 63.504C34.8787 63.28 35.1667 63.168 35.5187 63.168C36.1587 63.168 36.7188 63.024 37.1988 62.736C37.6788 62.464 38.0548 62.088 38.3268 61.608C38.6148 61.128 38.7588 60.576 38.7588 59.952V48.096C38.7588 47.728 38.8708 47.432 39.0948 47.208C39.3348 46.984 39.6308 46.872 39.9828 46.872C40.3508 46.872 40.6468 46.984 40.8708 47.208C41.0948 47.432 41.2068 47.728 41.2068 48.096V59.952C41.2068 61.056 40.9588 62.032 40.4628 62.88C39.9828 63.728 39.3188 64.392 38.4708 64.872C37.6228 65.368 36.6388 65.616 35.5187 65.616ZM39.9828 44.736C39.5508 44.736 39.1748 44.584 38.8548 44.28C38.5508 43.96 38.3988 43.584 38.3988 43.152C38.3988 42.72 38.5508 42.352 38.8548 42.048C39.1748 41.728 39.5508 41.568 39.9828 41.568C40.4148 41.568 40.7828 41.728 41.0868 42.048C41.4068 42.352 41.5668 42.72 41.5668 43.152C41.5668 43.584 41.4068 43.96 41.0868 44.28C40.7828 44.584 40.4148 44.736 39.9828 44.736ZM50.2804 60.096C49.1124 60.096 48.0644 59.808 47.1364 59.232C46.2084 58.64 45.4724 57.848 44.9284 56.856C44.4004 55.848 44.1364 54.712 44.1364 53.448C44.1364 52.184 44.4244 51.048 45.0004 50.04C45.5924 49.032 46.3844 48.24 47.3764 47.664C48.3844 47.072 49.5124 46.776 50.7604 46.776C52.0084 46.776 53.1284 47.072 54.1204 47.664C55.1124 48.24 55.8964 49.032 56.4724 50.04C57.0644 51.048 57.3604 52.184 57.3604 53.448H56.4244C56.4244 54.712 56.1524 55.848 55.6084 56.856C55.0804 57.848 54.3524 58.64 53.4244 59.232C52.4964 59.808 51.4484 60.096 50.2804 60.096ZM50.7604 57.936C51.5764 57.936 52.3044 57.744 52.9444 57.36C53.5844 56.96 54.0884 56.424 54.4564 55.752C54.8244 55.064 55.0084 54.296 55.0084 53.448C55.0084 52.584 54.8244 51.816 54.4564 51.144C54.0884 50.456 53.5844 49.92 52.9444 49.536C52.3044 49.136 51.5764 48.936 50.7604 48.936C49.9604 48.936 49.2324 49.136 48.5764 49.536C47.9364 49.92 47.4244 50.456 47.0404 51.144C46.6724 51.816 46.4884 52.584 46.4884 53.448C46.4884 54.296 46.6724 55.064 47.0404 55.752C47.4244 56.424 47.9364 56.96 48.5764 57.36C49.2324 57.744 49.9604 57.936 50.7604 57.936ZM56.1364 60.024C55.7844 60.024 55.4884 59.912 55.2484 59.688C55.0244 59.448 54.9124 59.152 54.9124 58.8V55.128L55.3684 52.584L57.3604 53.448V58.8C57.3604 59.152 57.2404 59.448 57.0004 59.688C56.7764 59.912 56.4884 60.024 56.1364 60.024ZM62.1798 51.792C62.1798 50.832 62.4118 49.976 62.8758 49.224C63.3558 48.456 63.9958 47.848 64.7958 47.4C65.5958 46.952 66.4758 46.728 67.4358 46.728C68.3958 46.728 69.1078 46.888 69.5718 47.208C70.0518 47.512 70.2358 47.88 70.1238 48.312C70.0758 48.536 69.9798 48.712 69.8358 48.84C69.7078 48.952 69.5558 49.024 69.3798 49.056C69.2038 49.088 69.0118 49.08 68.8038 49.032C67.7798 48.824 66.8598 48.808 66.0438 48.984C65.2278 49.16 64.5798 49.488 64.0998 49.968C63.6358 50.448 63.4038 51.056 63.4038 51.792H62.1798ZM62.2038 60C61.8198 60 61.5238 59.904 61.3158 59.712C61.1078 59.504 61.0038 59.2 61.0038 58.8V48.072C61.0038 47.688 61.1078 47.392 61.3158 47.184C61.5238 46.976 61.8198 46.872 62.2038 46.872C62.6038 46.872 62.8998 46.976 63.0918 47.184C63.2998 47.376 63.4038 47.672 63.4038 48.072V58.8C63.4038 59.184 63.2998 59.48 63.0918 59.688C62.8998 59.896 62.6038 60 62.2038 60Z" fill="#101112"/>
</svg>
