<svg width="102" height="101" viewBox="0 0 102 101" fill="none" xmlns="http://www.w3.org/2000/svg">
<path d="M55.709 8.41602H26.2507C24.0184 8.41602 21.8776 9.30277 20.2992 10.8812C18.7207 12.4596 17.834 14.6004 17.834 16.8327V84.166C17.834 86.3983 18.7207 88.5391 20.2992 90.1175C21.8776 91.6959 24.0184 92.5827 26.2507 92.5827H76.7506C78.9829 92.5827 81.1237 91.6959 82.7021 90.1175C84.2806 88.5391 85.1673 86.3983 85.1673 84.166V37.8743L55.709 8.41602Z" fill="#707071"/>
<path d="M55.709 8.41602V37.8743H85.1673" fill="#707071"/>
<path d="M22.856 60.384C22.408 60.384 22.016 60.224 21.68 59.904C21.36 59.568 21.2 59.176 21.2 58.728C21.2 58.264 21.36 57.872 21.68 57.552C22.016 57.216 22.408 57.048 22.856 57.048C23.32 57.048 23.712 57.216 24.032 57.552C24.352 57.872 24.512 58.264 24.512 58.728C24.512 59.176 24.352 59.568 24.032 59.904C23.712 60.224 23.32 60.384 22.856 60.384ZM29.1028 65.616C28.7508 65.616 28.4548 65.496 28.2148 65.256C27.9908 65.032 27.8788 64.744 27.8788 64.392V53.448C27.8948 52.184 28.1908 51.048 28.7668 50.04C29.3428 49.032 30.1268 48.24 31.1188 47.664C32.1108 47.072 33.2308 46.776 34.4788 46.776C35.7428 46.776 36.8708 47.072 37.8628 47.664C38.8548 48.24 39.6388 49.032 40.2148 50.04C40.8068 51.048 41.1028 52.184 41.1028 53.448C41.1028 54.712 40.8308 55.848 40.2868 56.856C39.7588 57.848 39.0308 58.64 38.1028 59.232C37.1748 59.808 36.1268 60.096 34.9588 60.096C34.0148 60.096 33.1428 59.904 32.3428 59.52C31.5588 59.12 30.8868 58.584 30.3268 57.912V64.392C30.3268 64.744 30.2148 65.032 29.9908 65.256C29.7668 65.496 29.4708 65.616 29.1028 65.616ZM34.4788 57.936C35.2948 57.936 36.0228 57.744 36.6628 57.36C37.3028 56.96 37.8068 56.424 38.1748 55.752C38.5588 55.064 38.7508 54.296 38.7508 53.448C38.7508 52.584 38.5588 51.816 38.1748 51.144C37.8068 50.456 37.3028 49.92 36.6628 49.536C36.0228 49.136 35.2948 48.936 34.4788 48.936C33.6788 48.936 32.9508 49.136 32.2948 49.536C31.6548 49.92 31.1508 50.456 30.7828 51.144C30.4148 51.816 30.2308 52.584 30.2308 53.448C30.2308 54.296 30.4148 55.064 30.7828 55.752C31.1508 56.424 31.6548 56.96 32.2948 57.36C32.9508 57.744 33.6788 57.936 34.4788 57.936ZM50.7058 60.096C49.4098 60.096 48.2658 59.816 47.2738 59.256C46.2818 58.68 45.4978 57.896 44.9218 56.904C44.3618 55.896 44.0818 54.744 44.0818 53.448C44.0818 52.136 44.3618 50.984 44.9218 49.992C45.4978 48.984 46.2818 48.2 47.2738 47.64C48.2658 47.064 49.4098 46.776 50.7058 46.776C51.9858 46.776 53.1218 47.064 54.1138 47.64C55.1058 48.2 55.8818 48.984 56.4418 49.992C57.0178 50.984 57.3058 52.136 57.3058 53.448C57.3058 54.744 57.0258 55.896 56.4658 56.904C55.9058 57.896 55.1298 58.68 54.1378 59.256C53.1458 59.816 52.0018 60.096 50.7058 60.096ZM50.7058 57.936C51.5378 57.936 52.2738 57.744 52.9138 57.36C53.5538 56.976 54.0498 56.448 54.4018 55.776C54.7698 55.104 54.9538 54.328 54.9538 53.448C54.9538 52.568 54.7698 51.792 54.4018 51.12C54.0498 50.432 53.5538 49.896 52.9138 49.512C52.2738 49.128 51.5378 48.936 50.7058 48.936C49.8738 48.936 49.1378 49.128 48.4978 49.512C47.8578 49.896 47.3538 50.432 46.9858 51.12C46.6178 51.792 46.4338 52.568 46.4338 53.448C46.4338 54.328 46.6178 55.104 46.9858 55.776C47.3538 56.448 47.8578 56.976 48.4978 57.36C49.1378 57.744 49.8738 57.936 50.7058 57.936ZM78.1811 60.024C77.8291 60.024 77.5331 59.912 77.2931 59.688C77.0691 59.448 76.9571 59.152 76.9571 58.8V51.936C76.9571 50.928 76.7091 50.184 76.2131 49.704C75.7171 49.208 75.0691 48.96 74.2691 48.96C73.4371 48.96 72.7491 49.248 72.2051 49.824C71.6771 50.4 71.4131 51.136 71.4131 52.032H69.4211C69.4211 50.992 69.6451 50.08 70.0931 49.296C70.5411 48.496 71.1651 47.872 71.9651 47.424C72.7811 46.976 73.7091 46.752 74.7491 46.752C75.6611 46.752 76.4691 46.952 77.1731 47.352C77.8771 47.752 78.4211 48.344 78.8051 49.128C79.2051 49.896 79.4051 50.832 79.4051 51.936V58.8C79.4051 59.152 79.2931 59.448 79.0691 59.688C78.8451 59.912 78.5491 60.024 78.1811 60.024ZM62.1731 60.024C61.8211 60.024 61.5251 59.912 61.2851 59.688C61.0611 59.448 60.9491 59.152 60.9491 58.8V48.12C60.9491 47.752 61.0611 47.456 61.2851 47.232C61.5251 47.008 61.8211 46.896 62.1731 46.896C62.5411 46.896 62.8371 47.008 63.0611 47.232C63.2851 47.456 63.3971 47.752 63.3971 48.12V58.8C63.3971 59.152 63.2851 59.448 63.0611 59.688C62.8371 59.912 62.5411 60.024 62.1731 60.024ZM70.1891 60.024C69.8371 60.024 69.5411 59.912 69.3011 59.688C69.0771 59.448 68.9651 59.152 68.9651 58.8V51.936C68.9651 50.928 68.7171 50.184 68.2211 49.704C67.7251 49.208 67.0771 48.96 66.2771 48.96C65.4451 48.96 64.7571 49.248 64.2131 49.824C63.6691 50.4 63.3971 51.136 63.3971 52.032H61.8851C61.8851 50.992 62.0931 50.08 62.5091 49.296C62.9251 48.496 63.5011 47.872 64.2371 47.424C64.9731 46.976 65.8131 46.752 66.7571 46.752C67.6691 46.752 68.4771 46.952 69.1811 47.352C69.8851 47.752 70.4291 48.344 70.8131 49.128C71.2131 49.896 71.4131 50.832 71.4131 51.936V58.8C71.4131 59.152 71.3011 59.448 71.0771 59.688C70.8531 59.912 70.5571 60.024 70.1891 60.024Z" fill="#101112"/>
</svg>
