<svg width="102" height="101" viewBox="0 0 102 101" fill="none" xmlns="http://www.w3.org/2000/svg">
<path d="M55.709 8.41602H26.2507C24.0184 8.41602 21.8776 9.30277 20.2992 10.8812C18.7207 12.4596 17.834 14.6004 17.834 16.8327V84.166C17.834 86.3983 18.7207 88.5391 20.2992 90.1175C21.8776 91.6959 24.0184 92.5827 26.2507 92.5827H76.7506C78.9829 92.5827 81.1237 91.6959 82.7021 90.1175C84.2806 88.5391 85.1673 86.3983 85.1673 84.166V37.8743L55.709 8.41602Z" fill="#707071"/>
<path d="M55.709 8.41602V37.8743H85.1673" fill="#707071"/>
<path d="M29.356 60.384C28.908 60.384 28.516 60.224 28.18 59.904C27.86 59.568 27.7 59.176 27.7 58.728C27.7 58.264 27.86 57.872 28.18 57.552C28.516 57.216 28.908 57.048 29.356 57.048C29.82 57.048 30.212 57.216 30.532 57.552C30.852 57.872 31.012 58.264 31.012 58.728C31.012 59.176 30.852 59.568 30.532 59.904C30.212 60.224 29.82 60.384 29.356 60.384ZM43.5948 60C43.4348 60 43.2828 59.976 43.1388 59.928C42.9948 59.88 42.8588 59.776 42.7308 59.616L38.5308 54.576L37.6668 53.712L33.4908 48.768C33.2828 48.512 33.1708 48.24 33.1548 47.952C33.1388 47.648 33.2188 47.392 33.3948 47.184C33.5708 46.976 33.8348 46.872 34.1868 46.872C34.5708 46.872 34.8748 47.008 35.0988 47.28L39.2028 52.176L39.8268 52.752L44.3387 58.152C44.5788 58.44 44.6908 58.728 44.6748 59.016C44.6748 59.288 44.5708 59.52 44.3628 59.712C44.1708 59.904 43.9148 60 43.5948 60ZM34.4268 60C34.1068 60 33.8508 59.904 33.6588 59.712C33.4828 59.504 33.3948 59.256 33.3948 58.968C33.3948 58.68 33.5068 58.392 33.7308 58.104L37.8108 52.992L39.1068 54.816L35.2908 59.616C35.0508 59.872 34.7628 60 34.4268 60ZM40.3548 53.832L38.6988 52.416L42.5628 47.28C42.6908 47.12 42.8268 47.016 42.9708 46.968C43.1148 46.904 43.2748 46.872 43.4508 46.872C43.8028 46.872 44.0668 46.984 44.2428 47.208C44.4188 47.416 44.4988 47.672 44.4828 47.976C44.4828 48.28 44.3708 48.576 44.1468 48.864L40.3548 53.832ZM64.9701 60.024C64.6181 60.024 64.3221 59.912 64.0821 59.688C63.8581 59.448 63.7461 59.152 63.7461 58.8V51.936C63.7461 50.928 63.4981 50.184 63.0021 49.704C62.5061 49.208 61.8581 48.96 61.0581 48.96C60.2261 48.96 59.5381 49.248 58.9941 49.824C58.4661 50.4 58.2021 51.136 58.2021 52.032H56.2101C56.2101 50.992 56.4341 50.08 56.8821 49.296C57.3301 48.496 57.9541 47.872 58.7541 47.424C59.5701 46.976 60.4981 46.752 61.5381 46.752C62.4501 46.752 63.2581 46.952 63.9621 47.352C64.6661 47.752 65.2101 48.344 65.5941 49.128C65.9941 49.896 66.1941 50.832 66.1941 51.936V58.8C66.1941 59.152 66.0821 59.448 65.8581 59.688C65.6341 59.912 65.3381 60.024 64.9701 60.024ZM48.9621 60.024C48.6101 60.024 48.3141 59.912 48.0741 59.688C47.8501 59.448 47.7381 59.152 47.7381 58.8V48.12C47.7381 47.752 47.8501 47.456 48.0741 47.232C48.3141 47.008 48.6101 46.896 48.9621 46.896C49.3301 46.896 49.6261 47.008 49.8501 47.232C50.0741 47.456 50.1861 47.752 50.1861 48.12V58.8C50.1861 59.152 50.0741 59.448 49.8501 59.688C49.6261 59.912 49.3301 60.024 48.9621 60.024ZM56.9781 60.024C56.6261 60.024 56.3301 59.912 56.0901 59.688C55.8661 59.448 55.7541 59.152 55.7541 58.8V51.936C55.7541 50.928 55.5061 50.184 55.0101 49.704C54.5141 49.208 53.8661 48.96 53.0661 48.96C52.2341 48.96 51.5461 49.248 51.0021 49.824C50.4581 50.4 50.1861 51.136 50.1861 52.032H48.6741C48.6741 50.992 48.8821 50.08 49.2981 49.296C49.7141 48.496 50.2901 47.872 51.0261 47.424C51.7621 46.976 52.6021 46.752 53.5461 46.752C54.4581 46.752 55.2661 46.952 55.9701 47.352C56.6741 47.752 57.2181 48.344 57.6021 49.128C58.0021 49.896 58.2021 50.832 58.2021 51.936V58.8C58.2021 59.152 58.0901 59.448 57.8661 59.688C57.6421 59.912 57.3461 60.024 56.9781 60.024ZM73.3816 60C72.6776 60 72.0536 59.808 71.5096 59.424C70.9656 59.04 70.5416 58.52 70.2376 57.864C69.9336 57.192 69.7816 56.424 69.7816 55.56V42.456C69.7816 42.104 69.8936 41.816 70.1176 41.592C70.3416 41.368 70.6296 41.256 70.9816 41.256C71.3336 41.256 71.6216 41.368 71.8456 41.592C72.0696 41.816 72.1816 42.104 72.1816 42.456V55.56C72.1816 56.152 72.2936 56.64 72.5176 57.024C72.7416 57.408 73.0296 57.6 73.3816 57.6H73.9816C74.3016 57.6 74.5576 57.712 74.7496 57.936C74.9576 58.16 75.0616 58.448 75.0616 58.8C75.0616 59.152 74.9096 59.44 74.6056 59.664C74.3016 59.888 73.9096 60 73.4296 60H73.3816Z" fill="#101112"/>
</svg>
