<?xml version="1.0" encoding="UTF-8"?>
<svg id="Layer_1" xmlns="http://www.w3.org/2000/svg" xmlns:xlink="http://www.w3.org/1999/xlink" version="1.1" viewBox="0 0 83.800003 56.200001">
  <!-- Generator: Adobe Illustrator 29.1.0, SVG Export Plug-In . SVG Version: 2.1.0 Build 142)  -->
  <defs>
    <style>
      .st0 {
        fill: url(#linear-gradient2);
      }

      .st1 {
        fill: url(#linear-gradient1);
      }

      .st2 {
        fill: url(#linear-gradient3);
      }

      .st3 {
        fill: url(#linear-gradient);
      }
    </style>
    <linearGradient id="linear-gradient" x1="-4.575458" y1="28.178461" x2="85.212596" y2="27.613757" gradientUnits="userSpaceOnUse">
      <stop offset=".103467" stop-color="#fdfdfd" stop-opacity="0"/>
      <stop offset=".5" stop-color="#fdfdfd" stop-opacity=".5"/>
      <stop offset=".930041" stop-color="#fdfdfd" stop-opacity="0"/>
    </linearGradient>
    <linearGradient id="linear-gradient1" x1="-4.572768" y1="28.60618" x2="85.215286" y2="28.041475" xlink:href="#linear-gradient"/>
    <linearGradient id="linear-gradient2" x1="-4.574396" y1="28.347341" x2="85.213658" y2="27.782636" xlink:href="#linear-gradient"/>
    <linearGradient id="linear-gradient3" x1="-4.574113" y1="28.392291" x2="85.213941" y2="27.827586" xlink:href="#linear-gradient"/>
  </defs>
  <path class="st3" d="M15.784981,27.850031v-2.820007c0-2.659973-2.159973-4.820007-4.820007-4.820007h-6.139954C2.164986,20.210016.005013,22.37005.005013,25.030024v6.140015c0,2.659973,2.159973,4.820007,4.820007,4.820007h6.139954c2.660034,0,4.820007-2.160034,4.820007-4.820007v-2.820007h11.780029v-.5h-11.780029ZM15.284981,31.170038c0,2.380005-1.929993,4.320007-4.320007,4.320007h-6.139954c-2.380005,0-4.320007-1.940002-4.320007-4.320007v-6.140015c0-2.380005,1.940002-4.320007,4.320007-4.320007h6.139954c2.390015,0,4.320007,1.940002,4.320007,4.320007v6.140015Z"/>
  <path class="st1" d="M78.974983,20.210016h-6.140015c-2.659973,0-4.819946,2.160034-4.819946,4.820007v2.820007h-11.780029v.5h11.780029v2.820007c0,2.659973,2.159973,4.820007,4.819946,4.820007h6.140015c2.660034,0,4.820007-2.160034,4.820007-4.820007v-6.140015c0-2.659973-2.159973-4.820007-4.820007-4.820007ZM83.294991,31.170038c0,2.380005-1.940002,4.320007-4.320007,4.320007h-6.140015c-2.379944,0-4.319946-1.940002-4.319946-4.320007v-6.140015c0-2.380005,1.940002-4.320007,4.319946-4.320007h6.140015c2.380005,0,4.320007,1.940002,4.320007,4.320007v6.140015Z"/>
  <polygon class="st0" points="44.125008 27.810053 44.125008 28.310053 42.154976 28.310053 42.154976 30.280024 41.654976 30.280024 41.654976 28.310053 39.674995 28.310053 39.674995 27.810053 41.654976 27.810053 41.654976 25.830011 42.154976 25.830011 42.154976 27.810053 44.125008 27.810053"/>
  <path class="st2" d="M72.834969,15.810053h6.140015c2.660034,0,4.820007-2.170044,4.820007-4.820007v-6.150024c0-2.650024-2.159973-4.820007-4.820007-4.820007h-6.140015c-2.659973,0-4.819946,2.169983-4.819946,4.820007v2.820007h-6.070007c-.98999,0-1.890015.590027-2.299988,1.51001l-6.310059,16.809998c-.419983,1.119995-1.509949,1.869995-2.709961,1.869995h-.830017v-2.820007c0-2.659973-2.159973-4.820007-4.820007-4.820007h-6.140015c-2.659973,0-4.829956,2.160034-4.829956,4.820007v2.820007h-.830017c-1.200012,0-2.289978-.75-2.710022-1.869995l-6.309998-16.830017c-.409973-.899963-1.309998-1.48999-2.299988-1.48999h-6.070007v-2.820007C15.784981,2.189997,13.625008.020014,10.964973.020014h-6.139954C2.164986.020014.005013,2.189997.005013,4.840021v6.150024C.005013,13.640009,2.164986,15.810053,4.82502,15.810053h6.139954c2.660034,0,4.820007-2.170044,4.820007-4.820007v-2.830017h6.070007c.790039,0,1.52002.469971,1.840027,1.179993l6.309998,16.809998c.339966.910034,1.049988,1.600037,1.919983,1.950012-.869995.349976-1.580017,1.039978-1.919983,1.950012l-6.309998,16.789978c-.320007.72998-1.049988,1.200012-1.840027,1.200012h-6.070007v-2.820007c0-2.659973-2.159973-4.820007-4.820007-4.820007h-6.139954C2.164986,40.400019.005013,42.560053.005013,45.220026v6.139954c0,2.660034,2.159973,4.820007,4.820007,4.820007h6.139954c2.660034,0,4.820007-2.159973,4.820007-4.820007v-2.819946h6.070007c.98999,0,1.890015-.590027,2.299988-1.51001l6.309998-16.809998c.420044-1.119995,1.51001-1.869995,2.710022-1.869995h.830017v2.820007c0,2.659973,2.169983,4.820007,4.829956,4.820007h6.140015c2.660034,0,4.820007-2.160034,4.820007-4.820007v-2.820007h.830017c1.200012,0,2.289978.75,2.709961,1.869995l6.310059,16.830017c.409973.899963,1.309998,1.48999,2.299988,1.48999h6.070007v2.819946c0,2.660034,2.159973,4.820007,4.819946,4.820007h6.140015c2.660034,0,4.820007-2.159973,4.820007-4.820007v-6.139954c0-2.659973-2.159973-4.820007-4.820007-4.820007h-6.140015c-2.659973,0-4.819946,2.160034-4.819946,4.820007v2.820007h-6.070007c-.790039,0-1.51001-.470032-1.830017-1.179993l-6.309998-16.809998c-.340027-.910034-1.059998-1.600037-1.929993-1.950012.869995-.349976,1.589966-1.039978,1.929993-1.950012l6.299988-16.789978c.330017-.730042,1.049988-1.200012,1.840027-1.200012h6.070007v2.830017c0,2.649963,2.159973,4.820007,4.819946,4.820007ZM68.515022,4.840021c0-2.380005,1.940002-4.320007,4.319946-4.320007h6.140015c2.380005,0,4.320007,1.940002,4.320007,4.320007v6.150024c0,2.380005-1.940002,4.320007-4.320007,4.320007h-6.140015c-2.379944,0-4.319946-1.940002-4.319946-4.320007v-6.150024ZM15.284981,10.990046c0,2.380005-1.929993,4.320007-4.320007,4.320007h-6.139954c-2.380005,0-4.320007-1.940002-4.320007-4.320007v-6.150024C.505013,2.460016,2.445015.520014,4.82502.520014h6.139954c2.390015,0,4.320007,1.940002,4.320007,4.320007v6.150024ZM15.284981,51.35998c0,2.380005-1.929993,4.320007-4.320007,4.320007h-6.139954c-2.380005,0-4.320007-1.940002-4.320007-4.320007v-6.139954c0-2.390015,1.940002-4.320007,4.320007-4.320007h6.139954c2.390015,0,4.320007,1.929993,4.320007,4.320007v6.139954ZM49.294991,31.170038c0,2.380005-1.940002,4.320007-4.320007,4.320007h-6.140015c-2.389954,0-4.329956-1.940002-4.329956-4.320007v-6.140015c0-2.380005,1.940002-4.320007,4.329956-4.320007h6.140015c2.380005,0,4.320007,1.940002,4.320007,4.320007v6.140015ZM68.515022,45.220026c0-2.390015,1.940002-4.320007,4.319946-4.320007h6.140015c2.380005,0,4.320007,1.929993,4.320007,4.320007v6.139954c0,2.380005-1.940002,4.320007-4.320007,4.320007h-6.140015c-2.379944,0-4.319946-1.940002-4.319946-4.320007v-6.139954Z"/>
</svg>
