<?xml version="1.0" encoding="UTF-8"?>
<svg id="Layer_1" xmlns="http://www.w3.org/2000/svg" xmlns:xlink="http://www.w3.org/1999/xlink" version="1.1" viewBox="0 0 83.800003 76.199997">
  <!-- Generator: Adobe Illustrator 29.1.0, SVG Export Plug-In . SVG Version: 2.1.0 Build 142)  -->
  <defs>
    <style>
      .st0 {
        fill: url(#linear-gradient);
      }
    </style>
    <linearGradient id="linear-gradient" x1=".000008" y1="38.099998" x2="83.799995" y2="38.099998" gradientUnits="userSpaceOnUse">
      <stop offset="0" stop-color="#fdfdfd" stop-opacity="0"/>
      <stop offset=".5" stop-color="#fdfdfd" stop-opacity=".5"/>
      <stop offset="1" stop-color="#fdfdfd" stop-opacity="0"/>
    </linearGradient>
  </defs>
  <path class="st0" d="M80.200005,0H3.600008C1.600008,0,.000008,1.6.000008,3.6v72.300002c0,.099998.1.199997.2.199997s.2-.099998.2-.199997V3.6C.500008,1.9,1.900008.5,3.600008.5h76.699996c1.699997,0,3.099998,1.4,3.099998,3.1v72.300002c0,.099998.099998.199997.199997.199997s.199997-.099998.199997-.199997V3.6c0-2-1.599998-3.6-3.599991-3.6ZM7.800008,4.4c0-.7-.6-1.3-1.3-1.3s-1.3.6-1.3,1.3.6,1.3,1.3,1.3,1.3-.6,1.3-1.3ZM11.300008,4.4c0-.7-.6-1.3-1.3-1.3s-1.3.6-1.3,1.3.6,1.3,1.3,1.3,1.3-.6,1.3-1.3ZM14.700007,4.4c0-.7-.6-1.3-1.3-1.3s-1.3.6-1.3,1.3.6,1.3,1.3,1.3,1.3-.6,1.3-1.3ZM61.400009,16.6c.099998,0,.200001-.1.200001-.200001s-.099998-.200001-.200001-.200001h-28.5c-.099998,0-.200001.1-.200001.200001s.099998.200001.200001.200001h28.5ZM3.900008,15.2v2.3c0,1.6,1.3,2.9,2.9,2.9h13.3c1.6,0,2.9-1.299999,2.9-2.9v-2.3c0-1.6-1.299999-2.900001-2.9-2.900001H6.900008c-1.6,0-2.9,1.3-2.9,2.9h-.1ZM6.900008,12.8h13.300001c1.299999,0,2.4,1.1,2.4,2.400001v2.299999c0,1.299999-1.1,2.4-2.4,2.4H6.900008c-1.3,0-2.4-1.1-2.4-2.4v-2.3c0-1.3,1.1-2.400001,2.4-2.4ZM8.200007,16.6h10.7c.1,0,.200001-.1.200001-.200001s-.1-.200001-.200001-.200001h-10.7c-.1,0-.2.1-.2.200001s.1.200001.2.200001ZM74.600006,25.200001H27.200008v-12.6c0-.1-.1-.2-.200001-.2s-.200001.1-.200001.2v12.6H6.900008c-1.6,0-2.9,1.299999-2.9,2.9v3.1c0,1.599998,1.3,2.900002,2.9,2.900002h19.799999v41.899998c0,.099998.1.199997.200001.199997s.200001-.099998.200001-.199997v-41.900002h47.499998c1.599998,0,2.900002-1.299999,2.900002-2.9v-3.1c0-1.6-1.300003-2.9-2.900002-2.9v.000002ZM77.100006,31.1c0,1.300001-1.099998,2.4-2.400002,2.4H6.900008c-1.3,0-2.4-1.099998-2.4-2.4v-3.1c0-1.299999,1.1-2.4,2.4-2.4h67.800004c1.300003,0,2.400002,1.1,2.400002,2.4v3.1h-.000008ZM19.900007,29.4h-10.7c-.1,0-.2.1-.2.200001s.1.200001.2.200001h10.7c.1,0,.200001-.1.200001-.200001s-.1-.200001-.200001-.200001ZM20.200008,38.799999H6.900008c-1.6,0-2.9,1.299999-2.9,2.900002v2.299999c0,1.599998,1.3,2.900002,2.9,2.900002h13.300001c1.6,0,2.9-1.299999,2.9-2.900002v-2.299999c0-1.599998-1.299999-2.900002-2.9-2.900002ZM22.600008,44c0,1.299999-1.1,2.400002-2.4,2.400002H6.900008c-1.3,0-2.4-1.099998-2.4-2.400002v-2.299999c0-1.299999,1.1-2.400002,2.4-2.400002h13.300001c1.299999,0,2.4,1.099998,2.4,2.400002v2.299999ZM18.900007,42.599998h-10.7c-.1,0-.2.099998-.2.200001s.1.200001.2.200001h10.7c.1,0,.200001-.099998.200001-.200001s-.1-.200001-.200001-.200001ZM20.200008,52.099998H6.900008c-1.6,0-2.9,1.299999-2.9,2.900002v2.299999c0,1.599998,1.3,2.900002,2.9,2.900002h13.300001c1.6,0,2.9-1.299999,2.9-2.900002v-2.299999c0-1.599998-1.299999-2.900002-2.9-2.900002ZM22.600008,57.299999c0,1.299999-1.1,2.400002-2.4,2.400002H6.900008c-1.3,0-2.4-1.099998-2.4-2.400002v-2.299999c0-1.299999,1.1-2.400002,2.4-2.400002h13.300001c1.299999,0,2.4,1.099998,2.4,2.400002v2.299999ZM18.900007,55.900002h-10.7c-.1,0-.2.099998-.2.200001s.1.200001.2.200001h10.7c.1,0,.200001-.099998.200001-.200001s-.1-.200001-.200001-.200001ZM20.200008,65.400002H6.900008c-1.6,0-2.9,1.300003-2.9,2.900002v2.300003c0,1.599998,1.3,2.900002,2.9,2.900002h13.300001c1.6,0,2.9-1.300003,2.9-2.900002v-2.300003c0-1.599998-1.299999-2.900002-2.9-2.900002ZM22.600008,70.599998c0,1.300003-1.1,2.400002-2.4,2.400002H6.900008c-1.3,0-2.4-1.099998-2.4-2.400002v-2.300003c0-1.300003,1.1-2.400002,2.4-2.400002h13.300001c1.299999,0,2.4,1.099998,2.4,2.400002v2.300003ZM18.900007,69.199997h-10.7c-.1,0-.2.099998-.2.199997s.1.199997.2.199997h10.7c.1,0,.200001-.099998.200001-.199997s-.1-.199997-.200001-.199997ZM77.300011,43h-38.099998c-.099998,0-.200001.099998-.200001.200001s.099998.200001.200001.200001h38.099998c.099998,0,.199997-.099998.199997-.200001s-.099998-.200001-.199997-.200001ZM32.900009,41c-1.200001,0-2.200001,1-2.200001,2.200001s1,2.200001,2.200001,2.200001,2.200001-1,2.200001-2.200001-1-2.200001-2.200001-2.200001ZM32.900009,54.299999c-1.200001,0-2.200001,1-2.200001,2.200001s1,2.200001,2.200001,2.200001,2.200001-1,2.200001-2.200001-1-2.200001-2.200001-2.200001ZM77.300011,56.200001h-38.099998c-.099998,0-.200001.099998-.200001.200001s.099998.200001.200001.200001h38.099998c.099998,0,.199997-.099998.199997-.200001s-.099998-.200001-.199997-.200001ZM32.900009,67.199997c-1.200001,0-2.200001,1-2.200001,2.199997s1,2.199997,2.200001,2.199997,2.200001-1,2.200001-2.199997-1-2.199997-2.200001-2.199997ZM77.300011,69.199997h-38.099998c-.099998,0-.200001.099998-.200001.199997s.099998.199997.200001.199997h38.099998c.099998,0,.199997-.099998.199997-.199997s-.099998-.199997-.199997-.199997Z"/>
</svg>
