<svg width="510" height="243" viewBox="0 0 510 243" fill="none" xmlns="http://www.w3.org/2000/svg">
<path d="M320.03 142.216C312.417 160.502 267.303 172.431 242.795 161.315C227.615 153.847 221.565 136.852 225.62 120.941C234.74 91.8281 265.533 78.5267 294.7 74.7159C331.886 68.2774 375.439 77.3618 379.051 119.894C377.434 158.245 330.378 157.586 320.021 142.216H320.03Z" fill="url(#paint0_linear_11826_79151)"/>
<g style="mix-blend-mode:soft-light">
<path d="M379.06 119.904C377.435 158.255 330.388 157.595 320.03 142.217C312.409 160.503 267.303 172.432 242.795 161.325C229.72 154.895 223.417 141.395 224.518 127.597C225.448 139.138 231.67 148.827 242.795 154.299C267.303 165.407 310.892 150.182 318.513 131.896C328.545 146.795 374.536 152.087 378.78 117.258C378.889 118.125 378.988 119.01 379.06 119.904Z" fill="#07080A"/>
</g>
<path d="M322.088 73.1992C320.508 73.2172 318.9 73.2533 317.275 73.3075H317.185C310.999 73.5242 304.515 74.0299 297.986 74.951C294.618 75.4115 291.232 75.9895 287.873 76.6848C270.706 80.2336 254.055 86.943 242.352 98.7545C239.968 101.138 237.792 103.757 235.859 106.593C230.594 114.304 227.533 124.256 228.138 133.837V133.855C228.4 138.072 229.375 142.208 231.181 146.045C237.819 160.15 251.499 164.945 266.02 165.334C265.704 165.343 265.379 165.352 265.063 165.343C264.268 165.361 263.473 165.361 262.679 165.343C262.2 165.334 261.73 165.325 261.252 165.307C260.782 165.28 260.313 165.261 259.843 165.234C258.678 165.162 257.522 165.063 256.385 164.927C255.211 164.792 254.046 164.62 252.899 164.413C252.231 164.286 251.572 164.16 250.912 164.006C250.596 163.934 250.271 163.862 249.955 163.79C249.937 163.781 249.919 163.771 249.901 163.771C249.567 163.69 249.224 163.6 248.899 163.51C248.664 163.446 248.447 163.383 248.221 163.32C248.194 163.311 248.167 163.302 248.14 163.293C247.797 163.194 247.445 163.085 247.102 162.977C246.731 162.859 246.37 162.733 246 162.607C245.268 162.354 244.555 162.074 243.842 161.776C243.499 161.631 243.155 161.487 242.821 161.333C242.812 161.324 242.794 161.324 242.785 161.315H242.776C242.776 161.315 242.749 161.297 242.731 161.297C242.695 161.279 242.668 161.261 242.632 161.252C242.623 161.243 242.605 161.243 242.596 161.234C241.864 160.891 241.151 160.53 240.455 160.141C240.221 160.015 239.995 159.879 239.76 159.744C239.534 159.618 239.318 159.482 239.092 159.347C238.803 159.175 238.514 158.986 238.234 158.796C238.099 158.706 237.963 158.615 237.837 158.525C237.629 158.39 237.421 158.245 237.223 158.092C237.015 157.947 236.816 157.794 236.609 157.64C236.076 157.243 235.552 156.818 235.046 156.376C234.848 156.204 234.649 156.033 234.459 155.852C234.234 155.653 234.008 155.437 233.791 155.22C233.556 155.003 233.34 154.787 233.132 154.561C232.987 154.416 232.843 154.263 232.708 154.109C231.85 153.188 231.064 152.186 230.315 151.129C230.26 151.057 230.206 150.994 230.161 150.922C230.134 150.885 230.107 150.84 230.08 150.804C229.98 150.66 229.872 150.533 229.782 150.389C229.701 150.299 229.637 150.199 229.583 150.1C229.484 149.964 229.393 149.82 229.312 149.675C229.105 149.35 228.906 149.025 228.707 148.691C228.463 148.276 228.229 147.851 227.994 147.418C227.985 147.418 227.985 147.4 227.976 147.382C227.75 146.948 227.533 146.497 227.317 146.045C227.226 145.847 227.136 145.639 227.046 145.431C226.973 145.269 226.901 145.097 226.829 144.935C226.82 144.908 226.811 144.88 226.793 144.853C226.793 144.835 226.784 144.817 226.775 144.799H226.766C226.766 144.799 226.757 144.781 226.757 144.772C226.757 144.772 226.748 144.727 226.739 144.709C226.739 144.709 226.736 144.703 226.73 144.691C226.486 144.131 226.269 143.553 226.07 142.984C225.917 142.542 225.772 142.09 225.637 141.639C225.52 141.25 225.411 140.871 225.312 140.474C225.231 140.176 225.158 139.878 225.095 139.58C225.005 139.191 224.924 138.803 224.851 138.415C224.698 137.656 224.58 136.898 224.481 136.13C224.427 135.679 224.382 135.218 224.337 134.758C224.3 134.378 224.273 133.999 224.255 133.62C224.228 133.25 224.219 132.879 224.21 132.518C224.201 132.157 224.192 131.796 224.192 131.426C224.192 130.92 224.201 130.423 224.228 129.927C224.219 129.8 224.228 129.674 224.228 129.547C224.246 129.186 224.264 128.816 224.3 128.455C224.3 128.292 224.319 128.12 224.337 127.958C224.337 127.922 224.337 127.877 224.346 127.832C224.382 127.398 224.427 126.956 224.481 126.522C224.553 125.917 224.635 125.321 224.743 124.716C224.824 124.201 224.915 123.696 225.023 123.181C225.24 122.097 225.502 121.014 225.8 119.948C225.908 119.542 226.025 119.145 226.152 118.747C226.152 118.747 226.152 118.729 226.161 118.72C226.206 118.594 226.242 118.467 226.278 118.341C226.423 117.88 226.576 117.429 226.739 116.977C226.811 116.761 226.892 116.544 226.973 116.327C227.262 115.532 227.578 114.756 227.913 113.988C228.039 113.708 228.156 113.428 228.292 113.149C228.418 112.86 228.554 112.571 228.698 112.291C228.761 112.146 228.834 112.002 228.906 111.857C229.086 111.487 229.276 111.117 229.466 110.756C229.637 110.421 229.818 110.096 230.008 109.771C230.315 109.22 230.631 108.688 230.965 108.155C231.091 107.938 231.227 107.73 231.362 107.523C231.561 107.207 231.768 106.9 231.976 106.593C232.202 106.268 232.428 105.942 232.662 105.626C232.834 105.374 233.024 105.112 233.213 104.859C233.285 104.76 233.358 104.651 233.448 104.552C233.656 104.263 233.863 103.983 234.08 103.712C234.225 103.531 234.36 103.36 234.505 103.188C234.875 102.728 235.245 102.267 235.633 101.825C236.78 100.479 237.99 99.1969 239.254 97.9688C239.697 97.5354 240.157 97.1019 240.618 96.6866C241.006 96.3253 241.404 95.9732 241.81 95.621C242.496 95.025 243.201 94.438 243.923 93.8782C244.23 93.6344 244.537 93.3906 244.844 93.1558C244.989 93.0384 245.142 92.93 245.296 92.8217C245.63 92.5688 245.964 92.325 246.298 92.0812C247.409 91.2775 248.537 90.5099 249.702 89.7695C250.199 89.4534 250.705 89.1374 251.21 88.8394C251.752 88.5052 252.294 88.1892 252.854 87.8731C253.955 87.241 255.084 86.636 256.222 86.0581C256.646 85.8414 257.08 85.6246 257.513 85.4169C257.947 85.2092 258.38 85.0016 258.823 84.7939C259.256 84.5862 259.699 84.3875 260.141 84.1888C261.171 83.7193 262.209 83.2768 263.266 82.8524C264.467 82.3647 265.677 81.8952 266.905 81.4527C267.988 81.0554 269.09 80.6761 270.192 80.3239C270.643 80.1795 271.095 80.035 271.555 79.8905C272.025 79.746 272.494 79.6015 272.973 79.457C273.443 79.3126 273.912 79.1681 274.391 79.0417C275.014 78.8611 275.646 78.6805 276.278 78.5089C277.452 78.1928 278.644 77.8948 279.836 77.6149C280.531 77.4523 281.217 77.2898 281.913 77.1363C282.057 77.1002 282.211 77.0641 282.364 77.037C282.906 76.9105 283.448 76.7931 283.99 76.6848C285.543 76.3597 287.096 76.0707 288.649 75.7998C292.803 75.0684 296.966 74.5176 301.075 74.1202C301.246 74.0931 301.418 74.0841 301.589 74.066C302.502 73.9757 303.414 73.8945 304.317 73.8222C310.249 73.3436 316.029 73.163 321.456 73.1901C321.663 73.1901 321.862 73.1901 322.07 73.1992H322.088Z" fill="url(#paint1_linear_11826_79151)"/>
<path d="M197.562 36.8979C193.002 34.9654 187.981 30.8928 185.832 26.0888C184.567 23.3617 184.179 20.4359 182.96 17.4921C179.79 9.62685 172.133 6.24055 164.412 8.75996C135.191 19.2801 149.756 62.3629 180.26 53.7933L197.571 36.8889L197.562 36.8979Z" fill="url(#paint2_linear_11826_79151)"/>
<path d="M182.61 41.4684C182.412 41.5316 182.204 41.5858 181.996 41.64C181.12 40.8273 179.721 39.7798 178.556 38.6149C176.082 36.258 174.158 33.2239 173.409 29.9008C172.461 26.2888 172.668 20.97 169.255 18.8299C170.51 18.1797 171.91 17.8817 173.355 18.1345L173.526 18.1707C177.788 19.4168 177.445 24.7897 178.366 28.3025C179.007 31.1831 180.678 33.8018 182.818 35.8426C184.299 37.3236 186.213 38.5878 186.502 39.3102C186.873 40.4209 184.019 40.9356 182.61 41.4684Z" fill="url(#paint3_linear_11826_79151)"/>
<path d="M158.996 24.4554C159.285 23.7239 160.323 21.2136 163.014 19.4798C166.437 17.2674 170.094 17.8995 170.979 18.0801C170.311 18.2697 169.362 18.6219 168.351 19.2721C166.13 20.7079 165.118 22.6494 164.667 23.5524C164.414 24.049 163.357 26.2343 163.366 29.2955C163.366 30.632 163.592 35.5444 167.484 38.9939C169.796 41.0528 172.306 41.6036 173.742 41.9197C177.39 42.7324 180.442 42.0822 181.996 41.6307C181.996 41.8384 171.557 46.0645 164.287 40.827C159.213 37.1698 156.883 29.7651 158.996 24.4464V24.4554Z" fill="url(#paint4_linear_11826_79151)"/>
<path d="M181.995 41.6402C177.209 42.9135 171.123 42.2904 167.484 39.0034C163.258 35.3733 161.804 28.402 164.666 23.5619C165.633 21.7017 167.267 19.8415 169.254 18.8301C172.667 20.9702 172.459 26.289 173.408 29.901C174.157 33.2241 176.081 36.2583 178.555 38.6151C179.72 39.78 181.119 40.8275 181.995 41.6402Z" fill="url(#paint5_linear_11826_79151)"/>
<path d="M279.99 24.6433C284.984 23.6951 287.007 21.5008 287.874 20.1733C288.325 19.4871 288.84 18.9272 289.689 14.5747C290.483 10.5021 290.962 8.10908 291.811 6.40238C293.68 2.64584 298.339 0.370244 302.105 0.0451588C309.961 -0.623072 317.854 6.92613 319.055 15.4867C320.048 22.5483 316.346 29.4202 310.882 33.0413C306.692 35.8226 302.024 36.1477 300.073 36.1386L279.99 24.6523V24.6433Z" fill="url(#paint6_linear_11826_79151)"/>
<path d="M311.767 33.042C307.577 35.8233 303.27 36.0761 301.328 36.0671L301.301 36.049C303.486 35.9678 307.216 35.4621 310.873 33.042C316.345 29.4209 320.039 22.549 319.045 15.4874C317.917 7.4235 310.855 0.262595 303.477 0.00975069C311.171 -0.306304 318.765 7.10744 319.939 15.4874C320.933 22.549 317.239 29.4209 311.767 33.042Z" fill="url(#paint7_linear_11826_79151)"/>
<path d="M216.308 58.3092C217.708 58.2099 219.099 58.1196 220.507 58.0293" stroke="#FDE178" stroke-width="2" stroke-linecap="round" stroke-linejoin="round"/>
<path d="M450.886 187.168C450.886 187.168 450.904 187.168 450.913 187.168" stroke="#FDE178" stroke-linecap="round" stroke-linejoin="round"/>
<path d="M188.09 170.652C155.545 162.57 134.631 150 134.631 135.895C134.631 128.96 139.679 122.404 148.673 116.57" stroke="url(#paint8_linear_11826_79151)" stroke-linecap="round" stroke-linejoin="round"/>
<path d="M274.112 180.053C252.141 180.053 231.354 178.446 212.86 175.574" stroke="url(#paint9_linear_11826_79151)" stroke-linecap="round" stroke-linejoin="round"/>
<path d="M378.671 165.117C359.5 171.989 333.665 176.956 304.38 179.006" stroke="url(#paint10_linear_11826_79151)" stroke-linecap="round" stroke-linejoin="round"/>
<path d="M396.153 157.287C391.223 160.095 385.353 162.723 378.671 165.116" stroke="url(#paint11_linear_11826_79151)" stroke-linecap="round" stroke-linejoin="round"/>
<path d="M404.487 120.174C410.366 125.059 413.59 130.36 413.59 135.895C413.59 143.652 407.26 150.949 396.153 157.288" stroke="url(#paint12_linear_11826_79151)" stroke-linecap="round" stroke-linejoin="round"/>
<path d="M109.645 135.894C109.645 122.755 125.032 110.754 150.398 101.598" stroke="url(#paint13_linear_11826_79151)" stroke-linecap="round" stroke-linejoin="round"/>
<path d="M385.318 98.7168C389.364 100.071 409.329 107.061 410.539 118.691C411.803 130.837 392.515 147.001 359.97 153.277" stroke="url(#paint14_linear_11826_79151)" stroke-linecap="round" stroke-linejoin="round"/>
<path d="M408.552 94.9238C433.917 104.08 449.305 116.09 449.305 129.22" stroke="url(#paint15_linear_11826_79151)" stroke-linecap="round" stroke-linejoin="round"/>
<path d="M245.062 187.14C187.35 183.89 140.059 171.112 120.003 154.117" stroke="url(#paint16_linear_11826_79151)" stroke-linecap="round" stroke-linejoin="round"/>
<path d="M366.299 179.004C345.331 183.501 320.914 186.508 294.555 187.546" stroke="url(#paint17_linear_11826_79151)" stroke-linecap="round" stroke-linejoin="round"/>
<path d="M386.039 97.7598C418.349 107.259 438.568 120.832 438.568 135.894C438.568 150.956 416.489 165.748 381.606 175.293" stroke="url(#paint18_linear_11826_79151)" stroke-linecap="round" stroke-linejoin="round"/>
<path d="M173.326 186.644C120.672 175.699 85.8333 156.691 85.8333 135.064C85.8333 115.216 115.226 97.5526 160.829 86.3281" stroke="url(#paint19_linear_11826_79151)" stroke-linecap="round" stroke-linejoin="round"/>
<path d="M404.569 86.3281C451.535 97.7513 481.813 115.703 481.813 135.895C481.813 157.883 445.936 177.217 391.701 188.351" stroke="url(#paint20_linear_11826_79151)" stroke-linecap="round" stroke-linejoin="round"/>
<path d="M277.507 196.496C245.44 196.496 215.208 193.977 188.65 189.516" stroke="url(#paint21_linear_11826_79151)" stroke-linecap="round" stroke-linejoin="round"/>
<path d="M320.526 194.943C314.593 195.377 308.561 195.729 302.438 195.982" stroke="url(#paint22_linear_11826_79151)" stroke-linecap="round" stroke-linejoin="round"/>
<path d="M339.607 193.2C358.272 191.141 375.637 188.197 391.205 184.531" stroke="url(#paint23_linear_11826_79151)" stroke-linecap="round" stroke-linejoin="round"/>
<path d="M450.885 109.102C462.67 117.111 469.244 126.042 469.244 135.452C469.244 143.759 464.124 151.679 454.832 158.93" stroke="url(#paint24_linear_11826_79151)" stroke-linecap="round" stroke-linejoin="round"/>
<path d="M373.271 81.8574H373.28C398.772 86.5531 420.643 93.0096 437.222 100.694" stroke="url(#paint25_linear_11826_79151)" stroke-linecap="round" stroke-linejoin="round"/>
<path d="M305.156 67.6816C305.382 67.6907 305.599 67.6997 305.824 67.7087H305.834" stroke="url(#paint26_linear_11826_79151)" stroke-width="2" stroke-linecap="round" stroke-linejoin="round"/>
<path d="M296.299 67.3379H296.289" stroke="url(#paint27_linear_11826_79151)" stroke-width="2" stroke-linecap="round" stroke-linejoin="round"/>
<path d="M297.95 67.3828H297.959C298.058 67.3918 298.149 67.3918 298.248 67.3918" stroke="url(#paint28_linear_11826_79151)" stroke-width="2" stroke-linecap="round" stroke-linejoin="round"/>
<path d="M352.466 71.582C434.008 81.5423 491.855 106.574 491.855 135.895C491.855 146.198 484.712 155.987 471.889 164.764" stroke="url(#paint29_linear_11826_79151)" stroke-linecap="round" stroke-linejoin="round"/>
<path d="M156.791 77.8223C132.067 82.834 110.774 89.3899 94.2305 97.0565H94.2214" stroke="url(#paint30_linear_11826_79151)" stroke-linecap="round" stroke-linejoin="round"/>
<path d="M74.9151 108.027L74.8699 108.045C62.9682 116.561 56.3582 125.979 56.3582 135.885C56.3582 173.947 153.848 204.812 274.111 204.812C322.495 204.812 367.185 199.819 403.341 191.367" stroke="url(#paint31_linear_11826_79151)" stroke-linecap="round" stroke-linejoin="round"/>
<path d="M159.536 70.8516C128.617 76.3238 101.987 83.9362 81.678 93.0657" stroke="url(#paint32_linear_11826_79151)" stroke-linecap="round" stroke-linejoin="round"/>
<path d="M47.3738 116.633C40.8721 123.451 37.3774 130.684 37.3774 138.17C37.3774 147.01 42.2537 155.499 51.1936 163.373" stroke="url(#paint33_linear_11826_79151)" stroke-linecap="round" stroke-linejoin="round"/>
<path d="M172.468 205.563C121.629 197.977 80.7581 184.802 57.7764 168.539" stroke="url(#paint34_linear_11826_79151)" stroke-linecap="round" stroke-linejoin="round"/>
<path d="M394.554 199.865C359.328 208.751 318.123 213.853 274.101 213.853C255.048 213.853 236.527 212.896 218.792 211.09" stroke="url(#paint35_linear_11826_79151)" stroke-linecap="round" stroke-linejoin="round"/>
<path d="M486.663 167.825C501.201 158.154 509.337 147.318 509.337 135.895C509.337 119.072 491.702 103.54 461.965 91.0781H461.956" stroke="url(#paint36_linear_11826_79151)" stroke-linecap="round" stroke-linejoin="round"/>
<path d="M433.521 81.1356H433.512C404.01 72.5298 367.547 66.272 327.092 63.3281" stroke="url(#paint37_linear_11826_79151)" stroke-linecap="round" stroke-linejoin="round"/>
<path d="M166.878 56.4648C126.116 61.9913 90.4555 70.5609 62.7781 81.2797" stroke="url(#paint38_linear_11826_79151)" stroke-linecap="round" stroke-linejoin="round"/>
<path d="M27.4616 98.9434C10.6746 110.141 1.2832 122.675 1.2832 135.895" stroke="url(#paint39_linear_11826_79151)" stroke-linecap="round" stroke-linejoin="round"/>
<path d="M26.3329 172.096C15.1807 164.466 7.4509 156.221 3.75757 147.57" stroke="url(#paint40_linear_11826_79151)" stroke-linecap="round" stroke-linejoin="round"/>
<path d="M185.272 217.149C185.272 217.149 237.611 222.251 274.111 222.251C333.439 222.251 388.351 216.264 433.114 206.078" stroke="url(#paint41_linear_11826_79151)" stroke-linecap="round" stroke-linejoin="round"/>
<path d="M156.602 213.843H156.593C130.424 209.897 106.593 204.659 85.8511 198.393H85.842" stroke="url(#paint42_linear_11826_79151)" stroke-linecap="round" stroke-linejoin="round"/>
<path d="M299.803 49.9283C299.803 49.9283 299.793 49.9183 299.793 49.9283" stroke="url(#paint43_linear_11826_79151)" stroke-width="2" stroke-linecap="round" stroke-linejoin="round"/>
<path d="M173.136 215.216C173.136 215.216 233.033 201.969 239.02 194.943C239.02 194.943 261.867 212.498 302.999 211.821L229.232 242.081C221.764 237.051 212.815 231.714 202.376 226.693C191.766 221.6 181.842 217.916 173.136 215.216Z" fill="url(#paint44_linear_11826_79151)"/>
<path d="M14.2324 121.105C14.2324 121.105 45.7296 116.111 56.358 109.971C56.358 109.971 68.8829 126.09 98.4837 130.695L50.1002 148.927C50.1002 148.927 29.99 141.061 14.2415 121.105H14.2324Z" fill="url(#paint45_linear_11826_79151)"/>
<path d="M393.453 185.019C393.453 185.019 428.165 178.924 449.719 157.992C449.719 157.992 467.4 170.914 500.035 171.501C500.035 171.501 466.037 201.499 445.981 209.32C445.981 209.32 415.721 192.83 393.462 185.01L393.453 185.019Z" fill="url(#paint46_linear_11826_79151)"/>
<path d="M422.251 104.137C417.718 102.331 413.437 100.389 410.421 98.4931C410.421 98.4931 436.085 92.3074 445.756 85.291C445.756 85.291 465.523 94.276 480.558 94.2128L470.408 99.36L449.179 110.142L445.539 111.984C445.539 111.984 433.159 108.471 422.26 104.137H422.251Z" fill="url(#paint47_linear_11826_79151)"/>
<path d="M322.675 73.2719C321.393 68.3595 313.582 40.1132 284.541 25.5024C259.518 12.9144 235.462 19.5606 227.515 21.8452C199.883 29.8008 184.523 48.4751 180.26 53.8029C171.077 65.2802 166.851 76.1616 164.62 82.0221C158.38 98.4389 157.188 113.023 157.143 122.477C162.787 127.633 172.838 135.49 187.403 140.664C204.299 146.66 219.018 146.118 226.955 145.251C226.341 143.599 225.628 141.197 225.303 138.235C225.303 138.235 224.933 134.821 225.42 130.975C227.244 116.626 235.164 105.139 235.164 105.139C244.916 90.9981 260.015 85.3452 271.79 80.9385C290.771 73.8318 308.461 73.308 322.675 73.2719Z" fill="url(#paint48_linear_11826_79151)"/>
<path d="M223.732 46.2076C220.364 48.9979 214.793 59.2381 215.994 61.6762C216.156 61.9562 216.409 61.9381 216.707 61.7846C220.698 58.1093 224.482 53.2059 229.909 51.436C232.853 50.3344 236.384 50.0364 239.075 48.2845C241.495 46.8758 242.371 43.4263 240.122 41.4939C237.675 39.3808 234.307 39.7781 231.263 41.0153C228.771 42.0627 226.252 43.7333 223.895 46.0541L223.732 46.2166V46.2076Z" fill="url(#paint49_linear_11826_79151)"/>
<path d="M298.717 34.3978C296.063 32.6821 293.028 31.2102 291.159 30.867L290.97 30.8128C288.089 30.0272 285.362 29.8286 282.942 30.1085C279.998 30.4787 277.172 31.6617 276.187 34.4068C275.284 36.9263 277.497 39.247 280.016 39.2831C282.915 39.4818 285.813 38.1453 288.613 37.7119C293.507 36.7276 299.169 38.5427 303.81 39.6895C303.115 38.6239 301.706 37.6938 300.695 36.5109C300.027 35.7252 299.359 35.0209 298.717 34.3888V34.3978Z" fill="url(#paint50_linear_11826_79151)"/>
<path d="M371.519 31.091C375.484 30.6214 380.477 29.6462 385.968 27.5783C389.769 26.1515 393.002 24.499 395.657 22.9277C397.824 23.9572 400.28 24.9234 402.962 25.8987C407.044 27.3886 411.974 28.8696 415.37 28.8696L393.444 39.7509C393.444 39.7509 378.825 32.7796 371.519 31.082V31.091Z" fill="url(#paint51_linear_11826_79151)"/>
<path d="M71.0961 9.30078C71.0961 9.30078 82.9888 15.5767 94.2042 12.1092C94.2042 12.1092 94.737 30.8106 88.461 36.5538C88.461 36.5538 69.0914 29.0768 59.2034 28.535C59.2034 28.535 70.2924 24.1283 71.0961 9.30078Z" fill="url(#paint52_linear_11826_79151)"/>
<path d="M284.151 114.214C288.28 114.214 291.628 110.11 291.628 105.048C291.628 99.9864 288.28 95.8828 284.151 95.8828C280.021 95.8828 276.674 99.9864 276.674 105.048C276.674 110.11 280.021 114.214 284.151 114.214Z" fill="#81184C"/>
<g style="mix-blend-mode:soft-light">
<path d="M290.825 102.312C291.61 103.468 294.41 107.848 293.732 113.835C293.597 115.054 292.965 120.607 288.378 124.292C283.041 128.572 275.473 127.814 270.399 125.059C262.407 120.716 261.341 111.794 261.224 110.656C261.17 110.16 260.529 102.601 265.685 96.3796C268.863 92.5508 273.379 90.3655 273.974 91.0247C274.643 91.7652 269.496 95.1696 268.114 101.734C266.841 107.803 269.459 112.923 270.155 114.232C271.085 115.975 275.221 123.732 281.758 123.407C284.594 123.262 287.881 121.61 289.533 118.431C291.43 114.81 290.716 110.539 290.491 109.952C290.906 109.049 290.852 108.336 291.051 106.566C291.249 104.787 291.05 103.306 290.834 102.33L290.825 102.312Z" fill="#2B313D"/>
</g>
<g style="mix-blend-mode:soft-light">
<path d="M285.733 96.0998C285.263 95.7927 284.495 95.3593 283.466 95.1335C283.466 95.1335 281.362 94.673 279.104 95.6031C274.869 97.364 271.953 105.654 274.905 111.171C275.24 111.803 276.432 114.025 278.888 115.298C281.506 116.652 283.692 115.93 286.22 117.781C287.286 118.558 287.963 119.47 288.378 120.12C289.209 119.118 290.103 117.682 290.573 115.352C291.087 112.824 290.663 110.584 290.383 109.455C289.173 109.817 286.356 110.476 283.132 109.446C281.552 108.941 278.319 107.902 277.38 105.049C276.35 101.924 278.527 98.1496 281.525 96.7138C283.222 95.8921 284.875 95.9824 285.742 96.0998H285.733Z" fill="#8C1D55"/>
</g>
<path d="M346.234 102.764C349.096 102.764 351.417 99.5212 351.417 95.5215C351.417 91.5217 349.096 88.2793 346.234 88.2793C343.371 88.2793 341.05 91.5217 341.05 95.5215C341.05 99.5212 343.371 102.764 346.234 102.764Z" fill="#81184C"/>
<g style="mix-blend-mode:soft-light">
<path d="M341.52 93.3546C340.96 94.2666 338.983 97.7342 339.461 102.457C339.561 103.423 340.003 107.812 343.245 110.72C347.01 114.106 352.365 113.51 355.95 111.325C361.594 107.893 362.353 100.841 362.434 99.9376C362.47 99.5493 362.922 93.5713 359.282 88.6499C357.034 85.6158 353.846 83.9 353.422 84.4148C352.943 85.0017 356.591 87.6927 357.567 92.876C358.47 97.671 356.619 101.726 356.122 102.755C355.463 104.128 352.546 110.268 347.922 110.015C345.918 109.907 343.597 108.588 342.423 106.087C341.087 103.225 341.701 99.6667 341.854 99.1971C341.556 98.4837 341.484 98.0954 341.349 96.6958C341.213 95.287 341.349 94.1222 341.502 93.3456L341.52 93.3546Z" fill="#07080A"/>
</g>
<g style="mix-blend-mode:soft-light">
<path d="M345.115 88.4415C345.449 88.1977 345.99 87.8545 346.713 87.6829C346.713 87.6829 348.203 87.3217 349.801 88.0532C352.799 89.4438 354.858 95.9997 352.772 100.361C352.537 100.858 351.688 102.619 349.964 103.621C348.113 104.696 346.568 104.127 344.78 105.59C344.031 106.204 343.543 106.926 343.254 107.441C342.613 106.565 342.053 105.608 341.719 103.766C341.358 101.77 341.638 99.8917 341.828 99.0067C342.685 99.2957 344.672 99.8194 346.957 99.0067C348.076 98.6094 350.352 97.7877 351.02 95.5301C351.752 93.0649 350.208 90.0759 348.094 88.9381C346.893 88.288 345.729 88.3602 345.115 88.4505V88.4415Z" fill="#8C1D55"/>
</g>
<path d="M239.904 91.7833C251.065 91.7833 260.114 83.4629 260.114 73.1993C260.114 62.9356 251.065 54.6152 239.904 54.6152C228.743 54.6152 219.695 62.9356 219.695 73.1993C219.695 83.4629 228.743 91.7833 239.904 91.7833Z" fill="url(#paint53_linear_11826_79151)"/>
<path d="M300.181 74.1647C306.914 74.1647 312.372 68.4601 312.372 61.4232C312.372 54.3862 306.914 48.6816 300.181 48.6816C293.448 48.6816 287.99 54.3862 287.99 61.4232C287.99 68.4601 293.448 74.1647 300.181 74.1647Z" fill="url(#paint54_linear_11826_79151)"/>
<path d="M243.354 88.5778C250.73 88.5778 256.709 82.2587 256.709 74.4637C256.709 66.6687 250.73 60.3496 243.354 60.3496C235.978 60.3496 229.998 66.6687 229.998 74.4637C229.998 82.2587 235.978 88.5778 243.354 88.5778Z" fill="#FFF7F3"/>
<path d="M245.855 85.5707C251.092 85.5707 255.337 81.3256 255.337 76.0891C255.337 70.8525 251.092 66.6074 245.855 66.6074C240.619 66.6074 236.374 70.8525 236.374 76.0891C236.374 81.3256 240.619 85.5707 245.855 85.5707Z" fill="#845E66"/>
<path d="M247.012 83.981C250.936 83.981 254.118 80.7992 254.118 76.8743C254.118 72.9494 250.936 69.7676 247.012 69.7676C243.087 69.7676 239.905 72.9494 239.905 76.8743C239.905 80.7992 243.087 83.981 247.012 83.981Z" fill="black"/>
<path d="M247.164 69.9316C247.688 69.9678 249.088 70.1393 250.415 71.2049C251.914 72.4059 252.339 73.9681 252.456 74.4557" stroke="white" stroke-width="4" stroke-linecap="round" stroke-linejoin="round"/>
<path d="M182.888 120.735C185.579 118.513 189.29 122.785 191.322 124.193C194.112 126.126 197.273 127.616 200.506 128.636C206.637 130.56 214.268 130.803 218.792 125.449C220.841 123.028 222.187 120.067 223.569 117.24C226.242 111.768 229.077 106.422 232.888 101.636C244.383 87.2059 259.906 81.5982 267.979 78.6905C283.267 73.1731 296.957 72.9473 305.806 73.6155C299.982 74.5005 292.441 75.9182 283.782 78.239C274.697 80.6771 268.71 82.2845 261.053 86.1133C252.971 90.1588 248.004 94.1862 241.927 99.1167C238.694 101.735 235.543 104.643 232.815 109.077C232.635 109.375 232.499 109.592 232.373 109.826C227.56 118.098 226.034 126.767 225.745 128.438C224.977 132.853 225.095 135.752 225.239 137.368C225.528 140.7 226.296 143.41 226.955 145.27C224.147 145.568 220.769 145.803 216.95 145.803C216.046 145.803 211.703 145.784 208.091 145.369C197.029 144.105 184.513 139.843 182.247 127.39C181.894 125.467 181.335 122.062 182.906 120.762L182.888 120.735Z" fill="url(#paint55_linear_11826_79151)"/>
<path d="M300.149 73.9708C305.809 72.981 309.444 66.7306 308.269 60.0101C307.093 53.2896 301.553 48.6439 295.893 49.6337C290.234 50.6234 286.599 56.8738 287.774 63.5943C288.949 70.3148 294.49 74.9605 300.149 73.9708Z" fill="#FFF7F3"/>
<path d="M306.844 66.1106C307.587 61.5324 304.478 57.2187 299.9 56.4755C295.322 55.7324 291.008 58.8413 290.265 63.4195C289.522 67.9976 292.631 72.3114 297.209 73.0546C301.787 73.7977 306.101 70.6888 306.844 66.1106Z" fill="#845E66"/>
<path d="M298.276 72.0704C301.812 72.0704 304.678 69.2039 304.678 65.668C304.678 62.1321 301.812 59.2656 298.276 59.2656C294.74 59.2656 291.874 62.1321 291.874 65.668C291.874 69.2039 294.74 72.0704 298.276 72.0704Z" fill="black"/>
<path d="M299.396 58.8848C299.92 58.9209 301.319 59.0925 302.647 60.158C304.146 61.359 304.57 62.9212 304.687 63.4089" stroke="white" stroke-width="4" stroke-linecap="round" stroke-linejoin="round"/>
<path d="M294.138 27.6334C294.301 27.6876 294.463 27.7237 294.626 27.7689C295.321 27.1187 296.441 26.2879 297.362 25.3578C299.331 23.4795 300.866 21.0685 301.462 18.4227C302.22 15.5511 302.049 11.3159 304.767 9.60923C303.765 9.09451 302.654 8.8507 301.507 9.05839L301.372 9.08548C297.976 10.0788 298.256 14.3501 297.516 17.1494C297.01 19.4431 295.674 21.529 293.976 23.1454C292.793 24.3193 291.276 25.3307 291.041 25.9086C290.743 26.7936 293.019 27.2 294.138 27.6244V27.6334Z" fill="url(#paint56_linear_11826_79151)"/>
<path d="M312.921 14.1059C312.687 13.519 311.865 11.5323 309.725 10.1507C306.998 8.38984 304.09 8.89553 303.385 9.03098C303.918 9.18449 304.668 9.46443 305.48 9.97914C307.241 11.126 308.054 12.6701 308.415 13.3835C308.614 13.7808 309.463 15.5237 309.454 17.9528C309.454 19.0183 309.273 22.9193 306.176 25.6735C304.334 27.308 302.338 27.7505 301.2 28.0033C298.292 28.6444 295.872 28.1297 294.635 27.7685C294.635 27.9311 302.943 31.2993 308.731 27.1274C312.768 24.2197 314.628 18.323 312.939 14.0879L312.921 14.1059Z" fill="url(#paint57_linear_11826_79151)"/>
<path d="M294.626 27.7678C298.437 28.7792 303.277 28.2825 306.176 25.6728C309.535 22.7831 310.7 17.2386 308.415 13.3828C307.648 11.9018 306.348 10.4209 304.767 9.61719C302.049 11.3239 302.221 15.55 301.462 18.4306C300.866 21.0764 299.331 23.4875 297.363 25.3658C296.432 26.2959 295.322 27.1266 294.626 27.7768V27.7678Z" fill="url(#paint58_linear_11826_79151)"/>
<path d="M357.297 102.284C356.89 103.585 356.439 104.452 356.186 104.885C355.527 106.05 353.739 109.229 350.343 109.96C349.738 110.095 348.736 110.222 347.436 109.96C349.052 108.985 352.104 106.854 354.479 102.98C357.053 98.7897 357.477 94.7713 357.559 92.875C358.525 97.363 357.802 100.623 357.288 102.275L357.297 102.284Z" fill="url(#paint59_linear_11826_79151)"/>
<path d="M267.077 103.142C267.158 101.029 267.655 99.4852 267.935 98.6363C268.567 96.7039 269.371 94.2477 271.664 92.6855C272.459 92.1436 273.218 91.8547 273.75 91.7012C272.468 93.4259 270.743 96.1801 269.624 99.8915C268.251 104.425 268.387 108.335 268.648 110.646C267.935 109.156 266.942 106.502 267.068 103.142H267.077Z" fill="url(#paint60_linear_11826_79151)"/>
<path d="M225.195 43.3276C226.712 41.964 228.121 41.2145 228.762 40.9075C230.144 40.2302 232.627 39.0202 235.652 39.5439C236.718 39.7245 237.548 40.0767 238.072 40.3386C236.79 40.3115 234.984 40.4018 232.907 40.9436C232.347 41.0881 230.189 41.6751 227.678 43.1741C224.346 45.1697 222.161 47.7072 220.852 49.5855C221.556 47.8517 222.838 45.4497 225.195 43.3366V43.3276Z" fill="url(#paint61_linear_11826_79151)"/>
<path d="M292.217 30.1073C291.702 29.9267 291.215 29.7913 290.763 29.6829C290.285 29.5655 289.21 29.3307 287.729 29.2585C286.311 29.1863 284.298 29.0869 281.923 29.8816C280.812 30.2518 279.891 30.7304 279.168 31.1819C280.604 30.8839 282.537 30.613 284.83 30.6491C285.363 30.6491 287.259 30.7033 289.806 31.2C291.955 31.6244 295.08 32.4642 298.637 34.3063C297.5 33.1053 295.387 31.218 292.217 30.1164V30.1073Z" fill="url(#paint62_linear_11826_79151)"/>
<path d="M364.964 88.875C369.154 92.7309 375.962 100.253 378.121 111.333C378.527 113.41 378.726 115.397 378.78 117.248C378.175 115.451 375.15 106.538 373.84 103.648C371.104 97.5891 367.898 92.6767 364.964 88.875Z" fill="url(#paint63_linear_11826_79151)"/>
<defs>
<linearGradient id="paint0_linear_11826_79151" x1="303.866" y1="155.897" x2="297.689" y2="69.4423" gradientUnits="userSpaceOnUse">
<stop stop-color="#BE4D92"/>
<stop offset="1" stop-color="#FFA9E0"/>
</linearGradient>
<linearGradient id="paint1_linear_11826_79151" x1="256.285" y1="87.4487" x2="246.849" y2="75.7186" gradientUnits="userSpaceOnUse">
<stop stop-color="#F4B3DF" stop-opacity="0"/>
<stop offset="1" stop-color="#FF97D0"/>
</linearGradient>
<linearGradient id="paint2_linear_11826_79151" x1="184.306" y1="51.6802" x2="153.206" y2="11.3877" gradientUnits="userSpaceOnUse">
<stop stop-color="#BE4D92"/>
<stop offset="1" stop-color="#FFA9E0"/>
</linearGradient>
<linearGradient id="paint3_linear_11826_79151" x1="172.307" y1="20.1392" x2="187.992" y2="50.8688" gradientUnits="userSpaceOnUse">
<stop stop-color="#770050"/>
<stop offset="1" stop-color="#FE8DE3" stop-opacity="0"/>
</linearGradient>
<linearGradient id="paint4_linear_11826_79151" x1="158.219" y1="30.6591" x2="181.996" y2="30.6591" gradientUnits="userSpaceOnUse">
<stop stop-color="#BE4D92"/>
<stop offset="1" stop-color="#FFA9E0" stop-opacity="0"/>
</linearGradient>
<linearGradient id="paint5_linear_11826_79151" x1="167.565" y1="26.7224" x2="181.715" y2="55.655" gradientUnits="userSpaceOnUse">
<stop stop-color="#770050"/>
<stop offset="1" stop-color="#FE8DE3" stop-opacity="0"/>
</linearGradient>
<linearGradient id="paint6_linear_11826_79151" x1="279.99" y1="18.0693" x2="319.217" y2="18.0693" gradientUnits="userSpaceOnUse">
<stop stop-color="#BE4D92"/>
<stop offset="1" stop-color="#FFA9E0"/>
</linearGradient>
<linearGradient id="paint7_linear_11826_79151" x1="301.301" y1="18.0339" x2="320.102" y2="18.0339" gradientUnits="userSpaceOnUse">
<stop stop-color="#FF76C9" stop-opacity="0"/>
<stop offset="1" stop-color="#FFB3AD"/>
</linearGradient>
<linearGradient id="paint8_linear_11826_79151" x1="170.68" y1="141.268" x2="149.45" y2="159.671" gradientUnits="userSpaceOnUse">
<stop offset="0.23" stop-color="#FF9189" stop-opacity="0"/>
<stop offset="1" stop-color="#F9B8D4"/>
</linearGradient>
<linearGradient id="paint9_linear_11826_79151" x1="260.205" y1="163.32" x2="226.766" y2="192.307" gradientUnits="userSpaceOnUse">
<stop offset="0.23" stop-color="#FF9189" stop-opacity="0"/>
<stop offset="1" stop-color="#F9B8D4"/>
</linearGradient>
<linearGradient id="paint10_linear_11826_79151" x1="366.517" y1="150.407" x2="316.535" y2="193.725" gradientUnits="userSpaceOnUse">
<stop offset="0.23" stop-color="#FF9189" stop-opacity="0"/>
<stop offset="1" stop-color="#F9B8D4"/>
</linearGradient>
<linearGradient id="paint11_linear_11826_79151" x1="394.681" y1="154.903" x2="380.143" y2="167.5" gradientUnits="userSpaceOnUse">
<stop offset="0.23" stop-color="#FF9189" stop-opacity="0"/>
<stop offset="1" stop-color="#F9B8D4"/>
</linearGradient>
<linearGradient id="paint12_linear_11826_79151" x1="412.994" y1="128.527" x2="388.802" y2="149.495" gradientUnits="userSpaceOnUse">
<stop offset="0.23" stop-color="#FF9189" stop-opacity="0"/>
<stop offset="1" stop-color="#F9B8D4"/>
</linearGradient>
<linearGradient id="paint13_linear_11826_79151" x1="148.195" y1="98.3649" x2="107.261" y2="133.844" gradientUnits="userSpaceOnUse">
<stop offset="0.23" stop-color="#FF9189" stop-opacity="0"/>
<stop offset="1" stop-color="#F9B8D4"/>
</linearGradient>
<linearGradient id="paint14_linear_11826_79151" x1="369.513" y1="125.214" x2="405.694" y2="137.878" gradientUnits="userSpaceOnUse">
<stop offset="0.23" stop-color="#FF9189" stop-opacity="0"/>
<stop offset="1" stop-color="#F9B8D4"/>
</linearGradient>
<linearGradient id="paint15_linear_11826_79151" x1="410.755" y1="91.691" x2="451.689" y2="127.17" gradientUnits="userSpaceOnUse">
<stop offset="0.23" stop-color="#FF9189" stop-opacity="0"/>
<stop offset="1" stop-color="#F9B8D4"/>
</linearGradient>
<linearGradient id="paint16_linear_11826_79151" x1="210.413" y1="146.469" x2="154.652" y2="194.789" gradientUnits="userSpaceOnUse">
<stop offset="0.23" stop-color="#FF9189" stop-opacity="0"/>
<stop offset="1" stop-color="#F9B8D4"/>
</linearGradient>
<linearGradient id="paint17_linear_11826_79151" x1="353.368" y1="163.4" x2="307.486" y2="203.16" gradientUnits="userSpaceOnUse">
<stop offset="0.23" stop-color="#FF9189" stop-opacity="0"/>
<stop offset="1" stop-color="#F9B8D4"/>
</linearGradient>
<linearGradient id="paint18_linear_11826_79151" x1="423.984" y1="111.323" x2="367.781" y2="160.032" gradientUnits="userSpaceOnUse">
<stop offset="0.23" stop-color="#FF9189" stop-opacity="0"/>
<stop offset="1" stop-color="#F9B8D4"/>
</linearGradient>
<linearGradient id="paint19_linear_11826_79151" x1="181.923" y1="109.969" x2="110.115" y2="172.205" gradientUnits="userSpaceOnUse">
<stop offset="0.23" stop-color="#FF9189" stop-opacity="0"/>
<stop offset="1" stop-color="#F9B8D4"/>
</linearGradient>
<linearGradient id="paint20_linear_11826_79151" x1="383.267" y1="110.213" x2="456.79" y2="173.93" gradientUnits="userSpaceOnUse">
<stop offset="0.23" stop-color="#FF9189" stop-opacity="0"/>
<stop offset="1" stop-color="#F9B8D4"/>
</linearGradient>
<linearGradient id="paint21_linear_11826_79151" x1="257.062" y1="172.214" x2="209.094" y2="213.789" gradientUnits="userSpaceOnUse">
<stop offset="0.23" stop-color="#FF9189" stop-opacity="0"/>
<stop offset="1" stop-color="#F9B8D4"/>
</linearGradient>
<linearGradient id="paint22_linear_11826_79151" x1="317.248" y1="190.464" x2="305.726" y2="200.452" gradientUnits="userSpaceOnUse">
<stop offset="0.23" stop-color="#FF9189" stop-opacity="0"/>
<stop offset="1" stop-color="#F9B8D4"/>
</linearGradient>
<linearGradient id="paint23_linear_11826_79151" x1="382.626" y1="173.939" x2="348.185" y2="203.793" gradientUnits="userSpaceOnUse">
<stop offset="0.23" stop-color="#FF9189" stop-opacity="0"/>
<stop offset="1" stop-color="#F9B8D4"/>
</linearGradient>
<linearGradient id="paint24_linear_11826_79151" x1="466.074" y1="122.62" x2="441.35" y2="144.048" gradientUnits="userSpaceOnUse">
<stop offset="0.23" stop-color="#FF9189" stop-opacity="0"/>
<stop offset="1" stop-color="#F9B8D4"/>
</linearGradient>
<linearGradient id="paint25_linear_11826_79151" x1="419.189" y1="79.1935" x2="391.304" y2="103.358" gradientUnits="userSpaceOnUse">
<stop offset="0.23" stop-color="#FF9189" stop-opacity="0"/>
<stop offset="1" stop-color="#F9B8D4"/>
</linearGradient>
<linearGradient id="paint26_linear_11826_79151" x1="306.366" y1="66.941" x2="304.632" y2="68.449" gradientUnits="userSpaceOnUse">
<stop offset="0.23" stop-color="#FF9189" stop-opacity="0"/>
<stop offset="1" stop-color="#F9B8D4"/>
</linearGradient>
<linearGradient id="paint27_linear_11826_79151" x1="nan" y1="nan" x2="nan" y2="nan" gradientUnits="userSpaceOnUse">
<stop offset="0.23" stop-color="#FF9189" stop-opacity="0"/>
<stop offset="1" stop-color="#F9B8D4"/>
</linearGradient>
<linearGradient id="paint28_linear_11826_79151" x1="298.862" y1="66.733" x2="297.337" y2="68.0514" gradientUnits="userSpaceOnUse">
<stop offset="0.23" stop-color="#FF9189" stop-opacity="0"/>
<stop offset="1" stop-color="#F9B8D4"/>
</linearGradient>
<linearGradient id="paint29_linear_11826_79151" x1="454.046" y1="82.2286" x2="400.967" y2="128.228" gradientUnits="userSpaceOnUse">
<stop offset="0.23" stop-color="#FF9189" stop-opacity="0"/>
<stop offset="1" stop-color="#F9B8D4"/>
</linearGradient>
<linearGradient id="paint30_linear_11826_79151" x1="148.475" y1="67.5369" x2="102.538" y2="107.342" gradientUnits="userSpaceOnUse">
<stop offset="0.23" stop-color="#FF9189" stop-opacity="0"/>
<stop offset="1" stop-color="#F9B8D4"/>
</linearGradient>
<linearGradient id="paint31_linear_11826_79151" x1="312.507" y1="85.8764" x2="136.501" y2="238.405" gradientUnits="userSpaceOnUse">
<stop offset="0.23" stop-color="#FF9189" stop-opacity="0"/>
<stop offset="1" stop-color="#F9B8D4"/>
</linearGradient>
<linearGradient id="paint32_linear_11826_79151" x1="148.673" y1="57.6314" x2="92.5412" y2="106.277" gradientUnits="userSpaceOnUse">
<stop offset="0.23" stop-color="#FF9189" stop-opacity="0"/>
<stop offset="1" stop-color="#F9B8D4"/>
</linearGradient>
<linearGradient id="paint33_linear_11826_79151" x1="60.1063" y1="130.63" x2="38.0547" y2="149.737" gradientUnits="userSpaceOnUse">
<stop offset="0.23" stop-color="#FF9189" stop-opacity="0"/>
<stop offset="1" stop-color="#F9B8D4"/>
</linearGradient>
<linearGradient id="paint34_linear_11826_79151" x1="139.057" y1="166.318" x2="91.1969" y2="207.793" gradientUnits="userSpaceOnUse">
<stop offset="0.23" stop-color="#FF9189" stop-opacity="0"/>
<stop offset="1" stop-color="#F9B8D4"/>
</linearGradient>
<linearGradient id="paint35_linear_11826_79151" x1="359.978" y1="159.275" x2="253.368" y2="251.671" gradientUnits="userSpaceOnUse">
<stop offset="0.23" stop-color="#FF9189" stop-opacity="0"/>
<stop offset="1" stop-color="#F9B8D4"/>
</linearGradient>
<linearGradient id="paint36_linear_11826_79151" x1="496.695" y1="110.529" x2="462.263" y2="140.365" gradientUnits="userSpaceOnUse">
<stop offset="0.23" stop-color="#FF9189" stop-opacity="0"/>
<stop offset="1" stop-color="#F9B8D4"/>
</linearGradient>
<linearGradient id="paint37_linear_11826_79151" x1="406.629" y1="49.4217" x2="353.983" y2="95.051" gradientUnits="userSpaceOnUse">
<stop offset="0.23" stop-color="#FF9189" stop-opacity="0"/>
<stop offset="1" stop-color="#F9B8D4"/>
</linearGradient>
<linearGradient id="paint38_linear_11826_79151" x1="151.039" y1="37.4925" x2="78.6169" y2="100.252" gradientUnits="userSpaceOnUse">
<stop offset="0.23" stop-color="#FF9189" stop-opacity="0"/>
<stop offset="1" stop-color="#F9B8D4"/>
</linearGradient>
<linearGradient id="paint39_linear_11826_79151" x1="31.0646" y1="102.411" x2="-2.85261" y2="131.813" gradientUnits="userSpaceOnUse">
<stop offset="0.23" stop-color="#FF9189" stop-opacity="0"/>
<stop offset="1" stop-color="#F9B8D4"/>
</linearGradient>
<linearGradient id="paint40_linear_11826_79151" x1="15.7586" y1="159.21" x2="12.887" y2="161.693" gradientUnits="userSpaceOnUse">
<stop offset="0.23" stop-color="#FF9189" stop-opacity="0"/>
<stop offset="1" stop-color="#F9B8D4"/>
</linearGradient>
<linearGradient id="paint41_linear_11826_79151" x1="383.033" y1="147.617" x2="235.345" y2="275.619" gradientUnits="userSpaceOnUse">
<stop offset="0.23" stop-color="#FF9189" stop-opacity="0"/>
<stop offset="1" stop-color="#F9B8D4"/>
</linearGradient>
<linearGradient id="paint42_linear_11826_79151" x1="137.937" y1="191.629" x2="104.498" y2="220.616" gradientUnits="userSpaceOnUse">
<stop offset="0.23" stop-color="#FF9189" stop-opacity="0"/>
<stop offset="1" stop-color="#F9B8D4"/>
</linearGradient>
<linearGradient id="paint43_linear_11826_79151" x1="300.551" y1="49.2683" x2="299.042" y2="50.5752" gradientUnits="userSpaceOnUse">
<stop offset="0.23" stop-color="#FF9189" stop-opacity="0"/>
<stop offset="1" stop-color="#F9B8D4"/>
</linearGradient>
<linearGradient id="paint44_linear_11826_79151" x1="213.393" y1="233.186" x2="263.709" y2="193.074" gradientUnits="userSpaceOnUse">
<stop stop-color="#BE4D92"/>
<stop offset="1" stop-color="#FFA9E0"/>
</linearGradient>
<linearGradient id="paint45_linear_11826_79151" x1="14.2324" y1="129.458" x2="98.4837" y2="129.458" gradientUnits="userSpaceOnUse">
<stop offset="0.15" stop-color="#B42D79"/>
<stop offset="1" stop-color="#FFA0DF"/>
</linearGradient>
<linearGradient id="paint46_linear_11826_79151" x1="393.453" y1="183.665" x2="500.026" y2="183.665" gradientUnits="userSpaceOnUse">
<stop stop-color="#BE4D92"/>
<stop offset="1" stop-color="#FFA9E0"/>
</linearGradient>
<linearGradient id="paint47_linear_11826_79151" x1="410.839" y1="102.383" x2="480.639" y2="94.8984" gradientUnits="userSpaceOnUse">
<stop offset="0.15" stop-color="#B42D79"/>
<stop offset="1" stop-color="#FFA0DF"/>
</linearGradient>
<linearGradient id="paint48_linear_11826_79151" x1="178.635" y1="139.996" x2="292.866" y2="19.6509" gradientUnits="userSpaceOnUse">
<stop offset="0.15" stop-color="#B42D79"/>
<stop offset="1" stop-color="#FFA0DF"/>
</linearGradient>
<linearGradient id="paint49_linear_11826_79151" x1="230.875" y1="56.7367" x2="219.822" y2="35.3172" gradientUnits="userSpaceOnUse">
<stop offset="0.15" stop-color="#B42D79"/>
<stop offset="1" stop-color="#FFA0DF"/>
</linearGradient>
<linearGradient id="paint50_linear_11826_79151" x1="289.489" y1="43.1932" x2="290.852" y2="23.9861" gradientUnits="userSpaceOnUse">
<stop offset="0.15" stop-color="#B42D79"/>
<stop offset="1" stop-color="#FFA0DF"/>
</linearGradient>
<linearGradient id="paint51_linear_11826_79151" x1="403.323" y1="43.0198" x2="381.57" y2="14.2949" gradientUnits="userSpaceOnUse">
<stop offset="0.15" stop-color="#B42D79"/>
<stop offset="1" stop-color="#FFA0DF"/>
</linearGradient>
<linearGradient id="paint52_linear_11826_79151" x1="56.8646" y1="30.5668" x2="113.98" y2="11.5312" gradientUnits="userSpaceOnUse">
<stop offset="0.15" stop-color="#B42D79"/>
<stop offset="1" stop-color="#FFA0DF"/>
</linearGradient>
<linearGradient id="paint53_linear_11826_79151" x1="223.695" y1="81.2361" x2="254.036" y2="66.1919" gradientUnits="userSpaceOnUse">
<stop stop-color="#A0005A"/>
<stop offset="1" stop-color="#FFA9E0" stop-opacity="0"/>
</linearGradient>
<linearGradient id="paint54_linear_11826_79151" x1="307.243" y1="72.2684" x2="296.786" y2="56.2037" gradientUnits="userSpaceOnUse">
<stop stop-color="#A0005A"/>
<stop offset="1" stop-color="#FFA9E0" stop-opacity="0"/>
</linearGradient>
<linearGradient id="paint55_linear_11826_79151" x1="181.84" y1="109.556" x2="305.797" y2="109.556" gradientUnits="userSpaceOnUse">
<stop offset="0.15" stop-color="#81184C"/>
<stop offset="1" stop-color="#CE5998"/>
</linearGradient>
<linearGradient id="paint56_linear_11826_79151" x1="302.329" y1="10.6658" x2="289.858" y2="35.1194" gradientUnits="userSpaceOnUse">
<stop stop-color="#770050"/>
<stop offset="1" stop-color="#FE8DE3" stop-opacity="0"/>
</linearGradient>
<linearGradient id="paint57_linear_11826_79151" x1="313.544" y1="19.0364" x2="294.626" y2="19.0364" gradientUnits="userSpaceOnUse">
<stop stop-color="#BE4D92"/>
<stop offset="1" stop-color="#FFA9E0" stop-opacity="0"/>
</linearGradient>
<linearGradient id="paint58_linear_11826_79151" x1="306.113" y1="15.9022" x2="294.852" y2="38.929" gradientUnits="userSpaceOnUse">
<stop stop-color="#770050"/>
<stop offset="1" stop-color="#FE8DE3" stop-opacity="0"/>
</linearGradient>
<linearGradient id="paint59_linear_11826_79151" x1="361.785" y1="108.813" x2="349.973" y2="99.4038" gradientUnits="userSpaceOnUse">
<stop stop-color="#F4B3DF" stop-opacity="0"/>
<stop offset="1" stop-color="#FFB3AD"/>
</linearGradient>
<linearGradient id="paint60_linear_11826_79151" x1="273.723" y1="101.345" x2="266.897" y2="100.894" gradientUnits="userSpaceOnUse">
<stop stop-color="#F4B3DF" stop-opacity="0"/>
<stop offset="1" stop-color="#FFB3AD"/>
</linearGradient>
<linearGradient id="paint61_linear_11826_79151" x1="230.974" y1="46.8034" x2="226.624" y2="41.547" gradientUnits="userSpaceOnUse">
<stop stop-color="#F4B3DF" stop-opacity="0"/>
<stop offset="1" stop-color="#FFB3AD"/>
</linearGradient>
<linearGradient id="paint62_linear_11826_79151" x1="283.566" y1="44.1048" x2="285.271" y2="38.602" gradientUnits="userSpaceOnUse">
<stop stop-color="#F4B3DF" stop-opacity="0"/>
<stop offset="1" stop-color="#FFB3AD"/>
</linearGradient>
<linearGradient id="paint63_linear_11826_79151" x1="382.329" y1="104.109" x2="376.721" y2="103.549" gradientUnits="userSpaceOnUse">
<stop stop-color="#F4B3DF" stop-opacity="0"/>
<stop offset="1" stop-color="#FF97D0"/>
</linearGradient>
</defs>
</svg>
