<?xml version="1.0" encoding="UTF-8"?>
<svg id="Layer_1" xmlns="http://www.w3.org/2000/svg" xmlns:xlink="http://www.w3.org/1999/xlink" version="1.1" viewBox="0 0 86.5 70.699997">
  <!-- Generator: Adobe Illustrator 29.1.0, SVG Export Plug-In . SVG Version: 2.1.0 Build 142)  -->
  <defs>
    <style>
      .st0 {
        fill: url(#linear-gradient);
      }
    </style>
    <linearGradient id="linear-gradient" x1="0" y1="35.349998" x2="86.5" y2="35.349998" gradientUnits="userSpaceOnUse">
      <stop offset="0" stop-color="#fdfdfd" stop-opacity="0"/>
      <stop offset=".5" stop-color="#fdfdfd" stop-opacity=".5"/>
      <stop offset="1" stop-color="#fdfdfd" stop-opacity="0"/>
    </linearGradient>
  </defs>
  <path class="st0" d="M23.54425,34.812187l-.822266.299255.816467.297241.820557-.299744-.814758-.296753ZM81.083313,36.628532h-.333313v1h.333313v-1ZM42.999756,39.685478h.5v-1.973633h1.973633v-.5h-1.973633v-1.973633h-.5v1.973633h-1.973145v.5h1.973145v1.973633ZM37.650391,67.211845h11.199219v-.5h-11.199219v.5ZM78.75,38.295158h1.333313v.666626h1v-.666626h2.666687v-2.333313h-5v2.333313ZM81.75,36.295158h1.666626v1.666687h-.333313v-1.333313h-.333313v1.333313h-.333313v-1.333313h-.333374v1.333313h-.333313v-1.666687ZM80.416687,36.295158h1v1.666687h-.666687v.666626h-.333313v-2.333313ZM79.083374,36.295158h.999939v1.666687h-.333313v-1.333313h-.333313v1.333313h-.333313v-1.666687ZM24.407776,35.516533v.587952l.80719-.293762-.80719-.294189ZM5.25,32.211845c-2.89502,0-5.25,2.355469-5.25,5.25s2.35498,5.25,5.25,5.25,5.25-2.355469,5.25-5.25-2.35498-5.25-5.25-5.25ZM5.25,42.211845c-2.619141,0-4.75-2.130859-4.75-4.75s2.130859-4.75,4.75-4.75,4.75,2.130859,4.75,4.75-2.130859,4.75-4.75,4.75ZM43.5,6.218193V-.011787h-.5v6.22998c-16.564514.135498-30,13.647827-30,30.243652,0,13.022583,8.258606,24.498962,20.569092,28.64447-.041809.179016-.069092.36322-.069092.554749v2.601562c0,1.350586,1.099121,2.449158,2.449707,2.449158h14.600586c1.350586,0,2.449707-1.098572,2.449707-2.449158v-2.601562c0-.191528-.027283-.375732-.069092-.554749,12.310486-4.145508,20.569092-15.621887,20.569092-28.64447,0-16.595825-13.435486-30.108154-30-30.243652ZM43.5,15.722221c8.948364.109802,16.926025,6.063416,19.566833,14.59491-3.435486.567566-6.066833,3.550476-6.066833,7.144714,0,3.354553,2.29303,6.17572,5.391418,6.999573-2.947876,7.038208-9.663635,11.976562-17.236694,12.654175-.0448-.149597-.087646-.305847-.130554-.461914-.040466-.147217-.082153-.2901-.120911-.443176-.050781-.200562-.098022-.413696-.145935-.624451-.035706-.157166-.072937-.309326-.107056-.47229-.046387-.221375-.08905-.456421-.132507-.688538-.031555-.168518-.064636-.331238-.094666-.505493-.041626-.24176-.079468-.498108-.118225-.751038-.027588-.180298-.056946-.353882-.083008-.539917-.036926-.263-.069885-.541504-.103882-.816101-.023804-.192444-.0495-.377502-.071899-.575684-.03302-.292358-.061951-.601379-.091858-.906372-.019165-.195862-.040466-.383362-.058411-.584473-.030396-.340637-.056458-.699463-.083252-1.05542-.013672-.182129-.02948-.355225-.042236-.541382-.032166-.470093-.060059-.959167-.086365-1.455444,4.883728-.228882,8.81604-4.310974,8.81604-9.232056,0-5.016174-4.015625-9.103149-9-9.237305v-12.502319ZM64.25,30.711845c3.722168,0,6.75,3.02832,6.75,6.75s-3.027832,6.75-6.75,6.75-6.75-3.02832-6.75-6.75,3.027832-6.75,6.75-6.75ZM29.5,37.461845c0-3.594238-2.631348-6.577148-6.066833-7.144714,2.640808-8.531494,10.618469-14.485107,19.566833-14.59491v12.502319c-4.984375.134155-9,4.22113-9,9.237305,0,4.919678,3.930054,9.000854,8.81604,9.231812-.026306.496338-.054199.985535-.086365,1.455688-.012756.186157-.028564.359253-.042236.541382-.026794.355957-.052856.714783-.083252,1.05542-.017578.196594-.03833.379761-.057068.57135-.030396.310364-.059937.624451-.093506.921753-.021484.190308-.046143.367737-.06897.552734-.034851.28241-.068787.568359-.10675.838562-.025269.179993-.053711.347839-.080383.522461-.039612.259338-.07843.521729-.121094.769409-.02887.167725-.060852.324158-.091125.486511-.044617.238831-.088562.480225-.13623.707764-.032654.155579-.068115.300537-.102173.450867-.049683.219177-.098816.440186-.151611.648376-.03656.144043-.075806.278381-.113831.417175-.044739.16333-.089539.326294-.136353.482483-7.572998-.677612-14.288696-5.616028-17.236511-12.654175,3.098389-.823853,5.391418-3.64502,5.391418-6.999573ZM22.25,44.211845c-3.722168,0-6.75-3.02832-6.75-6.75s3.027832-6.75,6.75-6.75,6.75,3.02832,6.75,6.75-3.027832,6.75-6.75,6.75ZM41.705627,57.646111l.003845.000305.059082-.19043c.096375-.310364.187927-.63678.275879-.975403.029785-.114624.056946-.238281.085754-.356201.056213-.230103.112244-.46106.164795-.703796.032349-.14917.062378-.306763.093323-.460815.045471-.226135.090576-.453491.133179-.690247.030579-.170288.059509-.347168.088623-.523071.03894-.235413.077271-.473755.113525-.719299.027771-.187805.054382-.380005.080627-.57373.033813-.250183.066528-.505432.097778-.765625.02417-.201538.047974-.405029.070618-.612671.029724-.271973.057678-.551514.084778-.834045.020081-.209412.040405-.418152.059021-.633423.026428-.304749.050415-.619873.073975-.936523.015442-.207458.031799-.411377.046021-.624023.004211-.062683.00946-.120789.01355-.183899.004089.06311.009338.121216.01355.183899.014221.212524.03064.416321.046021.623718.02356.316772.047546.632263.073975.937134.018677.214905.038879.423279.05896.632385.027161.282959.055054.562927.084839.835266.022644.207581.046448.411072.070679.612549.031189.259155.063599.513428.097351.762695.026489.195618.053406.389587.081421.579163.035828.24231.073608.477722.112061.710205.029663.17926.059082.359497.090271.53302.041504.230591.08551.451965.1297.672424.032166.160522.063477.324341.097168.479675.05011.231201.103516.450867.156921.670532.031372.129028.061157.263855.093689.388977.080383.309326.164612.60553.252014.891235.007751.025269.014526.053833.022339.078918.000977.003113.002014.005859.002991.008972l.05658.182434.003662-.000305c1.056274,3.320068,2.56543,4.779785,4.058838,5.565735h-11.206055c1.49353-.786072,3.002686-2.24585,4.058655-5.565735ZM43.25,28.711845c4.824707,0,8.75,3.924805,8.75,8.75,0,4.738281-3.851074,8.663086-8.580078,8.75h-.335449c-4.733398-.086914-8.584473-4.011719-8.584473-8.75,0-4.825195,3.925293-8.75,8.75-8.75ZM13.5,36.461845c0-16.320435,13.210876-29.608154,29.5-29.743652v8.504028c-9.193787.110229-17.389465,6.242859-20.070007,15.024048-.224121-.020935-.450439-.034424-.679993-.034424-3.997559,0-7.25,3.251953-7.25,7.25s3.252441,7.25,7.25,7.25c.466492,0,.92157-.048279,1.36377-.132874,2.988159,7.214294,9.841736,12.283264,17.582581,13.015564-1.239807,3.823975-3.030457,4.973633-4.792603,5.61731h-.454041c-.98291,0-1.826782.585327-2.216614,1.422729-12.109741-4.075867-20.233093-15.364136-20.233093-28.172729ZM52.5,68.262627c0,1.075195-.874512,1.949219-1.949707,1.949219h-14.600586c-1.075195,0-1.949707-.874023-1.949707-1.949219v-2.601562c0-1.075195.874512-1.949219,1.949707-1.949219h14.600586c1.075195,0,1.949707.874023,1.949707,1.949219v2.601562ZM52.766907,64.634575c-.389832-.837402-1.233704-1.422729-2.216614-1.422729h-.454041c-1.762024-.643677-3.55249-1.793213-4.792725-5.61731,7.740845-.732239,14.594482-5.801208,17.582703-13.015564.4422.084595.897278.132874,1.36377.132874,3.997559,0,7.25-3.251953,7.25-7.25s-3.252441-7.25-7.25-7.25c-.229553,0-.455872.013489-.679993.034424-2.680542-8.781189-10.876221-14.913818-20.070007-15.024048V6.718193c16.289124.135498,29.5,13.423218,29.5,29.743652,0,12.808533-8.123352,24.096863-20.233093,28.172729ZM81.25,32.211845c-2.89502,0-5.25,2.355469-5.25,5.25s2.35498,5.25,5.25,5.25,5.25-2.355469,5.25-5.25-2.35498-5.25-5.25-5.25ZM81.25,42.211845c-2.619141,0-4.75-2.130859-4.75-4.75s2.130859-4.75,4.75-4.75,4.75,2.130859,4.75,4.75-2.130859,4.75-4.75,4.75ZM7.477905,35.856987c-.302307-.302185-.789734-.310486-1.102112-.018738-.03064.029175-.03186.077698-.002625.108398.000854.000916.001709.00177.002625.002625l.095825.0979c.026672.026489.068787.029297.098755.006714.196289-.156555.4823-.124268.638855.072083.147156.184631.128479.451233-.04303.613525-.629761.62915-1.469971-1.134827-3.377258-.225647-.128662.061707-.182983.215942-.121338.344604.003113.00647.00647.012817.010071.018982l.327271.565186c.070618.122681.226929.165527.35022.096069l.00769-.004211-.006042.004211.143372-.080017c.161682-.100403.314514-.214355.456848-.340637.029114-.02655.073242-.027954.103943-.003357.031555.026367.035767.073242.00946.104797-.001892.002258-.003906.004456-.006104.00647-.149841.134888-.311279.256226-.482483.362732h-.005005l-.14502.081238c-.061279.034363-.130371.052307-.200623.052063-.148071.00061-.285217-.077942-.359558-.206055l-.309387-.534119c-.591675.421631-.955444,1.230591-.758362,2.255432.006714.035522.037598.06134.073792.061646h.348938c.039856.000916.073547-.029236.077087-.06897.03656-.282776.295471-.4823.578247-.445679.232544.03009.415588.213135.445679.445679.004578.037659.036499.065979.074402.06604h.341248c.037842-.000305.06958-.028503.074402-.06604.037048-.282715.296204-.481873.578918-.444824.231934.030396.414429.212891.444824.444824.004761.037598.036682.065857.074585.06604h.338928c.041321,0,.074951-.033081.075623-.074341.007751-.477966.136719-1.0271.504211-1.302124,1.272461-.952087.937927-1.767944.643311-2.0625h-.000183ZM6.180176,37.295341v-.00061l-.242737-.121704c.000122-.083984.068298-.151978.152283-.151917s.151978.068237.151917.152222c-.000061.048096-.022827.093323-.061462.122009ZM63.480774,39.961845h.203064c1.083862,0,2.08197-.589417,2.605408-1.538452h.845398v-.576965c0-.318604-.258301-.576904-.576965-.576904h-.192322v-.192322c0-.318604-.25824-.576904-.576904-.576904h-.961548v-1.538452h-1.153809v.769226h-1.538452v.769226h-.769287v1.34613c0,1.168335.947144,2.115417,2.115417,2.115417ZM64.826904,36.88488h.384644v.384644h-.384644v-.384644ZM64.057678,35.346428h.384644v.384644h-.384644v-.384644ZM64.057678,36.115654h.384644v.384644h-.384644v-.384644ZM64.057678,36.88488h.384644v.384644h-.384644v-.384644ZM63.288452,36.115654h.384644v.384644h-.384644v-.384644ZM63.288452,36.88488h.384644v.384644h-.384644v-.384644ZM62.519226,36.115654h.384644v.384644h-.384644v-.384644ZM62.519226,36.88488h.384644v.384644h-.384644v-.384644ZM62.519226,38.03875h.384644v.384644h-.384644v-.384644ZM61.75,36.88488h.384644v.384644h-.384644v-.384644ZM24.383362,38.178459l-.833313.303284v.9729l.833313-.303284v-.9729ZM24.076355,38.955254c-.092285.033691-.166748-.018616-.166748-.116455,0-.097778.074463-.204651.166748-.238098.091797-.033447.166443.01886.166443.116638,0,.097839-.074646.204712-.166443.237915ZM25.247375,35.829582l-.075195.027466-.764404.27832v.983704l.8396-.305481v-.984009ZM25.247864,37.858879v.983948l-.8479.308777-.019592.013855.013062.009338.867554-.315857.006531-.009033v-1.005127l-.013367-.009033-.006287.023132ZM20.969299,38.769402l.835388.30426v-.984192l-.835388-.304016v.983948ZM22.682739,39.775749l.83313-.303284v-.983704l-.83313.303284v.983704ZM21.804688,37.074821l-.835388-.304016v.983948l.835388.304016v-.983948ZM22.687805,35.751396v.972656l.834045-.303528v-.972656l-.42572.154663-.408325.148865ZM23.164551,36.063225c0,.098083-.074707.204407-.166687.237854-.092285.033691-.166504-.018616-.166504-.116638,0-.098083.074219-.204468.166504-.237915.09198-.033447.166687.018616.166687.116699ZM22.691589,37.743217l.830261-.302002v-.983948l-.830261.302246v.983704ZM22.691589,38.757866l.829773-.301758v-.984192l-.829773.301697v.984253ZM21.82428,40.088066v-.983704h-.019592v.983704l-.835388-.304016v-.983948l-.013306-.014587-.006287-.015076-.838867-.30426v-.992798l.008545.003296.826538.30072.003784-.019592-.820007-.298462.819763-.298523v-.027405l-.74231-.270081-.077209-.028137.819763-.298706v.22052l.019836-.013855v-.59668l.819031.297974.014587-.015381-.789307-.287415-.025696-.009277.814758-.296509v-.020813l-.846924.308289v.004517l-.006287.004517v.382935l-.852173.310303v.005066l-.006287.004272v1.007568l-.852478.310059v.004761l-.006287.004578v1.004578l.006287.009277.85498.311035.002014-.001465.00177.002502.854919.311279.002014-.001526.001526.002563.85498.311035.003479-.002258.003052.002502.867493-.315796.006592-.009338-.019653-.006775-.847656.308533ZM20.11084,36.849052l.819031.297974-.819031.298462v-.596436ZM20.087219,39.463371l-.835083-.303711v-.983948l.593689.216248.241394.087769v.983643ZM20.091248,38.460136l-.774536-.281677-.045715-.016541.820251-.298523v.596741ZM20.945923,39.775505l-.835083-.304016v-.983704l.835083.304016v.983704ZM23.550049,38.445793l.829834-.30249v-.983215l-.829834.301758v.983948ZM24.38916,36.141899l-.839111.305298v.983948l.839111-.305237v-.984009ZM25.247375,37.828178v-.983948l-.838867.305542v.983948l.838867-.305542ZM24.38916,35.127007l-.834106.303528v.983948l.834106-.303467v-.984009ZM22.657593,35.751396l-.824768-.299988-.000244.972656.825012.299988v-.972656ZM23.494751,35.425774l-.811218-.294983-.822021.299255.810913.295227.822327-.2995ZM21.013855,36.766045l.800598.291687.743591-.271057.091797-.033203-.82605-.301025-.835632.304321.025696.009277ZM21.82428,37.074821v.983948l.838867-.305481v-.983948l-.838867.305481ZM21.82428,39.073418l.847656-.308533v-.983948l-.847656.308533v.983948Z"/>
</svg>
