<svg width="22" height="22" viewBox="0 0 22 22" fill="none" xmlns="http://www.w3.org/2000/svg">
<path d="M11 5.95898V16.959" stroke="#9FA0A0" stroke-linecap="round"/>
<path d="M18.7917 5.95898V16.959" stroke="#9FA0A0" stroke-linecap="round"/>
<path d="M3.20825 5.95898V16.959" stroke="#9FA0A0" stroke-linecap="round"/>
<path d="M18.7917 16.9583C18.7917 16.9583 17.875 15.125 14.6667 15.125C11.4583 15.125 11 16.9583 11 16.9583" stroke="#9FA0A0" stroke-linecap="round"/>
<path d="M3.20825 16.9583C3.20825 16.9583 4.12492 15.125 7.33325 15.125C10.5416 15.125 10.9999 16.9583 10.9999 16.9583" stroke="#9FA0A0" stroke-linecap="round"/>
<path d="M18.7917 5.95833C18.7917 5.95833 17.875 4.125 14.6667 4.125C11.4583 4.125 11 5.95833 11 5.95833" stroke="#9FA0A0" stroke-linecap="round"/>
<path d="M3.20825 5.95833C3.20825 5.95833 4.12492 4.125 7.33325 4.125C10.5416 4.125 10.9999 5.95833 10.9999 5.95833" stroke="#9FA0A0" stroke-linecap="round"/>
</svg>
