<svg width="22" height="22" viewBox="0 0 22 22" fill="none" xmlns="http://www.w3.org/2000/svg">
<g clip-path="url(#clip0_12008_8244)">
<path d="M20.0478 7.83158C18.8242 6.89227 17.204 6.37496 15.4855 6.37496C14.4464 6.37496 13.4434 6.56443 12.5422 6.92159C12.0917 6.06418 11.3402 5.30486 10.3843 4.7523C9.25877 4.10169 7.92058 3.75781 6.51456 3.75781C4.79609 3.75781 3.17586 4.27513 1.95221 5.21444C0.693269 6.18073 0 7.47653 0 8.86303C0 10.1118 0.571237 11.3003 1.61345 12.2308L1.63119 15.2729C1.63209 15.4316 1.71263 15.5857 1.85393 15.6581C2.02167 15.7441 2.18164 15.7235 2.29895 15.6623L5.45474 13.901C5.80463 13.9457 6.16031 13.9684 6.51456 13.9684C6.51465 13.9684 6.51474 13.9684 6.51483 13.9684C7.54075 13.9684 8.5474 13.7801 9.45407 13.4218C9.78493 14.0556 10.28 14.6353 10.9231 15.129C12.1467 16.0683 13.767 16.5856 15.4855 16.5856C15.8414 16.5856 16.1991 16.5627 16.5509 16.5175L19.7106 18.1828C19.8899 18.2741 20.0229 18.2518 20.1507 18.1706C20.2831 18.0866 20.368 17.9451 20.3689 17.7882L20.3866 14.8481C21.4288 13.9175 22 12.729 22 11.4803C22 10.0938 21.3067 8.79801 20.0478 7.83158ZM6.51478 13.0704C6.51469 13.0704 6.51451 13.0704 6.51451 13.0704C6.14891 13.0704 5.7816 13.0433 5.42286 12.9902C5.29441 12.9712 5.17067 13.0085 5.07657 13.0837L2.52461 14.508L2.51024 12.0303C2.51042 12.0213 2.51024 12.0123 2.5098 12.0032C2.50391 11.877 2.44523 11.7592 2.34798 11.6785C1.41298 10.9026 0.897959 9.90268 0.897959 8.86303C0.897959 6.5431 3.41759 4.65573 6.51456 4.65573C8.80902 4.65573 10.8834 5.72753 11.7295 7.3048C11.4456 7.46194 11.1758 7.63762 10.923 7.83158C9.66415 8.79797 8.97088 10.0938 8.97088 11.4803C8.97088 11.8576 9.02269 12.2281 9.12277 12.5873C8.32125 12.904 7.42801 13.0704 6.51478 13.0704ZM19.652 14.2958C19.5548 14.3764 19.4961 14.4944 19.4902 14.6205C19.4898 14.6286 19.4897 14.6368 19.4897 14.6449L19.4753 17.0437L16.9152 15.6945C16.8222 15.6235 16.702 15.5889 16.577 15.6074C16.2182 15.6607 15.8509 15.6876 15.4854 15.6876C12.9492 15.6876 10.8007 14.4218 10.1055 12.6893C10.1027 12.6808 10.099 12.6726 10.0955 12.6643C9.94822 12.2885 9.86875 11.8912 9.86875 11.4803C9.86875 9.98754 10.9121 8.674 12.481 7.92699C12.4821 7.92654 12.4833 7.92627 12.4844 7.92582C12.502 7.91891 12.5186 7.91065 12.5348 7.9018C13.3928 7.50338 14.4038 7.27292 15.4854 7.27292C18.5824 7.27292 21.102 9.16034 21.102 11.4803C21.102 12.5199 20.587 13.5198 19.652 14.2958Z" fill="#9FA0A0"/>
<path d="M18.1229 9.97656H12.8477C12.5997 9.97656 12.3987 10.1776 12.3987 10.4255C12.3987 10.6735 12.5997 10.8745 12.8477 10.8745H18.1229C18.3708 10.8745 18.5719 10.6735 18.5719 10.4255C18.5719 10.1776 18.3709 9.97656 18.1229 9.97656Z" fill="#9FA0A0"/>
<path d="M18.1229 12.0078H12.8477C12.5997 12.0078 12.3987 12.2088 12.3987 12.4568C12.3987 12.7048 12.5997 12.9058 12.8477 12.9058H18.1229C18.3708 12.9058 18.5719 12.7048 18.5719 12.4568C18.5719 12.2088 18.3709 12.0078 18.1229 12.0078Z" fill="#9FA0A0"/>
<path d="M20.0478 7.83158C18.8242 6.89227 17.204 6.37496 15.4855 6.37496C14.4464 6.37496 13.4434 6.56443 12.5422 6.92159C12.0917 6.06418 11.3402 5.30486 10.3843 4.7523C9.25877 4.10169 7.92058 3.75781 6.51456 3.75781C4.79609 3.75781 3.17586 4.27513 1.95221 5.21444C0.693269 6.18073 0 7.47653 0 8.86303C0 10.1118 0.571237 11.3003 1.61345 12.2308L1.63119 15.2729C1.63209 15.4316 1.71263 15.5857 1.85393 15.6581C2.02167 15.7441 2.18164 15.7235 2.29895 15.6623L5.45474 13.901C5.80463 13.9457 6.16031 13.9684 6.51456 13.9684C6.51465 13.9684 6.51474 13.9684 6.51483 13.9684C7.54075 13.9684 8.5474 13.7801 9.45407 13.4218C9.78493 14.0556 10.28 14.6353 10.9231 15.129C12.1467 16.0683 13.767 16.5856 15.4855 16.5856C15.8414 16.5856 16.1991 16.5627 16.5509 16.5175L19.7106 18.1828C19.8899 18.2741 20.0229 18.2518 20.1507 18.1706C20.2831 18.0866 20.368 17.9451 20.3689 17.7882L20.3866 14.8481C21.4288 13.9175 22 12.729 22 11.4803C22 10.0938 21.3067 8.79801 20.0478 7.83158ZM6.51478 13.0704C6.51469 13.0704 6.51451 13.0704 6.51451 13.0704C6.14891 13.0704 5.7816 13.0433 5.42286 12.9902C5.29441 12.9712 5.17067 13.0085 5.07657 13.0837L2.52461 14.508L2.51024 12.0303C2.51042 12.0213 2.51024 12.0123 2.5098 12.0032C2.50391 11.877 2.44523 11.7592 2.34798 11.6785C1.41298 10.9026 0.897959 9.90268 0.897959 8.86303C0.897959 6.5431 3.41759 4.65573 6.51456 4.65573C8.80902 4.65573 10.8834 5.72753 11.7295 7.3048C11.4456 7.46194 11.1758 7.63762 10.923 7.83158C9.66415 8.79797 8.97088 10.0938 8.97088 11.4803C8.97088 11.8576 9.02269 12.2281 9.12277 12.5873C8.32125 12.904 7.42801 13.0704 6.51478 13.0704ZM19.652 14.2958C19.5548 14.3764 19.4961 14.4944 19.4902 14.6205C19.4898 14.6286 19.4897 14.6368 19.4897 14.6449L19.4753 17.0437L16.9152 15.6945C16.8222 15.6235 16.702 15.5889 16.577 15.6074C16.2182 15.6607 15.8509 15.6876 15.4854 15.6876C12.9492 15.6876 10.8007 14.4218 10.1055 12.6893C10.1027 12.6808 10.099 12.6726 10.0955 12.6643C9.94822 12.2885 9.86875 11.8912 9.86875 11.4803C9.86875 9.11495 12.4278 7.27292 15.4854 7.27292C18.5429 7.27292 21.102 9.16034 21.102 11.4803C21.102 12.5199 20.587 13.5198 19.652 14.2958Z" fill="#9FA0A0"/>
<path d="M18.1229 9.97656H12.8477C12.5997 9.97656 12.3987 10.1776 12.3987 10.4255C12.3987 10.6735 12.5997 10.8745 12.8477 10.8745H18.1229C18.3708 10.8745 18.5719 10.6735 18.5719 10.4255C18.5719 10.1776 18.3709 9.97656 18.1229 9.97656Z" fill="#9FA0A0"/>
<path d="M18.1229 12.0078H12.8477C12.5997 12.0078 12.3987 12.2088 12.3987 12.4568C12.3987 12.7048 12.5997 12.9058 12.8477 12.9058H18.1229C18.3708 12.9058 18.5719 12.7048 18.5719 12.4568C18.5719 12.2088 18.3709 12.0078 18.1229 12.0078Z" fill="#9FA0A0"/>
</g>
<defs>
<clipPath id="clip0_12008_8244">
<rect width="22" height="22" fill="white"/>
</clipPath>
</defs>
</svg>
