<svg width="16" height="16" viewBox="0 0 16 16" fill="none" xmlns="http://www.w3.org/2000/svg">
<path d="M15.2946 8.35432C15.2978 8.35105 15.2978 8.35105 15.3011 8.34779C15.3109 8.33472 15.3207 8.32493 15.3272 8.31186C15.3305 8.3086 15.3305 8.30533 15.3338 8.30206C15.3403 8.289 15.3501 8.27594 15.3566 8.26287C15.3566 8.25961 15.3599 8.25634 15.3599 8.25634C15.3664 8.24328 15.373 8.23021 15.3795 8.21388C15.3795 8.21062 15.3795 8.21062 15.3828 8.20735C15.3893 8.19429 15.3926 8.17796 15.3991 8.16163C15.3991 8.15836 15.3991 8.1551 15.4024 8.1551C15.4056 8.13877 15.4121 8.1257 15.4121 8.10937C15.4121 8.10284 15.4121 8.09957 15.4154 8.09304C15.4187 8.07998 15.4187 8.06691 15.4219 8.05385C15.4252 8.03426 15.4252 8.01792 15.4252 7.99833C15.4252 7.97873 15.4252 7.9624 15.4219 7.94281C15.4219 7.92974 15.4187 7.91668 15.4154 7.90362C15.4154 7.89708 15.4154 7.89382 15.4121 7.88729C15.4089 7.87096 15.4056 7.85789 15.4024 7.84156C15.4024 7.8383 15.4024 7.83503 15.3991 7.83503C15.3958 7.8187 15.3893 7.80564 15.3828 7.78931C15.3828 7.78604 15.3828 7.78604 15.3795 7.78278C15.373 7.76971 15.3664 7.75338 15.3599 7.74032C15.3599 7.73705 15.3566 7.73379 15.3566 7.73379C15.3501 7.72072 15.3436 7.70766 15.3338 7.69459C15.3305 7.69133 15.3305 7.68806 15.3272 7.6848C15.3174 7.67173 15.3109 7.65867 15.3011 7.64887C15.2978 7.6456 15.2978 7.6456 15.2946 7.64234C15.2815 7.62927 15.2717 7.61294 15.2554 7.59988L12.0253 4.3731C11.8065 4.15428 11.4505 4.15428 11.2317 4.3731C11.0129 4.59192 11.0129 4.94791 11.2317 5.16673L13.5048 7.43985H4.46788C4.15761 7.43985 3.90613 7.69133 3.90613 7.99833C3.90613 8.3086 4.15761 8.56008 4.46788 8.56008H13.5081L11.2513 10.8169C11.0325 11.0357 11.0325 11.3917 11.2513 11.6105C11.3591 11.7183 11.5028 11.7738 11.6465 11.7738C11.7902 11.7738 11.9339 11.7183 12.0417 11.6105L15.2521 8.40004C15.2684 8.38045 15.2815 8.36738 15.2946 8.35432Z" fill="#9FA0A0"/>
<path d="M3.61545 1.12023H7.79589C8.10616 1.12023 8.35764 0.868749 8.35764 0.561747C8.35764 0.25148 8.10616 0 7.79589 0H3.61545C1.94001 0 0.574829 1.36518 0.574829 3.04062V12.9594C0.574829 14.6348 1.94001 16 3.61545 16H7.72731C8.03758 16 8.28906 15.7485 8.28906 15.4415C8.28906 15.1313 8.03758 14.8798 7.72731 14.8798H3.61545C2.55727 14.8798 1.69506 14.0176 1.69506 12.9594V3.04062C1.69832 1.97918 2.55727 1.12023 3.61545 1.12023Z" fill="#9FA0A0"/>
</svg>
