<svg width="24" height="26" viewBox="0 0 24 26" fill="none" xmlns="http://www.w3.org/2000/svg">
<path d="M1.47408 19.0832L0.644089 18.5255L0.644088 18.5255L1.47408 19.0832ZM3.02472 14.1134L2.02472 14.1025V14.1134H3.02472ZM3.05726 11.1085L4.05726 11.1194V11.1085H3.05726ZM22.5342 19.1074L23.3747 18.5657L23.3747 18.5657L22.5342 19.1074ZM21.0419 14.1134L20.0419 14.102V14.1134H21.0419ZM21.0744 11.2574L22.0744 11.2688V11.2574H21.0744ZM8.44442 24C7.89214 24 7.44442 24.4477 7.44442 25C7.44442 25.5523 7.89214 26 8.44442 26V24ZM15.5555 26C16.1078 26 16.5555 25.5523 16.5555 25C16.5555 24.4477 16.1078 24 15.5555 24V26ZM2.30407 19.641C3.17358 18.3472 4.02472 16.434 4.02472 14.1134H2.02472C2.02472 15.9402 1.35267 17.4711 0.644089 18.5255L2.30407 19.641ZM4.02466 14.1242L4.0572 11.1194L2.05732 11.0977L2.02477 14.1025L4.02466 14.1242ZM23.3747 18.5657C22.6951 17.5111 22.0419 15.9651 22.0419 14.1134H20.0419C20.0419 16.4375 20.8593 18.3545 21.6936 19.6491L23.3747 18.5657ZM22.0418 14.1248L22.0744 11.2688L20.0745 11.246L20.0419 14.102L22.0418 14.1248ZM22.0744 11.2574C22.0744 5.15882 17.6756 0 12 0V2C16.3477 2 20.0744 6.026 20.0744 11.2574H22.0744ZM21.9911 21.5C22.8629 21.5 23.3499 20.8225 23.5293 20.3463C23.7171 19.8474 23.7523 19.1515 23.3747 18.5657L21.6936 19.6491C21.6641 19.6033 21.6659 19.5769 21.6666 19.5893C21.6672 19.6018 21.6645 19.6231 21.6576 19.6415C21.6496 19.6626 21.651 19.6425 21.6924 19.6057C21.7416 19.5621 21.8465 19.5 21.9911 19.5V21.5ZM4.05726 11.1085C4.05726 5.95934 7.72499 2 12 2V0C6.39712 0 2.05726 5.09215 2.05726 11.1085H4.05726ZM2.01016 19.5C2.15816 19.5 2.26404 19.5646 2.31209 19.608C2.35222 19.6443 2.35196 19.6625 2.34311 19.6383C2.33532 19.617 2.33261 19.5931 2.33346 19.5793C2.33431 19.5653 2.33613 19.5933 2.30407 19.641L0.644088 18.5255C0.2489 19.1135 0.280795 19.8215 0.464484 20.3244C0.639135 20.8026 1.12465 21.5 2.01016 21.5V19.5ZM21.9911 19.5H2.01016V21.5H21.9911V19.5ZM8.44442 26H15.5555V24H8.44442V26Z" fill="#9FA0A0"/>
</svg>
