<svg width="18" height="18" viewBox="0 0 18 18" fill="none" xmlns="http://www.w3.org/2000/svg">
<path d="M9 9C9.77876 9 10.54 8.76907 11.1876 8.33641C11.8351 7.90376 12.3398 7.2888 12.6378 6.56932C12.9358 5.84983 13.0138 5.05813 12.8618 4.29433C12.7099 3.53053 12.3349 2.82894 11.7842 2.27827C11.2336 1.7276 10.532 1.35259 9.76817 1.20066C9.00437 1.04873 8.21267 1.12671 7.49318 1.42473C6.7737 1.72275 6.15875 2.22743 5.72609 2.87494C5.29343 3.52246 5.0625 4.28374 5.0625 5.0625C5.0625 6.10679 5.47734 7.10831 6.21577 7.84673C6.95419 8.58516 7.95571 9 9 9ZM9 2.25C9.55626 2.25 10.1 2.41495 10.5625 2.72399C11.0251 3.03303 11.3855 3.47229 11.5984 3.9862C11.8113 4.50012 11.867 5.06562 11.7585 5.61119C11.6499 6.15676 11.3821 6.6579 10.9887 7.05124C10.5954 7.44457 10.0943 7.71244 9.54869 7.82096C9.00312 7.92948 8.43762 7.87378 7.9237 7.66091C7.40979 7.44804 6.97053 7.08756 6.66149 6.62504C6.35245 6.16253 6.1875 5.61876 6.1875 5.0625C6.1875 4.31658 6.48382 3.60121 7.01126 3.07376C7.53871 2.54632 8.25408 2.25 9 2.25Z" fill="#9FA0A0"/>
<path d="M9.5625 10.125H8.4375C6.79647 10.125 5.22266 10.7769 4.06228 11.9373C2.9019 13.0977 2.25 14.6715 2.25 16.3125C2.25 16.4617 2.30926 16.6048 2.41475 16.7102C2.52024 16.8157 2.66332 16.875 2.8125 16.875H15.1875C15.3367 16.875 15.4798 16.8157 15.5852 16.7102C15.6907 16.6048 15.75 16.4617 15.75 16.3125C15.75 14.6715 15.0981 13.0977 13.9377 11.9373C12.7773 10.7769 11.2035 10.125 9.5625 10.125ZM3.40875 15.75C3.54707 14.5129 4.13635 13.3701 5.06401 12.5399C5.99166 11.7098 7.19265 11.2506 8.4375 11.25H9.5625C10.8073 11.2506 12.0083 11.7098 12.936 12.5399C13.8636 13.3701 14.4529 14.5129 14.5913 15.75H3.40875Z" fill="#9FA0A0"/>
</svg>
