<svg width="20" height="16" viewBox="0 0 20 16" fill="none" xmlns="http://www.w3.org/2000/svg">
<path d="M18.9116 1.58123C18.3299 0.999677 17.545 0.666796 16.7226 0.652803C15.9001 0.638811 15.1044 0.944802 14.5032 1.50623C14.4731 1.53488 14.4492 1.56933 14.4328 1.60751C14.4165 1.64568 14.408 1.68678 14.408 1.72832C14.408 1.76985 14.4165 1.81095 14.4328 1.84913C14.4492 1.88731 14.4731 1.92176 14.5032 1.9504L14.8866 2.34207C14.9382 2.39324 15.0066 2.4241 15.0791 2.429C15.1516 2.43389 15.2235 2.4125 15.2816 2.36874C15.6482 2.07643 16.1136 1.93707 16.5806 1.97976C17.0475 2.02244 17.48 2.24387 17.7876 2.59781C18.0951 2.95174 18.2541 3.41082 18.2312 3.87917C18.2084 4.34753 18.0055 4.78895 17.6649 5.11126C15.1457 7.62794 11.7849 0.572061 4.15565 4.20875C4.02677 4.27052 3.9121 4.35835 3.8189 4.4667C3.72569 4.57505 3.65597 4.70155 3.61415 4.83822C3.57233 4.97488 3.55931 5.11874 3.57592 5.26069C3.59253 5.40264 3.63841 5.53961 3.71065 5.66293L5.01983 7.92377C5.1555 8.15957 5.37882 8.33223 5.64118 8.40418C5.90353 8.47613 6.18369 8.44154 6.42067 8.30794L6.4515 8.29128L6.42734 8.30794L7.00067 7.98794C7.64743 7.58649 8.25881 7.13068 8.82819 6.62543C8.88453 6.57401 8.9574 6.54441 9.03364 6.54196C9.10989 6.53952 9.18449 6.56439 9.24402 6.6121C9.27632 6.63906 9.30254 6.67256 9.32094 6.7104C9.33934 6.74824 9.34951 6.78955 9.35077 6.8316C9.35203 6.87366 9.34436 6.9155 9.32825 6.95437C9.31215 6.99324 9.28798 7.02826 9.25735 7.0571C8.65798 7.59659 8.01214 8.08209 7.32734 8.50794H7.30734L6.72734 8.83295C6.48224 8.97033 6.20581 9.04209 5.92483 9.04128C5.6338 9.04242 5.34761 8.96684 5.0951 8.82215C4.84258 8.67746 4.63266 8.46877 4.48649 8.21711L3.24898 6.08043C0.8823 7.76711 -0.572709 11.003 0.215629 15.1022C0.228575 15.1711 0.265078 15.2334 0.318892 15.2784C0.372706 15.3234 0.440486 15.3483 0.510631 15.3488H1.90647C1.98329 15.3506 2.0579 15.3231 2.11517 15.2719C2.17243 15.2206 2.20806 15.1495 2.21481 15.073C2.27922 14.5754 2.5226 14.1182 2.89949 13.787C3.27637 13.4557 3.76097 13.273 4.26274 13.273C4.7645 13.273 5.2491 13.4557 5.62599 13.787C6.00287 14.1182 6.24626 14.5754 6.31067 15.073C6.31942 15.1458 6.35452 15.2128 6.40933 15.2615C6.46414 15.3102 6.53487 15.3371 6.60817 15.3372H7.97318C8.04633 15.3365 8.11677 15.3094 8.17147 15.2609C8.22617 15.2123 8.26141 15.1455 8.27068 15.073C8.33579 14.576 8.57943 14.1197 8.95616 13.7891C9.33288 13.4585 9.81699 13.2762 10.3182 13.2762C10.8194 13.2762 11.3035 13.4585 11.6802 13.7891C12.057 14.1197 12.3006 14.576 12.3657 15.073C12.375 15.1457 12.4104 15.2125 12.4652 15.2611C12.5201 15.3097 12.5908 15.3367 12.664 15.3372H14.0199C14.0993 15.3372 14.1755 15.306 14.232 15.2503C14.2886 15.1947 14.3211 15.119 14.3224 15.0397C14.3532 13.128 14.8691 10.9313 16.3391 9.83129C21.4291 6.02293 20.0899 2.75957 18.9116 1.58123ZM13.7207 7.3321L12.7499 6.84543C12.75 6.74163 12.7767 6.63959 12.8273 6.54901C12.878 6.45842 12.951 6.38232 13.0395 6.32793C13.1279 6.27354 13.2287 6.24268 13.3324 6.23828C13.4361 6.23388 13.5392 6.25609 13.6319 6.3028C13.7246 6.34951 13.8039 6.41915 13.862 6.50512C13.9202 6.59109 13.9554 6.69051 13.9643 6.79393C13.9732 6.89734 13.9555 7.00132 13.9129 7.09596C13.8702 7.1906 13.8041 7.27275 13.7207 7.3346V7.3321Z" fill="#FDFDFD"/>
</svg>
