<svg width="17" height="18" viewBox="0 0 17 18" fill="none" xmlns="http://www.w3.org/2000/svg">
<g clip-path="url(#clip0_11955_53269)">
<path d="M6.3471 10.5939C5.82718 10.594 5.3189 10.4399 4.88656 10.1511C4.45423 9.86229 4.11725 9.45176 3.91826 8.97142C3.71927 8.49108 3.66721 7.96251 3.76866 7.45258C3.87012 6.94265 4.12052 6.47427 4.48821 6.10667L7.2004 3.39501C7.69337 2.90201 8.36199 2.62502 9.05917 2.625C9.75636 2.62498 10.425 2.90191 10.918 3.39488C11.411 3.88784 11.688 4.55647 11.688 5.25365C11.688 5.95084 11.4111 6.61948 10.9181 7.11248L10.6247 7.40605L9.87259 6.65545L10.1689 6.35906C10.4614 6.06503 10.6255 5.66701 10.6251 5.25223C10.6247 4.83745 10.4599 4.43973 10.1668 4.14625C9.86835 3.86144 9.47167 3.70253 9.05914 3.70253C8.6466 3.70253 8.24992 3.86144 7.95148 4.14625L5.23961 6.85775C5.09413 7.00316 4.97873 7.1758 4.9 7.36582C4.82127 7.55584 4.78074 7.75951 4.78074 7.96519C4.78074 8.17088 4.82127 8.37455 4.9 8.56457C4.97873 8.75458 5.09413 8.92723 5.23961 9.07264C5.53805 9.35745 5.93473 9.51636 6.34726 9.51636C6.7598 9.51636 7.15648 9.35745 7.45492 9.07264L8.20627 9.82409C7.96265 10.0689 7.67289 10.263 7.35377 10.3952C7.03465 10.5273 6.6925 10.5948 6.3471 10.5939Z" fill="#9FA0A0"/>
<path d="M10.5971 9.5317C10.0772 9.53181 9.5689 9.37772 9.13656 9.08892C8.70423 8.80012 8.36725 8.38959 8.16826 7.90925C7.96927 7.42891 7.91721 6.90035 8.01866 6.39042C8.12012 5.88049 8.37052 5.4121 8.73821 5.0445L9.03178 4.75093L9.78312 5.50244L9.48955 5.79585C9.34412 5.94126 9.22875 6.1139 9.15004 6.3039C9.07132 6.4939 9.03081 6.69755 9.03081 6.90321C9.03081 7.10887 9.07132 7.31252 9.15004 7.50252C9.22875 7.69253 9.34412 7.86516 9.48955 8.01058C9.78799 8.29539 10.1847 8.4543 10.5972 8.4543C11.0097 8.4543 11.4064 8.29539 11.7049 8.01058C11.843 7.87245 14.2173 5.49813 14.4171 5.29881C14.7103 5.00491 14.875 4.60668 14.875 4.1915C14.875 3.77632 14.7103 3.37809 14.4171 3.08419C14.1186 2.79937 13.7219 2.64047 13.3094 2.64047C12.8969 2.64047 12.5002 2.79937 12.2017 3.08419L11.4504 2.33273C11.9435 1.84048 12.6119 1.56415 13.3087 1.56445C14.0055 1.56476 14.6736 1.84168 15.1663 2.33437C15.6591 2.82705 15.936 3.49519 15.9363 4.19197C15.9367 4.88875 15.6604 5.55716 15.1681 6.05032C14.9681 6.25007 12.5948 8.62305 12.4567 8.76155C12.2131 9.00647 11.9232 9.20065 11.604 9.33284C11.2848 9.46504 10.9426 9.53263 10.5971 9.5317Z" fill="#9FA0A0"/>
<path d="M12.75 16.4375H2.125C1.8433 16.4372 1.57322 16.3252 1.37403 16.126C1.17483 15.9268 1.0628 15.6567 1.0625 15.375V4.75C1.0628 4.4683 1.17483 4.19822 1.37403 3.99903C1.57322 3.79983 1.8433 3.6878 2.125 3.6875H4.25V4.75H2.125V15.375H12.75V10.0625H13.8125V15.375C13.8122 15.6567 13.7002 15.9268 13.501 16.126C13.3018 16.3252 13.0317 16.4372 12.75 16.4375Z" fill="#9FA0A0"/>
</g>
<defs>
<clipPath id="clip0_11955_53269">
<rect width="17" height="17" fill="white" transform="translate(0 0.5)"/>
</clipPath>
</defs>
</svg>
