<svg width="264" height="264" viewBox="0 0 264 264" fill="none" xmlns="http://www.w3.org/2000/svg">
<rect opacity="0.0526316" x="22.3605" y="146.459" width="166.992" height="166.992" transform="rotate(-54 22.3605 146.459)" stroke="#9FA0A0" stroke-width="0.95181"/>
<rect opacity="0.105263" x="23.4384" y="140.132" width="164.312" height="164.312" transform="rotate(-51 23.4384 140.132)" stroke="#9FA0A0" stroke-width="0.95181"/>
<rect opacity="0.157895" x="24.8533" y="133.969" width="161.632" height="161.632" transform="rotate(-48 24.8533 133.969)" stroke="#9FA0A0" stroke-width="0.95181"/>
<rect opacity="0.210526" x="26.592" y="127.988" width="158.952" height="158.952" transform="rotate(-45 26.592 127.988)" stroke="#9FA0A0" stroke-width="0.95181"/>
<rect opacity="0.263158" x="28.6379" y="122.204" width="156.272" height="156.272" transform="rotate(-42 28.6379 122.204)" stroke="#9FA0A0" stroke-width="0.95181"/>
<rect opacity="0.315789" x="30.9765" y="116.635" width="153.592" height="153.592" transform="rotate(-39 30.9765 116.635)" stroke="#9FA0A0" stroke-width="0.95181"/>
<rect opacity="0.368421" x="33.5905" y="111.294" width="150.912" height="150.912" transform="rotate(-36 33.5905 111.294)" stroke="#9FA0A0" stroke-width="0.95181"/>
<rect opacity="0.421053" x="36.462" y="106.195" width="148.232" height="148.232" transform="rotate(-33 36.462 106.195)" stroke="#9FA0A0" stroke-width="0.95181"/>
<rect opacity="0.473684" x="39.5739" y="101.35" width="145.552" height="145.552" transform="rotate(-30 39.5739 101.35)" stroke="#9FA0A0" stroke-width="0.95181"/>
<rect opacity="0.526316" x="42.9062" y="96.7688" width="142.872" height="142.872" transform="rotate(-27 42.9062 96.7688)" stroke="#9FA0A0" stroke-width="0.95181"/>
<rect opacity="0.578947" x="46.4408" y="92.4622" width="140.192" height="140.192" transform="rotate(-24 46.4408 92.4622)" stroke="#9FA0A0" stroke-width="0.95181"/>
<rect opacity="0.631579" x="50.1583" y="88.4381" width="137.512" height="137.512" transform="rotate(-21 50.1583 88.4381)" stroke="#9FA0A0" stroke-width="0.95181"/>
<rect opacity="0.684211" x="54.0382" y="84.7036" width="134.832" height="134.832" transform="rotate(-18 54.0382 84.7036)" stroke="#9FA0A0" stroke-width="0.95181"/>
<rect opacity="0.736842" x="58.0614" y="81.2647" width="132.152" height="132.152" transform="rotate(-15 58.0614 81.2647)" stroke="#9FA0A0" stroke-width="0.95181"/>
<rect opacity="0.789474" x="62.2065" y="78.1254" width="129.472" height="129.472" transform="rotate(-12 62.2065 78.1254)" stroke="#9FA0A0" stroke-width="0.95181"/>
<rect opacity="0.842105" x="66.4547" y="75.2892" width="126.792" height="126.792" transform="rotate(-9 66.4547 75.2892)" stroke="#9FA0A0" stroke-width="0.95181"/>
<rect opacity="0.894737" x="70.7848" y="72.7579" width="124.113" height="124.113" transform="rotate(-6 70.7848 72.7579)" stroke="#9FA0A0" stroke-width="0.95181"/>
<rect opacity="0.947368" x="75.1769" y="70.5321" width="121.433" height="121.433" transform="rotate(-3 75.1769 70.5321)" stroke="#9FA0A0" stroke-width="0.95181"/>
<rect x="79.6112" y="68.6113" width="118.753" height="118.753" stroke="#9FA0A0" stroke-width="0.95181"/>
<path d="M125.476 108.892C125.394 109.075 125.323 109.319 125.252 109.605L125.201 109.829C125.181 109.91 125.17 109.992 125.15 110.073L125.099 110.338L125.058 110.613L125.018 110.909L124.977 111.214L124.936 111.54L124.906 111.876L124.885 112.049L124.855 112.416L124.824 112.793L124.804 113.18C124.804 113.251 124.804 113.313 124.793 113.384L127.208 114.555C127.167 113.15 127.208 111.815 127.34 110.583L127.371 110.369L127.35 110.572L127.33 110.898V111.051L127.31 111.408V111.611L127.299 112.06V112.854L127.31 113.15V113.618L127.34 113.954L127.36 114.311V114.494C127.819 114.127 128.359 113.649 128.919 113.119L129.296 112.762C129.357 112.701 129.418 112.64 129.489 112.579L129.866 112.212L130.243 111.846L130.61 111.479L130.956 111.122C130.569 110.328 130.152 109.757 129.764 109.33L129.632 109.197C129.551 109.106 129.469 109.034 129.388 108.963L129.265 108.861L129.153 108.769C129.153 108.769 129.082 108.708 129.041 108.688L128.939 108.617L128.837 108.545L128.695 108.464L128.573 108.392L128.44 108.321L128.338 108.28L128.155 108.209L128.023 108.168L127.89 108.128L127.788 108.107L127.676 108.087C127.676 108.087 127.635 108.087 127.615 108.077L127.493 108.056L127.371 108.036C126.698 107.954 125.843 108.036 125.466 108.912L125.476 108.892Z" fill="#9FA0A0"/>
<path d="M131.853 138.076L131.517 136.853L131.221 135.763L131.099 135.285L130.855 134.337L130.62 133.41L130.386 132.453L130.274 131.984L130.05 131.068L129.826 130.12C129.724 129.662 129.622 129.214 129.52 128.755L129.327 127.859L129.235 127.421L129.103 126.799L128.817 125.322L128.756 124.996L128.634 124.355L128.593 124.141L128.563 123.988L128.451 124.09L128.216 123.968L128.237 124.049C128.288 124.375 128.349 124.691 128.4 125.017L128.593 126.066L128.644 126.351C128.756 126.942 128.868 127.533 128.99 128.113L129.113 128.704C129.276 129.499 129.459 130.293 129.632 131.078C129.805 131.852 129.989 132.626 130.182 133.39C130.305 133.899 130.437 134.409 130.559 134.918L130.753 135.672C130.956 136.456 131.16 137.24 131.374 137.994C131.415 138.167 131.466 138.341 131.517 138.514L131.771 139.431C131.853 139.736 131.945 140.032 132.026 140.327L132.413 140.521L132.546 140.408C132.546 140.408 132.546 140.368 132.525 140.358C132.271 139.583 132.057 138.809 131.843 138.066L131.853 138.076Z" fill="#9FA0A0"/>
<path d="M127.85 121.686C127.738 120.891 127.636 120.107 127.544 119.312C127.473 118.681 127.412 118.039 127.361 117.397L127.32 116.837C127.32 116.837 127.32 116.807 127.32 116.796C127.269 116.053 127.229 115.299 127.208 114.555L124.794 113.394V113.537L124.774 113.842C124.753 114.423 124.733 115.034 124.723 115.676C124.723 116.399 124.723 117.163 124.733 117.958C124.753 118.691 124.784 119.455 124.814 120.229C124.845 120.728 124.875 121.227 124.916 121.737L124.957 122.328L128.186 123.957L128.074 123.193L127.84 121.686H127.85Z" fill="#9FA0A0"/>
<path d="M132.515 140.419L132.566 140.592L132.882 141.682C132.933 141.835 132.974 141.987 133.024 142.15L133.177 142.649L133.228 142.823C133.228 142.823 133.249 142.884 133.259 142.914L133.778 144.575C134.237 144.483 134.797 144.646 135.388 144.911L135.622 145.023C135.184 144.493 134.583 144.147 133.86 144.065C135.836 142.751 137.13 141.05 136.956 139.023C136.936 138.84 136.905 138.656 136.875 138.473C136.844 139.217 136.549 139.767 135.683 140.347L135.581 140.419C136.478 138.85 136.722 137.78 136.61 136.405C136.58 136.059 136.539 135.702 136.488 135.356C136.203 137.403 135.102 138.738 133.493 139.522L132.515 140.419Z" fill="#9FA0A0"/>
<path d="M131.364 138.004L131.16 137.24L130.753 135.682C130.559 134.928 130.366 134.164 130.182 133.4C129.999 132.636 129.816 131.862 129.632 131.088C129.449 130.293 129.276 129.509 129.113 128.714L128.95 127.93L128.634 126.361C128.573 126.076 128.522 125.791 128.481 125.506C128.39 125.027 128.308 124.538 128.227 124.049L128.206 123.967L124.998 122.327V122.429C124.998 122.429 125.008 122.46 125.008 122.48C125.069 123.203 125.14 123.947 125.222 124.681C125.303 125.434 125.405 126.188 125.517 126.952C125.609 127.594 125.711 128.236 125.823 128.877L125.894 129.264C126.179 130.813 126.536 132.341 126.974 133.848C127.116 134.317 127.249 134.765 127.391 135.193L127.514 135.549L127.768 136.263C128.074 137.088 128.41 137.903 128.787 138.697L132.026 140.337C131.853 139.736 131.69 139.135 131.517 138.524L131.425 138.178L131.374 138.004H131.364Z" fill="#9FA0A0"/>
<path d="M128.818 138.809C129.205 139.634 129.633 140.449 130.101 141.234L130.366 141.651C130.06 141.529 129.673 141.468 129.296 141.437H129.113C129.113 141.437 129.052 141.427 129.021 141.427H128.838H128.583H128.359L128.166 141.447L127.901 141.468C129.541 142.038 130.977 142.731 131.884 143.79C131.527 144.188 130.845 144.493 129.999 144.738C130.631 144.809 131.11 144.778 131.456 144.717L131.599 144.687C131.599 144.687 131.639 144.687 131.66 144.677L131.772 144.646L131.874 144.615L131.996 144.575L132.057 144.544C131.537 144.982 131.211 145.716 130.936 146.551L130.845 146.846L130.804 146.999C131.497 145.868 132.179 145.125 132.841 144.84C133.585 147.305 134.441 149.933 135.388 152.673L135.826 153.946C135.979 154.374 136.132 154.802 136.274 155.23C136.498 154.944 136.519 154.629 136.427 154.313L136.121 153.457L135.775 152.459L135.245 150.88L134.807 149.556L134.329 148.058L133.87 146.602L133.442 145.237L133.127 144.208L132.872 143.363C132.841 143.25 132.811 143.138 132.77 143.026L132.678 142.711L132.403 141.763L132.128 140.796L132.006 140.347L128.767 138.697C128.767 138.728 128.777 138.748 128.797 138.768L128.818 138.809Z" fill="#9FA0A0"/>
<path d="M128.573 124.029L128.634 124.344C128.675 124.558 128.715 124.772 128.756 124.996L129.113 126.799L129.245 127.431L129.428 128.317L129.53 128.765C129.632 129.214 129.734 129.672 129.836 130.13L130.06 131.078L130.284 131.994L130.396 132.463L130.63 133.41L130.865 134.337C130.987 134.806 131.109 135.285 131.231 135.763C131.323 136.12 131.425 136.487 131.527 136.853L131.863 138.076L132.118 138.982L132.382 139.899C132.423 140.052 132.474 140.215 132.515 140.368C132.515 140.388 132.515 140.408 132.535 140.419L133.513 139.522H133.493L133.442 139.553C134.603 138.453 135.591 136.263 135.826 134.286C135.927 133.37 135.917 132.402 135.795 131.343C135.703 130.558 135.54 129.723 135.326 128.826C135.123 127.991 134.878 127.176 134.603 126.361C134.42 126.728 134.165 127.085 133.86 127.441L133.686 127.624L133.625 127.686L133.503 127.808C134.359 126.473 134.461 125.047 134.206 123.57C134.053 124.008 133.747 124.66 133.238 125.251C133.177 125.333 133.096 125.404 133.024 125.485C133.014 125.485 133.004 125.506 132.983 125.516L132.963 125.536C133.248 125.068 133.462 124.609 133.595 124.161C133.615 124.1 133.635 124.029 133.646 123.968L133.666 123.866C133.697 123.723 133.727 123.57 133.747 123.417L133.778 123.132C133.788 122.959 133.798 122.786 133.778 122.613L133.758 122.287C133.758 122.287 133.758 122.236 133.758 122.215L133.727 122.002C133.727 122.002 133.717 121.94 133.707 121.9C133.646 121.513 133.564 121.166 133.493 120.861L133.422 120.586L133.36 120.351L133.279 120.076L133.167 119.75C133.167 119.75 133.146 119.689 133.136 119.659L133.075 119.496C133.075 119.496 133.034 119.404 133.014 119.363L132.963 119.251C132.963 119.251 132.943 119.343 132.922 119.384L132.892 119.445C132.688 119.924 132.22 120.565 131.792 121.024C131.792 121.024 131.781 121.024 131.781 121.044L131.69 121.136C131.69 121.136 131.659 121.166 131.649 121.187L131.669 121.156L128.593 123.978C128.593 123.978 128.624 124.018 128.624 124.029H128.573Z" fill="#9FA0A0"/>
<path d="M127.381 114.504C127.392 114.728 127.412 114.963 127.422 115.207L127.463 115.706C127.463 115.788 127.473 115.879 127.483 115.961L127.534 116.501L127.555 116.776V116.868C127.555 116.868 127.565 116.898 127.565 116.908C127.595 117.183 127.616 117.469 127.656 117.754L127.728 118.345C127.748 118.548 127.779 118.752 127.799 118.966L127.931 119.934C127.993 120.372 128.054 120.83 128.125 121.299L128.186 121.655C128.237 122.022 128.298 122.399 128.369 122.786L128.573 123.978L131.66 121.156C132.301 119.995 132.444 119.272 132.434 118.365C132.434 118.182 132.424 117.998 132.413 117.805V117.611C132.352 116.796 132.261 115.981 132.118 115.177C131.996 114.392 131.833 113.638 131.66 112.997C131.558 112.62 131.446 112.253 131.303 111.897C131.201 111.632 131.089 111.377 130.967 111.133L130.621 111.489C130.56 111.55 130.498 111.611 130.437 111.672L130.071 112.039L129.694 112.406L129.317 112.773L129.133 112.956L128.757 113.302C128.318 113.72 127.86 114.117 127.392 114.504H127.381Z" fill="#9FA0A0"/>
<path d="M157.044 109.503C156.942 109.543 156.84 109.594 156.718 109.656L156.535 109.757C156.413 109.829 156.28 109.91 156.138 110.002L155.924 110.144L155.699 110.297L155.465 110.47L155.221 110.654L155.099 110.756L154.834 110.959L154.569 111.173L154.284 111.408L153.998 111.652L153.703 111.907L153.397 112.172L153.092 112.447L152.939 112.589L153.958 115.452C155.058 114.28 156.158 113.231 157.248 112.345L157.635 112.039L157.665 112.019L157.401 112.233L157.146 112.457L156.871 112.711L156.606 112.956L156.382 113.17L156.219 113.323L155.873 113.669L155.587 113.954L155.18 114.382L154.966 114.616L154.742 114.861L154.385 115.248L154.141 115.523C154.396 115.543 154.671 115.564 154.966 115.584L155.424 115.604L155.903 115.625L156.402 115.645H156.912L157.431 115.666H157.686H158.205C158.287 115.666 158.379 115.666 158.46 115.666H158.969C159.051 115.666 159.143 115.666 159.224 115.666H159.713C160.12 114.453 160.212 113.486 160.182 112.762V112.579L160.151 112.406V112.324L160.12 112.172L160.1 112.029V111.958L160.059 111.835L160.029 111.723L159.998 111.622L159.968 111.53L159.917 111.377L159.876 111.275L159.774 111.061L159.713 110.949L159.662 110.858L159.601 110.756L159.53 110.644L159.458 110.532L159.377 110.42C158.918 109.798 158.124 109.095 157.075 109.523L157.044 109.503Z" fill="#9FA0A0"/>
<path d="M138.556 138.83L138.984 138.055L139.564 137.026L140.074 136.13L140.328 135.692L140.889 134.724L141.439 133.777L141.714 133.308C141.999 132.83 142.274 132.361 142.559 131.882L143.109 130.966C143.578 130.202 144.046 129.438 144.525 128.684L145.085 127.808L145.36 127.38L145.758 126.769L146.237 126.056L146.695 125.363L146.909 125.047L147.316 124.426L147.388 124.324L147.52 124.13L147.551 124.08H147.377L147.276 123.784L147.225 123.866C147.011 124.161 146.797 124.467 146.583 124.782L145.9 125.791L145.717 126.066C145.34 126.626 144.963 127.197 144.597 127.767L144.23 128.348C143.731 129.122 143.242 129.896 142.763 130.67C142.284 131.434 141.826 132.198 141.367 132.972C141.062 133.482 140.766 133.991 140.461 134.5L140.023 135.264C139.564 136.049 139.116 136.833 138.668 137.628C138.566 137.801 138.464 137.984 138.373 138.157C138.026 138.779 137.68 139.4 137.344 140.021L137.497 140.49H137.69C137.69 140.49 137.71 140.47 137.721 140.449C137.996 139.899 138.281 139.359 138.566 138.84L138.556 138.83Z" fill="#9FA0A0"/>
<path d="M148.793 121.686C149.343 120.952 149.893 120.229 150.433 119.536C151.004 118.813 151.574 118.12 152.145 117.438C152.175 117.397 152.216 117.357 152.246 117.326C152.797 116.684 153.367 116.053 153.937 115.431L152.919 112.579L152.797 112.691L152.542 112.925C152.033 113.394 151.533 113.873 151.044 114.362C150.749 114.647 150.454 114.953 150.158 115.258L149.547 115.89L149.241 116.216C148.651 116.837 148.08 117.469 147.51 118.11C147.133 118.538 146.766 118.966 146.389 119.404L145.961 119.913L147.255 123.794L147.764 123.091L148.783 121.696L148.793 121.686Z" fill="#9FA0A0"/>
<path d="M137.659 140.47L137.466 140.826L136.956 141.773C136.875 141.936 136.783 142.099 136.702 142.262L136.437 142.782C136.386 142.874 136.335 142.965 136.294 143.057L136.009 143.607L135.388 144.809C135.897 145.135 136.233 145.838 136.529 146.632C136.59 145.868 136.386 145.104 135.877 144.463C138.515 144.972 140.909 144.636 142.365 142.863C142.488 142.7 142.62 142.537 142.742 142.354C142.121 142.935 141.449 143.138 140.277 142.914L140.145 142.884C142.111 142.323 143.16 141.661 144.168 140.47C144.423 140.164 144.668 139.848 144.902 139.522C143.038 140.948 141.102 141.142 139.177 140.49L137.669 140.439L137.659 140.47Z" fill="#9FA0A0"/>
<path d="M138.546 137.79L139.096 136.833L140.002 135.254C140.451 134.49 140.899 133.726 141.347 132.962C141.805 132.198 142.274 131.424 142.742 130.66C143.221 129.876 143.71 129.101 144.209 128.337C144.698 127.573 145.197 126.809 145.697 126.056C145.88 125.781 146.053 125.516 146.247 125.241C146.562 124.782 146.878 124.324 147.204 123.866L147.255 123.784L145.972 119.923L145.9 120.015C145.9 120.015 145.87 120.046 145.86 120.056C145.34 120.687 144.8 121.339 144.281 122.001C143.751 122.674 143.231 123.356 142.712 124.059C142.274 124.65 141.856 125.251 141.428 125.852L141.174 126.219C140.175 127.685 139.249 129.203 138.403 130.762C138.148 131.23 137.904 131.699 137.67 132.178C137.486 132.565 137.303 132.962 137.12 133.349C136.712 134.256 136.335 135.173 135.999 136.11L137.303 140.011L137.558 139.553L138.077 138.626C138.169 138.473 138.25 138.31 138.342 138.157L138.546 137.811V137.79Z" fill="#9FA0A0"/>
<path d="M135.958 136.232C135.612 137.21 135.317 138.198 135.072 139.206L134.95 139.757C134.838 139.482 134.644 139.206 134.43 138.942L134.298 138.789C134.298 138.789 134.257 138.738 134.227 138.707L134.094 138.555L133.962 138.412L133.829 138.28L133.636 138.096L133.463 137.933L133.279 137.77L133.106 137.628C133.972 139.39 134.573 141.091 134.471 142.66C133.87 142.69 133.086 142.395 132.21 141.926C132.587 142.385 132.933 142.721 133.228 142.945L133.361 143.047C133.361 143.047 133.402 143.077 133.422 143.088L133.544 143.169L133.656 143.24L133.758 143.301L133.85 143.352L133.931 143.393L134.003 143.424H134.033C133.3 143.373 132.485 143.689 131.639 144.106L131.354 144.249L131.069 144.402C132.515 144.045 133.666 143.984 134.43 144.279C134.043 145.003 133.666 145.726 133.3 146.459L132.729 147.58C131.843 149.342 130.977 151.114 130.122 152.897L129.531 154.13C129.337 154.547 129.133 154.965 128.94 155.383C129.337 155.332 129.612 155.097 129.796 154.761L130.458 153.355L131.069 152.092L131.853 150.503L132.546 149.118L133.228 147.763L133.88 146.5L134.777 144.768L135.419 143.556L135.643 143.138L135.836 142.792L136.009 142.466L136.274 141.977L136.814 140.989L137.089 140.48L137.344 140.021L136.04 136.12C136.02 136.151 136.009 136.171 135.999 136.201L135.979 136.242L135.958 136.232Z" fill="#9FA0A0"/>
<path d="M147.509 124.141L147.306 124.436C147.173 124.64 147.031 124.844 146.888 125.057L146.216 126.066L145.737 126.779L145.615 126.962C145.431 127.237 145.248 127.523 145.065 127.808L144.504 128.684C144.128 129.285 143.751 129.886 143.384 130.487L143.099 130.955C142.63 131.73 142.162 132.514 141.693 133.288L141.143 134.225C140.868 134.694 140.593 135.173 140.308 135.672C140.145 135.967 139.972 136.263 139.809 136.558L138.983 138.035L138.729 138.493L138.209 139.43C138.036 139.746 137.863 140.072 137.69 140.388C137.68 140.408 137.669 140.419 137.659 140.439L139.167 140.49C139.167 140.49 139.116 140.47 139.075 140.459C140.878 140.5 143.425 139.522 145.177 138.106C145.982 137.454 146.745 136.67 147.489 135.712C148.039 135.01 148.569 134.215 149.109 133.319C149.608 132.483 150.066 131.628 150.484 130.762C150.046 130.915 149.557 131.006 149.027 131.037H148.742C148.681 131.057 148.62 131.057 148.548 131.057H148.447C150.199 130.67 151.411 129.601 152.389 128.205C151.91 128.439 151.146 128.714 150.28 128.786C150.158 128.786 150.046 128.796 149.924 128.796C149.903 128.796 149.883 128.796 149.863 128.796H149.832C150.433 128.633 150.963 128.439 151.431 128.185C151.503 128.154 151.564 128.113 151.625 128.073L151.716 128.011C151.859 127.92 152.002 127.818 152.134 127.716L152.389 127.512C152.582 127.339 152.766 127.156 152.939 126.942L153.051 126.82C153.051 126.82 153.081 126.779 153.102 126.759L153.244 126.565C153.244 126.565 153.285 126.504 153.306 126.473C153.54 126.137 153.764 125.801 153.968 125.445L154.049 125.312C154.151 125.139 154.233 124.986 154.314 124.833L154.406 124.66L154.548 124.375C154.579 124.314 154.599 124.263 154.63 124.212L154.671 124.12L154.742 123.947C154.762 123.896 154.783 123.845 154.793 123.804L154.813 123.743C154.813 123.743 154.732 123.794 154.681 123.815L154.599 123.845C154.059 124.069 153.163 124.212 152.46 124.243C152.45 124.243 152.44 124.243 152.43 124.243H152.287C152.287 124.243 152.236 124.243 152.216 124.243H152.256L147.54 124.049C147.54 124.09 147.54 124.1 147.52 124.11L147.509 124.141Z" fill="#9FA0A0"/>
<path d="M154.121 115.523C153.948 115.716 153.775 115.91 153.601 116.124L153.235 116.552L152.848 117.01L152.389 117.57C152.389 117.57 152.369 117.601 152.359 117.611C152.094 117.937 151.829 118.273 151.544 118.63L151.116 119.18L150.902 119.465L150.291 120.27L149.894 120.8C149.69 121.075 149.486 121.35 149.272 121.645L149.058 121.94C148.844 122.236 148.63 122.531 148.416 122.837L147.978 123.458L147.53 124.1L152.247 124.273C153.693 123.845 154.376 123.377 155.089 122.643C155.231 122.49 155.374 122.338 155.516 122.175L155.659 122.012C156.26 121.319 156.831 120.586 157.37 119.832C157.89 119.098 158.358 118.375 158.735 117.713C158.949 117.336 159.153 116.939 159.326 116.542C159.459 116.236 159.56 115.941 159.662 115.655H159.173L158.674 115.666H158.165H157.645H157.391H156.871H156.362L156.117 115.645L155.628 115.625C155.547 115.625 155.476 115.625 155.394 115.615L154.936 115.594C154.64 115.574 154.365 115.554 154.111 115.533L154.121 115.523Z" fill="#9FA0A0"/>
<g style="mix-blend-mode:plus-lighter" filter="url(#filter0_f_10992_8629)">
<ellipse cx="89.9814" cy="180.123" rx="41.4037" ry="36.1688" fill="#69FFB4"/>
</g>
<g style="mix-blend-mode:plus-lighter" filter="url(#filter1_f_10992_8629)">
<ellipse cx="174.692" cy="83.9904" rx="41.4037" ry="36.1688" fill="#FF69B4"/>
</g>
<defs>
<filter id="filter0_f_10992_8629" x="0.987118" y="96.3639" width="177.989" height="167.519" filterUnits="userSpaceOnUse" color-interpolation-filters="sRGB">
<feFlood flood-opacity="0" result="BackgroundImageFix"/>
<feBlend mode="normal" in="SourceGraphic" in2="BackgroundImageFix" result="shape"/>
<feGaussianBlur stdDeviation="23.7953" result="effect1_foregroundBlur_10992_8629"/>
</filter>
<filter id="filter1_f_10992_8629" x="85.6981" y="0.231045" width="177.989" height="167.519" filterUnits="userSpaceOnUse" color-interpolation-filters="sRGB">
<feFlood flood-opacity="0" result="BackgroundImageFix"/>
<feBlend mode="normal" in="SourceGraphic" in2="BackgroundImageFix" result="shape"/>
<feGaussianBlur stdDeviation="23.7953" result="effect1_foregroundBlur_10992_8629"/>
</filter>
</defs>
</svg>
