<svg width="329" height="315" viewBox="0 0 329 315" fill="none" xmlns="http://www.w3.org/2000/svg">
<path opacity="0.0526316" fill-rule="evenodd" clip-rule="evenodd" d="M259.487 109.864L159.091 58.944L64.5667 120.08L70.4393 232.135L170.836 283.056L265.36 221.92L259.487 109.864ZM166.921 208.352C187.638 207.266 203.557 189.663 202.476 169.034C201.395 148.405 183.723 132.562 163.006 133.648C142.288 134.734 126.37 152.337 127.451 172.966C128.532 193.595 146.203 209.438 166.921 208.352Z" stroke="#9FA0A0" stroke-width="1.88588" stroke-linejoin="round"/>
<path opacity="0.105263" fill-rule="evenodd" clip-rule="evenodd" d="M258.233 113.019L161.146 61.6859L67.876 119.667L71.6933 228.981L168.781 280.314L262.051 222.333L258.233 113.019ZM166.236 207.438C186.468 206.732 202.3 189.845 201.598 169.721C200.895 149.597 183.924 133.855 163.691 134.562C143.458 135.269 127.626 152.155 128.329 172.279C129.032 192.404 146.003 208.145 166.236 207.438Z" stroke="#9FA0A0" stroke-width="1.88588" stroke-linejoin="round"/>
<path opacity="0.157895" fill-rule="evenodd" clip-rule="evenodd" d="M256.899 116.111L163.104 64.4641L71.1681 119.353L73.0277 225.889L166.823 277.536L258.758 222.647L256.899 116.111ZM165.583 206.512C185.324 206.167 201.049 189.989 200.707 170.376C200.365 150.763 184.084 135.143 164.343 135.488C144.602 135.833 128.877 152.011 129.219 171.624C129.562 191.237 145.842 206.856 165.583 206.512Z" stroke="#9FA0A0" stroke-width="1.88588" stroke-linejoin="round"/>
<path opacity="0.210526" fill-rule="evenodd" clip-rule="evenodd" d="M255.486 119.138L164.963 67.2768L74.4414 119.138L74.4414 222.862L164.963 274.723L255.486 222.862L255.486 119.138ZM164.963 205.574C184.206 205.574 199.805 190.095 199.805 171C199.805 151.905 184.206 136.426 164.963 136.426C145.721 136.426 130.122 151.905 130.122 171C130.122 190.095 145.721 205.574 164.963 205.574Z" stroke="#9FA0A0" stroke-width="1.88588" stroke-linejoin="round"/>
<path opacity="0.263158" fill-rule="evenodd" clip-rule="evenodd" d="M253.995 122.099L166.724 70.1209L77.6923 119.022L75.9315 219.901L163.202 271.879L252.234 222.978L253.995 122.099ZM164.376 204.626C183.115 204.953 198.568 190.163 198.893 171.592C199.217 153.021 184.289 137.701 165.55 137.374C146.811 137.046 131.358 151.836 131.034 170.408C130.71 188.979 145.638 204.299 164.376 204.626Z" stroke="#9FA0A0" stroke-width="1.88588" stroke-linejoin="round"/>
<path opacity="0.315789" fill-rule="evenodd" clip-rule="evenodd" d="M252.429 124.992L168.385 72.9941L80.9192 119.002L77.4967 217.008L161.541 269.006L249.007 222.998L252.429 124.992ZM163.822 203.669C182.052 204.305 197.34 190.195 197.97 172.153C198.6 154.11 184.333 138.968 166.104 138.331C147.875 137.695 132.586 151.805 131.956 169.847C131.326 187.89 145.593 203.032 163.822 203.669Z" stroke="#9FA0A0" stroke-width="1.88588" stroke-linejoin="round"/>
<path opacity="0.368421" fill-rule="evenodd" clip-rule="evenodd" d="M250.791 127.814L169.947 75.8938L84.1197 119.079L79.1354 214.186L159.979 266.106L245.807 222.921L250.791 127.814ZM163.302 202.702C181.017 203.631 196.122 190.19 197.039 172.681C197.957 155.172 184.34 140.226 166.625 139.298C148.91 138.37 133.805 151.81 132.887 169.319C131.97 186.828 145.587 201.774 163.302 202.702Z" stroke="#9FA0A0" stroke-width="1.88588" stroke-linejoin="round"/>
<path opacity="0.421053" fill-rule="evenodd" clip-rule="evenodd" d="M249.081 130.565L171.409 78.817L87.2911 119.252L80.8451 211.435L158.517 263.183L242.635 222.748L249.081 130.565ZM162.815 201.727C180.011 202.93 194.913 190.148 196.1 173.177C197.287 156.207 184.308 141.475 167.112 140.272C149.916 139.07 135.013 151.852 133.827 168.823C132.64 185.793 145.618 200.525 162.815 201.727Z" stroke="#9FA0A0" stroke-width="1.88588" stroke-linejoin="round"/>
<path opacity="0.473684" fill-rule="evenodd" clip-rule="evenodd" d="M247.303 133.243L172.771 81.7616L90.4313 119.519L82.624 208.757L157.156 260.238L239.495 222.481L247.303 133.243ZM162.361 200.746C179.034 202.205 193.716 190.069 195.153 173.641C196.591 157.213 184.239 142.713 167.566 141.254C150.892 139.795 136.211 151.93 134.773 168.359C133.336 184.787 145.687 199.287 162.361 200.746Z" stroke="#9FA0A0" stroke-width="1.88588" stroke-linejoin="round"/>
<path opacity="0.526316" fill-rule="evenodd" clip-rule="evenodd" d="M245.457 135.846L174.031 84.7248L93.5378 119.879L84.47 206.154L155.896 257.275L236.389 222.121L245.457 135.846ZM161.941 199.758C178.088 201.455 192.531 189.956 194.2 174.073C195.87 158.19 184.133 143.939 167.986 142.242C151.839 140.544 137.396 152.044 135.727 167.927C134.057 183.81 145.794 198.061 161.941 199.758Z" stroke="#9FA0A0" stroke-width="1.88588" stroke-linejoin="round"/>
<path opacity="0.578947" fill-rule="evenodd" clip-rule="evenodd" d="M243.546 138.373L175.191 87.7038L96.608 120.331L86.3805 203.627L154.736 254.296L233.318 221.669L243.546 138.373ZM161.554 198.765C177.172 200.683 191.359 189.806 193.241 174.472C195.124 159.138 183.99 145.152 168.372 143.234C152.755 141.317 138.568 152.193 136.685 167.528C134.802 182.862 145.936 196.848 161.554 198.765Z" stroke="#9FA0A0" stroke-width="1.88588" stroke-linejoin="round"/>
<path opacity="0.631579" fill-rule="evenodd" clip-rule="evenodd" d="M241.572 140.822L176.249 90.6965L99.6402 120.875L88.3543 201.178L153.677 251.303L230.286 221.125L241.572 140.822ZM161.201 197.768C176.287 199.888 190.2 189.622 192.278 174.839C194.356 160.055 183.811 146.352 168.725 144.232C153.64 142.112 139.726 152.378 137.648 167.161C135.571 181.945 146.116 195.648 161.201 197.768Z" stroke="#9FA0A0" stroke-width="1.88588" stroke-linejoin="round"/>
<path opacity="0.684211" fill-rule="evenodd" clip-rule="evenodd" d="M239.538 143.192L177.207 93.6997L102.632 121.508L90.3892 198.808L152.72 248.3L227.295 220.492L239.538 143.192ZM160.882 196.767C175.434 199.071 189.057 189.404 191.311 175.173C193.565 160.942 183.596 147.538 169.044 145.233C154.493 142.929 140.87 152.596 138.616 166.827C136.362 181.058 146.331 194.462 160.882 196.767Z" stroke="#9FA0A0" stroke-width="1.88588" stroke-linejoin="round"/>
<path opacity="0.736842" fill-rule="evenodd" clip-rule="evenodd" d="M237.444 145.481L178.062 96.711L105.581 122.23L92.4821 196.519L151.864 245.289L224.345 219.77L237.444 145.481ZM160.597 195.763C174.612 198.234 187.929 189.151 190.34 175.475C192.752 161.798 183.345 148.708 169.33 146.237C155.314 143.766 141.998 152.849 139.586 166.525C137.175 180.202 146.581 193.292 160.597 195.763Z" stroke="#9FA0A0" stroke-width="1.88588" stroke-linejoin="round"/>
<path opacity="0.789474" fill-rule="evenodd" clip-rule="evenodd" d="M235.295 147.688L178.817 99.7277L108.486 123.039L94.6317 194.311L151.109 242.272L221.441 218.961L235.295 147.688ZM160.345 194.757C173.823 197.377 186.817 188.865 189.368 175.744C191.918 162.623 183.059 149.862 169.581 147.243C156.103 144.623 143.109 153.135 140.559 166.256C138.008 179.377 146.867 192.137 160.345 194.757Z" stroke="#9FA0A0" stroke-width="1.88588" stroke-linejoin="round"/>
<path opacity="0.842105" fill-rule="evenodd" clip-rule="evenodd" d="M233.091 149.813L179.471 102.747L111.343 123.934L96.8359 192.187L150.456 239.253L218.584 218.065L233.091 149.813ZM160.128 193.751C173.068 196.501 185.723 188.545 188.394 175.98C191.065 163.415 182.74 151 169.799 148.249C156.859 145.498 144.204 153.455 141.533 166.02C138.862 178.585 147.187 191 160.128 193.751Z" stroke="#9FA0A0" stroke-width="1.88588" stroke-linejoin="round"/>
<path opacity="0.894737" fill-rule="evenodd" clip-rule="evenodd" d="M230.835 151.853L180.024 105.767L114.152 124.914L99.0914 190.147L149.903 236.233L215.775 217.086L230.835 151.853ZM159.943 192.744C172.345 195.607 184.647 188.193 187.419 176.184C190.192 164.175 182.385 152.119 169.983 149.256C157.581 146.392 145.28 153.807 142.508 165.816C139.735 177.825 147.541 189.881 159.943 192.744Z" stroke="#9FA0A0" stroke-width="1.88588" stroke-linejoin="round"/>
<path opacity="0.947368" fill-rule="evenodd" clip-rule="evenodd" d="M228.53 153.808L180.475 108.785L116.909 125.977L101.397 188.192L149.451 233.215L213.018 216.023L228.53 153.808ZM159.793 191.738C171.656 194.696 183.589 187.809 186.445 176.356C189.3 164.902 181.998 153.22 170.134 150.262C158.27 147.304 146.337 154.19 143.482 165.644C140.626 177.097 147.929 188.78 159.793 191.738Z" stroke="#9FA0A0" stroke-width="1.88588" stroke-linejoin="round"/>
<path fill-rule="evenodd" clip-rule="evenodd" d="M226.177 155.676L180.827 111.797L119.613 127.122L103.75 186.324L149.1 230.202L210.314 214.878L226.177 155.676ZM159.676 190.734C171.002 193.769 182.551 187.394 185.472 176.495C188.392 165.596 181.578 154.301 170.251 151.266C158.925 148.231 147.375 154.606 144.455 165.505C141.535 176.404 148.349 187.699 159.676 190.734Z" stroke="#9FA0A0" stroke-width="1.88588" stroke-linejoin="round"/>
<circle cx="164.998" cy="171" r="43.3752" fill="#101112"/>
<path d="M167.058 175.185C165.771 175.864 158.389 176.017 155.58 170.176C155.557 170.12 155.532 170.064 155.512 170.008C155.512 170.008 160.094 175.472 167.845 172.921C172.679 181.018 183.258 176.846 184.795 169.392C185.077 178.532 172.612 183.409 167.058 175.185ZM181.296 168.561C181.296 168.561 180.511 165.475 176.979 166.604C176.991 166.431 177.036 166.264 177.124 166.113C178.166 164.264 182.34 166.719 181.296 168.563V168.561Z" fill="#9FA0A0"/>
<path d="M175.201 186.113C174.757 186.469 172.849 187.532 172.627 187.611C169.47 186.607 166.14 183.432 165.023 180.247C159.472 181.554 154.355 175.678 154.747 170.616C155.98 175.549 161.244 179.352 166.283 177.716C166.283 177.716 166.903 179.29 166.965 179.425C167.283 180.107 167.675 180.779 168.09 181.392C168.66 182.234 169.297 182.984 170.072 183.651C171.325 184.727 172.817 185.564 174.417 185.955C174.532 185.983 174.647 186.011 174.767 186.034C174.912 186.065 175.057 186.09 175.201 186.113ZM169.047 162.155C169.047 162.155 168.263 159.067 164.731 160.197C165.161 157.505 170.2 160.136 169.047 162.155Z" fill="#9FA0A0"/>
<path d="M184.367 166.721C182.14 163.305 176.311 163.44 173.234 164.386C172.627 159.255 167.158 155.89 162.796 155.681C167.56 155.063 172.584 157.739 174.412 162.374C178.406 162.206 182.693 161.552 184.347 166.655C184.355 166.678 184.362 166.701 184.37 166.721H184.367Z" fill="#9FA0A0"/>
<path d="M157.449 157.531C157.449 157.531 157.009 157.256 156.829 157.096C155.017 155.613 155.39 151.919 157.822 151.53H157.824C158.592 151.453 159.304 151.705 159.881 152.155C155.995 153.087 157.397 157.375 157.449 157.531Z" fill="#9FA0A0"/>
<path d="M170.815 188.41C153.088 195.202 140.095 169.629 155.672 158.65C155.71 158.622 155.75 158.596 155.79 158.568C155.84 158.533 155.89 158.5 155.94 158.467C144.654 170.664 152.668 190.402 170.817 188.41H170.815Z" fill="#9FA0A0"/>
<path d="M184.367 166.721C182.14 163.305 176.311 163.44 173.234 164.386C172.627 159.255 167.158 155.89 162.796 155.681C162.246 155.752 161.704 155.864 161.166 156.025C161.609 154.626 160.994 153.025 159.881 152.158C155.994 153.089 157.397 157.378 157.449 157.533C156.917 157.831 156.414 158.144 155.937 158.469C144.651 170.667 152.665 190.404 170.815 188.413C171.412 188.184 172.019 187.916 172.627 187.614C169.485 186.617 166.153 183.439 165.023 180.249C159.471 181.557 154.345 175.678 154.737 170.616C154.435 169.403 154.372 168.123 154.617 166.838C154.785 168.126 155.122 169.23 155.577 170.178C155.555 170.122 155.53 170.066 155.51 170.011C155.51 170.011 160.091 175.475 167.843 172.923C172.677 181.02 183.255 176.848 184.792 169.395C184.767 168.54 184.63 167.647 184.365 166.724L184.367 166.721ZM169.047 162.155C168.153 163.819 164.463 161.952 164.731 160.196C165.16 157.505 170.2 160.135 169.047 162.155ZM181.295 168.561C180.403 170.227 176.711 168.357 176.979 166.604C176.991 166.431 177.036 166.263 177.124 166.113C178.166 164.264 182.34 166.719 181.295 168.563V168.561Z" fill="#9FA0A0"/>
<g style="mix-blend-mode:plus-lighter" filter="url(#filter0_f_11261_15091)">
<ellipse cx="107.008" cy="206.832" rx="41.0178" ry="35.8316" fill="#FF69B4"/>
</g>
<g style="mix-blend-mode:plus-lighter" filter="url(#filter1_f_11261_15091)">
<ellipse cx="223.018" cy="142.832" rx="41.0178" ry="35.8316" fill="#69FFB4"/>
</g>
<defs>
<filter id="filter0_f_11261_15091" x="18.8428" y="123.853" width="176.329" height="165.957" filterUnits="userSpaceOnUse" color-interpolation-filters="sRGB">
<feFlood flood-opacity="0" result="BackgroundImageFix"/>
<feBlend mode="normal" in="SourceGraphic" in2="BackgroundImageFix" result="shape"/>
<feGaussianBlur stdDeviation="23.5735" result="effect1_foregroundBlur_11261_15091"/>
</filter>
<filter id="filter1_f_11261_15091" x="134.853" y="59.8531" width="176.329" height="165.957" filterUnits="userSpaceOnUse" color-interpolation-filters="sRGB">
<feFlood flood-opacity="0" result="BackgroundImageFix"/>
<feBlend mode="normal" in="SourceGraphic" in2="BackgroundImageFix" result="shape"/>
<feGaussianBlur stdDeviation="23.5735" result="effect1_foregroundBlur_11261_15091"/>
</filter>
</defs>
</svg>
