<svg width="213" height="58" viewBox="0 0 213 58" fill="none" xmlns="http://www.w3.org/2000/svg">
<g clip-path="url(#clip0_10992_8738)">
<path d="M104.992 11.4C104.912 11.58 104.842 11.82 104.772 12.1L104.722 12.32C104.702 12.4 104.692 12.48 104.672 12.56L104.622 12.82L104.582 13.09L104.542 13.38L104.502 13.68L104.462 14L104.432 14.33L104.412 14.5L104.382 14.86L104.352 15.23L104.332 15.61C104.332 15.68 104.332 15.74 104.322 15.81L106.692 16.96C106.652 15.58 106.692 14.27 106.822 13.06L106.852 12.85L106.832 13.05L106.812 13.37V13.52L106.792 13.87V14.07L106.782 14.51V15.29L106.792 15.58V16.04L106.822 16.37L106.842 16.72V16.9C107.292 16.54 107.822 16.07 108.372 15.55L108.742 15.2C108.802 15.14 108.862 15.08 108.932 15.02L109.302 14.66L109.672 14.3L110.032 13.94L110.372 13.59C109.992 12.81 109.582 12.25 109.202 11.83L109.072 11.7C108.992 11.61 108.912 11.54 108.832 11.47L108.712 11.37L108.602 11.28C108.602 11.28 108.532 11.22 108.492 11.2L108.392 11.13L108.292 11.06L108.152 10.98L108.032 10.91L107.902 10.84L107.802 10.8L107.622 10.73L107.492 10.69L107.362 10.65L107.262 10.63L107.152 10.61C107.152 10.61 107.112 10.61 107.092 10.6L106.972 10.58L106.852 10.56C106.192 10.48 105.352 10.56 104.982 11.42L104.992 11.4Z" fill="#9FA0A0"/>
<path d="M111.252 40.05L110.922 38.85L110.632 37.78L110.512 37.31L110.272 36.38L110.042 35.47L109.812 34.53L109.702 34.07L109.482 33.17L109.262 32.24C109.162 31.79 109.062 31.35 108.962 30.9L108.772 30.02L108.682 29.59L108.552 28.98L108.272 27.53L108.212 27.21L108.092 26.58L108.052 26.37L108.022 26.22L107.912 26.32L107.682 26.2L107.702 26.28C107.752 26.6 107.812 26.91 107.862 27.23L108.052 28.26L108.102 28.54C108.212 29.12 108.322 29.7 108.442 30.27L108.562 30.85C108.722 31.63 108.902 32.41 109.072 33.18C109.242 33.94 109.422 34.7 109.612 35.45C109.732 35.95 109.862 36.45 109.982 36.95L110.172 37.69C110.372 38.46 110.572 39.23 110.782 39.97C110.822 40.14 110.872 40.31 110.922 40.48L111.172 41.38C111.252 41.68 111.342 41.97 111.422 42.26L111.802 42.45L111.932 42.34C111.932 42.34 111.932 42.3 111.912 42.29C111.662 41.53 111.452 40.77 111.242 40.04L111.252 40.05Z" fill="#9FA0A0"/>
<path d="M107.322 23.96C107.212 23.18 107.112 22.41 107.022 21.63C106.952 21.01 106.892 20.38 106.842 19.75L106.802 19.2C106.802 19.2 106.802 19.17 106.802 19.16C106.752 18.43 106.712 17.69 106.692 16.96L104.322 15.82V15.96L104.302 16.26C104.282 16.83 104.262 17.43 104.252 18.06C104.252 18.77 104.252 19.52 104.262 20.3C104.282 21.02 104.312 21.77 104.342 22.53C104.372 23.02 104.402 23.51 104.442 24.01L104.482 24.59L107.652 26.19L107.542 25.44L107.312 23.96H107.322Z" fill="#9FA0A0"/>
<path d="M111.902 42.35L111.952 42.52L112.262 43.59C112.312 43.74 112.352 43.89 112.402 44.05L112.552 44.54L112.602 44.71C112.602 44.71 112.622 44.77 112.632 44.8L113.142 46.43C113.592 46.34 114.142 46.5 114.722 46.76L114.952 46.87C114.522 46.35 113.932 46.01 113.222 45.93C115.162 44.64 116.432 42.97 116.262 40.98C116.242 40.8 116.212 40.62 116.182 40.44C116.152 41.17 115.862 41.71 115.012 42.28L114.912 42.35C115.792 40.81 116.032 39.76 115.922 38.41C115.892 38.07 115.852 37.72 115.802 37.38C115.522 39.39 114.442 40.7 112.862 41.47L111.902 42.35Z" fill="#9FA0A0"/>
<path d="M110.772 39.98L110.572 39.23L110.172 37.7C109.982 36.96 109.792 36.21 109.612 35.46C109.432 34.71 109.252 33.95 109.072 33.19C108.892 32.41 108.722 31.64 108.562 30.86L108.402 30.09L108.092 28.55C108.032 28.27 107.982 27.99 107.942 27.71C107.852 27.24 107.772 26.76 107.692 26.28L107.672 26.2L104.522 24.59V24.69C104.522 24.69 104.532 24.72 104.532 24.74C104.592 25.45 104.662 26.18 104.742 26.9C104.822 27.64 104.922 28.38 105.032 29.13C105.122 29.76 105.222 30.39 105.332 31.02L105.402 31.4C105.682 32.92 106.032 34.42 106.462 35.9C106.602 36.36 106.732 36.8 106.872 37.22L106.992 37.57L107.242 38.27C107.542 39.08 107.872 39.88 108.242 40.66L111.422 42.27C111.252 41.68 111.092 41.09 110.922 40.49L110.832 40.15L110.782 39.98H110.772Z" fill="#9FA0A0"/>
<path d="M108.272 40.77C108.652 41.58 109.072 42.38 109.532 43.15L109.792 43.56C109.492 43.44 109.112 43.38 108.742 43.35H108.562C108.562 43.35 108.502 43.34 108.472 43.34H108.292H108.042H107.822L107.632 43.36L107.372 43.38C108.982 43.94 110.392 44.62 111.282 45.66C110.932 46.05 110.262 46.35 109.432 46.59C110.052 46.66 110.522 46.63 110.862 46.57L111.002 46.54C111.002 46.54 111.042 46.54 111.062 46.53L111.172 46.5L111.272 46.47L111.392 46.43L111.452 46.4C110.942 46.83 110.622 47.55 110.352 48.37L110.262 48.66L110.222 48.81C110.902 47.7 111.572 46.97 112.222 46.69C112.952 49.11 113.792 51.69 114.722 54.38L115.152 55.63C115.302 56.05 115.452 56.47 115.592 56.89C115.812 56.61 115.832 56.3 115.742 55.99L115.442 55.15L115.102 54.17L114.582 52.62L114.152 51.32L113.682 49.85L113.232 48.42L112.812 47.08L112.502 46.07L112.252 45.24C112.222 45.13 112.192 45.02 112.152 44.91L112.062 44.6L111.792 43.67L111.522 42.72L111.402 42.28L108.222 40.66C108.222 40.69 108.232 40.71 108.252 40.73L108.272 40.77Z" fill="#9FA0A0"/>
<path d="M108.032 26.26L108.092 26.57C108.132 26.78 108.172 26.99 108.212 27.21L108.562 28.98L108.692 29.6L108.872 30.47L108.972 30.91C109.072 31.35 109.172 31.8 109.272 32.25L109.492 33.18L109.712 34.08L109.822 34.54L110.052 35.47L110.282 36.38C110.402 36.84 110.522 37.31 110.642 37.78C110.732 38.13 110.832 38.49 110.932 38.85L111.262 40.05L111.512 40.94L111.772 41.84C111.812 41.99 111.862 42.15 111.902 42.3C111.902 42.32 111.902 42.34 111.922 42.35L112.882 41.47H112.862L112.812 41.5C113.952 40.42 114.922 38.27 115.152 36.33C115.252 35.43 115.242 34.48 115.122 33.44C115.032 32.67 114.872 31.85 114.662 30.97C114.462 30.15 114.222 29.35 113.952 28.55C113.772 28.91 113.522 29.26 113.222 29.61L113.052 29.79L112.992 29.85L112.872 29.97C113.712 28.66 113.812 27.26 113.562 25.81C113.412 26.24 113.112 26.88 112.612 27.46C112.552 27.54 112.472 27.61 112.402 27.69C112.392 27.69 112.382 27.71 112.362 27.72L112.342 27.74C112.622 27.28 112.832 26.83 112.962 26.39C112.982 26.33 113.002 26.26 113.012 26.2L113.032 26.1C113.062 25.96 113.092 25.81 113.112 25.66L113.142 25.38C113.152 25.21 113.162 25.04 113.142 24.87L113.122 24.55C113.122 24.55 113.122 24.5 113.122 24.48L113.092 24.27C113.092 24.27 113.082 24.21 113.072 24.17C113.012 23.79 112.932 23.45 112.862 23.15L112.792 22.88L112.732 22.65L112.652 22.38L112.542 22.06C112.542 22.06 112.522 22 112.512 21.97L112.452 21.81C112.452 21.81 112.412 21.72 112.392 21.68L112.342 21.57C112.342 21.57 112.322 21.66 112.302 21.7L112.272 21.76C112.072 22.23 111.612 22.86 111.192 23.31C111.192 23.31 111.182 23.31 111.182 23.33L111.092 23.42C111.092 23.42 111.062 23.45 111.052 23.47L111.072 23.44L108.052 26.21C108.052 26.21 108.082 26.25 108.082 26.26H108.032Z" fill="#9FA0A0"/>
<path d="M106.862 16.91C106.872 17.13 106.892 17.36 106.902 17.6L106.942 18.09C106.942 18.17 106.952 18.26 106.962 18.34L107.012 18.87L107.032 19.14V19.23C107.032 19.23 107.042 19.26 107.042 19.27C107.072 19.54 107.092 19.82 107.132 20.1L107.202 20.68C107.222 20.88 107.252 21.08 107.272 21.29L107.402 22.24C107.462 22.67 107.522 23.12 107.592 23.58L107.652 23.93C107.702 24.29 107.762 24.66 107.832 25.04L108.032 26.21L111.062 23.44C111.692 22.3 111.832 21.59 111.822 20.7C111.822 20.52 111.812 20.34 111.802 20.15V19.96C111.742 19.16 111.652 18.36 111.512 17.57C111.392 16.8 111.232 16.06 111.062 15.43C110.962 15.06 110.852 14.7 110.712 14.35C110.612 14.09 110.502 13.84 110.382 13.6L110.042 13.95C109.982 14.01 109.922 14.07 109.862 14.13L109.502 14.49L109.132 14.85L108.762 15.21L108.582 15.39L108.212 15.73C107.782 16.14 107.332 16.53 106.872 16.91H106.862Z" fill="#9FA0A0"/>
<path d="M88.5223 12.73C90.2023 12.91 91.6723 13.25 92.9423 13.75C94.2623 14.25 95.3223 14.93 96.1423 15.79C97.0023 16.61 97.5723 17.67 97.8423 18.99C97.9823 19.76 97.9823 20.65 97.8423 21.64C97.7023 22.67 97.5223 23.69 97.3023 24.7L94.2423 39.88C94.1023 40.74 93.9423 41.63 93.7623 42.53C93.5823 43.39 93.5123 44.19 93.5623 44.91C93.5623 45.05 93.5423 45.2 93.4923 45.39V45.8C93.4923 46.3 93.4423 46.8 93.3523 47.3C93.2623 47.8 92.9623 48.14 92.4723 48.32C92.1523 48.46 91.8023 48.53 91.4523 48.52H85.4623C85.1023 48.47 84.8223 48.36 84.6423 48.18C84.3723 48.01 84.1823 47.74 84.1023 47.43C84.0123 47.07 83.8523 46.77 83.6223 46.55C83.5223 46.46 83.4123 46.39 83.2823 46.35C83.1923 46.26 83.0323 46.24 82.8023 46.28C82.5423 46.37 82.2923 46.48 82.0523 46.62C81.8223 46.76 81.6023 46.87 81.3723 46.96C81.1023 47.14 80.8023 47.3 80.4923 47.44C80.2223 47.58 79.9223 47.71 79.6123 47.85C78.9723 48.12 78.3123 48.35 77.6423 48.53C76.9623 48.67 76.2823 48.82 75.6023 49.01C75.2423 49.1 74.9023 49.15 74.5823 49.15C74.3123 49.2 74.0123 49.24 73.7023 49.29H73.2923C73.1523 49.34 73.0223 49.36 72.8823 49.36H72.1323C71.6323 49.45 71.1823 49.45 70.7723 49.36H70.1623C69.8523 49.27 69.5323 49.22 69.2123 49.22C68.9423 49.27 68.6623 49.24 68.3923 49.15L67.1623 48.88C66.7523 48.83 66.3923 48.72 66.0723 48.54C64.8523 48.04 63.8523 47.41 63.0823 46.63C62.3123 45.81 61.7923 44.75 61.5123 43.43C61.4223 43.1 61.3523 42.75 61.3123 42.41C61.3123 42.05 61.2923 41.66 61.2423 41.25C61.1923 41.03 61.1923 40.79 61.2423 40.57C61.3323 40.34 61.3823 40.12 61.3823 39.89C61.3823 39.75 61.4023 39.48 61.4523 39.07C61.5423 38.62 61.6323 38.3 61.7223 38.12C61.9023 37.67 62.0223 37.28 62.0623 36.96L62.7423 35.46C63.0123 34.92 63.3123 34.44 63.6223 34.03C64.6223 32.71 65.6823 31.72 66.8223 31.04C67.9523 30.36 69.3623 29.77 71.0423 29.27C71.6623 29.05 72.3023 28.89 72.9523 28.79C73.6123 28.69 74.2723 28.58 74.9223 28.45C75.2823 28.36 75.6723 28.31 76.0823 28.31C76.5323 28.26 76.9623 28.2 77.3723 28.11C77.6823 28.02 78.0023 28 78.3223 28.04C78.6423 28.04 79.0023 27.99 79.4123 27.9C79.7223 27.81 80.0423 27.76 80.3623 27.76C80.6823 27.76 81.0223 27.71 81.3823 27.62C82.3823 27.39 83.2923 27.21 84.1023 27.08C84.9623 26.9 85.7823 26.49 86.5523 25.86C87.0023 25.45 87.3723 25 87.6423 24.5C87.6923 24.36 87.7123 24.25 87.7123 24.16C87.7123 24.07 87.7323 23.98 87.7823 23.89C87.8723 23.8 87.9223 23.66 87.9223 23.48C87.9723 23.3 88.0123 23.16 88.0623 23.07V22.05C87.8823 20.69 87.1123 19.76 85.7523 19.26C85.3923 19.12 84.9123 19.03 84.3223 18.99C83.7623 18.9 83.1923 18.88 82.6223 18.92C82.0323 18.92 81.4423 18.97 80.8523 19.06C80.3123 19.15 79.8323 19.26 79.4223 19.4C79.1123 19.49 78.8123 19.63 78.5423 19.81C78.2723 19.95 78.0023 20.11 77.7223 20.29C77.4523 20.47 77.1523 20.72 76.8423 21.04C76.5223 21.36 76.3023 21.65 76.1623 21.92C75.8723 22.34 75.5923 22.77 75.3423 23.21C75.1123 23.62 74.7323 23.89 74.1823 24.03C73.8223 24.12 73.4323 24.17 73.0223 24.17H69.2123C68.9823 24.17 68.7323 24.19 68.4623 24.24C68.2323 24.24 68.0523 24.22 67.9223 24.17H67.3123C67.2223 24.12 67.1123 24.1 66.9723 24.1C66.8323 24.1 66.7223 24.05 66.6323 23.96C66.3123 23.87 66.1323 23.57 66.0923 23.08C66.0923 22.85 66.1423 22.63 66.2323 22.4C66.3223 22.17 66.4123 21.97 66.5023 21.79C66.7123 21.33 66.9423 20.87 67.1823 20.43C67.4323 20.01 67.7023 19.6 68.0023 19.2L68.5423 18.52L69.0823 17.84C69.5323 17.34 70.0823 16.86 70.7123 16.41C70.8523 16.36 71.0123 16.25 71.1923 16.07C71.4223 15.92 71.6523 15.76 71.8723 15.59C72.1023 15.45 72.3523 15.32 72.6223 15.18C73.4623 14.69 74.3523 14.3 75.2723 14.02C76.2223 13.7 77.1823 13.41 78.1323 13.14C78.7123 13.01 79.3023 12.91 79.9023 12.87C80.4923 12.82 81.1023 12.73 81.7423 12.6C81.9223 12.55 82.1923 12.55 82.5623 12.6C82.9323 12.65 83.1723 12.62 83.3123 12.53C85.1723 12.48 86.9223 12.55 88.5523 12.73H88.5223ZM164.192 13.27C165.732 13.81 167.072 14.54 168.212 15.45C168.582 15.73 168.922 16.05 169.232 16.4C169.592 16.72 169.892 17.06 170.112 17.42C170.202 17.65 170.362 17.83 170.592 17.96C170.862 18.46 171.092 18.98 171.272 19.53C171.502 20.03 171.752 20.55 172.022 21.1C172.162 21.51 172.252 21.94 172.292 22.39C172.382 22.8 172.472 23.25 172.562 23.75C172.652 24.34 172.702 24.95 172.702 25.59L172.842 27.5C172.842 27.86 172.772 28.27 172.642 28.73C172.552 29.14 172.532 29.52 172.572 29.89L172.432 30.64C172.432 31 172.342 31.41 172.162 31.87C171.982 32.32 171.752 32.62 171.482 32.75C171.252 32.93 170.912 33.07 170.462 33.16C170.012 33.21 169.512 33.25 168.962 33.3H167.392C166.942 33.26 166.482 33.23 166.032 33.23H148.472C148.202 33.23 147.952 33.28 147.722 33.37C147.312 33.55 147.042 33.73 146.902 33.91C146.812 34 146.672 34.18 146.492 34.45C146.352 34.68 146.292 34.9 146.292 35.13C146.332 35.4 146.332 35.67 146.292 35.95C146.292 36.18 146.312 36.43 146.362 36.7C146.502 37.79 146.752 38.7 147.112 39.42C147.522 40.1 148.112 40.71 148.882 41.26C149.192 41.48 149.532 41.64 149.902 41.74C150.312 41.79 150.692 41.88 151.062 42.01C151.422 42.1 151.902 42.17 152.492 42.21C153.132 42.26 153.692 42.23 154.192 42.14H154.802C155.252 42.05 155.682 41.96 156.092 41.87L157.322 41.46C157.822 41.23 158.392 40.94 159.022 40.58C159.662 40.22 160.162 39.85 160.522 39.49C160.792 39.17 161.092 38.88 161.402 38.61C161.722 38.29 162.062 38.07 162.422 37.93C162.922 37.7 163.512 37.61 164.192 37.66H166.982C167.302 37.61 167.572 37.64 167.802 37.73H168.482C168.892 37.82 169.182 37.93 169.372 38.07C169.512 38.16 169.552 38.36 169.512 38.68C169.512 39 169.442 39.27 169.312 39.5C168.952 40.14 168.562 40.7 168.152 41.2C167.772 41.72 167.362 42.22 166.932 42.7C165.662 44.2 164.302 45.4 162.852 46.31C161.402 47.22 159.652 47.99 157.612 48.62C157.072 48.8 156.542 48.92 156.042 48.96C155.492 49.01 154.942 49.1 154.412 49.23C154.232 49.28 154.022 49.28 153.802 49.23C153.622 49.23 153.442 49.25 153.262 49.3H152.512C152.252 49.39 151.972 49.41 151.692 49.37C151.442 49.37 151.192 49.35 150.942 49.3C150.582 49.25 150.262 49.25 149.992 49.3C149.722 49.35 149.422 49.32 149.112 49.23C148.872 49.14 148.622 49.09 148.362 49.09C148.092 49.09 147.862 49.04 147.682 48.95C147.182 48.86 146.682 48.74 146.182 48.61C145.752 48.53 145.332 48.37 144.952 48.13C144.522 47.96 144.092 47.8 143.662 47.65C143.282 47.48 142.912 47.28 142.572 47.04C141.302 46.13 140.212 45.09 139.302 43.91C138.442 42.69 137.802 41.28 137.402 39.69C137.262 39.2 137.172 38.7 137.132 38.19C137.132 37.65 137.062 37.1 136.932 36.56V36.08C136.972 35.9 137.002 35.72 137.002 35.54C136.962 34.95 136.962 34.36 137.002 33.77L137.272 31.86C137.322 31.61 137.342 31.36 137.342 31.11C137.392 30.84 137.452 30.59 137.552 30.36L137.752 29.54L138.292 27.91C138.602 27.17 138.892 26.42 139.182 25.66C139.452 24.94 139.792 24.26 140.202 23.62C143.102 18.9 147.102 15.57 152.182 13.62C152.842 13.35 153.522 13.17 154.222 13.08C154.902 12.94 155.632 12.79 156.402 12.6C156.762 12.55 157.102 12.53 157.422 12.53C157.742 12.53 158.082 12.51 158.442 12.46C160.752 12.41 162.682 12.69 164.232 13.28L164.192 13.27ZM23.2323 0C24.0023 0 24.5523 0.16 24.8623 0.48C25.1323 0.71 25.2923 1.05 25.3423 1.5C25.3923 1.91 25.4523 2.32 25.5423 2.72C25.6323 3.45 25.7223 4.2 25.8123 4.97C25.9523 5.7 26.0623 6.45 26.1523 7.22C26.6523 10.11 27.0623 13.02 27.3823 15.93C27.7423 18.87 28.1723 21.79 28.6723 24.71C28.8523 25.62 28.9923 26.55 29.0823 27.5C29.1723 28.45 29.3123 29.38 29.4923 30.29L29.6323 30.97C29.6823 31.2 29.7923 31.38 29.9723 31.51C30.0623 31.56 30.1323 31.6 30.1723 31.65C30.2623 31.7 30.3723 31.67 30.5123 31.58C30.8723 31.49 31.1723 31.22 31.3923 30.76C31.6023 30.34 31.8223 29.93 32.0723 29.53C32.6023 28.51 33.1223 27.49 33.6423 26.47C34.1523 25.41 34.6923 24.36 35.2723 23.34L39.6323 15.04C41.1323 12.23 42.6023 9.41 44.0523 6.6C44.4023 5.89 44.7723 5.19 45.1423 4.49C45.5523 3.76 45.9323 3.04 46.3023 2.31C46.4923 1.94 46.6923 1.57 46.9123 1.22C47.1423 0.86 47.4523 0.56 47.8623 0.34C48.1923 0.11 48.5523 0 48.9623 0H60.6723C61.1223 0 61.4423 0.09 61.6223 0.27C62.0723 0.54 62.2123 1.06 62.0323 1.84C61.8923 2.59 61.7523 3.34 61.6223 4.09L59.5823 14.3L54.4823 39.62L53.3223 45.54C53.2323 46.04 53.1123 46.54 52.9823 47.04C52.8423 47.49 52.6223 47.83 52.3023 48.06C51.9823 48.29 51.6023 48.43 51.2123 48.47H44.7423C44.4523 48.39 44.1523 48.32 43.8623 48.27C43.6323 48.22 43.4523 48.07 43.3223 47.79C43.1823 47.56 43.1423 47.27 43.1823 46.91C43.2723 46.55 43.3623 46.16 43.4523 45.75L44.1323 42.28L47.6723 24.79C47.7623 24.15 47.8523 23.56 47.9423 23.02C48.0823 22.43 48.1923 21.84 48.2823 21.25L48.5523 20.16C48.6423 19.75 48.6923 19.37 48.6923 19C48.6423 18.66 48.6423 18.32 48.6923 17.98C48.7823 17.62 48.7123 17.39 48.4923 17.3C48.3523 17.25 48.2423 17.28 48.1523 17.37L47.9523 17.57C47.7123 17.76 47.5123 17.99 47.3423 18.25L46.9323 18.93C46.5123 19.63 46.1023 20.33 45.7123 21.04C45.3423 21.78 44.9323 22.51 44.4823 23.22L44.0723 24.04C43.9723 24.33 43.8323 24.6 43.6623 24.86C43.3023 25.44 42.9623 26.03 42.6423 26.63C42.3623 27.24 42.0423 27.83 41.6923 28.4C41.6023 28.54 41.5323 28.7 41.4923 28.88C41.4423 29.02 41.3823 29.15 41.2923 29.29C41.0123 29.71 40.7623 30.14 40.5423 30.58C40.3623 31.03 40.1123 31.49 39.7923 31.94C39.5123 32.36 39.2623 32.79 39.0423 33.23C38.8523 33.7 38.6223 34.16 38.3623 34.59C37.5523 35.89 36.8023 37.23 36.1123 38.61C35.4223 39.94 34.7223 41.25 34.0023 42.56C33.8623 42.7 33.7723 42.83 33.7323 42.97C33.7323 43.11 33.6623 43.24 33.5323 43.38C33.2123 43.89 32.9123 44.41 32.6523 44.95C32.4123 45.47 32.1423 45.97 31.8323 46.45C31.6623 46.75 31.4823 47.05 31.2923 47.33C31.1223 47.59 30.9223 47.82 30.6823 48.01C30.4123 48.19 30.1623 48.3 29.9323 48.35C29.7023 48.35 29.4123 48.4 29.0423 48.49H27.4723C27.1523 48.49 26.7723 48.51 26.3123 48.56H25.0223C24.6123 48.56 24.2323 48.54 23.8623 48.49C23.5023 48.44 23.2523 48.35 23.1123 48.22C22.7923 47.99 22.5923 47.74 22.5023 47.47C22.4523 47.15 22.3623 46.79 22.2323 46.38C22.1423 45.84 22.0723 45.29 22.0323 44.75C21.9923 44.18 21.9023 43.61 21.7623 43.05L21.6923 42.44C21.5523 41.88 21.4623 41.31 21.4223 40.74C21.3823 40.14 21.2923 39.55 21.1523 38.97V38.63C21.1523 38.49 21.1323 38.36 21.0823 38.22C20.9423 37.81 20.8523 37.38 20.8123 36.93C20.7623 36.47 20.7023 36.02 20.6123 35.57V35.23C20.6123 35.09 20.5923 34.98 20.5423 34.89C20.4523 34.44 20.3823 33.99 20.3423 33.53C20.3423 33.08 20.2723 32.62 20.1423 32.17C19.9623 31.26 19.8023 30.31 19.6623 29.31C19.5723 28.33 19.4423 27.35 19.2523 26.38C19.0723 25.23 18.9123 24.07 18.7723 22.91C18.6823 21.76 18.4823 20.62 18.1623 19.51C18.0723 18.87 17.9323 18.35 17.7523 17.94C17.6723 17.86 17.5823 17.79 17.4823 17.74C17.4323 17.65 17.3423 17.65 17.2123 17.74C16.9423 17.88 16.7623 18.1 16.6723 18.42C16.6223 18.75 16.5323 19.07 16.4023 19.37C16.2223 19.68 16.1023 20.03 16.0623 20.39C16.0123 20.71 15.9723 21.05 15.9223 21.41C15.8323 21.91 15.7123 22.41 15.5823 22.91C15.4923 23.41 15.3723 23.91 15.2423 24.41L11.6323 42.51L10.9523 45.84L10.6823 46.93C10.6323 47.29 10.5023 47.59 10.2723 47.81C10.0423 48.13 9.66226 48.33 9.11226 48.42C8.79226 48.51 8.45226 48.56 8.09226 48.56C7.73226 48.51 7.37226 48.49 7.00226 48.49H2.07226C1.66226 48.44 1.34226 48.31 1.12226 48.08C0.89226 47.85 0.80226 47.51 0.85226 47.06L1.12226 45.56L2.28226 39.57L7.38226 14.23L9.29226 4.7C9.34226 4.43 9.38226 4.11 9.43226 3.75C9.52226 3.34 9.61226 2.96 9.70226 2.59C9.79226 2.23 9.88226 1.89 9.97226 1.57C10.1123 1.21 10.2223 0.93 10.3123 0.75C10.5823 0.43 10.9923 0.21 11.5323 0.07C11.6723 0.02 11.7623 0.02 11.8023 0.07C11.8923 0.07 12.0023 0.05 12.1423 0L23.2323 0ZM208.312 13.68C209.992 14.54 211.172 15.81 211.852 17.49C212.082 17.99 212.212 18.53 212.262 19.12C212.352 19.66 212.422 20.23 212.472 20.82C212.512 21.18 212.512 21.52 212.472 21.84C212.422 22.16 212.422 22.48 212.472 22.79C212.382 23.06 212.362 23.24 212.402 23.33C212.352 23.99 212.262 24.65 212.132 25.3C212.002 25.96 211.862 26.62 211.722 27.27L210.562 33.33L208.312 44.36C208.132 45.2 207.952 46.04 207.772 46.88C207.592 47.65 207.162 48.15 206.482 48.38C206.212 48.47 205.892 48.52 205.532 48.52H200.772C200.232 48.52 199.752 48.5 199.342 48.45C198.932 48.36 198.642 48.16 198.462 47.84C198.322 47.57 198.282 47.23 198.322 46.82C198.412 46.37 198.502 45.89 198.592 45.39L199.542 40.63L201.582 30.49C201.902 28.81 202.122 27.27 202.262 25.86C202.442 24.41 202.282 23.18 201.782 22.18C201.332 21.27 200.532 20.64 199.402 20.27C199.162 20.18 198.912 20.13 198.652 20.13C198.422 20.13 198.202 20.08 197.972 19.99C197.742 19.94 197.452 19.94 197.092 19.99C196.772 19.99 196.522 20.01 196.342 20.06C196.112 20.11 195.932 20.13 195.792 20.13C195.652 20.13 195.522 20.15 195.382 20.2C194.292 20.47 193.382 20.84 192.662 21.29C190.982 22.33 189.802 23.85 189.122 25.85C188.492 27.85 187.922 30.09 187.422 32.59L185.722 41.1L184.902 45.25L184.632 46.48C184.542 46.89 184.402 47.23 184.222 47.5C183.902 48 183.472 48.29 182.932 48.38C182.432 48.47 181.822 48.52 181.092 48.52H177.692C177.192 48.52 176.692 48.5 176.192 48.45C175.692 48.4 175.372 48.25 175.242 47.97C174.972 47.56 174.922 46.97 175.102 46.2C175.282 45.43 175.442 44.7 175.582 44.02L177.422 34.76L180.422 19.79L181.172 16.32C181.262 15.82 181.352 15.37 181.442 14.96C181.532 14.56 181.742 14.2 182.052 13.94C182.142 13.8 182.302 13.71 182.532 13.67C182.752 13.58 182.982 13.51 183.212 13.47H183.552C183.772 13.42 184.002 13.4 184.232 13.4H187.842C188.202 13.4 188.542 13.42 188.862 13.47C189.222 13.47 189.542 13.52 189.812 13.61C190.082 13.75 190.242 13.95 190.292 14.22C190.382 14.49 190.432 14.81 190.432 15.17C190.432 15.35 190.412 15.51 190.362 15.65C190.322 15.79 190.322 15.92 190.362 16.06C190.412 16.29 190.452 16.42 190.502 16.47C190.592 16.52 190.702 16.58 190.842 16.67C191.292 16.72 191.722 16.56 192.132 16.19C192.542 15.78 192.952 15.46 193.352 15.24C194.752 14.33 196.262 13.6 197.842 13.06C198.292 12.92 198.722 12.83 199.132 12.79C199.632 12.74 200.132 12.67 200.632 12.59C200.772 12.54 200.972 12.54 201.242 12.59C201.512 12.59 201.692 12.57 201.782 12.52C204.502 12.43 206.682 12.82 208.312 13.68ZM84.7823 32.19C84.6023 32.24 84.4423 32.28 84.3023 32.33C84.1623 32.33 83.9823 32.35 83.7623 32.4C83.4423 32.49 83.1023 32.56 82.7423 32.6C82.3523 32.65 81.9723 32.72 81.5823 32.8C81.4423 32.85 81.2423 32.87 80.9723 32.87C80.3323 33.01 79.7223 33.1 79.1323 33.14C78.5423 33.19 77.9523 33.3 77.3623 33.48L76.2723 33.75C75.9523 33.8 75.6323 33.89 75.3223 34.02C74.2823 34.43 73.3523 35.04 72.5323 35.86C71.7123 36.68 71.2423 37.81 71.1023 39.26C71.0523 40.03 71.1923 40.67 71.5123 41.17C71.6923 41.67 72.0823 42.08 72.6723 42.39C73.2623 42.66 73.9223 42.87 74.6423 43C75.3723 43.14 76.1423 43.18 76.9523 43.14C77.7823 43.06 78.6023 42.9 79.4023 42.66C80.6723 42.3 81.7123 41.73 82.5323 40.96C83.3923 40.14 84.1223 39.15 84.7123 37.97C84.8523 37.65 84.9623 37.33 85.0523 37.02C85.1423 36.66 85.2823 36.29 85.4623 35.93L85.6023 35.32C85.6923 35.09 85.7623 34.84 85.8023 34.57C85.8523 34.25 85.8723 33.98 85.8723 33.75C85.8723 33.48 85.8923 33.23 85.9423 33C85.9923 32.77 85.9223 32.59 85.7423 32.46C85.5623 32.28 85.2423 32.19 84.7923 32.19H84.7823ZM157.052 19.6C156.912 19.69 156.762 19.71 156.572 19.67C156.392 19.62 156.232 19.62 156.092 19.67C155.822 19.76 155.552 19.83 155.272 19.87C155.002 19.87 154.752 19.92 154.522 20.01C152.392 20.65 150.662 21.89 149.352 23.75C149.212 23.93 149.052 24.18 148.872 24.5C148.692 24.77 148.552 25.07 148.462 25.38C148.372 25.64 148.332 25.92 148.322 26.2C148.322 26.47 148.432 26.7 148.662 26.88C148.982 27.11 149.452 27.22 150.092 27.22H161.462C162.192 27.17 162.692 26.97 162.962 26.61C163.372 26.16 163.502 25.61 163.372 24.98C163.282 24.3 163.212 23.8 163.172 23.48C162.762 22.25 162.102 21.32 161.202 20.69C160.292 20.01 158.912 19.65 157.052 19.6Z" fill="#9FA0A0"/>
<path d="M135.982 12C135.882 12.04 135.782 12.09 135.662 12.15L135.482 12.25C135.362 12.32 135.232 12.4 135.092 12.49L134.882 12.63L134.662 12.78L134.432 12.95L134.192 13.13L134.072 13.23L133.812 13.43L133.552 13.64L133.272 13.87L132.992 14.11L132.702 14.36L132.402 14.62L132.102 14.89L131.952 15.03L132.952 17.84C134.032 16.69 135.112 15.66 136.182 14.79L136.562 14.49L136.592 14.47L136.332 14.68L136.082 14.9L135.812 15.15L135.552 15.39L135.332 15.6L135.172 15.75L134.832 16.09L134.552 16.37L134.152 16.79L133.942 17.02L133.722 17.26L133.372 17.64L133.132 17.91C133.382 17.93 133.652 17.95 133.942 17.97L134.392 17.99L134.862 18.01L135.352 18.03H135.852L136.362 18.05H136.612H137.122C137.202 18.05 137.292 18.05 137.372 18.05H137.872C137.952 18.05 138.042 18.05 138.122 18.05H138.602C139.002 16.86 139.092 15.91 139.062 15.2V15.02L139.032 14.85V14.77L139.002 14.62L138.982 14.48V14.41L138.942 14.29L138.912 14.18L138.882 14.08L138.852 13.99L138.802 13.84L138.762 13.74L138.662 13.53L138.602 13.42L138.552 13.33L138.492 13.23L138.422 13.12L138.352 13.01L138.272 12.9C137.822 12.29 137.042 11.6 136.012 12.02L135.982 12Z" fill="#9FA0A0"/>
<path d="M117.832 40.79L118.252 40.03L118.822 39.02L119.322 38.14L119.572 37.71L120.122 36.76L120.662 35.83L120.932 35.37C121.212 34.9 121.482 34.44 121.762 33.97L122.302 33.07C122.762 32.32 123.222 31.57 123.692 30.83L124.242 29.97L124.512 29.55L124.902 28.95L125.372 28.25L125.822 27.57L126.032 27.26L126.432 26.65L126.502 26.55L126.632 26.36L126.662 26.31H126.492L126.392 26.02L126.342 26.1C126.132 26.39 125.922 26.69 125.712 27L125.042 27.99L124.862 28.26C124.492 28.81 124.122 29.37 123.762 29.93L123.402 30.5C122.912 31.26 122.432 32.02 121.962 32.78C121.492 33.53 121.042 34.28 120.592 35.04C120.292 35.54 120.002 36.04 119.702 36.54L119.272 37.29C118.822 38.06 118.382 38.83 117.942 39.61C117.842 39.78 117.742 39.96 117.652 40.13C117.312 40.74 116.972 41.35 116.642 41.96L116.792 42.42H116.982C116.982 42.42 117.002 42.4 117.012 42.38C117.282 41.84 117.562 41.31 117.842 40.8L117.832 40.79Z" fill="#9FA0A0"/>
<path d="M127.882 23.96C128.422 23.24 128.962 22.53 129.492 21.85C130.052 21.14 130.612 20.46 131.172 19.79C131.202 19.75 131.242 19.71 131.272 19.68C131.812 19.05 132.372 18.43 132.932 17.82L131.932 15.02L131.812 15.13L131.562 15.36C131.062 15.82 130.572 16.29 130.092 16.77C129.802 17.05 129.512 17.35 129.222 17.65L128.622 18.27L128.322 18.59C127.742 19.2 127.182 19.82 126.622 20.45C126.252 20.87 125.892 21.29 125.522 21.72L125.102 22.22L126.372 26.03L126.872 25.34L127.872 23.97L127.882 23.96Z" fill="#9FA0A0"/>
<path d="M116.952 42.4L116.762 42.75L116.262 43.68C116.182 43.84 116.092 44 116.012 44.16L115.752 44.67C115.702 44.76 115.652 44.85 115.612 44.94L115.332 45.48L114.722 46.66C115.222 46.98 115.552 47.67 115.842 48.45C115.902 47.7 115.702 46.95 115.202 46.32C117.792 46.82 120.142 46.49 121.572 44.75C121.692 44.59 121.822 44.43 121.942 44.25C121.332 44.82 120.672 45.02 119.522 44.8L119.392 44.77C121.322 44.22 122.352 43.57 123.342 42.4C123.592 42.1 123.832 41.79 124.062 41.47C122.232 42.87 120.332 43.06 118.442 42.42L116.962 42.37L116.952 42.4Z" fill="#9FA0A0"/>
<path d="M117.822 39.77L118.362 38.83L119.252 37.28C119.692 36.53 120.132 35.78 120.572 35.03C121.022 34.28 121.482 33.52 121.942 32.77C122.412 32 122.892 31.24 123.382 30.49C123.862 29.74 124.352 28.99 124.842 28.25C125.022 27.98 125.192 27.72 125.382 27.45C125.692 27 126.002 26.55 126.322 26.1L126.372 26.02L125.112 22.23L125.042 22.32C125.042 22.32 125.012 22.35 125.002 22.36C124.492 22.98 123.962 23.62 123.452 24.27C122.932 24.93 122.422 25.6 121.912 26.29C121.482 26.87 121.072 27.46 120.652 28.05L120.402 28.41C119.422 29.85 118.512 31.34 117.682 32.87C117.432 33.33 117.192 33.79 116.962 34.26C116.782 34.64 116.602 35.03 116.422 35.41C116.022 36.3 115.652 37.2 115.322 38.12L116.602 41.95L116.852 41.5L117.362 40.59C117.452 40.44 117.532 40.28 117.622 40.13L117.822 39.79V39.77Z" fill="#9FA0A0"/>
<path d="M115.282 38.24C114.942 39.2 114.652 40.17 114.412 41.16L114.292 41.7C114.182 41.43 113.992 41.16 113.782 40.9L113.652 40.75C113.652 40.75 113.612 40.7 113.582 40.67L113.452 40.52L113.322 40.38L113.192 40.25L113.002 40.07L112.832 39.91L112.652 39.75L112.482 39.61C113.332 41.34 113.922 43.01 113.822 44.55C113.232 44.58 112.462 44.29 111.602 43.83C111.972 44.28 112.312 44.61 112.602 44.83L112.732 44.93C112.732 44.93 112.772 44.96 112.792 44.97L112.912 45.05L113.022 45.12L113.122 45.18L113.212 45.23L113.292 45.27L113.362 45.3H113.392C112.672 45.25 111.872 45.56 111.042 45.97L110.762 46.11L110.482 46.26C111.902 45.91 113.032 45.85 113.782 46.14C113.402 46.85 113.032 47.56 112.672 48.28L112.112 49.38C111.242 51.11 110.392 52.85 109.552 54.6L108.972 55.81C108.782 56.22 108.582 56.63 108.392 57.04C108.782 56.99 109.052 56.76 109.232 56.43L109.882 55.05L110.482 53.81L111.252 52.25L111.932 50.89L112.602 49.56L113.242 48.32L114.122 46.62L114.752 45.43L114.972 45.02L115.162 44.68L115.332 44.36L115.592 43.88L116.122 42.91L116.392 42.41L116.642 41.96L115.362 38.13C115.342 38.16 115.332 38.18 115.322 38.21L115.302 38.25L115.282 38.24Z" fill="#9FA0A0"/>
<path d="M126.622 26.37L126.422 26.66C126.292 26.86 126.152 27.06 126.012 27.27L125.352 28.26L124.882 28.96L124.762 29.14C124.582 29.41 124.402 29.69 124.222 29.97L123.672 30.83C123.302 31.42 122.932 32.01 122.572 32.6L122.292 33.06C121.832 33.82 121.372 34.59 120.912 35.35L120.372 36.27C120.102 36.73 119.832 37.2 119.552 37.69C119.392 37.98 119.222 38.27 119.062 38.56L118.252 40.01L118.002 40.46L117.492 41.38C117.322 41.69 117.152 42.01 116.982 42.32C116.972 42.34 116.962 42.35 116.952 42.37L118.432 42.42C118.432 42.42 118.382 42.4 118.342 42.39C120.112 42.43 122.612 41.47 124.332 40.08C125.122 39.44 125.872 38.67 126.602 37.73C127.142 37.04 127.662 36.26 128.192 35.38C128.682 34.56 129.132 33.72 129.542 32.87C129.112 33.02 128.632 33.11 128.112 33.14H127.832C127.772 33.16 127.712 33.16 127.642 33.16H127.542C129.262 32.78 130.452 31.73 131.412 30.36C130.942 30.59 130.192 30.86 129.342 30.93C129.222 30.93 129.112 30.94 128.992 30.94C128.972 30.94 128.952 30.94 128.932 30.94H128.902C129.492 30.78 130.012 30.59 130.472 30.34C130.542 30.31 130.602 30.27 130.662 30.23L130.752 30.17C130.892 30.08 131.032 29.98 131.162 29.88L131.412 29.68C131.602 29.51 131.782 29.33 131.952 29.12L132.062 29C132.062 29 132.092 28.96 132.112 28.94L132.252 28.75C132.252 28.75 132.292 28.69 132.312 28.66C132.542 28.33 132.762 28 132.962 27.65L133.042 27.52C133.142 27.35 133.222 27.2 133.302 27.05L133.392 26.88L133.532 26.6C133.562 26.54 133.582 26.49 133.612 26.44L133.652 26.35L133.722 26.18C133.742 26.13 133.762 26.08 133.772 26.04L133.792 25.98C133.792 25.98 133.712 26.03 133.662 26.05L133.582 26.08C133.052 26.3 132.172 26.44 131.482 26.47C131.472 26.47 131.462 26.47 131.452 26.47H131.312C131.312 26.47 131.262 26.47 131.242 26.47H131.282L126.652 26.28C126.652 26.32 126.652 26.33 126.632 26.34L126.622 26.37Z" fill="#9FA0A0"/>
<path d="M133.112 17.91C132.942 18.1 132.772 18.29 132.602 18.5L132.242 18.92L131.862 19.37L131.412 19.92C131.412 19.92 131.392 19.95 131.382 19.96C131.122 20.28 130.862 20.61 130.582 20.96L130.162 21.5L129.952 21.78L129.352 22.57L128.962 23.09C128.762 23.36 128.562 23.63 128.352 23.92L128.142 24.21C127.932 24.5 127.722 24.79 127.512 25.09L127.082 25.7L126.642 26.33L131.272 26.5C132.692 26.08 133.362 25.62 134.062 24.9C134.202 24.75 134.342 24.6 134.482 24.44L134.622 24.28C135.212 23.6 135.772 22.88 136.302 22.14C136.812 21.42 137.272 20.71 137.642 20.06C137.852 19.69 138.052 19.3 138.222 18.91C138.352 18.61 138.452 18.32 138.552 18.04H138.072L137.582 18.05H137.082H136.572H136.322H135.812H135.312L135.072 18.03L134.592 18.01C134.512 18.01 134.442 18.01 134.362 18L133.912 17.98C133.622 17.96 133.352 17.94 133.102 17.92L133.112 17.91Z" fill="#9FA0A0"/>
</g>
<defs>
<clipPath id="clip0_10992_8738">
<rect width="211.67" height="57.04" fill="white" transform="translate(0.832031)"/>
</clipPath>
</defs>
</svg>
