<svg width="177" height="160" viewBox="0 0 177 160" fill="none" xmlns="http://www.w3.org/2000/svg">
<rect x="0.5" y="0.5" width="175.79" height="159" rx="19.5" fill="#101112"/>
<rect x="0.5" y="0.5" width="175.79" height="159" rx="19.5" stroke="#9FA0A0"/>
<path d="M87.5251 69.9954C87.4851 70.0909 87.4473 70.2142 87.4121 70.3629L87.3863 70.479C87.3777 70.5195 87.3696 70.5612 87.3616 70.6047L87.338 70.7391L87.3152 70.8826L87.2939 71.0344L87.274 71.1947L87.255 71.3627L87.2376 71.5389L87.2295 71.6296L87.214 71.8168L87.2003 72.0112L87.1878 72.2126C87.1859 72.247 87.184 72.2814 87.1822 72.3158L88.4146 72.9195C88.3959 72.1912 88.4191 71.5028 88.4839 70.87L88.4966 70.7574L88.488 70.8606L88.4769 71.0313L88.4728 71.1129L88.4661 71.2988L88.4635 71.4034L88.4607 71.6361L88.4612 71.8314L88.4642 72.0449L88.4676 72.1971L88.4756 72.4413L88.4829 72.6144L88.4919 72.796L88.4971 72.8899C88.7265 72.7005 89.0015 72.4518 89.2872 72.1799L89.4791 71.9955C89.5113 71.9644 89.5436 71.9331 89.5756 71.9016L89.7681 71.7115L89.9582 71.5206L90.1434 71.331L90.3217 71.1453C90.1247 70.7376 89.912 70.4379 89.7144 70.2189L89.649 70.1491C89.6059 70.1043 89.5635 70.0635 89.5227 70.0263L89.4621 69.9728L89.4037 69.9245C89.3844 69.9093 89.3659 69.8947 89.3476 69.881L89.2939 69.8423L89.2434 69.8077L89.1734 69.7638L89.1111 69.7286L89.0415 69.6938L88.9895 69.6712L88.8945 69.6364L88.8251 69.6138L88.7579 69.5946L88.7063 69.5816L88.6505 69.5685C88.6407 69.5664 88.6308 69.5644 88.621 69.5624L88.5594 69.5516L88.4949 69.542C88.1539 69.4992 87.7137 69.5446 87.5251 69.9954Z" fill="#9FA0A0"/>
<path d="M90.776 85.0663L90.605 84.4337L90.4542 83.8705L90.3897 83.6228L90.2649 83.134L90.1442 82.6551L90.0239 82.1633L89.9659 81.921L89.8541 81.4459L89.7418 80.9588C89.6882 80.7236 89.6362 80.4881 89.5858 80.2523L89.488 79.7889L89.4408 79.5616L89.375 79.2383L89.2289 78.4778L89.1978 78.3082L89.1344 77.9751L89.1151 77.8648L89.1003 77.785L89.0412 77.8394L88.9187 77.7781L88.9273 77.8187C88.9542 77.9847 88.9821 78.1519 89.0122 78.3202L89.1127 78.864L89.1389 79.0126C89.1961 79.317 89.2549 79.6201 89.3181 79.9248L89.3826 80.2299C89.4672 80.64 89.5577 81.0512 89.649 81.4563C89.7377 81.8584 89.8333 82.2552 89.9289 82.6519C89.9927 82.9165 90.0567 83.1783 90.1223 83.4386L90.2211 83.8279C90.324 84.2352 90.4278 84.6364 90.5361 85.0291C90.5586 85.1174 90.5835 85.2091 90.6095 85.295L90.7384 85.7682C90.7814 85.9243 90.8246 86.0787 90.8686 86.2327L91.0663 86.3329L91.132 86.2736C91.1305 86.2642 91.129 86.2549 91.1241 86.2481C90.9932 85.8458 90.8826 85.4496 90.776 85.0663Z" fill="#9FA0A0"/>
<path d="M88.7371 76.6026C88.6811 76.1949 88.6292 75.7866 88.5813 75.3779C88.5438 75.0495 88.5122 74.7205 88.4863 74.391L88.4644 74.0997C88.4641 74.0922 88.4639 74.0847 88.464 74.0773C88.4369 73.6919 88.4185 73.306 88.4088 72.9198L87.1788 72.3196L87.1756 72.3957L87.1672 72.5542C87.155 72.8523 87.1459 73.1692 87.1434 73.5023C87.1403 73.8779 87.1438 74.2695 87.1507 74.6796C87.1593 75.0569 87.1745 75.4505 87.1947 75.8506C87.2097 76.1076 87.2261 76.3666 87.2448 76.6289L87.2673 76.932L88.9126 77.7757L88.8546 77.3828L88.7371 76.6026Z" fill="#9FA0A0"/>
<path d="M91.1169 86.2717L91.1422 86.3606L91.3055 86.9225C91.3291 87.0024 91.3528 87.0826 91.377 87.1633L91.455 87.4188L91.4817 87.5108C91.4864 87.5258 91.4915 87.5406 91.4971 87.5556L91.7622 88.4154C91.9971 88.3662 92.283 88.4547 92.5853 88.5882L92.7071 88.6439C92.4845 88.373 92.1765 88.1916 91.8084 88.1496C92.816 87.4694 93.4791 86.5933 93.386 85.548C93.3762 85.4524 93.3626 85.3572 93.3452 85.2627C93.3302 85.648 93.1783 85.931 92.7378 86.2332L92.6835 86.2695C93.139 85.4582 93.2644 84.9076 93.2105 84.1961C93.1961 84.0151 93.1745 83.8348 93.1458 83.6555C93.0002 84.715 92.4379 85.4008 91.6155 85.8066L91.1169 86.2717Z" fill="#9FA0A0"/>
<path d="M90.5274 85.0279L90.4225 84.6308L90.212 83.8271C90.1117 83.4358 90.0145 83.0437 89.9202 82.6509C89.8246 82.254 89.7324 81.8548 89.64 81.4556C89.5464 81.0467 89.4585 80.639 89.3736 80.2287L89.2903 79.8231L89.13 79.0116C89.1014 78.8653 89.0747 78.7187 89.0499 78.5717C89.0039 78.322 88.9614 78.07 88.9188 77.8178L88.9098 77.7769L87.274 76.9316L87.2791 76.9843C87.2798 76.9934 87.2802 77.0025 87.2798 77.0114C87.3129 77.3866 87.3449 77.7673 87.3887 78.15C87.4317 78.5386 87.4804 78.9283 87.5376 79.3221C87.5859 79.6539 87.6379 79.9834 87.6923 80.3163L87.7279 80.5157C87.8711 81.3134 88.0553 82.103 88.2799 82.8812C88.351 83.1226 88.4208 83.3548 88.4921 83.5751L88.5555 83.7606L88.6866 84.1298C88.8418 84.5555 89.0142 84.9746 89.2033 85.386L90.8567 86.2341C90.7686 85.9262 90.6872 85.6135 90.5976 85.2962L90.5518 85.1186L90.5276 85.0277L90.5274 85.0279Z" fill="#9FA0A0"/>
<path d="M89.2277 85.4419C89.4243 85.8704 89.6435 86.2879 89.8842 86.6927L90.0174 86.9106C89.8606 86.8466 89.6625 86.8149 89.47 86.8007L89.3744 86.7951C89.3587 86.7943 89.3431 86.7937 89.3274 86.7931L89.2356 86.7912L89.1065 86.7916L88.9909 86.7951L88.8938 86.8001L88.758 86.8114C88.7567 86.8116 88.7565 86.8118 88.7565 86.8118C89.5925 87.1054 90.3257 87.4646 90.7883 88.0096C90.6044 88.2144 90.2604 88.3701 89.828 88.4969C90.1498 88.5323 90.3951 88.5178 90.5722 88.4886L90.6437 88.4754C90.6547 88.4731 90.6657 88.4707 90.6766 88.4682L90.7359 88.4534L90.7872 88.4382L90.8495 88.4162L90.8813 88.4029C90.6158 88.6269 90.4495 89.009 90.3114 89.4372L90.2637 89.59L90.2405 89.6674C90.5922 89.0855 90.9413 88.7002 91.2809 88.5528C91.6606 89.8266 92.0995 91.1822 92.5812 92.5968L92.8063 93.2537C92.883 93.4755 92.96 93.6972 93.0375 93.9187C93.1494 93.7723 93.1621 93.6105 93.1151 93.4457L92.961 93.0051L92.7855 92.4906L92.5137 91.6743L92.2911 90.99L92.0449 90.2176L91.8099 89.4641L91.5942 88.7581L91.4354 88.2294L91.3065 87.7928C91.2891 87.7356 91.2732 87.6773 91.2562 87.6182L91.2077 87.4562L91.068 86.9684L90.9262 86.4667L90.8626 86.2354L90.8601 86.2321L89.2064 85.384C89.2103 85.3988 89.2144 85.4108 89.2193 85.4232L89.2279 85.4419H89.2277Z" fill="#9FA0A0"/>
<path d="M89.105 77.8117L89.1342 77.974C89.1557 78.0844 89.1751 78.1958 89.1961 78.308L89.3751 79.2369L89.4408 79.5605L89.5364 80.0176L89.5858 80.2509C89.6353 80.4825 89.6872 80.7176 89.7418 80.9576L89.8542 81.4447L89.9659 81.9199L90.0239 82.1621L90.1442 82.6538L90.2641 83.1318C90.3251 83.3731 90.3878 83.6188 90.454 83.8689C90.5024 84.0538 90.5526 84.2414 90.604 84.4313L90.7759 85.0649L90.9058 85.5307L91.0401 86.0065C91.0629 86.0865 91.0857 86.167 91.1089 86.2474C91.1104 86.2568 91.1121 86.2661 91.117 86.2729L91.6157 85.8077L91.6036 85.813L91.577 85.826C92.1691 85.2602 92.6764 84.1264 92.7924 83.1046C92.8457 82.6338 92.8407 82.1328 92.7769 81.5863C92.7307 81.179 92.6489 80.7511 92.5363 80.2879C92.4307 79.8589 92.3083 79.4343 92.1693 79.0151C92.0778 79.2041 91.9478 79.39 91.7884 79.5714L91.702 79.6671L91.6724 79.6984L91.6099 79.7621C92.0464 79.0749 92.0984 78.3373 91.9687 77.5715C91.8894 77.7985 91.7336 78.1351 91.4752 78.4376C91.4421 78.4778 91.4032 78.5174 91.3643 78.5567C91.3574 78.5617 91.3519 78.5683 91.345 78.575L91.3329 78.5852C91.4777 78.341 91.5847 78.109 91.6535 77.8741C91.6642 77.8415 91.6728 77.8083 91.6801 77.7752L91.6909 77.7252C91.7085 77.6491 91.7201 77.5721 91.7317 77.4951L91.7485 77.3462C91.7549 77.2585 91.7568 77.1685 91.7527 77.077L91.7411 76.9087C91.7401 76.8962 91.7385 76.8838 91.7364 76.8715L91.7192 76.7636C91.7163 76.7466 91.7131 76.7296 91.7096 76.7127C91.6758 76.5127 91.6387 76.3341 91.6004 76.1758L91.5645 76.0338L91.5321 75.914L91.4898 75.772L91.435 75.6059C91.4295 75.5897 91.4237 75.5736 91.4176 75.5576L91.3843 75.4739C91.3738 75.448 91.3637 75.4245 91.354 75.4032L91.3267 75.3467C91.3212 75.3693 91.3142 75.3916 91.3057 75.4132L91.2906 75.4469C91.1875 75.6918 90.9479 76.0275 90.7294 76.2632C90.726 76.2659 90.7228 76.2682 90.7219 76.2741L90.6768 76.3198C90.669 76.3282 90.6614 76.3368 90.654 76.3457L90.6626 76.3287L89.0911 77.7854C89.1044 77.7963 89.1061 77.8059 89.105 77.8117Z" fill="#9FA0A0"/>
<path d="M88.4973 72.8901C88.5038 73.0062 88.5111 73.1271 88.5199 73.2533L88.539 73.5112C88.5424 73.5551 88.5459 73.5997 88.5498 73.6449L88.573 73.9217L88.5858 74.0646L88.5895 74.1107C88.5903 74.118 88.5916 74.1253 88.5934 74.1324C88.6067 74.2744 88.6213 74.4203 88.6378 74.571L88.6726 74.8783C88.6851 74.9827 88.6982 75.0894 88.712 75.1986L88.7773 75.6983C88.808 75.9251 88.8411 76.1604 88.878 76.4055L88.9066 76.5912C88.9348 76.7804 88.9661 76.9741 88.9992 77.1729L89.1028 77.7859L90.6745 76.3291C91.0022 75.7283 91.0737 75.3545 91.0694 74.89C91.0677 74.7965 91.0634 74.6991 91.0574 74.5995L91.0507 74.499C91.0243 74.0782 90.9769 73.659 90.9087 73.243C90.8443 72.839 90.7652 72.4508 90.6748 72.1186C90.6242 71.9254 90.5641 71.735 90.4947 71.548C90.4413 71.4138 90.3835 71.2814 90.3213 71.1511L90.143 71.3353C90.1129 71.3664 90.082 71.3975 90.0513 71.4288L89.8635 71.6184L89.6721 71.8085L89.4794 71.9966L89.3831 72.0892L89.1928 72.2699C88.9673 72.4837 88.7354 72.6904 88.4973 72.8897V72.8901Z" fill="#9FA0A0"/>
<path d="M78.9678 70.695C79.8403 70.7904 80.6066 70.9694 81.2671 71.2321C81.9507 71.4946 82.505 71.8525 82.9293 72.3061C83.3775 72.7356 83.6722 73.2966 83.8136 73.9887C83.8845 74.3943 83.8845 74.8599 83.8136 75.3848C83.7402 75.9254 83.6458 76.4628 83.5307 76.9959L81.9391 84.9795C81.8682 85.4329 81.7857 85.8985 81.6914 86.3756C81.5971 86.8292 81.5616 87.2469 81.5853 87.6288C81.5853 87.7005 81.5734 87.7838 81.55 87.8793V88.0941C81.55 88.3568 81.5264 88.6193 81.4791 88.8817C81.4319 89.1444 81.2787 89.3232 81.0194 89.4188C80.8516 89.491 80.671 89.5276 80.4887 89.5263H77.3763C77.1874 89.5024 77.046 89.4428 76.9517 89.3471C76.813 89.2554 76.7123 89.1153 76.6688 88.9535C76.6215 88.7624 76.539 88.6073 76.4211 88.4881C76.3713 88.4387 76.3107 88.4018 76.2443 88.3805C76.197 88.3327 76.1145 88.3209 75.9968 88.3448C75.861 88.3899 75.7305 88.4499 75.6077 88.5238C75.4895 88.5956 75.3718 88.6552 75.2538 88.7028C75.1125 88.7985 74.9591 88.8817 74.7941 88.9533C74.6527 89.025 74.4993 89.0966 74.3343 89.1681C74.0013 89.3124 73.6585 89.4321 73.3084 89.5263C72.9548 89.5978 72.6012 89.6813 72.2473 89.7768C72.0587 89.8246 71.8819 89.8485 71.7167 89.8485C71.5753 89.8725 71.4221 89.8962 71.2569 89.9201H71.0448C70.9739 89.944 70.9033 89.9557 70.8326 89.9557H70.4435C70.184 90.0036 69.9483 90.0036 69.736 89.9557H69.4176C69.2566 89.9086 69.09 89.8845 68.9224 89.8842C68.7802 89.908 68.6344 89.8956 68.4981 89.8483L67.8613 89.7052C67.6492 89.6813 67.4604 89.6217 67.2954 89.5263C66.6588 89.2636 66.14 88.9296 65.7391 88.5238C65.3382 88.0941 65.067 87.5333 64.9257 86.8412C64.8767 86.6651 64.8413 86.4856 64.8195 86.304C64.8195 86.1131 64.8077 85.9104 64.7841 85.6956C64.7605 85.5774 64.7605 85.4556 64.7841 85.3375C64.8314 85.2181 64.855 85.0989 64.855 84.9795C64.855 84.9078 64.8666 84.7647 64.8902 84.5498C64.9375 84.3113 64.9845 84.1441 65.0316 84.0486C65.1261 83.8101 65.185 83.6072 65.2086 83.4402L65.5623 82.6526C65.7038 82.3659 65.857 82.1154 66.022 81.9006C66.5409 81.2084 67.0949 80.6835 67.6845 80.3254C68.274 79.9674 69.0051 79.6571 69.8776 79.3947C70.1986 79.2776 70.5304 79.1936 70.868 79.1439C71.2115 79.0939 71.5535 79.0342 71.8937 78.965C72.0823 78.9171 72.2825 78.8932 72.495 78.8932C72.7307 78.8693 72.9548 78.8336 73.1671 78.786C73.3277 78.7386 73.4966 78.7263 73.6623 78.7501C73.8273 78.7501 74.0159 78.7262 74.2282 78.6784C74.3891 78.6313 74.5558 78.6073 74.7234 78.607C74.8884 78.607 75.0652 78.5831 75.254 78.5353C75.7727 78.4161 76.2445 78.3207 76.6688 78.2489C77.1167 78.1534 77.541 77.9386 77.9422 77.6046C78.1778 77.3897 78.3665 77.151 78.5081 76.8885C78.5317 76.8167 78.5435 76.7572 78.5435 76.7095C78.5435 76.6617 78.5551 76.6139 78.5787 76.5662C78.626 76.5184 78.6496 76.4471 78.6496 76.3516C78.6733 76.2559 78.6967 76.1844 78.7203 76.1368V75.5996C78.6258 74.8836 78.2251 74.3943 77.5176 74.1318C77.329 74.0601 77.0815 74.0125 76.7749 73.9887C76.4827 73.9406 76.1857 73.9286 75.8906 73.9529C75.584 73.9529 75.2775 73.9768 74.9711 74.0246C74.6879 74.0723 74.4404 74.1318 74.2282 74.2034C74.0648 74.2503 73.9097 74.3228 73.7684 74.4182C73.6268 74.49 73.4855 74.5735 73.3439 74.6689C73.2023 74.7644 73.0491 74.8955 72.8841 75.0625C72.7189 75.2298 72.6012 75.3848 72.5303 75.5279C72.3774 75.7472 72.2357 75.9743 72.1059 76.2083C71.9878 76.4231 71.7875 76.5662 71.5044 76.638C71.316 76.6858 71.1155 76.7095 70.9033 76.7095H68.9224C68.8047 76.7095 68.6749 76.7215 68.5335 76.7454C68.4154 76.7454 68.3213 76.7335 68.2504 76.7095H67.9322C67.8849 76.6856 67.8261 76.6737 67.7552 76.6737C67.6845 76.6737 67.6256 76.6497 67.5783 76.6021C67.4133 76.5543 67.319 76.3992 67.2954 76.1368C67.2954 76.0172 67.319 75.898 67.3663 75.7786C67.4133 75.6594 67.4604 75.552 67.5077 75.4566C67.616 75.2132 67.734 74.9743 67.8613 74.7405C67.9918 74.5184 68.1335 74.3033 68.2858 74.096L68.5688 73.738L68.8517 73.3801C69.0876 73.1174 69.3706 72.8669 69.7006 72.6281C69.7715 72.6042 69.854 72.5446 69.9483 72.4492C70.0684 72.3689 70.1863 72.2854 70.3019 72.1987C70.4199 72.1269 70.5496 72.0554 70.691 71.9838C71.1258 71.7271 71.5888 71.5228 72.0705 71.3752C72.5657 71.2082 73.0609 71.0529 73.5561 70.9098C73.8587 70.8388 74.166 70.7909 74.4757 70.7665C74.7822 70.7426 75.1006 70.695 75.4309 70.6234C75.5252 70.5995 75.6665 70.5995 75.8552 70.6234C76.0438 70.6474 76.1736 70.6354 76.2443 70.5876C77.211 70.5636 78.119 70.5995 78.9678 70.695ZM118.292 70.9814C119.093 71.2677 119.789 71.6496 120.378 72.1269C120.572 72.2748 120.75 72.4428 120.909 72.6281C121.098 72.7954 121.251 72.9743 121.369 73.1653C121.416 73.2846 121.499 73.3801 121.616 73.4516C121.758 73.715 121.877 73.9906 121.97 74.2751C122.088 74.5376 122.218 74.8122 122.359 75.0984C122.43 75.3133 122.477 75.5398 122.501 75.7786C122.548 75.9935 122.595 76.2322 122.642 76.4947C122.689 76.805 122.713 77.1273 122.713 77.4613L122.784 78.4637C122.784 78.6547 122.748 78.8695 122.677 79.1083C122.63 79.3229 122.619 79.5258 122.642 79.7167L122.571 80.1105C122.571 80.3014 122.524 80.5163 122.43 80.755C122.336 80.9936 122.218 81.1486 122.076 81.2204C121.958 81.3161 121.782 81.3874 121.546 81.4352C121.31 81.4592 121.05 81.4831 120.767 81.507H119.954C119.719 81.4843 119.483 81.4723 119.247 81.4711H110.121C109.979 81.4711 109.85 81.495 109.732 81.5427C109.52 81.6381 109.378 81.7336 109.307 81.8291C109.26 81.8769 109.189 81.9721 109.095 82.1154C109.024 82.2348 108.989 82.3542 108.989 82.4734C109.013 82.6167 109.013 82.7598 108.989 82.9031C108.989 83.0224 109.001 83.1536 109.024 83.2969C109.095 83.8696 109.225 84.3472 109.413 84.7288C109.626 85.0869 109.932 85.4092 110.333 85.6956C110.493 85.8123 110.673 85.8973 110.864 85.9461C111.076 85.97 111.276 86.0179 111.465 86.0894C111.654 86.1373 111.901 86.1729 112.208 86.1966C112.538 86.2205 112.833 86.2086 113.092 86.161H113.41C113.646 86.1131 113.87 86.0653 114.082 86.0177L114.719 85.803C114.979 85.6834 115.273 85.5284 115.603 85.3377C115.934 85.1465 116.193 84.9556 116.381 84.7647C116.523 84.5979 116.676 84.4423 116.841 84.2993C117.006 84.1321 117.183 84.0129 117.372 83.9412C117.631 83.822 117.938 83.7742 118.291 83.7981H119.742C119.907 83.7742 120.048 83.7861 120.166 83.834H120.52C120.732 83.8816 120.885 83.9412 120.98 84.0129C121.051 84.0608 121.074 84.168 121.051 84.335C121.051 84.5022 121.015 84.6453 120.944 84.7647C120.756 85.0989 120.555 85.3973 120.343 85.6597C120.145 85.9338 119.933 86.1967 119.706 86.4473C119.046 87.235 118.339 87.8673 117.584 88.3448C116.83 88.8222 115.922 89.2277 114.861 89.5619C114.578 89.6576 114.306 89.7172 114.047 89.7409C113.761 89.7692 113.478 89.8171 113.198 89.8842C113.104 89.9081 112.998 89.9081 112.88 89.8842C112.785 89.8842 112.691 89.8962 112.597 89.9201H112.208C112.071 89.9674 111.925 89.9796 111.783 89.9557C111.653 89.9568 111.522 89.9449 111.394 89.9201C111.205 89.8962 111.04 89.8962 110.899 89.9201C110.757 89.944 110.604 89.932 110.439 89.8842C110.315 89.8353 110.183 89.8109 110.05 89.8124C109.909 89.8124 109.791 89.7887 109.696 89.7409C109.435 89.6926 109.175 89.6329 108.918 89.5619C108.693 89.5183 108.477 89.4334 108.281 89.3114C108.06 89.2212 107.836 89.1376 107.609 89.0607C107.411 88.9729 107.221 88.865 107.044 88.7387C106.383 88.2613 105.817 87.7123 105.346 87.0917C104.898 86.4473 104.568 85.7073 104.355 84.8721C104.285 84.6143 104.238 84.3507 104.214 84.0845C104.214 83.7981 104.179 83.5117 104.108 83.2253V82.9746C104.131 82.8791 104.143 82.7837 104.143 82.6882C104.12 82.3784 104.12 82.0673 104.143 81.7575L104.285 80.755C104.309 80.6253 104.321 80.4934 104.32 80.3612C104.344 80.2179 104.379 80.0868 104.426 79.9674L104.532 79.5377L104.815 78.6786C104.975 78.2873 105.128 77.8934 105.275 77.4972C105.414 77.121 105.591 76.7609 105.806 76.4229C107.315 73.9409 109.39 72.1867 112.031 71.1605C112.371 71.0208 112.728 70.9245 113.092 70.8739C113.446 70.8022 113.823 70.7189 114.224 70.6234C114.412 70.5995 114.589 70.5876 114.754 70.5876C114.919 70.5876 115.096 70.5756 115.285 70.5517C116.488 70.5278 117.49 70.6713 118.292 70.9814ZM45.0383 64.0002C45.4392 64.0002 45.7221 64.0837 45.8871 64.2507C46.0287 64.3703 46.1112 64.5491 46.1349 64.7878C46.1585 65.0027 46.1937 65.2175 46.2408 65.4322C46.288 65.8142 46.3353 66.208 46.3824 66.6136C46.4533 66.9956 46.5121 67.3895 46.5592 67.795C46.8209 69.3151 47.0333 70.8435 47.196 72.3776C47.3836 73.9223 47.6077 75.4621 47.868 76.9959C47.9623 77.4732 48.033 77.9625 48.0803 78.4637C48.1273 78.965 48.198 79.4542 48.2923 79.9316L48.3632 80.2897C48.3868 80.4089 48.4457 80.5043 48.54 80.5761C48.5873 80.6 48.6225 80.6239 48.6462 80.6476C48.6934 80.6715 48.7523 80.6596 48.823 80.6117C49.0116 80.5639 49.1648 80.4208 49.2827 80.1823C49.3905 79.9619 49.5085 79.7468 49.6364 79.5377C49.9121 79.0031 50.1834 78.4662 50.45 77.9268C50.7143 77.3682 50.9974 76.8189 51.2988 76.2798L53.5626 71.9123C54.3408 70.4325 55.1073 68.9527 55.8617 67.473C56.0455 67.1005 56.2343 66.7305 56.4278 66.3631C56.6398 65.9812 56.8403 65.5994 57.0289 65.2175C57.126 65.0215 57.2323 64.8303 57.3473 64.6445C57.4653 64.4536 57.6302 64.2986 57.8425 64.1792C58.0075 64.0598 58.1961 64.0002 58.4084 64.0002H64.4923C64.728 64.0002 64.8932 64.0481 64.9876 64.1435C65.2232 64.2866 65.2939 64.561 65.1996 64.9668C65.1268 65.3602 65.0562 65.754 64.9876 66.1482L63.9262 71.5185L61.2736 84.8362L60.6722 87.951C60.6245 88.216 60.5655 88.4788 60.4954 88.7387C60.4245 88.9772 60.3068 89.1562 60.1415 89.2758C59.9745 89.3958 59.7795 89.4698 59.5757 89.4904H56.2155C56.0644 89.4459 55.9109 89.41 55.7557 89.383C55.6376 89.3591 55.5435 89.2755 55.4726 89.1325C55.4019 89.0129 55.3783 88.8578 55.4019 88.6671C55.4492 88.476 55.4964 88.2731 55.5435 88.0582L55.8971 86.2325L57.7364 77.0318C57.7836 76.6976 57.8309 76.3873 57.878 76.1011C57.9486 75.7906 58.0075 75.4803 58.0548 75.1702L58.1961 74.5972C58.2434 74.3826 58.267 74.1797 58.267 73.9887C58.2434 73.8105 58.2434 73.6299 58.267 73.4516C58.3143 73.2607 58.2789 73.1413 58.1609 73.0937C58.09 73.0698 58.0311 73.0817 57.9841 73.1294L57.878 73.2368C57.7542 73.3388 57.6468 73.4596 57.5596 73.5949L57.3473 73.9529C57.13 74.3198 56.9178 74.6898 56.7107 75.0628C56.5165 75.4546 56.304 75.8369 56.0739 76.2083L55.8617 76.638C55.8102 76.7901 55.7389 76.9345 55.6496 77.0675C55.4639 77.3725 55.287 77.6828 55.1189 77.9982C54.9723 78.3182 54.8069 78.629 54.6237 78.9291C54.5765 79.0008 54.5412 79.0843 54.5176 79.1798C54.494 79.2516 54.4587 79.3229 54.4115 79.3947C54.268 79.613 54.1382 79.8402 54.0226 80.0749C53.9281 80.3134 53.7985 80.5522 53.6333 80.7907C53.4899 81.0091 53.36 81.2364 53.2444 81.4711C53.1455 81.7189 53.0272 81.9583 52.8906 82.187C52.4698 82.8726 52.0803 83.5775 51.7234 84.2993C51.367 84.9964 51.0015 85.6886 50.6268 86.3758C50.5561 86.4473 50.5091 86.5189 50.4854 86.5904C50.4854 86.6622 50.45 86.7337 50.3793 86.8053C50.2122 87.0716 50.0587 87.3465 49.9195 87.6288C49.7964 87.901 49.6545 88.1642 49.495 88.4164C49.406 88.5747 49.3116 88.7299 49.2121 88.8817C49.1248 89.017 49.0174 89.1379 48.8937 89.2399C48.7523 89.3353 48.6225 89.3949 48.5048 89.4188C48.3866 89.4188 48.2334 89.4428 48.0448 89.4904H47.2312C47.0662 89.4904 46.8658 89.5024 46.6299 89.5263H45.9578C45.7458 89.5263 45.5453 89.5143 45.3567 89.4904C45.1678 89.4665 45.0383 89.4186 44.9676 89.3471C44.8024 89.2279 44.6963 89.0966 44.6492 88.9535C44.6256 88.7863 44.5783 88.5954 44.5076 88.3805C44.4607 88.0957 44.4253 87.8091 44.4015 87.5213C44.3793 87.2195 44.332 86.9201 44.2601 86.6263L44.2247 86.304C44.1528 86.0103 44.1055 85.711 44.0833 85.4092C44.0628 85.0953 44.0155 84.7839 43.9417 84.4783V84.2993C43.9417 84.2276 43.9299 84.156 43.9063 84.0845C43.8356 83.8696 43.7886 83.6431 43.7649 83.4043C43.7411 83.164 43.7057 82.925 43.6588 82.6882V82.5092C43.6588 82.4375 43.647 82.3779 43.6233 82.3303C43.5764 82.0934 43.541 81.8544 43.5172 81.614C43.5172 81.3752 43.482 81.1367 43.4113 80.8979C43.3168 80.4206 43.2343 79.9194 43.1636 79.3944C43.1176 78.8781 43.0468 78.3643 42.9513 77.8549C42.8557 77.2482 42.7731 76.6395 42.7038 76.0291C42.6592 75.4229 42.5525 74.823 42.3854 74.239C42.3381 73.9048 42.2675 73.6304 42.1731 73.4155C42.132 73.3723 42.0843 73.336 42.0318 73.3081C42.0082 73.2603 41.9609 73.2603 41.8902 73.3081C41.7488 73.3799 41.6545 73.499 41.6073 73.6663C41.5821 73.8389 41.5346 74.0075 41.4659 74.1675C41.3721 74.3328 41.3119 74.5154 41.2889 74.7046C41.2652 74.8716 41.2416 75.0504 41.2182 75.2415C41.1705 75.5065 41.1115 75.7693 41.0414 76.0291C40.9937 76.2941 40.9347 76.5569 40.8645 76.8167L38.9898 86.3397L38.6362 88.0939L38.4946 88.6667C38.471 88.8576 38.4003 89.0129 38.2823 89.132C38.1644 89.2992 37.9642 89.4067 37.681 89.4543C37.516 89.5021 37.3392 89.5261 37.1503 89.5261C36.9627 89.5022 36.7738 89.4902 36.5847 89.4902H34.0377C33.8254 89.4663 33.6604 89.3947 33.5425 89.2753C33.4245 89.1559 33.3775 88.977 33.4009 88.7382L33.5425 87.9508L34.1438 84.8003L36.7967 71.4824L37.7871 66.4701C37.8108 66.327 37.8342 66.16 37.8578 65.969C37.9051 65.7542 37.9521 65.5515 37.9992 65.3604C38.0464 65.1695 38.0937 64.9905 38.1408 64.8233C38.2114 64.6326 38.2703 64.4893 38.3176 64.3938C38.4589 64.2268 38.6712 64.1074 38.9542 64.0359C39.0251 64.012 39.0723 64.012 39.0957 64.0359C39.143 64.0359 39.2019 64.0239 39.2726 64H45.0381L45.0383 64.0002ZM141.22 71.1962C142.092 71.6496 142.705 72.3178 143.059 73.2011C143.177 73.4636 143.248 73.75 143.271 74.0601C143.318 74.3467 143.354 74.645 143.377 74.9553C143.401 75.1463 143.401 75.325 143.377 75.4924C143.354 75.6586 143.354 75.8273 143.377 75.9935C143.33 76.1368 143.318 76.2322 143.342 76.2798C143.316 76.6286 143.269 76.9754 143.2 77.3182C143.132 77.6647 143.061 78.0108 142.988 78.3563L142.387 81.5427L141.22 87.3422C141.128 87.7843 141.033 88.2259 140.937 88.6669C140.842 89.0727 140.618 89.3353 140.265 89.4545C140.123 89.5024 139.958 89.5263 139.769 89.5263H137.293C137.01 89.5263 136.763 89.5143 136.551 89.4904C136.338 89.4426 136.185 89.3353 136.091 89.1681C136.02 89.025 135.996 88.8461 136.02 88.631C136.067 88.3925 136.115 88.1417 136.162 87.8793L136.657 85.3733L137.718 80.0392C137.883 79.1559 138.001 78.3444 138.072 77.6046C138.166 76.8409 138.083 76.1963 137.824 75.6714C137.588 75.1939 137.175 74.8599 136.586 74.6689C136.462 74.62 136.33 74.5957 136.197 74.5972C136.079 74.5972 135.961 74.5733 135.843 74.5256C135.725 74.5017 135.572 74.5017 135.383 74.5256C135.218 74.5256 135.089 74.5376 134.994 74.5615C134.876 74.5854 134.782 74.5972 134.711 74.5972C134.641 74.5972 134.57 74.6091 134.499 74.6331C133.933 74.7764 133.461 74.9673 133.084 75.2058C132.212 75.7549 131.599 76.5543 131.245 77.6044C130.915 78.6547 130.62 79.8361 130.361 81.1489L129.477 85.6241L129.052 87.8077L128.91 88.4523C128.863 88.6669 128.793 88.8459 128.698 88.9894C128.533 89.2516 128.309 89.4069 128.026 89.4547C127.767 89.5024 127.448 89.5263 127.071 89.5263H125.303C125.043 89.5263 124.784 89.5143 124.525 89.4904C124.265 89.4665 124.1 89.383 124.029 89.2399C123.888 89.025 123.864 88.7147 123.959 88.309C124.053 87.9032 124.136 87.5213 124.206 87.1634L125.161 82.2946L126.718 74.4184L127.107 72.5925C127.154 72.3298 127.201 72.0912 127.248 71.8764C127.292 71.6666 127.404 71.4776 127.566 71.3393C127.614 71.2677 127.696 71.2201 127.814 71.1962C127.928 71.1495 128.047 71.1136 128.168 71.0888H128.345C128.461 71.065 128.58 71.053 128.698 71.0529H130.573C130.762 71.0529 130.939 71.0649 131.104 71.0888C131.292 71.0888 131.457 71.1127 131.599 71.1605C131.74 71.2321 131.823 71.3393 131.846 71.4826C131.894 71.6259 131.917 71.7929 131.917 71.9838C131.917 72.0793 131.905 72.1628 131.882 72.2343C131.858 72.3061 131.858 72.3776 131.882 72.4492C131.905 72.5686 131.929 72.6401 131.953 72.664C132 72.6879 132.059 72.7236 132.129 72.7714C132.365 72.7954 132.589 72.7116 132.801 72.5207C133.014 72.3061 133.226 72.1389 133.438 72.0197C134.167 71.5432 134.951 71.1584 135.773 70.8739C136.008 70.8022 136.232 70.7546 136.445 70.7309C136.705 70.7036 136.965 70.6678 137.223 70.6234C137.294 70.5995 137.4 70.5995 137.541 70.6234C137.682 70.6234 137.777 70.6115 137.824 70.5876C139.239 70.5397 140.371 70.7428 141.22 71.1962ZM77.0224 80.934C76.9281 80.9579 76.8456 80.9819 76.7749 81.0058C76.704 81.0058 76.6097 81.0175 76.492 81.0414C76.3268 81.0893 76.1499 81.1249 75.9613 81.1489C75.7593 81.1751 75.5586 81.2109 75.36 81.2563C75.2893 81.2802 75.1831 81.2919 75.0418 81.2919C74.7116 81.3637 74.3932 81.4115 74.0866 81.4352C73.78 81.4592 73.4736 81.5187 73.1671 81.6142L72.6012 81.7575C72.4359 81.7814 72.2709 81.8291 72.1059 81.9006C71.5635 82.1154 71.0801 82.4377 70.6558 82.8672C70.2312 83.2969 69.9837 83.8936 69.9128 84.6573C69.8892 85.063 69.9601 85.3973 70.1251 85.6597C70.2196 85.9222 70.4199 86.137 70.7264 86.304C71.033 86.4473 71.3748 86.5548 71.7521 86.6263C72.1294 86.6981 72.5303 86.722 72.9548 86.6981C73.3859 86.6536 73.8121 86.5697 74.2282 86.4473C74.8884 86.2564 75.4309 85.9581 75.8552 85.5523C76.3033 85.1226 76.6806 84.5977 76.9872 83.9771C77.0579 83.8101 77.1167 83.6428 77.164 83.4758C77.2113 83.2849 77.2817 83.094 77.3763 82.9031L77.4469 82.5808C77.4942 82.4614 77.5294 82.3303 77.5531 82.1872C77.5767 82.0198 77.5883 81.8767 77.5883 81.7575C77.5883 81.6142 77.6001 81.4829 77.6238 81.3637C77.6474 81.2441 77.6119 81.1489 77.5176 81.0773C77.4233 80.9816 77.2583 80.934 77.0224 80.934ZM114.578 74.3108C114.507 74.3586 114.424 74.3706 114.33 74.3467C114.236 74.3228 114.153 74.3228 114.082 74.3467C113.941 74.3945 113.799 74.4302 113.658 74.4541C113.517 74.4541 113.387 74.478 113.269 74.5259C112.16 74.8599 111.265 75.5161 110.581 76.4947C110.51 76.5904 110.427 76.7215 110.333 76.8885C110.239 77.0315 110.167 77.1885 110.121 77.3539C110.074 77.4923 110.051 77.6374 110.05 77.7835C110.05 77.9268 110.109 78.046 110.227 78.1415C110.392 78.2611 110.64 78.3207 110.97 78.3207H116.877C117.254 78.2967 117.513 78.1893 117.655 77.9984C117.867 77.7596 117.938 77.4732 117.867 77.1392C117.82 76.7811 117.785 76.5186 117.761 76.3516C117.549 75.7071 117.207 75.2178 116.735 74.8838C116.264 74.5256 115.544 74.3347 114.578 74.3108Z" fill="#9FA0A0"/>
<path d="M103.628 70.308C103.578 70.3289 103.523 70.3554 103.464 70.3869L103.372 70.4383C103.309 70.4751 103.241 70.5168 103.17 70.5636L103.061 70.6376L102.946 70.7185L102.825 70.8068L102.699 70.9021L102.634 70.9524L102.501 71.0579L102.364 71.1701L102.221 71.2889L102.075 71.4142L101.924 71.5456L101.769 71.6834L101.611 71.8269L101.531 71.9009L102.049 73.3788C102.609 72.7731 103.172 72.2338 103.725 71.7743L103.919 71.6146L103.933 71.6037L103.8 71.7138L103.669 71.8287L103.526 71.9588L103.392 72.0867L103.278 72.197L103.197 72.2777L103.021 72.4565L102.877 72.6064L102.669 72.8279L102.559 72.9482L102.444 73.075L102.264 73.2774L102.138 73.421C102.267 73.4334 102.408 73.4442 102.559 73.4534L102.791 73.4658L103.035 73.476L103.287 73.484L103.546 73.4897L103.809 73.4932L103.941 73.4943L104.205 73.4947C104.249 73.4947 104.293 73.4943 104.337 73.4941L104.597 73.4914C104.64 73.491 104.683 73.4904 104.726 73.4895L104.977 73.4843C105.183 72.8621 105.23 72.3617 105.214 71.9879L105.209 71.8933L105.201 71.8045L105.196 71.7623L105.185 71.682L105.172 71.6079L105.166 71.5728L105.151 71.5074L105.137 71.4475L105.121 71.3938L105.107 71.3459L105.079 71.2678L105.056 71.2137L105.003 71.1018L104.972 71.0422L104.946 70.9952L104.915 70.9439L104.881 70.8886L104.842 70.8308L104.8 70.7709C104.564 70.4485 104.16 70.0856 103.628 70.308Z" fill="#9FA0A0"/>
<path d="M94.1994 85.4527L94.4162 85.0535L94.7103 84.5231L94.9679 84.0606L95.0957 83.832L95.3804 83.3328L95.6616 82.8441L95.8002 82.6043C95.9435 82.3589 96.0878 82.1142 96.2331 81.8702L96.5161 81.3979C96.7526 81.0033 96.993 80.6111 97.2371 80.2212L97.5222 79.7693L97.6623 79.5486L97.8634 79.2355L98.1072 78.8647L98.3425 78.5057L98.4507 78.3439L98.6611 78.0249L98.6972 77.9723L98.7648 77.8707L98.7829 77.8447L98.6926 77.8407L98.6422 77.6929L98.6172 77.7327C98.5085 77.8877 98.3996 78.0449 98.2917 78.2043L97.9459 78.7232L97.8502 78.8636C97.657 79.1547 97.4665 79.4475 97.2788 79.7422L97.091 80.0396C96.8378 80.4378 96.5883 80.8384 96.3425 81.2413C96.0986 81.6362 95.864 82.0326 95.6294 82.4288C95.4742 82.691 95.3203 82.9539 95.1675 83.2175L94.9413 83.6104C94.7074 84.0146 94.4777 84.4213 94.2523 84.8304C94.2011 84.9197 94.1491 85.0139 94.1025 85.1039C93.9244 85.4237 93.7486 85.7448 93.5753 86.0672L93.6554 86.3067L93.7551 86.3119C93.7611 86.3032 93.7674 86.2943 93.7687 86.2847C93.9089 85.9987 94.0544 85.7221 94.1994 85.4527Z" fill="#9FA0A0"/>
<path d="M99.4177 76.6001C99.6976 76.2202 99.9763 75.8499 100.253 75.4889C100.542 75.1153 100.834 74.7563 101.128 74.4077C101.146 74.386 101.163 74.3644 101.18 74.3477C101.461 74.0157 101.749 73.6901 102.044 73.3713L101.526 71.8992L101.463 71.9579L101.332 72.0788C101.073 72.3225 100.819 72.5705 100.568 72.8229C100.42 72.9727 100.269 73.1274 100.117 73.2861L99.8072 73.6101L99.6499 73.7765C99.351 74.0984 99.0564 74.4244 98.7663 74.7546C98.5747 74.9755 98.3845 75.1977 98.1959 75.4213L97.9759 75.6835L98.638 77.6858L98.8999 77.3227L99.4177 76.6001Z" fill="#9FA0A0"/>
<path d="M93.7431 86.3009L93.6447 86.4851L93.3843 86.9768C93.3404 87.0598 93.2966 87.1436 93.2528 87.2279L93.1153 87.4963C93.0889 87.5459 93.0633 87.5904 93.0416 87.6404L92.8968 87.9234L92.5801 88.5457C92.8379 88.7147 93.01 89.0793 93.1613 89.4895C93.1948 89.0924 93.0891 88.6988 92.8259 88.3689C94.1708 88.6318 95.3926 88.4596 96.1379 87.5432C96.2026 87.4606 96.2679 87.3736 96.3291 87.281C96.0135 87.5798 95.668 87.685 95.0734 87.5726L95.0061 87.5591C96.0096 87.2721 96.5427 86.93 97.0581 86.3138C97.1885 86.1565 97.3126 85.994 97.4302 85.8267C96.4812 86.5623 95.4902 86.6623 94.5098 86.3277L93.7431 86.3009Z" fill="#9FA0A0"/>
<path d="M94.1924 84.9172L94.4717 84.4208L94.9332 83.6045C95.1596 83.2088 95.389 82.8149 95.6214 82.4228C95.8572 82.0258 96.0949 81.63 96.3344 81.2353C96.5795 80.8319 96.829 80.4313 97.0829 80.0337C97.3315 79.6394 97.5895 79.2465 97.842 78.8577C97.9344 78.7163 98.0259 78.5798 98.1228 78.4393C98.2818 78.2012 98.4455 77.9639 98.6092 77.7267L98.6341 77.6867L97.9806 75.6907L97.9436 75.7372C97.9372 75.745 97.9301 75.7526 97.9226 75.7596C97.6549 76.088 97.3818 76.4207 97.1167 76.7638C96.846 77.1113 96.5796 77.464 96.3164 77.8272C96.0949 78.1331 95.8781 78.4402 95.6605 78.7518L95.5326 78.941C95.0217 79.6983 94.5501 80.4821 94.12 81.2892C93.9922 81.5307 93.8676 81.7738 93.7462 82.0186C93.6504 82.2176 93.5587 82.422 93.4676 82.6216C93.2582 83.089 93.0679 83.5649 92.8969 84.0481L93.5625 86.0606L93.6919 85.8216L93.9568 85.3411C94.0012 85.2606 94.0455 85.1793 94.0898 85.0975L94.1924 84.9172Z" fill="#9FA0A0"/>
<path d="M92.8725 84.1126C92.6944 84.6158 92.5431 85.1282 92.4192 85.6478L92.3554 85.93C92.2952 85.7902 92.199 85.6456 92.0905 85.5093L92.0241 85.4286C92.0128 85.4153 92.0015 85.4021 91.9901 85.389L91.9214 85.3125L91.8526 85.2394L91.7852 85.1703L91.6885 85.0759L91.6004 84.9941L91.5044 84.9087L91.4178 84.8365C91.8604 85.745 92.1684 86.6239 92.1132 87.4346C91.8045 87.4518 91.4051 87.3004 90.9574 87.0547C91.1501 87.2939 91.3271 87.4627 91.4764 87.581L91.5433 87.6321C91.554 87.6401 91.5647 87.6477 91.5753 87.6551L91.6356 87.6964L91.6915 87.7314L91.7426 87.761L91.7886 87.7851L91.8292 87.8047L91.864 87.8199L91.8795 87.8262C91.5042 87.7943 91.0884 87.9541 90.6587 88.1742L90.515 88.2498L90.3706 88.3288C91.1108 88.1431 91.6941 88.1135 92.0834 88.2681C91.8886 88.6416 91.6962 89.0163 91.5063 89.3924L91.215 89.9725C90.7622 90.8828 90.319 91.7979 89.8853 92.7177L89.5858 93.3546C89.4853 93.5696 89.3851 93.7848 89.2853 94.0002C89.4902 93.9726 89.6273 93.8523 89.7192 93.6818L90.058 92.9542L90.3702 92.3001L90.7687 91.4786L91.1211 90.7645L91.47 90.0665L91.8015 89.4119L92.2613 88.5169L92.588 87.8906L92.7004 87.6769L92.7971 87.4959L92.8852 87.3263L93.0192 87.0756L93.2944 86.5641L93.4354 86.3036L93.5656 86.0662L93.5662 86.0614L92.9008 84.0491C92.8923 84.0639 92.886 84.0769 92.8804 84.0908L92.8725 84.1126Z" fill="#9FA0A0"/>
<path d="M98.7647 77.8708L98.6611 78.0252C98.5915 78.1308 98.5197 78.2365 98.4484 78.3437L98.107 78.8647L97.8634 79.2353L97.8015 79.3314C97.7091 79.4749 97.6161 79.621 97.5222 79.7694L97.2371 80.2212C97.0432 80.5307 96.8517 80.8418 96.6629 81.1545L96.5161 81.3979C96.2747 81.7983 96.0361 82.2004 95.8003 82.6043L95.5218 83.0857C95.3813 83.3293 95.2391 83.5772 95.0958 83.832C95.0109 83.9821 94.9256 84.1345 94.8397 84.2889L94.4162 85.0535L94.2865 85.2918L94.0229 85.7772C93.9344 85.9409 93.8454 86.1062 93.756 86.2732C93.75 86.2819 93.744 86.2906 93.7425 86.3001L94.5093 86.3269C94.496 86.3202 94.4818 86.3182 94.4637 86.3106C95.3845 86.331 96.6831 85.8261 97.5785 85.097C97.991 84.761 98.3801 84.3537 98.7578 83.8623C99.0403 83.4974 99.3104 83.087 99.5834 82.6237C99.8351 82.1933 100.07 81.753 100.287 81.3037C100.065 81.3824 99.8142 81.4277 99.5435 81.4455L99.3989 81.4531C99.3667 81.4546 99.3349 81.4542 99.3016 81.4544L99.2502 81.4551C100.141 81.2533 100.762 80.7011 101.259 79.9805C101.017 80.0994 100.627 80.2451 100.182 80.2806C100.121 80.2856 100.06 80.2879 99.9987 80.2873C99.9893 80.286 99.9796 80.2867 99.9686 80.2865L99.9512 80.2852C100.26 80.2049 100.528 80.1044 100.767 79.9703C100.802 79.9529 100.834 79.9329 100.866 79.9122L100.914 79.8807C100.988 79.8337 101.058 79.7811 101.128 79.7285L101.258 79.6219C101.357 79.5349 101.452 79.4375 101.54 79.3294L101.596 79.2638C101.605 79.2529 101.613 79.2418 101.621 79.2301L101.692 79.1294C101.703 79.1131 101.714 79.0968 101.724 79.0807C101.844 78.9082 101.957 78.7315 102.064 78.5507L102.103 78.4829C102.154 78.3937 102.199 78.3133 102.239 78.2367L102.286 78.1467L102.356 78.0019C102.371 77.9719 102.384 77.9432 102.396 77.916L102.416 77.8673L102.451 77.7794C102.462 77.7525 102.471 77.7275 102.478 77.7051L102.488 77.6731C102.467 77.6861 102.444 77.6988 102.419 77.7096L102.38 77.7248C102.105 77.839 101.649 77.9164 101.288 77.9308C101.283 77.9299 101.279 77.9293 101.273 77.9334L101.201 77.9338C101.188 77.9343 101.176 77.9351 101.163 77.9364L101.183 77.9297L98.7743 77.8384C98.7763 77.8579 98.77 77.8664 98.7647 77.8708Z" fill="#9FA0A0"/>
<path d="M102.139 73.4189C102.053 73.5177 101.964 73.6212 101.872 73.7297L101.685 73.9528L101.49 74.1883L101.255 74.4758C101.25 74.4824 101.245 74.4894 101.241 74.4966C101.107 74.6634 100.969 74.8381 100.827 75.0214L100.61 75.3036L100.5 75.4502L100.189 75.8664L99.9853 76.1421C99.8822 76.2826 99.7776 76.427 99.6706 76.5768L99.5631 76.7279C99.4551 76.878 99.3466 77.0324 99.2362 77.1911L99.0129 77.5138L98.7831 77.8474L101.192 77.9387C101.927 77.7184 102.279 77.4751 102.639 77.0976C102.712 77.0211 102.785 76.9393 102.858 76.8541L102.931 76.768C103.24 76.4079 103.531 76.0324 103.803 75.6426C104.068 75.2653 104.309 74.8896 104.497 74.5493C104.608 74.3532 104.709 74.1516 104.8 73.9452C104.867 73.7854 104.922 73.6338 104.972 73.4864L104.722 73.4907L104.465 73.4933L104.204 73.4942L103.94 73.4933L103.808 73.492L103.546 73.4881L103.287 73.4822L103.16 73.4785L102.912 73.4694C102.872 73.4677 102.832 73.4659 102.792 73.464L102.56 73.4513C102.409 73.4422 102.268 73.4313 102.139 73.4189Z" fill="#9FA0A0"/>
</svg>
