<svg width="20" height="20" viewBox="0 0 20 20" fill="none" xmlns="http://www.w3.org/2000/svg">
<path d="M12.4529 17.5734V3.42676C12.4529 2.87447 12.0052 2.42676 11.4529 2.42676H8.4044C7.85212 2.42676 7.4044 2.87447 7.4044 3.42676V17.5734M12.4529 17.5734L12.4516 9.14025C12.4515 8.5879 12.8993 8.14009 13.4516 8.14009H16.5C17.0523 8.14009 17.5 8.58781 17.5 9.14009V16.5734C17.5 17.1257 17.0523 17.5734 16.5 17.5734H12.4529ZM12.4529 17.5734H7.4044M7.4044 17.5734V13.5734C7.4044 13.0211 6.95669 12.5734 6.4044 12.5734H3.5C2.94772 12.5734 2.5 13.0211 2.5 13.5734V16.5734C2.5 17.1257 2.94771 17.5734 3.5 17.5734H7.4044Z" stroke="#FDFDFD" stroke-width="2" stroke-linecap="round" stroke-linejoin="round"/>
</svg>
