<svg width="24" height="21" viewBox="0 0 24 21" fill="none" xmlns="http://www.w3.org/2000/svg">
<path d="M17.0025 8.52721C17.8203 8.52721 18.481 9.16911 18.481 9.96363C18.481 10.7581 17.8203 11.4 17.0025 11.4C16.1847 11.4 15.5241 10.7581 15.5241 9.96363C15.5241 9.16911 16.1847 8.52721 17.0025 8.52721ZM11.8279 8.52721C12.6457 8.52721 13.3064 9.16911 13.3064 9.96363C13.3064 10.7581 12.6457 11.4 11.8279 11.4C11.0101 11.4 10.3494 10.7581 10.3494 9.96363C10.3494 9.16911 11.0101 8.52721 11.8279 8.52721ZM6.65325 8.52721C7.47103 8.52721 8.13172 9.16911 8.13172 9.96363C8.13172 10.7581 7.47103 11.4 6.65325 11.4C5.83548 11.4 5.17479 10.7581 5.17479 9.96363C5.17479 9.16911 5.83548 8.52721 6.65325 8.52721ZM11.8279 0.626953C18.3609 0.626953 23.6556 4.80601 23.6556 9.96363C23.6556 12.1003 22.7362 14.0574 21.2115 15.633C21.8999 17.4015 23.3322 18.9008 23.3553 18.9188C23.6602 19.233 23.7434 19.6908 23.5678 20.0858C23.3923 20.4808 22.9903 20.7367 22.5468 20.7367C19.7053 20.7367 17.4645 19.5831 16.1201 18.6584C14.7848 19.0669 13.3433 19.3003 11.8279 19.3003C5.29491 19.3003 0.000154495 15.1212 0.000154495 9.96363C0.000154495 4.80601 5.29491 0.626953 11.8279 0.626953ZM11.8279 17.1457C13.0615 17.1457 14.2812 16.9616 15.4501 16.6025L16.4989 16.2793L17.3999 16.8988C18.0606 17.3522 18.9661 17.8594 20.0565 18.2005C19.7192 17.6574 19.3912 17.0469 19.1371 16.3961L18.6473 15.1347L19.5991 14.1561C20.4353 13.2898 21.4379 11.8579 21.4379 9.96363C21.4379 6.00452 17.1273 2.78157 11.8279 2.78157C6.52851 2.78157 2.21785 6.00452 2.21785 9.96363C2.21785 13.9227 6.52851 17.1457 11.8279 17.1457Z" fill="#FDFDFD"/>
</svg>
