<svg width="20" height="20" viewBox="0 0 20 20" fill="none" xmlns="http://www.w3.org/2000/svg">
<path d="M14.0001 10H6M14.0001 10C16.2093 10 18.0001 8.20914 18.0001 6C18.0001 3.79086 16.2093 2 14.0001 2H6C3.79081 2 1.99993 3.79094 2 6.00013C2.00007 8.20922 3.79091 10 6 10M14.0001 10C16.2093 10 18.0001 11.7909 18.0001 14C18.0001 16.2091 16.2093 18 14.0001 18H6C3.79091 18 2.00007 16.2092 2 14.0001C1.99993 11.7909 3.79081 10 6 10M14.4999 6H9.49987M14.4999 14H9.49987M5.49987 14.0752V14M5.49987 6V5.9248" stroke="#FDFDFD" stroke-width="2" stroke-linecap="round" stroke-linejoin="round"/>
</svg>
