<svg width="34" height="34" viewBox="0 0 34 34" fill="none" xmlns="http://www.w3.org/2000/svg">
<path d="M8.50008 20.5417C8.50008 21.3208 7.86258 21.9583 7.08341 21.9583C6.30425 21.9583 5.66675 21.3208 5.66675 20.5417V14.1667C5.66675 13.3875 6.30425 12.75 7.08341 12.75C7.86258 12.75 8.50008 13.3875 8.50008 14.1667V20.5417ZM28.3334 20.5417C28.3334 21.3208 27.6959 21.9583 26.9167 21.9583C26.1376 21.9583 25.5001 21.3208 25.5001 20.5417V14.1667C25.5001 13.3875 26.1376 12.75 26.9167 12.75C27.6959 12.75 28.3334 13.3875 28.3334 14.1667V20.5417ZM15.5834 28.3333C15.5834 29.1125 14.9459 29.75 14.1667 29.75C13.3876 29.75 12.7501 29.1125 12.7501 28.3333V21.9583C12.7501 21.1792 13.3876 20.5417 14.1667 20.5417C14.9459 20.5417 15.5834 21.1792 15.5834 21.9583V28.3333ZM21.2501 28.3333C21.2501 29.1125 20.6126 29.75 19.8334 29.75C19.0542 29.75 18.4167 29.1125 18.4167 28.3333V21.9583C18.4167 21.1792 19.0542 20.5417 19.8334 20.5417C20.6126 20.5417 21.2501 21.1792 21.2501 21.9583V28.3333Z" fill="#9FA0A0"/>
<path d="M9.91675 12.7493V23.3743C9.91675 24.1535 10.5542 24.791 11.3334 24.791H22.6667C23.4459 24.791 24.0834 24.1535 24.0834 23.3743V12.7493H9.91675ZM17.0001 5.66602C12.7501 5.66602 10.1292 8.21602 9.91675 11.3327H24.0834C23.8709 8.21602 21.2501 5.66602 17.0001 5.66602ZM14.1667 9.63268C13.7417 9.63268 13.4584 9.34935 13.4584 8.92435C13.4584 8.49935 13.7417 8.21602 14.1667 8.21602C14.5917 8.21602 14.8751 8.49935 14.8751 8.92435C14.8751 9.27852 14.5917 9.63268 14.1667 9.63268ZM19.8334 9.63268C19.4084 9.63268 19.1251 9.34935 19.1251 8.92435C19.1251 8.49935 19.4084 8.21602 19.8334 8.21602C20.2584 8.21602 20.5417 8.49935 20.5417 8.92435C20.5417 9.27852 20.2584 9.63268 19.8334 9.63268Z" fill="#9FA0A0"/>
<path d="M20.0458 7.43737C19.9041 7.43737 19.7624 7.36654 19.6208 7.2957C19.2666 7.0832 19.1958 6.6582 19.4083 6.30404L20.6124 4.5332C20.8249 4.17904 21.2499 4.1082 21.6041 4.3207C21.9583 4.5332 22.0291 4.9582 21.8166 5.31237L20.6124 7.0832C20.5416 7.2957 20.3291 7.43737 20.0458 7.43737ZM13.6708 7.15404C13.4583 7.15404 13.1749 7.01237 13.1041 6.79987L12.1833 5.31237C11.9708 4.9582 12.0416 4.5332 12.3958 4.3207C12.7499 4.1082 13.1749 4.17904 13.3874 4.5332L14.3083 6.0207C14.5208 6.37487 14.4499 6.79987 14.0958 7.01237C13.9541 7.0832 13.8124 7.15404 13.6708 7.15404Z" fill="#9FA0A0"/>
</svg>
