<svg width="22" height="30" viewBox="0 0 22 30" fill="none" xmlns="http://www.w3.org/2000/svg">
<g clip-path="url(#clip0_11955_54698)">
<path d="M7.08481 23.2001C7.08481 23.2001 5.94509 23.8665 7.89628 24.0923C10.2599 24.3636 11.468 24.3243 14.072 23.8297C14.072 23.8297 14.7578 24.2617 15.7145 24.6348C9.87554 27.1519 2.49787 24.49 7.08481 23.2001ZM6.37096 19.916C6.37096 19.916 5.09335 20.8671 7.04576 21.0709C9.57169 21.3335 11.5644 21.3543 15.0165 20.6867C15.0165 20.6867 15.4924 21.1727 16.2428 21.439C9.18243 23.5155 1.32032 21.6022 6.37096 19.916Z" fill="#9FA0A0"/>
<path d="M12.3868 14.3434C13.8267 16.01 12.0097 17.5084 12.0097 17.5084C12.0097 17.5084 15.6632 15.6123 13.9853 13.2364C12.4185 11.0212 11.2166 9.92159 17.7218 6.12695C17.7218 6.12695 7.50944 8.6919 12.3868 14.3434Z" fill="#9FA0A0"/>
<path d="M20.1098 25.6299C20.1098 25.6299 20.953 26.3294 19.1812 26.8694C15.8108 27.8953 5.15189 28.2058 2.19155 26.9099C1.12748 26.4435 3.12382 25.798 3.75103 25.6618C4.40509 25.5194 4.77971 25.5452 4.77971 25.5452C3.59606 24.707 -2.87008 27.1909 1.496 27.9039C13.4008 29.8467 23.1983 27.0314 20.1098 25.6299ZM7.63267 16.5127C7.63267 16.5127 2.21107 17.8086 5.71321 18.2787C7.19216 18.4775 10.1379 18.4321 12.8847 18.2001C15.1287 18.0111 17.3801 17.6061 17.3801 17.6061C17.3801 17.6061 16.5893 17.9473 16.017 18.34C10.5113 19.7968 -0.1245 19.1181 2.93834 17.6294C5.52773 16.3703 7.63267 16.5127 7.63267 16.5127ZM17.3581 21.98C22.9554 19.0555 20.3673 16.2451 18.5601 16.6243C18.1183 16.7176 17.9206 16.7974 17.9206 16.7974C17.9206 16.7974 18.0854 16.5384 18.399 16.4267C21.9719 15.1639 24.7199 20.1527 17.2471 22.1285C17.2471 22.1273 17.3325 22.05 17.3581 21.98Z" fill="#9FA0A0"/>
<path d="M13.9853 0C13.9853 0 17.0848 3.11843 11.0457 7.91205C6.20251 11.7595 9.94137 13.9513 11.0445 16.4586C8.21715 13.8936 6.14394 11.6355 7.53503 9.53324C9.5753 6.44917 15.2348 4.95316 13.9853 0Z" fill="#9FA0A0"/>
<path d="M8.18303 29.9072C13.5546 30.2521 21.8047 29.7146 22 27.1582C22 27.1582 21.6241 28.1277 17.5607 28.896C12.9762 29.7636 7.32031 29.663 3.96704 29.1058C3.96704 29.1058 4.65404 29.6777 8.18303 29.9072Z" fill="#9FA0A0"/>
</g>
<defs>
<clipPath id="clip0_11955_54698">
<rect width="22" height="30" fill="white"/>
</clipPath>
</defs>
</svg>
