<svg width="28" height="28" viewBox="0 0 28 28" fill="none" xmlns="http://www.w3.org/2000/svg">
<path d="M23.9859 10.325H23.3625V7.33906C23.3625 7.31719 23.3625 7.30625 23.3625 7.28437C23.3625 7.16406 23.3188 7.05469 23.2422 6.95625L18.2656 1.26875C18.2328 1.23594 18.2 1.20313 18.1672 1.18125C18.1563 1.17031 18.1453 1.17031 18.1344 1.15938C18.1016 1.1375 18.0687 1.12656 18.0359 1.11562C18.025 1.11562 18.0141 1.11563 18.0141 1.10469C17.9812 1.09375 17.9375 1.09375 17.8938 1.09375H5.64375C5.08594 1.09375 4.6375 1.54219 4.6375 2.1V10.325H4.01406C3.21563 10.325 2.57031 10.9703 2.57031 11.7688V19.2937C2.57031 20.0922 3.21563 20.7375 4.01406 20.7375H4.6375V25.8891C4.6375 26.4469 5.08594 26.9062 5.64375 26.9062H22.3453C22.9031 26.9062 23.3516 26.4578 23.3516 25.8891V20.7375H23.975C24.7734 20.7375 25.4187 20.0922 25.4187 19.2937V11.7688C25.4297 10.9703 24.7844 10.325 23.9859 10.325ZM5.64375 2.1H17.3688V7.28437C17.3688 7.56875 17.5984 7.7875 17.8719 7.7875H22.3453V10.325H5.64375V2.1ZM18.4078 18.6484H16.9094L16.8109 16.0453C16.7781 15.225 16.7453 14.2406 16.7453 13.2453H16.7125C16.5047 14.1094 16.2203 15.0828 15.9578 15.8812L15.1266 18.5391H13.9234L13.2016 15.9031C12.9828 15.1047 12.7531 14.1422 12.5891 13.2453H12.5781C12.5344 14.1641 12.5016 15.2141 12.4578 16.0563L12.3375 18.6375H10.9156L11.3531 11.8453H13.3984L14.0656 14.1203C14.2734 14.9078 14.4922 15.75 14.6453 16.5484H14.6781C14.875 15.7609 15.1047 14.8641 15.3234 14.1094L16.0453 11.8453H18.0469L18.4078 18.6484ZM4.375 18.6484L6.34375 15.2031L4.45156 11.8453H6.2125L6.80312 13.0813C7.01094 13.4969 7.15313 13.825 7.31719 14.2078H7.33906C7.50312 13.7703 7.63438 13.475 7.79844 13.0813L8.37812 11.8453H10.1281L8.21406 15.1703L10.2375 18.6484H8.45469L7.84219 17.4234C7.59062 16.9531 7.42656 16.5922 7.24062 16.1984H7.21875C7.07656 16.5922 6.90156 16.9422 6.69375 17.4234L6.125 18.6484H4.375ZM22.3562 25.6266H5.64375V20.7484H22.3453L22.3562 25.6266ZM23.8438 18.6484H19.6V11.8562H21.1422V17.3687H23.8438V18.6484Z" fill="#9FA0A0"/>
</svg>
