<svg width="329" height="315" viewBox="0 0 329 315" fill="none" xmlns="http://www.w3.org/2000/svg">
<path opacity="0.0416667" d="M289.374 142.2C259.255 129.415 209.684 68.3324 209.192 67.7249C208.96 67.4414 208.597 67.2873 208.219 67.3119C207.427 67.3743 129.066 74.1528 98.9469 61.3682C98.4151 61.1424 97.8 61.3653 97.5901 61.8598L66.0993 136.047C66.0485 136.239 60.3041 155.11 64.2051 181.334C67.8064 205.523 80.5808 241.137 120.968 273.439C121.048 273.502 121.134 273.553 121.238 273.597C121.342 273.641 121.438 273.667 121.539 273.682C172.817 280.289 207.322 264.744 227.224 250.531C248.798 235.121 258.395 217.886 258.521 217.626L289.976 143.523C290.186 143.028 289.919 142.431 289.387 142.205L289.374 142.2ZM225.827 248.956C206.267 262.902 172.395 278.145 122.013 271.734C82.4028 239.946 69.8517 204.997 66.2835 181.234C62.4207 155.425 68.0528 136.891 68.0808 136.789L99.1569 63.5782C112.194 68.7846 134.351 71.3291 165.052 71.1657C186.18 71.0523 204.45 69.6266 207.926 69.3369C210.131 72.0382 221.798 86.1714 236.393 101.448C257.602 123.646 274.842 137.81 287.625 143.578L256.585 216.705C256.495 216.88 247.076 233.806 225.814 248.95L225.827 248.956Z" fill="#9FA0A0"/>
<path opacity="0.0833333" d="M285.943 140.651C256.332 128.687 206.935 69.8649 206.445 69.2799C206.214 69.007 205.857 68.8627 205.488 68.8934C204.716 68.9684 128.334 76.9733 98.7231 65.0095C98.2002 64.7983 97.6035 65.0269 97.4067 65.5139L67.8894 138.572C67.8429 138.76 62.5465 157.303 66.7868 182.863C70.7009 206.44 83.7578 241.02 123.715 271.878C123.794 271.938 123.879 271.985 123.981 272.027C124.083 272.068 124.177 272.092 124.276 272.104C174.441 277.658 207.867 261.859 227.061 247.618C247.866 232.177 256.95 215.165 257.069 214.908L286.552 141.934C286.749 141.447 286.479 140.868 285.956 140.656L285.943 140.651ZM225.67 246.103C206.807 260.077 173.994 275.571 124.707 270.192C85.5168 239.824 72.6888 205.889 68.814 182.729C64.6179 157.574 69.8102 139.362 69.8359 139.262L98.9645 67.1657C111.776 72.0242 133.448 74.1206 163.414 73.4201C184.036 72.9371 201.848 71.222 205.235 70.8776C207.433 73.4787 219.054 87.0855 233.553 101.758C254.622 123.078 271.685 136.618 284.259 142.029L255.164 214.042C255.079 214.215 246.163 230.923 225.657 246.098L225.67 246.103Z" fill="#9FA0A0"/>
<path opacity="0.125" d="M282.496 139.214C253.411 128.049 204.253 71.4616 203.765 70.8988C203.535 70.6363 203.185 70.5017 202.826 70.5382C202.074 70.625 127.69 79.7893 98.6052 68.6247C98.0916 68.4276 97.5132 68.6614 97.3293 69.1406L69.7362 141.023C69.694 141.208 64.8323 159.414 69.3899 184.306C73.5966 207.267 86.9039 240.814 126.392 270.252C126.471 270.309 126.554 270.355 126.655 270.393C126.755 270.432 126.847 270.454 126.944 270.464C175.975 275.005 208.324 258.984 226.814 244.736C246.857 229.287 255.439 212.509 255.55 212.256L283.112 140.456C283.296 139.977 283.022 139.416 282.509 139.219L282.496 139.214ZM225.433 243.28C207.261 257.262 175.504 272.974 127.333 268.589C88.6002 239.615 75.5268 206.694 71.3654 184.139C66.8575 159.642 71.6231 141.761 71.6465 141.662L98.8762 70.7266C111.455 75.2468 132.631 76.9128 161.854 75.7008C181.964 74.8658 199.312 72.8768 202.612 72.4807C204.799 74.9828 216.36 88.0691 230.746 102.146C251.652 122.6 268.52 135.525 280.876 140.59L253.678 211.444C253.598 211.614 245.175 228.091 225.42 243.275L225.433 243.28Z" fill="#9FA0A0"/>
<path opacity="0.166667" d="M279.037 137.887C250.498 127.5 201.64 73.1205 201.155 72.5796C200.927 72.3273 200.583 72.2021 200.233 72.2441C199.502 72.342 127.133 82.5986 98.5928 72.211C98.0889 72.0276 97.5289 72.2661 97.3574 72.7371L71.6383 143.4C71.6002 143.581 67.1599 161.441 72.0128 185.662C76.4918 208.004 90.0176 240.521 129.001 268.565C129.079 268.619 129.16 268.662 129.259 268.698C129.357 268.734 129.447 268.753 129.542 268.762C177.419 272.332 208.694 256.121 226.486 241.886C245.773 226.45 253.864 209.919 253.968 209.671L279.658 139.089C279.829 138.618 279.553 138.075 279.05 137.892L279.037 137.887ZM225.115 240.489C207.629 254.459 176.927 270.358 129.89 266.924C91.6516 239.32 78.3642 207.41 73.936 185.464C69.1381 161.627 73.4901 144.087 73.5113 143.99L98.8917 74.2582C111.23 78.4497 131.903 79.7033 160.373 78.0056C179.966 76.8363 196.846 74.5891 200.057 74.1443C202.23 76.5485 213.717 89.1207 227.974 102.61C248.692 122.211 265.351 134.532 277.48 139.259L252.129 208.911C252.054 209.079 244.113 225.313 225.103 240.485L225.115 240.489Z" fill="#9FA0A0"/>
<path opacity="0.208333" d="M275.569 136.672C247.592 127.039 199.097 74.8398 198.616 74.3206C198.389 74.0785 198.052 73.9623 197.712 74.0094C197.001 74.1179 126.662 85.3992 98.6851 75.7661C98.1911 75.596 97.6494 75.8386 97.4901 76.3012L73.5938 145.701C73.5597 145.878 69.5271 163.383 74.6533 186.93C79.3844 208.651 93.0968 240.14 131.539 266.818C131.615 266.869 131.696 266.91 131.792 266.943C131.888 266.976 131.977 266.994 132.069 267C178.773 269.641 208.978 253.274 226.079 239.07C244.616 223.67 252.227 207.398 252.324 207.154L276.193 137.834C276.352 137.371 276.075 136.846 275.581 136.676L275.569 136.672ZM224.72 237.732C207.913 251.67 178.261 267.723 132.378 265.201C94.6691 238.94 81.1989 208.039 76.5238 186.704C71.4575 163.53 75.4093 146.339 75.4283 146.244L99.0099 77.7584C111.1 81.6309 131.262 82.4903 158.972 80.3326C178.041 78.8469 194.451 76.3571 197.571 75.8666C199.728 78.1742 211.126 90.2391 225.239 103.15C245.746 121.91 262.179 133.639 274.074 138.038L250.52 206.445C250.45 206.61 242.98 222.59 224.708 237.728L224.72 237.732Z" fill="#9FA0A0"/>
<path opacity="0.25" d="M272.093 135.568C244.697 126.666 196.626 76.6175 196.149 76.1196C195.924 75.8876 195.594 75.7802 195.264 75.8321C194.573 75.9504 126.277 88.1888 98.8806 79.2873C98.3968 79.1302 97.8734 79.3762 97.7259 79.8301L75.6004 147.925C75.5701 148.099 71.9314 165.239 77.309 188.112C82.2718 209.209 96.1392 239.675 134.004 265.013C134.079 265.062 134.158 265.099 134.253 265.13C134.347 265.161 134.433 265.177 134.523 265.181C180.038 266.935 209.176 250.443 225.592 236.292C243.386 220.948 250.529 204.947 250.62 204.707L272.72 136.689C272.868 136.235 272.589 135.729 272.105 135.571L272.093 135.568ZM224.247 235.01C208.113 248.898 179.508 265.074 134.795 263.421C97.6503 238.477 84.0284 208.58 79.1264 187.858C73.8133 165.349 77.3784 148.515 77.3954 148.423L99.2295 81.2244C111.063 84.788 130.707 85.2713 157.65 82.6797C176.192 80.8955 192.127 78.1788 195.157 77.6456C197.295 79.8579 208.59 91.4224 222.542 103.764C242.816 121.698 259.008 132.846 270.661 136.926L248.852 204.047C248.786 204.209 241.776 219.923 224.235 235.006L224.247 235.01Z" fill="#9FA0A0"/>
<path opacity="0.291667" d="M268.614 134.574C241.816 126.381 194.228 78.4515 193.755 77.9748C193.533 77.7526 193.209 77.6538 192.889 77.7102C192.219 77.8376 125.977 90.9653 99.1784 82.7721C98.7052 82.6275 98.2 82.8765 98.064 83.3214L77.6562 150.072C77.6296 150.242 74.3709 167.01 79.9778 189.205C85.1522 209.678 99.1432 239.124 136.396 263.151C136.47 263.198 136.548 263.233 136.64 263.262C136.732 263.29 136.817 263.304 136.904 263.307C181.212 264.215 209.289 247.631 225.027 233.551C242.087 218.286 248.774 202.566 248.858 202.331L269.243 135.656C269.379 135.211 269.099 134.722 268.626 134.577L268.614 134.574ZM223.698 232.326C208.229 246.144 180.666 262.411 137.14 261.587C100.594 237.93 86.8508 209.035 81.7417 188.926C76.2035 167.083 79.3956 150.616 79.4106 150.525L99.5496 84.6537C111.121 87.9185 130.24 88.0441 156.409 85.0448C174.418 82.9799 189.876 80.0523 192.815 79.4794C194.932 81.5978 206.11 92.6692 219.885 104.451C239.904 121.572 255.839 132.151 267.243 135.923L247.127 201.718C247.066 201.878 240.504 217.315 223.687 232.322L223.698 232.326Z" fill="#9FA0A0"/>
<path opacity="0.333333" d="M265.133 133.691C238.948 126.182 191.903 80.34 191.435 79.884C191.216 79.6715 190.9 79.5809 190.589 79.6415C189.94 79.7774 125.762 93.7265 99.5767 86.2181C99.1144 86.0855 98.6273 86.3369 98.5024 86.7726L79.7586 152.14C79.7355 152.306 76.8427 168.693 82.657 190.211C88.0227 210.059 102.106 238.491 138.713 261.236C138.786 261.28 138.862 261.313 138.952 261.339C139.042 261.365 139.124 261.377 139.21 261.378C182.296 261.485 209.317 244.84 224.386 230.851C240.719 215.684 246.961 200.257 247.039 200.026L265.762 134.733C265.887 134.298 265.607 133.826 265.145 133.694L265.133 133.691ZM223.073 229.681C208.263 243.41 181.736 259.737 139.41 259.699C103.496 237.302 89.6633 209.402 84.3671 189.908C78.6253 168.733 81.4584 152.639 81.4715 152.551L99.9684 88.044C111.27 91.0203 129.858 90.8066 155.248 87.4257C172.72 85.0983 187.699 81.9754 190.547 81.3658C192.638 83.3917 203.686 93.9778 217.271 105.211C237.011 121.532 252.675 131.556 263.822 135.028L245.347 199.461C245.29 199.617 239.164 214.766 223.062 229.678L223.073 229.681Z" fill="#9FA0A0"/>
<path opacity="0.375" d="M261.655 132.918C236.099 126.07 189.653 82.2808 189.192 81.8452C188.975 81.6422 188.667 81.5597 188.366 81.624C187.738 81.7677 125.631 96.4703 100.075 89.6226C99.6239 89.5017 99.155 89.7549 99.0408 90.1811L81.9063 154.128C81.8865 154.29 79.3453 170.289 85.3452 191.129C90.8819 210.352 105.027 237.775 140.955 259.269C141.027 259.31 141.101 259.342 141.189 259.365C141.277 259.389 141.357 259.399 141.439 259.399C183.29 258.746 209.263 242.072 223.669 228.193C239.285 213.145 245.095 198.021 245.167 197.796L262.282 133.922C262.396 133.495 262.117 133.042 261.666 132.921L261.655 132.918ZM222.375 227.077C208.215 240.699 182.717 257.055 141.607 257.761C106.358 236.594 92.4646 209.684 87.0012 190.804C81.0774 170.297 83.5654 154.584 83.5767 154.498L100.486 91.3928C111.512 94.0909 129.561 93.5567 154.167 89.8205C171.099 87.2486 185.597 83.9463 188.353 83.303C190.418 85.2379 201.322 95.3467 214.7 106.04C234.141 121.579 249.519 131.059 260.403 134.243L243.514 197.275C243.461 197.428 237.759 212.279 222.364 227.074L222.375 227.077Z" fill="#9FA0A0"/>
<path opacity="0.416667" d="M258.179 132.255C233.267 126.043 187.479 84.2721 187.024 83.8565C186.81 83.6629 186.51 83.588 186.219 83.6559C185.612 83.8066 125.583 99.1948 100.671 92.9835C100.231 92.8738 99.7802 93.1283 99.6764 93.5449L84.0957 156.035C84.0792 156.193 81.8751 171.798 88.0387 191.96C93.7264 210.557 107.902 236.979 143.119 257.252C143.189 257.291 143.262 257.32 143.348 257.341C143.433 257.363 143.511 257.371 143.591 257.37C184.194 256.001 209.125 239.329 222.877 225.579C237.785 210.67 243.176 195.86 243.242 195.64L258.805 133.22C258.909 132.804 258.63 132.367 258.19 132.257L258.179 132.255ZM221.604 224.517C208.085 238.012 183.61 254.366 143.727 255.774C109.174 235.807 95.2513 209.88 89.6404 191.614C83.5561 171.774 85.7132 156.45 85.7228 156.366L101.098 94.6979C111.842 97.1285 129.349 96.2923 153.166 92.2271C169.555 89.4288 183.57 85.9629 186.234 85.289C188.269 87.1346 199.016 96.7743 212.174 106.939C231.294 121.71 246.372 130.66 256.987 133.565L241.629 195.162C241.58 195.312 236.29 209.855 221.593 224.514L221.604 224.517Z" fill="#9FA0A0"/>
<path opacity="0.458333" d="M254.712 131.701C230.458 126.102 185.383 86.3116 184.935 85.9157C184.724 85.7313 184.432 85.6638 184.152 85.7349C183.565 85.892 125.619 101.898 101.365 96.2982C100.937 96.1994 100.504 96.4546 100.41 96.8612L86.3268 157.861C86.3133 158.015 84.4318 173.218 90.7373 192.703C96.5558 210.676 110.731 236.103 145.206 255.187C145.275 255.224 145.346 255.251 145.429 255.27C145.513 255.289 145.588 255.296 145.666 255.293C185.008 253.252 208.906 236.614 222.014 223.01C236.223 208.261 241.207 193.775 241.268 193.559L255.335 132.628C255.428 132.222 255.151 131.803 254.723 131.704L254.712 131.701ZM220.762 222C207.876 235.352 184.415 251.673 145.771 253.741C111.945 234.942 98.0232 209.991 92.2845 192.339C86.0611 173.166 87.9017 158.235 87.9096 158.154L101.807 97.9568C112.263 100.131 129.223 99.0111 152.246 94.6433C168.09 91.6368 181.621 88.0232 184.192 87.3216C186.196 89.0794 196.773 98.2588 209.696 107.907C228.474 121.925 243.239 130.358 253.577 132.996L239.696 193.123C239.651 193.269 234.761 207.496 220.751 221.998L220.762 222Z" fill="#9FA0A0"/>
<path opacity="0.5" d="M251.255 131.257C227.673 126.244 183.365 88.3972 182.925 88.0206C182.718 87.8453 182.433 87.7848 182.163 87.8587C181.598 88.0215 125.736 104.577 102.154 99.5644C101.738 99.4759 101.322 99.7313 101.238 100.128L88.5959 159.605C88.5854 159.754 87.0117 174.549 93.4375 193.358C99.3668 210.708 113.512 235.15 147.214 253.077C147.281 253.111 147.351 253.136 147.432 253.153C147.513 253.171 147.586 253.176 147.661 253.172C185.732 250.501 208.605 233.927 221.079 220.489C234.6 205.92 239.19 191.766 239.245 191.555L251.873 132.146C251.957 131.75 251.682 131.348 251.265 131.259L251.255 131.257ZM219.85 219.531C207.588 232.72 185.132 248.979 147.738 251.662C114.669 234.001 100.777 210.017 94.9301 192.978C88.5889 174.47 90.1274 159.94 90.1337 159.861L102.609 101.167C112.772 103.095 129.18 101.711 151.407 97.0671C166.703 93.8706 179.749 90.1249 182.228 89.3987C184.198 91.0705 194.592 99.7985 207.266 108.94C225.683 122.223 240.121 130.154 250.177 132.534L237.716 191.16C237.675 191.302 233.171 205.201 219.839 219.528L219.85 219.531Z" fill="#9FA0A0"/>
<path opacity="0.541667" d="M247.81 130.921C224.912 126.47 181.425 90.527 180.993 90.1694C180.79 90.0029 180.514 89.9492 180.254 90.0256C179.709 90.1935 125.934 107.231 103.037 102.78C102.632 102.701 102.235 102.956 102.16 103.343L90.9007 161.265C90.893 161.41 89.6123 175.791 96.1367 193.926C102.157 210.655 116.242 234.12 149.142 250.923C149.208 250.955 149.275 250.978 149.354 250.994C149.433 251.009 149.503 251.013 149.576 251.007C186.365 247.751 208.225 231.272 220.073 218.017C232.916 203.646 237.126 189.835 237.176 189.63L248.422 131.773C248.497 131.387 248.224 131.002 247.82 130.923L247.81 130.921ZM218.868 217.109C207.221 230.119 185.76 246.284 149.626 249.541C117.343 232.985 103.51 209.96 97.5746 193.532C91.137 175.686 92.3879 161.564 92.3927 161.487L103.503 104.327C113.367 106.019 129.219 104.39 150.648 99.4966C165.395 96.1282 177.956 92.2664 180.342 91.5185C182.275 93.106 192.474 101.392 204.885 110.039C222.921 122.604 237.02 130.045 246.788 132.179L235.69 189.272C235.653 189.412 231.522 202.975 218.858 217.107L218.868 217.109Z" fill="#9FA0A0"/>
<path opacity="0.583333" d="M244.381 130.693C222.179 126.779 179.566 92.6986 179.143 92.3595C178.944 92.2017 178.676 92.1545 178.426 92.2331C177.903 92.4053 126.213 109.857 104.012 105.942C103.62 105.873 103.24 106.127 103.174 106.503L93.2397 162.842C93.2346 162.982 92.232 176.943 98.8336 194.408C104.925 210.517 118.92 233.015 150.99 248.728C151.053 248.758 151.119 248.779 151.195 248.792C151.272 248.806 151.34 248.808 151.41 248.802C186.91 245.004 207.766 228.65 218.999 215.596C231.176 201.443 235.018 187.983 235.063 187.783L244.986 131.508C245.052 131.133 244.782 130.764 244.39 130.695L244.381 130.693ZM217.82 214.737C206.777 227.55 186.301 243.593 151.434 247.38C119.965 231.896 106.221 209.82 100.217 194C93.7037 176.816 94.6819 163.105 94.6852 163.03L104.488 107.434C114.049 108.902 129.341 107.047 149.97 101.929C164.166 98.4073 176.242 94.4451 178.536 93.6785C180.43 95.1835 190.422 103.037 202.557 111.202C220.192 123.066 233.939 130.032 243.413 131.93L233.621 187.462C233.588 187.598 229.818 200.816 217.81 214.735L217.82 214.737Z" fill="#9FA0A0"/>
<path opacity="0.625" d="M240.969 130.572C219.476 127.168 177.788 94.9099 177.374 94.589C177.179 94.4396 176.92 94.3986 176.68 94.479C176.177 94.6549 126.571 112.454 105.078 109.049C104.698 108.989 104.336 109.242 104.278 109.607L95.6101 164.333C95.6075 164.47 94.8679 178.006 101.525 194.802C107.668 210.294 121.544 231.837 152.755 246.493C152.817 246.521 152.88 246.54 152.954 246.552C153.028 246.564 153.095 246.565 153.162 246.558C187.365 242.262 207.228 226.063 217.858 213.227C229.38 199.31 232.868 186.21 232.909 186.015L241.567 131.351C241.624 130.986 241.358 130.634 240.978 130.574L240.969 130.572ZM216.705 212.415C206.256 225.015 186.754 240.906 153.162 245.18C122.535 230.735 108.908 209.597 102.854 194.383C96.2864 177.856 97.0064 164.564 97.0085 164.491L105.562 110.485C114.814 111.741 129.544 109.678 149.372 104.363C163.017 100.706 174.608 96.6589 176.809 95.8768C178.662 97.3011 188.435 104.732 200.281 112.427C217.497 123.608 230.879 130.114 240.055 131.787L231.512 185.73C231.481 185.862 228.058 198.727 216.696 212.414L216.705 212.415Z" fill="#9FA0A0"/>
<path opacity="0.666667" d="M237.579 130.558C216.805 127.639 176.092 97.1591 175.688 96.8558C175.498 96.7147 175.247 96.6795 175.017 96.7615C174.535 96.9403 127.008 115.019 106.234 112.099C105.867 112.048 105.521 112.298 105.472 112.652L98.0106 165.74C98.0103 165.872 97.5186 178.978 104.211 195.11C110.385 209.989 124.113 230.586 154.438 244.221C154.499 244.248 154.56 244.265 154.632 244.275C154.703 244.285 154.767 244.285 154.832 244.277C187.732 239.527 206.615 223.514 216.651 210.912C227.531 197.25 230.679 184.518 230.715 184.329L238.168 131.301C238.217 130.947 237.954 130.611 237.588 130.56L237.579 130.558ZM215.527 210.147C205.66 222.517 187.121 238.227 154.81 242.945C125.05 229.503 111.569 209.293 105.484 194.682C98.8834 178.809 99.3603 165.939 99.3611 165.868L106.724 113.479C115.663 114.533 129.828 112.282 148.855 106.797C161.948 103.022 173.055 98.9061 175.165 98.1113C176.973 99.4568 186.515 106.475 198.061 113.713C214.839 124.229 227.845 130.291 236.718 131.749L229.364 184.077C229.336 184.206 226.247 196.709 215.518 210.146L215.527 210.147Z" fill="#9FA0A0"/>
<path opacity="0.708333" d="M234.211 130.65C214.167 128.189 174.478 99.4435 174.084 99.1575C173.899 99.0244 173.657 98.9947 173.437 99.078C172.976 99.259 127.521 117.55 107.476 115.089C107.123 115.045 106.794 115.294 106.752 115.636L100.438 167.061C100.44 167.189 100.181 179.861 106.886 195.332C113.073 209.602 126.624 229.265 156.039 241.915C156.097 241.939 156.156 241.955 156.225 241.963C156.294 241.972 156.356 241.971 156.418 241.962C188.011 236.803 205.925 221.003 215.38 208.653C225.629 195.264 228.452 182.907 228.484 182.724L234.79 131.358C234.833 131.015 234.574 130.695 234.22 130.651L234.211 130.65ZM214.286 207.933C204.99 220.056 187.401 235.557 156.375 240.675C127.508 228.203 114.201 208.909 108.105 194.896C101.492 179.674 101.74 167.229 101.74 167.162L107.971 116.414C116.593 117.278 130.192 114.857 148.417 109.228C160.959 105.353 171.583 101.184 173.601 100.38C175.364 101.648 184.664 108.264 195.896 115.057C212.218 124.928 224.838 130.56 233.402 131.815L227.179 182.504C227.155 182.628 224.385 194.763 214.277 207.932L214.286 207.933Z" fill="#9FA0A0"/>
<path opacity="0.75" d="M230.87 130.847C211.564 128.818 172.947 101.761 172.564 101.492C172.384 101.367 172.151 101.342 171.94 101.426C171.501 101.609 128.111 120.046 108.805 118.017C108.464 117.981 108.152 118.227 108.117 118.558L102.89 168.296C102.894 168.419 102.852 180.653 109.55 195.468C115.73 209.133 129.076 227.876 157.555 239.576C157.611 239.598 157.668 239.612 157.735 239.619C157.801 239.626 157.86 239.624 157.92 239.614C188.201 234.09 205.161 218.532 214.047 206.451C223.678 193.353 226.189 181.378 226.216 181.201L231.438 131.52C231.473 131.188 231.219 130.883 230.878 130.848L230.87 130.847ZM212.983 205.775C204.246 217.635 187.595 232.898 157.857 238.373C129.909 226.835 116.803 208.444 110.714 195.026C104.109 180.45 104.144 168.436 104.143 168.37L109.302 119.287C117.603 119.972 130.634 117.401 148.059 111.654C160.05 107.698 170.193 103.491 172.119 102.68C173.835 103.874 182.882 110.098 193.789 116.46C209.638 125.705 221.859 130.922 230.111 131.985L224.959 181.011C224.938 181.132 222.474 192.891 212.974 205.774L212.983 205.775Z" fill="#9FA0A0"/>
<path opacity="0.791667" d="M227.558 131.147C208.999 129.524 171.501 104.11 171.129 103.857C170.954 103.739 170.73 103.72 170.529 103.805C170.11 103.988 128.777 122.505 110.218 120.881C109.89 120.853 109.595 121.094 109.567 121.415L105.365 169.444C105.371 169.562 105.531 181.355 112.201 195.519C118.355 208.583 131.468 226.419 158.987 237.206C159.041 237.227 159.097 237.239 159.161 237.245C159.225 237.251 159.281 237.248 159.339 237.237C188.304 231.392 204.324 216.105 212.653 204.307C221.681 191.517 223.894 179.932 223.917 179.761L228.114 131.786C228.142 131.466 227.894 131.177 227.566 131.148L227.558 131.147ZM211.621 203.674C203.432 215.256 187.703 230.253 159.258 236.042C132.25 225.402 119.373 207.901 113.311 195.073C106.734 181.138 106.571 169.557 106.569 169.494L110.716 122.097C118.692 122.614 131.154 119.912 147.781 114.073C159.222 110.054 168.887 105.825 170.722 105.009C172.387 106.131 181.17 111.974 191.74 117.919C207.1 126.556 218.913 131.374 226.849 132.258L222.707 179.6C222.689 179.716 220.518 191.092 211.613 203.674L211.621 203.674Z" fill="#9FA0A0"/>
<path opacity="0.833333" d="M224.277 131.551C206.474 130.306 170.139 106.487 169.778 106.25C169.608 106.14 169.394 106.125 169.203 106.21C168.805 106.394 129.516 124.925 111.713 123.68C111.398 123.658 111.12 123.896 111.098 124.204L107.861 170.505C107.868 170.619 108.215 181.967 114.836 195.485C120.944 207.955 133.798 224.897 160.334 234.809C160.386 234.827 160.439 234.839 160.501 234.843C160.562 234.847 160.616 234.843 160.671 234.832C188.32 228.71 203.414 213.722 211.199 202.224C219.637 189.758 221.567 178.57 221.587 178.404L224.82 132.156C224.842 131.848 224.599 131.574 224.285 131.552L224.277 131.551ZM210.2 201.632C202.546 212.92 187.726 227.624 160.574 233.683C134.53 223.904 121.908 207.281 115.892 195.037C109.363 181.737 109.018 170.593 109.014 170.533L112.209 124.842C119.858 125.203 131.751 122.388 147.581 116.483C158.475 112.419 167.663 108.183 169.407 107.367C171.021 108.417 179.53 113.891 189.752 119.432C204.606 127.483 216 131.918 223.616 132.632L220.425 178.27C220.409 178.383 218.516 189.37 210.193 201.632L210.2 201.632Z" fill="#9FA0A0"/>
<path opacity="0.875" d="M221.031 132.057C203.99 131.164 168.862 108.891 168.513 108.67C168.349 108.567 168.144 108.556 167.963 108.641C167.585 108.825 130.329 127.303 113.288 126.41C112.987 126.395 112.725 126.628 112.709 126.925L110.374 171.479C110.383 171.588 110.901 182.488 117.453 195.368C123.497 207.248 136.064 223.311 161.595 232.385C161.646 232.402 161.697 232.412 161.755 232.415C161.814 232.418 161.866 232.414 161.918 232.402C188.251 226.046 202.435 211.385 209.688 200.202C217.55 188.077 219.212 177.291 219.228 177.132L221.56 132.629C221.575 132.332 221.339 132.073 221.038 132.057L221.031 132.057ZM208.723 199.65C201.591 210.629 187.665 225.013 161.807 231.299C136.747 222.345 124.408 206.584 118.455 194.919C111.995 182.248 111.482 171.544 111.478 171.485L113.782 127.519C121.1 127.735 132.424 124.828 147.461 118.883C157.809 114.791 166.522 110.563 168.177 109.749C169.737 110.731 177.961 115.847 187.825 120.998C202.158 128.482 213.123 132.55 220.416 133.107L218.115 177.023C218.102 177.132 216.472 187.723 208.716 199.65L208.723 199.65Z" fill="#9FA0A0"/>
<path opacity="0.916667" d="M217.819 132.664C201.548 132.096 167.67 111.32 167.333 111.113C167.175 111.017 166.979 111.01 166.808 111.095C166.45 111.277 131.213 129.64 114.941 129.071C114.654 129.061 114.407 129.289 114.397 129.575L112.903 172.364C112.913 172.469 113.587 182.919 120.049 195.167C126.011 206.463 138.264 221.664 162.77 229.938C162.818 229.953 162.867 229.962 162.923 229.964C162.979 229.966 163.029 229.961 163.078 229.948C188.095 223.404 201.385 209.095 208.12 198.242C215.421 186.476 216.829 176.098 216.841 175.945L218.334 133.204C218.344 132.919 218.114 132.674 217.826 132.664L217.819 132.664ZM207.191 197.729C200.568 208.384 187.518 222.423 162.954 228.892C138.9 220.725 126.869 205.811 120.998 194.719C114.627 182.67 113.961 172.408 113.956 172.352L115.43 130.126C122.415 130.21 133.17 127.228 147.417 121.269C157.222 117.168 165.465 112.963 167.03 112.154C168.535 113.071 176.465 117.84 185.959 122.615C199.756 129.554 210.284 133.271 217.251 133.682L215.778 175.859C215.767 175.964 214.387 186.154 207.184 197.729L207.191 197.729Z" fill="#9FA0A0"/>
<path opacity="0.958333" d="M214.648 133.371C199.152 133.1 166.564 113.77 166.241 113.578C166.089 113.489 165.902 113.485 165.74 113.569C165.403 113.75 132.168 131.931 116.671 131.66C116.398 131.656 116.167 131.878 116.162 132.152L115.446 173.162C115.458 173.263 116.271 183.261 122.624 194.883C128.485 205.603 140.398 219.956 163.859 227.469C163.905 227.483 163.952 227.49 164.005 227.491C164.059 227.492 164.106 227.486 164.152 227.474C187.855 220.785 200.268 206.856 206.5 196.347C213.254 184.954 214.423 174.99 214.432 174.843L215.147 133.879C215.152 133.606 214.929 133.375 214.655 133.371L214.648 133.371ZM205.607 195.871C199.478 206.188 187.29 219.855 164.017 226.464C140.988 219.046 129.291 204.963 123.52 194.438C117.257 183.004 116.454 173.187 116.448 173.133L117.154 132.663C123.804 132.625 133.991 129.588 147.453 123.641C156.717 119.548 164.494 115.382 165.97 114.58C167.417 115.433 175.043 119.867 184.159 124.282C197.405 130.695 207.486 134.079 214.124 134.355L213.418 174.779C213.41 174.879 212.264 184.663 205.6 195.871L205.607 195.871Z" fill="#9FA0A0"/>
<path d="M211.518 134.176C196.802 134.176 165.545 116.241 165.234 116.062C165.089 115.979 164.911 115.979 164.759 116.062C164.442 116.241 133.191 134.176 118.475 134.176C118.215 134.176 118 134.393 118 134.654V173.872C118.013 173.968 118.951 183.512 125.174 194.517C130.916 204.667 142.463 218.191 164.861 224.981C164.905 224.994 164.949 225 165 225C165.051 225 165.095 224.994 165.139 224.981C187.53 218.191 199.084 204.667 204.826 194.517C211.049 183.512 211.994 173.968 212 173.827V134.654C212 134.393 211.785 134.176 211.525 134.176H211.518ZM203.97 194.077C198.323 204.043 186.979 217.311 164.994 224.018C143.008 217.311 131.67 204.043 126.017 194.077C119.882 183.251 118.957 173.878 118.951 173.827V135.126C125.263 134.979 134.883 131.906 147.565 125.996C156.292 121.928 163.606 117.816 164.994 117.025C166.382 117.816 173.695 121.928 182.422 125.996C195.104 131.906 204.731 134.973 211.037 135.126V173.783C211.03 173.878 210.105 183.251 203.964 194.077H203.97Z" fill="#9FA0A0"/>
<g clip-path="url(#clip0_10992_8848)">
<path fill-rule="evenodd" clip-rule="evenodd" d="M177.331 156.209C177.949 155.984 178.618 155.938 179.261 156.079C179.91 156.22 180.505 156.545 180.975 157.015C181.444 157.485 181.769 158.08 181.911 158.729C182.051 159.372 182.006 160.041 181.78 160.658L174.122 183.613C173.935 184.177 173.606 184.686 173.167 185.087C172.729 185.487 172.196 185.768 171.619 185.903C171.042 186.044 170.438 186.032 169.866 185.869C169.295 185.706 168.777 185.397 168.361 184.973L164.253 180.884L159.937 183.115C159.6 183.289 159.197 183.273 158.876 183.071C158.555 182.87 158.364 182.514 158.374 182.136L158.55 175.313L173.647 164.348C174.245 163.913 174.378 163.075 173.943 162.477C173.509 161.878 172.671 161.746 172.073 162.18L156.72 173.332L153.014 169.626C152.612 169.225 152.316 168.73 152.153 168.186C151.991 167.646 151.965 167.075 152.077 166.523C152.188 165.92 152.458 165.357 152.858 164.892C153.261 164.423 153.782 164.071 154.367 163.872L154.374 163.869L177.331 156.209Z" fill="#9FA0A0"/>
</g>
<g style="mix-blend-mode:plus-lighter" filter="url(#filter0_f_10992_8848)">
<ellipse cx="107.008" cy="206.832" rx="41.0178" ry="35.8316" fill="#FF69B4"/>
</g>
<g style="mix-blend-mode:plus-lighter" filter="url(#filter1_f_10992_8848)">
<ellipse cx="223.018" cy="142.832" rx="41.0178" ry="35.8316" fill="#69FFB4"/>
</g>
<defs>
<filter id="filter0_f_10992_8848" x="18.8428" y="123.853" width="176.329" height="165.957" filterUnits="userSpaceOnUse" color-interpolation-filters="sRGB">
<feFlood flood-opacity="0" result="BackgroundImageFix"/>
<feBlend mode="normal" in="SourceGraphic" in2="BackgroundImageFix" result="shape"/>
<feGaussianBlur stdDeviation="23.5735" result="effect1_foregroundBlur_10992_8848"/>
</filter>
<filter id="filter1_f_10992_8848" x="134.853" y="59.8531" width="176.329" height="165.957" filterUnits="userSpaceOnUse" color-interpolation-filters="sRGB">
<feFlood flood-opacity="0" result="BackgroundImageFix"/>
<feBlend mode="normal" in="SourceGraphic" in2="BackgroundImageFix" result="shape"/>
<feGaussianBlur stdDeviation="23.5735" result="effect1_foregroundBlur_10992_8848"/>
</filter>
<clipPath id="clip0_10992_8848">
<rect width="30" height="30" fill="white" transform="translate(152 156)"/>
</clipPath>
</defs>
</svg>
