<svg width="264" height="264" viewBox="0 0 264 264" fill="none" xmlns="http://www.w3.org/2000/svg">
<path fill-rule="evenodd" clip-rule="evenodd" d="M75.2837 114.471L104 131.051L104 146.645L88.6848 137.803L88.6848 142.258L82.9415 138.942L82.9415 134.487L75.2837 130.065L75.2837 114.471ZM82.9415 132.259L82.9415 121.12L77.1981 117.804L77.1981 128.943L79.1126 130.048L79.1126 121.137L81.027 122.243L81.027 131.154L82.9415 132.259ZM84.8559 122.225L84.8559 137.82L86.7703 138.925L86.7703 134.469L90.5992 136.68L90.5992 125.541L84.8559 122.225ZM92.5137 126.647L92.5137 137.785L94.4281 138.891L94.4281 129.98L96.3425 131.085L96.3425 139.996L98.257 141.101L98.257 132.19L100.171 133.296L100.171 142.207L102.086 143.312L102.086 132.173L92.5137 126.647ZM86.7703 132.242L86.7703 125.558L88.6848 126.664L88.6848 133.347L86.7703 132.242Z" fill="#9FA0A0"/>
<path fill-rule="evenodd" clip-rule="evenodd" d="M99.9844 82.9301L128.788 66.3002L142.23 74.0608L126.868 82.9301L130.708 85.1474L124.948 88.4734L121.107 86.2561L113.426 90.6907L99.9844 82.9301ZM119.187 85.1474L109.586 79.6041L103.825 82.9301L113.426 88.4734L115.346 87.3648L107.665 82.9301L109.586 81.8215L117.267 86.2561L119.187 85.1474ZM111.506 78.4955L124.948 86.2561L126.868 85.1474L123.027 82.9301L126.868 80.7128L117.267 75.1695L111.506 78.4955ZM119.187 74.0608L128.788 79.6041L130.708 78.4955L123.027 74.0608L124.948 72.9522L132.629 77.3868L134.549 76.2782L126.868 71.8435L128.788 70.7349L136.469 75.1695L138.389 74.0608L128.788 68.5175L119.187 74.0608ZM121.107 81.8215L115.346 78.4955L117.267 77.3868L123.027 80.7128L121.107 81.8215Z" fill="#9FA0A0"/>
<path fill-rule="evenodd" clip-rule="evenodd" d="M134.756 127.62L166 109.582L166 126.418L149.337 136.038L149.337 140.849L143.088 144.456L143.088 139.646L134.756 144.456L134.756 127.62ZM143.088 137.241L143.088 125.215L136.839 128.823L136.839 140.849L138.922 139.646L138.922 130.025L141.005 128.823L141.005 138.444L143.088 137.241ZM145.171 124.013L145.171 140.849L147.254 139.646L147.254 134.836L151.42 132.431L151.42 120.405L145.171 124.013ZM153.503 119.202L153.503 131.228L155.586 130.025L155.586 120.405L157.669 119.202L157.669 128.823L159.751 127.62L159.751 118L161.834 116.797L161.834 126.418L163.917 125.215L163.917 113.189L153.503 119.202ZM147.254 132.431L147.254 125.215L149.337 124.013L149.337 131.228L147.254 132.431Z" fill="#9FA0A0"/>
<path opacity="0.0526316" d="M232.581 67.5444L151.321 21.9631C143.098 17.3456 132.891 17.3456 124.668 21.9631L43.4187 67.5444C37.9215 70.6338 34.5 76.3617 34.5 82.4853V170.482C34.5 176.616 37.9215 182.344 43.4187 185.434L124.679 231.015C128.739 233.291 133.301 234.434 137.852 234.467C137.897 234.467 137.943 234.5 138 234.5C138.057 234.5 138.091 234.478 138.148 234.467C142.71 234.445 147.272 233.302 151.332 231.015L232.593 185.423C238.09 182.333 241.5 176.605 241.5 170.471V82.4853C241.5 76.3507 238.079 70.6338 232.581 67.5444ZM137.145 232.807C133.119 232.675 129.127 231.609 125.546 229.608L44.2855 184.015C39.3129 181.223 36.2221 176.034 36.2107 170.493V82.4853C36.2107 79.8248 36.9293 77.2522 38.218 74.9874L137.145 131.079V232.807ZM138 129.661L39.119 73.5912C40.4534 71.7332 42.1983 70.15 44.274 68.9737L125.534 23.3814C129.378 21.2265 133.689 20.1491 138 20.1491C142.311 20.1491 146.622 21.2265 150.466 23.3814L231.726 68.9737C233.802 70.139 235.547 71.7332 236.881 73.5912L138 129.661ZM239.789 170.493C239.789 176.045 236.699 181.223 231.726 184.015L150.466 229.597C146.873 231.609 142.881 232.664 138.855 232.807V131.079L237.782 74.9874C239.071 77.2522 239.789 79.8248 239.789 82.4853V170.482V170.493Z" fill="#9FA0A0"/>
<path opacity="0.105263" d="M229.297 67.9091L149.999 23.383C141.975 18.8723 132.014 18.8723 123.99 23.383L44.7033 67.9091C39.3388 70.927 36 76.5223 36 82.5042V168.464C36 174.456 39.3388 180.052 44.7033 183.069L124.001 227.596C127.963 229.819 132.415 230.936 136.855 230.968C136.9 230.968 136.944 231 137 231C137.056 231 137.089 230.979 137.145 230.968C141.596 230.946 146.048 229.829 150.01 227.596L229.308 183.059C234.672 180.041 238 174.446 238 168.453V82.5042C238 76.5115 234.661 70.927 229.297 67.9091ZM136.165 229.346C132.237 229.217 128.341 228.176 124.847 226.221L45.5491 181.684C40.6966 178.956 37.6806 173.887 37.6694 168.474V82.5042C37.6694 79.9052 38.3706 77.3922 39.6282 75.1798L136.165 129.973V229.346ZM137 128.588L40.5074 73.8159C41.8096 72.0009 43.5124 70.4544 45.538 69.3053L124.835 24.7684C128.586 22.6634 132.793 21.6109 137 21.6109C141.207 21.6109 145.414 22.6634 149.165 24.7684L228.462 69.3053C230.488 70.4437 232.19 72.0009 233.493 73.8159L137 128.588ZM236.331 168.474C236.331 173.898 233.314 178.956 228.462 181.684L149.165 226.21C145.659 228.175 141.763 229.206 137.835 229.346V129.973L234.372 75.1798C235.629 77.3922 236.331 79.9052 236.331 82.5042V168.464V168.474Z" fill="#9FA0A0"/>
<path opacity="0.157895" d="M226.012 68.2739L148.677 24.8028C140.852 20.3991 131.137 20.3991 123.312 24.8028L45.9878 68.2739C40.7562 71.2202 37.5 76.6829 37.5 82.5231V166.445C37.5 172.296 40.7562 177.759 45.9878 180.705L123.323 224.176C127.187 226.347 131.528 227.437 135.859 227.469C135.902 227.469 135.946 227.5 136 227.5C136.054 227.5 136.087 227.479 136.141 227.469C140.483 227.448 144.824 226.357 148.688 224.176L226.023 180.695C231.255 177.748 234.5 172.286 234.5 166.435V82.5231C234.5 76.6724 231.244 71.2202 226.012 68.2739ZM135.186 225.885C131.354 225.759 127.556 224.742 124.147 222.834L46.8127 179.353C42.0804 176.689 39.139 171.74 39.1281 166.456V82.5231C39.1281 79.9857 39.8119 77.5322 41.0384 75.3722L135.186 128.867V225.885ZM136 127.514L41.8959 74.0406C43.1658 72.2687 44.8264 70.7588 46.8019 69.6369L124.137 26.1554C127.794 24.1003 131.897 23.0728 136 23.0728C140.103 23.0728 144.206 24.1003 147.863 26.1554L225.198 69.6369C227.174 70.7483 228.834 72.2687 230.104 74.0406L136 127.514ZM232.872 166.456C232.872 171.751 229.93 176.689 225.198 179.353L147.863 222.824C144.444 224.742 140.646 225.749 136.814 225.885V128.867L230.962 75.3722C232.188 77.5322 232.872 79.9857 232.872 82.5231V166.445V166.456Z" fill="#9FA0A0"/>
<path opacity="0.210526" d="M222.728 68.6386L147.356 26.2226C139.729 21.9258 130.261 21.9258 122.634 26.2226L47.2724 68.6386C42.1736 71.5134 39 76.8435 39 82.5419V164.427C39 170.136 42.1736 175.466 47.2724 178.341L122.644 220.757C126.41 222.875 130.642 223.939 134.862 223.969C134.905 223.969 134.947 224 135 224C135.053 224 135.085 223.98 135.138 223.969C139.369 223.949 143.6 222.885 147.366 220.757L222.738 178.331C227.837 175.456 231 170.126 231 164.417V82.5419C231 76.8333 227.826 71.5134 222.728 68.6386ZM134.207 222.424C130.472 222.302 126.77 221.309 123.448 219.447L48.0764 177.021C43.4641 174.423 40.5974 169.594 40.5868 164.438V82.5419C40.5868 80.0661 41.2532 77.6722 42.4486 75.5647L134.207 127.761V222.424ZM135 126.441L43.2843 74.2654C44.522 72.5364 46.1405 71.0632 48.0658 69.9685L123.438 27.5424C127.003 25.5372 131.001 24.5346 135 24.5346C138.999 24.5346 142.997 25.5372 146.562 27.5424L221.934 69.9685C223.859 71.053 225.478 72.5364 226.716 74.2654L135 126.441ZM229.413 164.438C229.413 169.604 226.546 174.423 221.934 177.021L146.562 219.437C143.23 221.309 139.528 222.291 135.793 222.424V127.761L227.551 75.5647C228.747 77.6722 229.413 80.0661 229.413 82.5419V164.427V164.438Z" fill="#9FA0A0"/>
<path opacity="0.263158" d="M219.443 69.0033L146.034 27.6425C138.605 23.4525 129.384 23.4525 121.956 27.6425L48.557 69.0033C43.5909 71.8066 40.5 77.0041 40.5 82.5608V162.409C40.5 167.976 43.5909 173.173 48.557 175.977L121.966 217.338C125.634 219.403 129.755 220.44 133.866 220.47C133.907 220.47 133.948 220.5 134 220.5C134.052 220.5 134.082 220.48 134.134 220.47C138.255 220.45 142.376 219.413 146.044 217.338L219.453 175.967C224.419 173.164 227.5 167.966 227.5 162.399V82.5608C227.5 76.9941 224.409 71.8066 219.443 69.0033ZM133.227 218.964C129.59 218.844 125.984 217.876 122.749 216.061L49.34 174.69C44.8479 172.156 42.0558 167.447 42.0455 162.419V82.5608C42.0455 80.1466 42.6945 77.8122 43.8588 75.7571L133.227 126.655V218.964ZM134 125.368L44.6727 74.4901C45.8782 72.8042 47.4545 71.3676 49.3297 70.3002L122.739 28.9294C126.211 26.9741 130.105 25.9964 134 25.9964C137.895 25.9964 141.789 26.9741 145.261 28.9294L218.67 70.3002C220.545 71.3576 222.122 72.8042 223.327 74.4901L134 125.368ZM225.955 162.419C225.955 167.457 223.162 172.156 218.67 174.69L145.261 216.051C142.016 217.876 138.41 218.834 134.773 218.964V126.655L224.141 75.7571C225.305 77.8122 225.955 80.1466 225.955 82.5608V162.409V162.419Z" fill="#9FA0A0"/>
<path opacity="0.315789" d="M216.158 69.368L144.712 29.0623C137.482 24.9792 128.508 24.9792 121.278 29.0623L49.8415 69.368C45.0083 72.0998 42 77.1647 42 82.5796V160.391C42 165.816 45.0083 170.881 49.8415 173.613L121.288 213.918C124.858 215.931 128.869 216.942 132.87 216.971C132.91 216.971 132.95 217 133 217C133.05 217 133.08 216.981 133.13 216.971C137.141 216.951 141.152 215.94 144.722 213.918L216.168 173.603C221.002 170.871 224 165.806 224 160.381V82.5796C224 77.155 220.992 72.0998 216.158 69.368ZM132.248 215.503C128.708 215.386 125.199 214.443 122.05 212.674L50.6036 172.358C46.2316 169.889 43.5142 165.301 43.5041 160.401V82.5796C43.5041 80.227 44.1359 77.9522 45.269 75.9495L132.248 125.549V215.503ZM133 124.295L46.0612 74.7149C47.2344 73.0719 48.7686 71.672 50.5936 70.6318L122.04 30.3164C125.419 28.411 129.21 27.4582 133 27.4582C136.79 27.4582 140.581 28.411 143.96 30.3164L215.406 70.6318C217.231 71.6623 218.766 73.0719 219.939 74.7149L133 124.295ZM222.496 160.401C222.496 165.31 219.778 169.889 215.406 172.358L143.96 212.664C140.801 214.443 137.292 215.376 133.752 215.503V125.549L220.731 75.9495C221.864 77.9522 222.496 80.227 222.496 82.5796V160.391V160.401Z" fill="#9FA0A0"/>
<path opacity="0.368421" d="M212.874 69.7327L143.39 30.4821C136.359 26.506 127.631 26.506 120.6 30.4821L51.1261 69.7327C46.4256 72.393 43.5 77.3253 43.5 82.5985V158.373C43.5 163.656 46.4256 168.588 51.1261 171.248L120.61 210.499C124.081 212.459 127.982 213.443 131.873 213.472C131.912 213.472 131.951 213.5 132 213.5C132.049 213.5 132.078 213.481 132.127 213.472C136.028 213.453 139.928 212.468 143.4 210.499L212.884 171.239C217.584 168.579 220.5 163.646 220.5 158.364V82.5985C220.5 77.3158 217.574 72.393 212.874 69.7327ZM131.269 212.042C127.826 211.928 124.413 211.01 121.351 209.287L51.8673 170.027C47.6154 167.622 44.9726 163.154 44.9628 158.383V82.5985C44.9628 80.3074 45.5772 78.0922 46.6792 76.1419L131.269 124.443V212.042ZM132 123.222L47.4496 74.9396C48.5906 73.3397 50.0826 71.9764 51.8575 70.9634L121.341 31.7034C124.627 29.8478 128.314 28.9201 132 28.9201C135.686 28.9201 139.373 29.8478 142.659 31.7034L212.142 70.9634C213.917 71.9669 215.409 73.3397 216.55 74.9396L132 123.222ZM219.037 158.383C219.037 163.163 216.394 167.622 212.142 170.027L142.659 209.278C139.587 211.01 136.174 211.919 132.731 212.042V124.443L217.321 76.1419C218.423 78.0922 219.037 80.3074 219.037 82.5985V158.373V158.383Z" fill="#9FA0A0"/>
<path opacity="0.421053" d="M209.589 70.0974L142.069 31.902C135.236 28.0327 126.754 28.0327 119.922 31.902L52.4107 70.0974C47.843 72.6862 45 77.4859 45 82.6173V156.355C45 161.496 47.843 166.295 52.4107 168.884L119.931 207.08C123.305 208.987 127.096 209.945 130.877 209.972C130.915 209.972 130.953 210 131 210C131.047 210 131.076 209.982 131.123 209.972C134.914 209.954 138.704 208.996 142.078 207.08L209.599 168.875C214.167 166.286 217 161.486 217 156.346V82.6173C217 77.4767 214.157 72.6862 209.589 70.0974ZM130.289 208.581C126.944 208.471 123.627 207.577 120.652 205.9L53.1309 167.696C48.9991 165.356 46.431 161.007 46.4215 156.364V82.6173C46.4215 80.3879 47.0185 78.2321 48.0894 76.3344L130.289 123.337V208.581ZM131 122.149L48.838 75.1644C49.9468 73.6074 51.3967 72.2808 53.1214 71.2951L120.642 33.0904C123.836 31.2847 127.418 30.3819 131 30.3819C134.582 30.3819 138.164 31.2847 141.358 33.0904L208.879 71.2951C210.603 72.2716 212.053 73.6074 213.162 75.1644L131 122.149ZM215.579 156.364C215.579 161.017 213.01 165.356 208.879 167.696L141.358 205.891C138.373 207.577 135.056 208.461 131.711 208.581V123.337L213.911 76.3344C214.981 78.2321 215.579 80.3879 215.579 82.6173V156.355V156.364Z" fill="#9FA0A0"/>
<path opacity="0.473684" d="M206.305 70.4621L140.747 33.3218C134.113 29.5594 125.878 29.5594 119.244 33.3218L53.6953 70.4621C49.2603 72.9794 46.5 77.6465 46.5 82.6362V154.337C46.5 159.336 49.2603 164.003 53.6953 166.52L119.253 203.66C122.529 205.515 126.209 206.446 129.88 206.473C129.917 206.473 129.954 206.5 130 206.5C130.046 206.5 130.074 206.482 130.12 206.473C133.8 206.455 137.48 205.524 140.756 203.66L206.314 166.511C210.749 163.994 213.5 159.327 213.5 154.328V82.6362C213.5 77.6376 210.74 72.9794 206.305 70.4621ZM129.31 205.12C126.062 205.013 122.842 204.144 119.952 202.514L54.3945 165.364C50.3829 163.089 47.8894 158.861 47.8802 154.346V82.6362C47.8802 80.4683 48.4598 78.3721 49.4996 76.5268L129.31 122.231V205.12ZM130 121.075L50.2264 75.3891C51.303 73.8752 52.7107 72.5852 54.3853 71.6267L119.943 34.4774C123.044 32.7216 126.522 31.8437 130 31.8437C133.478 31.8437 136.956 32.7216 140.057 34.4774L205.615 71.6267C207.289 72.5762 208.697 73.8752 209.774 75.3891L130 121.075ZM212.12 154.346C212.12 158.87 209.626 163.089 205.615 165.364L140.057 202.505C137.158 204.144 133.938 205.004 130.69 205.12V122.231L210.5 76.5268C211.54 78.3721 212.12 80.4683 212.12 82.6362V154.337V154.346Z" fill="#9FA0A0"/>
<path opacity="0.526316" d="M203.02 70.8268L139.425 34.7416C132.99 31.0861 125.001 31.0861 118.566 34.7416L54.9798 70.8268C50.6777 73.2726 48 77.8071 48 82.6551V152.319C48 157.175 50.6777 161.71 54.9798 164.156L118.575 200.241C121.752 202.043 125.323 202.948 128.884 202.974C128.92 202.974 128.955 203 129 203C129.045 203 129.071 202.983 129.116 202.974C132.686 202.956 136.257 202.051 139.434 200.241L203.029 164.147C207.331 161.701 210 157.167 210 152.31V82.6551C210 77.7984 207.322 73.2726 203.02 70.8268ZM128.331 201.66C125.18 201.555 122.056 200.711 119.253 199.127L55.6582 163.033C51.7666 160.822 49.3478 156.714 49.3388 152.328V82.6551C49.3388 80.5488 49.9012 78.5121 50.9098 76.7192L128.331 121.125V201.66ZM129 120.002L51.6149 75.6138C52.6592 74.1429 54.0248 72.8896 55.6493 71.9583L119.244 35.8644C122.252 34.1585 125.626 33.3055 129 33.3055C132.374 33.3055 135.748 34.1585 138.756 35.8644L202.351 71.9583C203.975 72.8809 205.341 74.1429 206.385 75.6138L129 120.002ZM208.661 152.328C208.661 156.723 206.242 160.822 202.351 163.033L138.756 199.118C135.944 200.711 132.82 201.546 129.669 201.66V121.125L207.09 76.7192C208.099 78.5121 208.661 80.5488 208.661 82.6551V152.319V152.328Z" fill="#9FA0A0"/>
<path opacity="0.578947" d="M199.736 71.1916L138.103 36.1615C131.867 32.6128 124.125 32.6128 117.888 36.1615L56.2644 71.1916C52.095 73.5658 49.5 77.9678 49.5 82.6739V150.301C49.5 155.015 52.095 159.417 56.2644 161.792L117.897 196.822C120.976 198.571 124.436 199.449 127.888 199.475C127.922 199.475 127.957 199.5 128 199.5C128.043 199.5 128.069 199.483 128.112 199.475C131.573 199.458 135.033 198.579 138.112 196.822L199.744 161.783C203.914 159.409 206.5 155.007 206.5 150.292V82.6739C206.5 77.9593 203.905 73.5658 199.736 71.1916ZM127.351 198.199C124.298 198.097 121.27 197.278 118.554 195.74L56.9218 160.702C53.1504 158.556 50.8062 154.568 50.7975 150.309V82.6739C50.7975 80.6292 51.3425 78.6521 52.3199 76.9116L127.351 120.019V198.199ZM128 118.929L53.0033 75.8386C54.0154 74.4107 55.3388 73.194 56.9132 72.2899L118.545 37.2514C121.46 35.5954 124.73 34.7674 128 34.7674C131.27 34.7674 134.54 35.5954 137.455 37.2514L199.087 72.2899C200.661 73.1856 201.985 74.4107 202.997 75.8386L128 118.929ZM205.202 150.309C205.202 154.576 202.858 158.556 199.087 160.702L137.455 195.732C134.73 197.278 131.702 198.089 128.649 198.199V120.019L203.68 76.9116C204.658 78.6521 205.202 80.6292 205.202 82.6739V150.301V150.309Z" fill="#9FA0A0"/>
<path opacity="0.631579" d="M196.451 71.5563L136.782 37.5813C130.743 34.1396 123.248 34.1396 117.21 37.5813L57.549 71.5563C53.5124 73.859 51 78.1284 51 82.6928V148.283C51 152.855 53.5124 157.125 57.549 159.427L117.218 193.402C120.2 195.099 123.55 195.951 126.891 195.975C126.925 195.975 126.958 196 127 196C127.042 196 127.067 195.984 127.109 195.975C130.459 195.959 133.809 195.107 136.79 193.402L196.459 159.419C200.496 157.116 203 152.847 203 148.274V82.6928C203 78.1202 200.488 73.859 196.451 71.5563ZM126.372 194.738C123.416 194.64 120.485 193.845 117.855 192.353L58.1855 158.37C54.5341 156.289 52.2646 152.421 52.2562 148.291V82.6928C52.2562 80.7097 52.7838 78.7921 53.7301 77.104L126.372 118.913V194.738ZM127 117.856L54.3917 76.0633C55.3716 74.6784 56.6529 73.4984 58.1771 72.6216L117.847 38.6384C120.669 37.0323 123.834 36.2292 127 36.2292C130.166 36.2292 133.331 37.0323 136.154 38.6384L195.823 72.6216C197.347 73.4902 198.628 74.6784 199.608 76.0633L127 117.856ZM201.744 148.291C201.744 152.429 199.474 156.289 195.823 158.37L136.154 192.345C133.515 193.845 130.584 194.632 127.628 194.738V118.913L200.27 77.104C201.216 78.7921 201.744 80.7097 201.744 82.6928V148.283V148.291Z" fill="#9FA0A0"/>
<path opacity="0.684211" d="M193.166 71.921L135.46 39.0011C129.62 35.6663 122.372 35.6663 116.532 39.0011L58.8336 71.921C54.9298 74.1522 52.5 78.289 52.5 82.7116V146.265C52.5 150.695 54.9298 154.832 58.8336 157.063L116.54 189.983C119.423 191.627 122.663 192.452 125.895 192.476C125.927 192.476 125.96 192.5 126 192.5C126.04 192.5 126.065 192.484 126.105 192.476C129.345 192.46 132.585 191.635 135.468 189.983L193.175 157.055C197.078 154.824 199.5 150.687 199.5 146.257V82.7116C199.5 78.281 197.07 74.1522 193.166 71.921ZM125.393 191.277C122.534 191.182 119.699 190.412 117.156 188.967L59.4491 156.039C55.9179 154.022 53.723 150.274 53.7149 146.272V82.7116C53.7149 80.7901 54.2251 78.9321 55.1403 77.2965L125.393 117.807V191.277ZM126 116.783L55.7802 76.2881C56.7278 74.9462 57.9669 73.8028 59.441 72.9532L117.148 40.0254C119.877 38.4692 122.939 37.691 126 37.691C129.061 37.691 132.123 38.4692 134.852 40.0254L192.559 72.9532C194.033 73.7949 195.272 74.9462 196.22 76.2881L126 116.783ZM198.285 146.272C198.285 150.282 196.09 154.022 192.559 156.039L134.852 188.959C132.301 190.412 129.466 191.174 126.607 191.277V117.807L196.86 77.2965C197.775 78.9321 198.285 80.7901 198.285 82.7116V146.265V146.272Z" fill="#9FA0A0"/>
<path opacity="0.736842" d="M189.882 72.2857L134.138 40.421C128.497 37.193 121.495 37.193 115.854 40.421L60.1181 72.2857C56.3471 74.4454 54 78.4496 54 82.7305V144.246C54 148.535 56.3471 152.539 60.1181 154.699L115.862 186.564C118.647 188.155 121.777 188.954 124.898 188.977C124.93 188.977 124.961 189 125 189C125.039 189 125.063 188.985 125.102 188.977C128.231 188.962 131.361 188.162 134.146 186.564L189.89 154.691C193.661 152.532 196 148.527 196 144.239V82.7305C196 78.4419 193.653 74.4454 189.882 72.2857ZM124.413 187.816C121.651 187.724 118.913 186.979 116.457 185.58L60.7127 153.707C57.3016 151.755 55.1814 148.128 55.1736 144.254V82.7305C55.1736 80.8706 55.6664 79.0721 56.5505 77.4889L124.413 116.701V187.816ZM125 115.71L57.1686 76.5128C58.084 75.2139 59.281 74.1072 60.7049 73.2848L116.449 41.4124C119.085 39.906 122.043 39.1528 125 39.1528C127.957 39.1528 130.915 39.906 133.551 41.4124L189.295 73.2848C190.719 74.0995 191.916 75.2139 192.831 76.5128L125 115.71ZM194.826 144.254C194.826 148.135 192.706 151.755 189.295 153.707L133.551 185.572C131.087 186.979 128.349 187.716 125.587 187.816V116.701L193.449 77.4889C194.334 79.0721 194.826 80.8706 194.826 82.7305V144.246V144.254Z" fill="#9FA0A0"/>
<path opacity="0.789474" d="M186.597 72.6504L132.816 41.8408C127.374 38.7197 120.618 38.7197 115.176 41.8408L61.4027 72.6504C57.7645 74.7386 55.5 78.6102 55.5 82.7494V142.228C55.5 146.375 57.7645 150.247 61.4027 152.335L115.184 183.144C117.871 184.683 120.89 185.455 123.902 185.478C123.932 185.478 123.962 185.5 124 185.5C124.038 185.5 124.06 185.485 124.098 185.478C127.117 185.463 130.137 184.69 132.824 183.144L186.605 152.327C190.243 150.239 192.5 146.368 192.5 142.221V82.7494C192.5 78.6028 190.236 74.7386 186.597 72.6504ZM123.434 184.356C120.769 184.266 118.127 183.546 115.757 182.193L61.9764 151.376C58.6853 149.489 56.6398 145.981 56.6322 142.236V82.7494C56.6322 80.951 57.1078 79.2121 57.9607 77.6813L123.434 115.595V184.356ZM124 114.636L58.557 76.7375C59.4402 75.4817 60.595 74.4116 61.9688 73.6165L115.75 42.7994C118.294 41.3429 121.147 40.6147 124 40.6147C126.853 40.6147 129.706 41.3429 132.25 42.7994L186.031 73.6165C187.405 74.4042 188.56 75.4817 189.443 76.7375L124 114.636ZM191.368 142.236C191.368 145.989 189.322 149.489 186.031 151.376L132.25 182.186C129.873 183.546 127.231 184.259 124.566 184.356V115.595L190.039 77.6813C190.892 79.2121 191.368 80.951 191.368 82.7494V142.228V142.236Z" fill="#9FA0A0"/>
<path opacity="0.842105" d="M183.313 73.0151L131.495 43.2607C126.251 40.2464 119.742 40.2464 114.498 43.2607L62.6873 73.0151C59.1818 75.0318 57 78.7708 57 82.7682V140.21C57 144.215 59.1818 147.954 62.6873 149.971L114.505 179.725C117.095 181.211 120.004 181.957 122.905 181.978C122.935 181.978 122.964 182 123 182C123.036 182 123.058 181.986 123.095 181.978C126.004 181.964 128.913 181.218 131.502 179.725L183.32 149.963C186.825 147.947 189 144.208 189 140.203V82.7682C189 78.7636 186.818 75.0318 183.313 73.0151ZM122.455 180.895C119.887 180.809 117.342 180.113 115.058 178.806L63.24 149.045C60.0691 147.222 58.0982 143.834 58.0909 140.217V82.7682C58.0909 81.0315 58.5491 79.3521 59.3709 77.8737L122.455 114.489V180.895ZM123 113.563L59.9455 76.9623C60.7964 75.7494 61.9091 74.716 63.2327 73.9481L115.051 44.1864C117.502 42.7798 120.251 42.0765 123 42.0765C125.749 42.0765 128.498 42.7798 130.949 44.1864L182.767 73.9481C184.091 74.7088 185.204 75.7494 186.055 76.9623L123 113.563ZM187.909 140.217C187.909 143.842 185.938 147.222 182.767 149.045L130.949 178.799C128.658 180.113 126.113 180.801 123.545 180.895V114.489L186.629 77.8737C187.451 79.3521 187.909 81.0315 187.909 82.7682V140.21V140.217Z" fill="#9FA0A0"/>
<path opacity="0.894737" d="M180.028 73.3798L130.173 44.6805C125.128 41.7732 118.865 41.7732 113.82 44.6805L63.9718 73.3798C60.5992 75.325 58.5 78.9314 58.5 82.7871V138.192C58.5 142.055 60.5992 145.661 63.9718 147.606L113.827 176.306C116.318 177.739 119.117 178.458 121.909 178.479C121.937 178.479 121.965 178.5 122 178.5C122.035 178.5 122.056 178.486 122.091 178.479C124.89 178.465 127.689 177.745 130.18 176.306L180.035 147.599C183.408 145.654 185.5 142.048 185.5 138.185V82.7871C185.5 78.9245 183.401 75.325 180.028 73.3798ZM121.475 177.434C119.005 177.351 116.556 176.679 114.359 175.42L64.5036 146.713C61.4528 144.955 59.5566 141.688 59.5496 138.199V82.7871C59.5496 81.1119 59.9904 79.4921 60.7811 78.0661L121.475 113.383V177.434ZM122 112.49L61.3339 77.187C62.1526 76.0172 63.2231 75.0204 64.4966 74.2797L114.352 45.5734C116.71 44.2167 119.355 43.5383 122 43.5383C124.645 43.5383 127.29 44.2167 129.648 45.5734L179.503 74.2797C180.777 75.0135 181.847 76.0172 182.666 77.187L122 112.49ZM184.45 138.199C184.45 141.695 182.554 144.955 179.503 146.713L129.648 175.413C127.444 176.679 124.995 177.344 122.525 177.434V113.383L183.219 78.0661C184.01 79.4921 184.45 81.1119 184.45 82.7871V138.192V138.199Z" fill="#9FA0A0"/>
<path opacity="0.947368" d="M176.744 73.7445L128.851 46.1003C124.005 43.2999 117.989 43.2999 113.142 46.1003L65.2564 73.7445C62.0165 75.6182 60 79.092 60 82.8059V136.174C60 139.895 62.0165 143.368 65.2564 145.242L113.149 172.886C115.542 174.267 118.231 174.96 120.913 174.98C120.94 174.98 120.966 175 121 175C121.034 175 121.054 174.987 121.087 174.98C123.776 174.967 126.465 174.273 128.858 172.886L176.75 145.235C179.99 143.362 182 139.888 182 136.167V82.8059C182 79.0854 179.983 75.6182 176.744 73.7445ZM120.496 173.973C118.123 173.893 115.77 173.246 113.66 172.033L65.7673 144.382C62.8366 142.688 61.015 139.541 61.0083 136.181V82.8059C61.0083 81.1923 61.4317 79.6321 62.1913 78.2586L120.496 112.277V173.973ZM121 111.417L62.7223 77.4118C63.5088 76.2849 64.5372 75.3248 65.7606 74.6113L113.653 46.9605C115.918 45.6536 118.459 45.0002 121 45.0002C123.541 45.0002 126.082 45.6536 128.347 46.9605L176.239 74.6113C177.463 75.3181 178.491 76.2849 179.278 77.4118L121 111.417ZM180.992 136.181C180.992 139.548 179.17 142.688 176.239 144.382L128.347 172.026C126.23 173.246 123.877 173.886 121.504 173.973V112.277L179.809 78.2586C180.568 79.6321 180.992 81.1923 180.992 82.8059V136.174V136.181Z" fill="#9FA0A0"/>
<path d="M173.459 74.1093L127.529 47.5202C122.881 44.8266 117.112 44.8266 112.464 47.5202L66.541 74.1093C63.4339 75.9114 61.5 79.2526 61.5 82.8248V134.156C61.5 137.735 63.4339 141.076 66.541 142.878L112.471 169.467C114.766 170.795 117.344 171.462 119.916 171.481C119.942 171.481 119.968 171.5 120 171.5C120.032 171.5 120.052 171.487 120.084 171.481C122.662 171.468 125.241 170.801 127.536 169.467L173.465 142.872C176.573 141.069 178.5 137.728 178.5 134.15V82.8248C178.5 79.2462 176.566 75.9114 173.459 74.1093ZM119.517 170.512C117.241 170.435 114.985 169.813 112.961 168.646L67.0309 142.051C64.2203 140.422 62.4734 137.395 62.4669 134.162V82.8248C62.4669 81.2728 62.8731 79.7721 63.6015 78.451L119.517 111.171V170.512ZM120 110.344L64.1107 77.6365C64.865 76.5527 65.8512 75.6292 67.0245 74.943L112.954 48.3475C115.127 47.0905 117.563 46.462 120 46.462C122.437 46.462 124.873 47.0905 127.046 48.3475L172.976 74.943C174.149 75.6228 175.135 76.5527 175.889 77.6365L120 110.344ZM177.533 134.162C177.533 137.401 175.786 140.422 172.976 142.051L127.046 168.64C125.015 169.813 122.759 170.429 120.483 170.512V111.171L176.399 78.451C177.127 79.7721 177.533 81.2728 177.533 82.8248V134.156V134.162Z" fill="#9FA0A0"/>
<g style="mix-blend-mode:plus-lighter" filter="url(#filter0_f_10992_8820)">
<ellipse cx="89.9814" cy="180.123" rx="41.4037" ry="36.1688" fill="#69FFB4"/>
</g>
<g style="mix-blend-mode:plus-lighter" filter="url(#filter1_f_10992_8820)">
<ellipse cx="174.692" cy="83.9904" rx="41.4037" ry="36.1688" fill="#FF69B4"/>
</g>
<defs>
<filter id="filter0_f_10992_8820" x="0.987118" y="96.3639" width="177.989" height="167.519" filterUnits="userSpaceOnUse" color-interpolation-filters="sRGB">
<feFlood flood-opacity="0" result="BackgroundImageFix"/>
<feBlend mode="normal" in="SourceGraphic" in2="BackgroundImageFix" result="shape"/>
<feGaussianBlur stdDeviation="23.7953" result="effect1_foregroundBlur_10992_8820"/>
</filter>
<filter id="filter1_f_10992_8820" x="85.6981" y="0.231045" width="177.989" height="167.519" filterUnits="userSpaceOnUse" color-interpolation-filters="sRGB">
<feFlood flood-opacity="0" result="BackgroundImageFix"/>
<feBlend mode="normal" in="SourceGraphic" in2="BackgroundImageFix" result="shape"/>
<feGaussianBlur stdDeviation="23.7953" result="effect1_foregroundBlur_10992_8820"/>
</filter>
</defs>
</svg>
