<svg width="177" height="160" viewBox="0 0 177 160" fill="none" xmlns="http://www.w3.org/2000/svg">
<rect x="0.5" y="0.5" width="175.79" height="159" rx="19.5" fill="#101112"/>
<rect x="0.5" y="0.5" width="175.79" height="159" rx="19.5" stroke="#9FA0A0"/>
<path fill-rule="evenodd" clip-rule="evenodd" d="M47.3951 55.3999H129.395V93.6666H85.6617V104.6H69.2617V93.6666H47.3951V55.3999ZM69.2617 88.1999V60.8666H52.8617V88.1999H58.3284V66.3332H63.795V88.1999H69.2617ZM74.7284 60.8666V99.1332H80.195V88.1999H91.1284V60.8666H74.7284ZM96.595 60.8666V88.1999H102.062V66.3332H107.528V88.1999H112.995V66.3332H118.462V88.1999H123.928V60.8666H96.595ZM80.195 82.7332V66.3332H85.6617V82.7332H80.195Z" fill="#9FA0A0"/>
</svg>
