<svg width="14" height="11" viewBox="0 0 14 11" fill="none" xmlns="http://www.w3.org/2000/svg">
<path fill-rule="evenodd" clip-rule="evenodd" d="M1.02083 0C0.750091 0 0.490439 0.115893 0.298995 0.322183C0.107552 0.528473 0 0.808262 0 1.1L0 9.9C0 10.5072 0.457333 11 1.02083 11H12.9792C13.2499 11 13.5096 10.8841 13.701 10.6778C13.8924 10.4715 14 10.1917 14 9.9V1.1C14 0.808262 13.8924 0.528473 13.701 0.322183C13.5096 0.115893 13.2499 0 12.9792 0H1.02083ZM0.875 1.1C0.875 1.05832 0.890365 1.01835 0.917714 0.988883C0.945063 0.959413 0.982156 0.942857 1.02083 0.942857H12.9792C13.0178 0.942857 13.0549 0.959413 13.0823 0.988883C13.1096 1.01835 13.125 1.05832 13.125 1.1V1.63554L7.08167 6.03554C7.05755 6.05311 7.02911 6.06249 7 6.06249C6.97089 6.06249 6.94245 6.05311 6.91833 6.03554L0.875 1.63554V1.1ZM0.875 2.77326V9.9C0.875 9.98674 0.940333 10.0571 1.02083 10.0571H12.9792C13.0178 10.0571 13.0549 10.0406 13.0823 10.0111C13.1096 9.98165 13.125 9.94168 13.125 9.9V2.77326L7.57167 6.81686C7.22633 7.06829 6.77367 7.06829 6.42833 6.81686L0.875 2.77326Z" fill="#9FA0A0"/>
</svg>
