<svg width="16" height="16" viewBox="0 0 16 16" fill="none" xmlns="http://www.w3.org/2000/svg">
<path fill-rule="evenodd" clip-rule="evenodd" d="M7.77654 12.4206L3.82231 14.5869C3.50659 14.751 3.11764 14.6348 2.94359 14.3245C2.89323 14.2284 2.86606 14.1218 2.86426 14.0133V4.41449C2.86426 2.58383 4.11521 1.85156 5.91536 1.85156H10.1442C11.8894 1.85156 13.1953 2.53501 13.1953 4.29245V14.0133C13.1953 14.1864 13.1265 14.3525 13.0041 14.475C12.8816 14.5974 12.7155 14.6662 12.5424 14.6662C12.4319 14.6645 12.3233 14.6373 12.2251 14.5869L8.24641 12.4206C8.0998 12.3414 7.92315 12.3414 7.77654 12.4206Z" stroke="#9FA0A0" stroke-linecap="round" stroke-linejoin="round"/>
<path d="M5.58008 6.21484H10.4434" stroke="#9FA0A0" stroke-linecap="round" stroke-linejoin="round"/>
</svg>
