<svg width="20" height="20" viewBox="0 0 20 20" fill="none" xmlns="http://www.w3.org/2000/svg">
<path d="M17.5 13.3355V6.66522C17.4997 6.4469 17.4423 6.23246 17.3334 6.04324C17.2245 5.85402 17.0679 5.69662 16.8793 5.58671L10.9418 2.13124C10.6557 1.96469 10.3306 1.87695 9.99961 1.87695C9.66859 1.87695 9.34349 1.96469 9.05742 2.13124L3.1207 5.58671C2.93207 5.69662 2.77551 5.85402 2.66661 6.04324C2.55771 6.23246 2.50027 6.4469 2.5 6.66522V13.3355C2.50013 13.554 2.55751 13.7686 2.66641 13.958C2.77532 14.1473 2.93195 14.3049 3.1207 14.4148L9.0582 17.8703C9.34435 18.0366 9.66942 18.1242 10.0004 18.1242C10.3314 18.1242 10.6564 18.0366 10.9426 17.8703L16.8801 14.4148C17.0687 14.3048 17.2252 14.1472 17.3339 13.9578C17.4427 13.7685 17.4999 13.5539 17.5 13.3355Z" stroke="#9FA0A0" stroke-linecap="round" stroke-linejoin="round"/>
<path d="M2.69531 6.01562L10 10.3125L17.3047 6.01562" stroke="#9FA0A0" stroke-linecap="round" stroke-linejoin="round"/>
<path d="M10 18.125V10.3125" stroke="#9FA0A0" stroke-linecap="round" stroke-linejoin="round"/>
</svg>
