<svg width="15" height="15" viewBox="0 0 15 15" fill="none" xmlns="http://www.w3.org/2000/svg">
<g clip-path="url(#clip0_11955_56092)">
<path d="M4.84375 4.0625C4.63655 4.0625 4.43784 4.14481 4.29132 4.29132C4.14481 4.43784 4.0625 4.63655 4.0625 4.84375C4.0625 5.05095 4.14481 5.24966 4.29132 5.39618C4.43784 5.54269 4.63655 5.625 4.84375 5.625C5.05095 5.625 5.24966 5.54269 5.39618 5.39618C5.54269 5.24966 5.625 5.05095 5.625 4.84375C5.625 4.63655 5.54269 4.43784 5.39618 4.29132C5.24966 4.14481 5.05095 4.0625 4.84375 4.0625Z" fill="#FDFDFD"/>
<path fill-rule="evenodd" clip-rule="evenodd" d="M1.5625 0.625C1.31386 0.625 1.0754 0.723772 0.899587 0.899587C0.723772 1.0754 0.625 1.31386 0.625 1.5625V6.8375C0.625 7.08562 0.72375 7.32438 0.9 7.5L7.30625 13.9062C7.48203 14.0818 7.72031 14.1804 7.96875 14.1804C8.21719 14.1804 8.45547 14.0818 8.63125 13.9062L13.9062 8.63125C14.0818 8.45547 14.1804 8.21719 14.1804 7.96875C14.1804 7.72031 14.0818 7.48203 13.9062 7.30625L7.5 0.9C7.32435 0.724134 7.08606 0.625219 6.8375 0.625H1.5625ZM1.5625 1.5625H6.8375L13.2438 7.96875L7.96875 13.2438L1.5625 6.8375V1.5625Z" fill="#FDFDFD"/>
</g>
<defs>
<clipPath id="clip0_11955_56092">
<rect width="15" height="15" fill="white"/>
</clipPath>
</defs>
</svg>
