<svg width="15" height="16" viewBox="0 0 15 16" fill="none" xmlns="http://www.w3.org/2000/svg">
<path d="M4.84375 4.5625C4.63655 4.5625 4.43784 4.64481 4.29132 4.79132C4.14481 4.93784 4.0625 5.13655 4.0625 5.34375C4.0625 5.55095 4.14481 5.74966 4.29132 5.89618C4.43784 6.04269 4.63655 6.125 4.84375 6.125C5.05095 6.125 5.24966 6.04269 5.39618 5.89618C5.54269 5.74966 5.625 5.55095 5.625 5.34375C5.625 5.13655 5.54269 4.93784 5.39618 4.79132C5.24966 4.64481 5.05095 4.5625 4.84375 4.5625Z" fill="#9FA0A0"/>
<path fill-rule="evenodd" clip-rule="evenodd" d="M1.5625 1.125C1.31386 1.125 1.0754 1.22377 0.899587 1.39959C0.723772 1.5754 0.625 1.81386 0.625 2.0625V7.3375C0.625 7.58562 0.72375 7.82438 0.9 8L7.30625 14.4062C7.48203 14.5818 7.72031 14.6804 7.96875 14.6804C8.21719 14.6804 8.45547 14.5818 8.63125 14.4062L13.9062 9.13125C14.0818 8.95547 14.1804 8.71719 14.1804 8.46875C14.1804 8.22031 14.0818 7.98203 13.9062 7.80625L7.5 1.4C7.32435 1.22413 7.08606 1.12522 6.8375 1.125H1.5625ZM1.5625 2.0625H6.8375L13.2438 8.46875L7.96875 13.7438L1.5625 7.3375V2.0625Z" fill="#9FA0A0"/>
</svg>
