<svg width="27" height="27" viewBox="0 0 27 27" fill="none" xmlns="http://www.w3.org/2000/svg">
<path d="M20.2492 0L13.4983 6.75185L20.2492 13.5037L27 6.75185L20.2492 0Z" fill="#9FA0A0"/>
<path d="M27 6.74805V13.4999L20.2492 20.2518V13.4999L27 6.74805Z" fill="#6A6B6C"/>
<path d="M6.75112 0L0.000275612 6.75185L6.75112 13.5037L13.502 6.75185L6.75112 0Z" fill="#9FA0A0"/>
<path d="M0.000132561 6.74805V13.4999L6.75098 20.2518V13.4999L0.000132561 6.74805Z" fill="#6A6B6C"/>
<path d="M13.5021 6.74805L6.75126 13.4999L13.5021 20.2518L20.2529 13.4999L13.5021 6.74805Z" fill="#6A6B6C"/>
<path d="M13.5021 20.248V26.9998L20.2529 20.248V13.4961L13.5021 20.248Z" fill="#404141"/>
<path d="M13.498 20.248L6.74721 13.4961V20.248L13.498 26.9998V20.248Z" fill="#404141"/>
</svg>
