<svg width="48" height="20" viewBox="0 0 48 20" fill="none" xmlns="http://www.w3.org/2000/svg">
<mask id="mask0_11955_53042" style="mask-type:luminance" maskUnits="userSpaceOnUse" x="0" y="0" width="48" height="20">
<path d="M48 0H0V20H48V0Z" fill="white"/>
</mask>
<g mask="url(#mask0_11955_53042)">
<path d="M16.8426 5.65926C17.1097 8.8037 17.3768 11.9481 17.64 15.0926C17.64 15.2852 17.6091 15.6148 17.4349 15.9778C17.2994 16.2519 17.1291 16.4482 17.0013 16.5704C16.471 16.8889 15.6465 17.0185 15.151 16.5407C14.2723 15.6963 14.4542 11.9296 14.3226 10.5815C14.1639 8.96667 13.8852 7.34074 13.6839 5.72963L10.7458 5.91852C10.8387 7.74445 11.2026 9.55555 11.3768 11.3741C11.5781 13.4889 11.0594 17.663 13.5058 18.6852C14.4891 19.0963 17.4968 19.1037 17.4852 17.6185L17.6904 18.6074L20.6362 18.4074L19.7962 5.32222L16.8426 5.65186V5.65926ZM4.591 6.56667C3.87874 6.88889 3.82068 7.28149 3.59229 7.70371L2.95745 2.74815L0.360035 2.97407L0.00390625 3.44815C0.867132 8.92592 1.4981 14.4519 1.48649 20C4.42842 19.4259 9.47616 20.6074 10.2813 16.8815C10.5716 15.5296 10.2194 10.4778 9.81294 9.08889C9.17036 6.88148 6.94842 5.51112 4.59487 6.57038L4.591 6.56667ZM7.36649 16.3222C7.13036 17.6556 5.69036 17.9926 4.42842 17.8222L4.02197 9.6037C4.43616 7.76296 6.43358 8.00371 6.90971 9.63704C7.21165 10.6704 7.54842 15.2963 7.36649 16.3222ZM23.5665 2.92963L23.3652 1.17408L20.4271 1.35926L20.6633 3.12222C21.6387 3.2037 22.622 3.16667 23.5704 2.92963H23.5665ZM48 6.11853C48.0271 3.25927 46.0375 3.24074 43.5833 3.73704L44.0052 3.14445C43.2155 3.17779 42.3562 3.00001 41.6207 3.34075C41.4891 3.40001 41.5007 3.73704 41.3575 3.74074C40.8349 3.75556 39.5652 3.02963 39.3716 4.03703C39.2439 4.7037 39.6736 5.42963 39.5884 6.11111L41.6904 5.91481L42.1123 16.6222L45.2826 16.0926L44.4271 5.31482C45.8516 5.21482 46.862 5.27038 48.0039 6.10741L48 6.11853ZM34.742 0.174075L35.3729 3.93704C32.0826 3.97037 29.6013 4.30001 29.6749 8.00371C29.7058 9.42964 29.9962 13.8963 30.3794 15.0852C30.6929 16.0519 31.5252 17.1111 32.6207 17.337C33.5149 17.5222 35.911 17.3852 36.0039 16.2333L36.5613 17.0333L39.3794 16.7037C39.0233 11.1185 38.8258 5.49259 37.6529 0L34.7342 0.170367H34.7381L34.742 0.174075ZM35.7987 14.7482C35.0091 15.7852 33.6736 15.4407 33.3213 14.2963C33.2826 12.3037 32.5897 9.53334 32.7097 7.63334C32.822 5.90001 33.9987 5.77408 35.5781 5.92223C35.6362 8.75186 36.7239 12.0556 35.7949 14.7482H35.7987ZM20.8491 5.12963C21.5497 9.45185 21.8594 13.837 21.8981 18.2148L24.8555 17.8852L24.0078 4.92963L20.8491 5.12963ZM24.6387 0.962965C25.32 6.62593 26.1252 12.2926 26.1136 18.0148L29.0594 17.8185C29.1407 12.0963 28.4052 6.41111 27.5846 0.762962L24.6349 0.962965H24.6387Z" fill="#9FA0A0"/>
</g>
</svg>
