<svg width="63" height="31" viewBox="0 0 63 31" fill="none" xmlns="http://www.w3.org/2000/svg">
<path d="M12.2705 30.8476C12.2705 30.7636 13.3846 28.9458 14.7468 26.8075C15.6497 25.5834 16.3678 24.2332 16.8799 22.8042C16.4153 22.7937 15.9559 22.8778 15.5282 23.0512C13.807 23.6448 13.4585 23.4977 12.1755 21.5486C10.7869 19.4524 10.7394 19.2317 11.4627 18.4384C11.9379 17.9183 11.9115 17.7975 11.1301 17.0252C10.7605 16.7099 10.4754 16.3159 10.28 15.8694C7.677 14.4509 4.92616 13.3213 2.07501 12.5122C1.35166 12.2968 0.65471 11.9974 0 11.6191C1.77933 11.5035 3.56923 11.493 5.34856 11.5771L10.6971 11.6822L11.2198 10.8626C13.4268 7.40039 16.7637 4.2692 18.2474 4.2692C18.7596 4.36376 19.24 4.58441 19.6413 4.92065C20.3858 5.50381 20.4861 5.86631 20.6181 8.37758C20.6181 9.3968 20.7448 10.416 20.9877 11.409C21.1091 11.5298 21.4998 11.3722 21.8536 11.0517C22.0648 10.8573 22.3235 10.7155 22.6033 10.6524C22.8832 10.5894 23.1788 10.5999 23.4534 10.684C23.7068 10.7838 23.9814 10.7995 24.2401 10.7312C24.4988 10.6629 24.7364 10.5158 24.9054 10.3057C26.0986 8.62976 27.1916 6.88553 28.1789 5.08351C28.538 4.37952 28.9392 3.69654 29.3828 3.03982L31.0723 0.355184C31.5528 -0.406602 31.6267 -0.317286 34.5043 4.47934C37.4769 9.43358 39.0714 11.2619 39.8687 10.6157C41.2679 10.1586 42.7726 10.1481 44.1771 10.5789C44.6417 10.8258 44.9374 10.8206 45.1961 10.5789C45.5076 10.3267 45.8983 10.2006 46.2996 10.2321C46.7009 10.2584 47.0705 10.4423 47.3398 10.7365C47.6038 11.2041 47.6724 11.2041 48.0578 10.7365C48.4961 10.3845 49.0505 10.2006 49.6154 10.2216C50.4919 10.2216 50.8245 10.4055 51.1149 11.036L51.4845 11.8503L57.2396 11.6454C59.1562 11.5245 61.0781 11.5088 63 11.5981C61.2946 12.3862 59.5522 13.0849 57.7782 13.6891C54.9059 14.7503 52.5088 15.654 52.4507 15.6907C52.4718 16.3895 52.5669 17.083 52.7411 17.7554C53.2849 19.279 53.2216 20.9549 52.5669 22.4365C51.9122 23.918 50.7136 25.0948 49.2141 25.7305C48.797 25.8251 48.4116 26.0037 48.0737 26.2664C48.5225 27.1123 49.0188 27.9266 49.5573 28.7146C50.3757 29.9703 50.9195 31 50.7717 31C50.5288 31 44.5678 28.7094 35.2963 25.0528C34.0924 24.5432 32.8569 24.1019 31.6003 23.7394C31.2149 23.7394 27.8885 24.995 18.1365 28.8197C12.4817 31.0368 12.26 31.1156 12.26 30.8529L12.2705 30.8476ZM23.8758 25.615C26.8854 24.4486 29.8685 23.3138 30.5074 23.0879C31.6056 22.6992 31.9699 22.799 37.3079 24.8952C40.4072 26.1141 43.4643 27.3014 44.1084 27.5326C44.7473 27.7637 46.062 28.2681 47.0335 28.6516C48.137 29.0982 48.702 29.198 48.5489 28.9353C46.817 26.0248 46.7642 25.9722 45.5604 26.1929C44.1137 26.4661 43.2109 26.1929 42.7515 25.326C42.4506 24.7691 42.5403 24.4959 43.2901 23.7184C44.4041 22.5626 44.2299 21.5013 42.7938 20.6975C42.139 20.2772 41.6058 19.694 41.252 19.0058L40.7082 17.871L39.5466 18.6591C38.8708 19.1319 38.0735 19.3946 37.2498 19.4209C36.4262 19.4471 35.6131 19.2265 34.9108 18.7957L33.839 18.1442L32.5929 18.99C31.991 19.4051 31.2888 19.652 30.5602 19.7098C29.8315 19.7676 29.0976 19.6257 28.4429 19.3105C28.0417 19.1319 27.8621 19.2055 27.8621 19.5364C27.8621 19.7991 27.482 20.1879 27.0173 20.398C26.4366 20.7185 25.766 20.8499 25.106 20.7658C24.446 20.687 23.8283 20.398 23.3425 19.9462L22.503 19.1004L21.8272 19.9567C21.2675 20.5872 20.6234 21.1388 19.9053 21.5959C18.5589 22.7202 17.4449 24.0966 16.6317 25.6517C15.5071 27.4433 14.6043 29.0089 14.6043 29.1297C15.2748 29.0614 15.919 28.8565 16.5103 28.536C17.561 28.0895 20.8821 26.7865 23.8864 25.6255H23.8705L23.8758 25.615ZM49.4042 24.3646C51.6904 23.0879 52.2184 20.7238 51.2047 16.3054C50.3599 12.6173 49.9375 11.4142 49.4412 11.2514C49.0927 11.141 49.0452 11.2514 49.2352 11.7242C50.5024 14.7135 50.5711 16.2003 49.4623 16.6311C48.702 16.9201 47.8994 15.8378 47.2658 13.6733C46.7748 11.9974 46.2627 11.2409 45.8772 11.6244C45.7875 11.7137 45.9459 12.2496 46.2363 12.8065C46.685 14.0148 46.9807 15.2704 47.1233 16.5523C47.2394 17.7502 47.5246 18.9218 47.9681 20.0408C48.665 21.1336 49.7685 20.8709 50.4813 19.4419C51.1994 18.0181 51.268 18.969 50.5816 20.6082C49.8688 22.3104 47.7463 22.82 45.2911 21.8796C44.8952 21.7272 44.7632 21.8796 44.7632 22.4943C44.6998 23.0984 44.4675 23.6764 44.0873 24.1597L43.4115 25.0055L44.3302 25.1579C46.062 25.4101 47.8308 25.1316 49.4042 24.3646ZM16.5314 21.5486C21.2992 20.1826 22.1545 18.596 20.5653 14.0148C20.2538 13.1952 20.0267 12.3389 19.8895 11.472C19.8895 10.332 19.3139 10.8573 18.881 12.3914C18.3108 14.4193 16.5948 16.1425 15.1534 16.1373C13.902 16.1373 13.4902 15.9114 12.9728 14.9237C12.0435 13.169 13.0572 10.4738 15.6391 7.8312C17.5293 5.89259 18.5642 5.71921 18.5642 7.33209C18.5642 9.84861 16.8165 13.5577 15.8978 12.9956C15.449 12.7224 15.523 11.4983 16.0457 10.5579C16.4945 9.7593 16.3994 8.54045 15.8978 8.54045C15.317 8.54045 14.1607 10.6524 14.0076 12.0026C13.8703 13.1952 13.9601 13.4842 14.5251 13.7941C16.5209 14.8554 19.145 11.6086 19.277 7.89949C19.3456 5.95037 18.9655 5.40399 17.7616 5.70345C16.0034 6.15002 11.2726 12.218 11.2726 14.0306C11.2198 14.6505 11.3941 15.2652 11.7531 15.7695C12.1174 16.2739 12.6454 16.6364 13.2526 16.7887C14.3772 17.0304 15.5546 16.8833 16.5895 16.379C17.6244 15.8694 18.4533 15.0288 18.9443 13.9885L19.5621 13.0008V14.3458C19.5621 16.2949 18.2844 17.3194 14.2558 18.6013C13.2526 18.9218 12.392 19.2212 12.3392 19.2632C12.8038 20.3297 13.4902 21.2807 14.3455 22.0687C15.0847 21.9321 15.8081 21.7535 16.5261 21.5328L16.5314 21.5486ZM45.2542 19.1266C45.7347 18.6013 45.8191 18.0286 45.703 16.006C45.5921 13.8047 45.4759 13.4211 44.61 12.528C43.0577 10.9151 41.1359 11.3249 42.2605 13.0324C42.8571 13.9412 43.5857 13.7836 43.327 12.8065C43.1211 12.0289 43.5065 12.0026 44.1718 12.7592C45.4231 14.1777 45.1064 16.1425 43.628 16.1425C42.6142 16.1425 42.3027 15.7117 41.6427 13.4211C41.516 12.7382 41.2415 12.0867 40.8296 11.5245C40.7293 11.5088 40.629 11.5246 40.5392 11.5666C40.4495 11.6139 40.3755 11.6822 40.3333 11.7715C40.2858 11.8608 40.2752 11.9606 40.2911 12.0604C40.3069 12.1602 40.3544 12.2496 40.4283 12.3179C40.8719 13.3423 41.2151 14.4036 41.4579 15.4963C42.4506 19.3788 43.8339 20.708 45.2595 19.1424V19.1266H45.2542ZM26.3943 19.1897C26.6002 19.0531 26.69 18.4069 26.6055 17.7187C26.4682 16.5996 26.3943 16.5208 25.7871 16.8465C24.9159 17.3089 23.9867 16.4315 23.6646 14.8501C23.4217 13.6523 23.3478 13.6733 25.106 14.3931C25.3331 14.4824 25.8822 14.1672 26.3521 13.7206C27.2021 12.8747 27.4767 11.8608 26.8642 11.8608C26.7745 11.8608 26.6953 11.8976 26.6319 11.9553C26.5686 12.0184 26.5369 12.1025 26.5369 12.1865C26.5369 12.6593 25.6393 12.5963 25.4228 12.1025C25.3014 11.8135 25.0479 11.9186 24.5991 12.4334C24.351 12.7644 24.0131 13.0219 23.6224 13.1742C23.4428 13.1742 23.2052 12.838 23.0891 12.4334C22.8885 11.7189 22.862 11.7137 22.4133 12.3073C22.012 12.8275 22.0067 12.9956 22.3921 13.3738C23.0521 14.682 23.4481 16.111 23.5643 17.5716C23.596 17.892 23.7016 18.1967 23.8758 18.4647C24.05 18.7326 24.2876 18.9585 24.5675 19.1161C24.8473 19.2738 25.1588 19.3631 25.4809 19.3788C25.803 19.3893 26.125 19.3263 26.4154 19.1897H26.3996H26.3943ZM32.4451 17.4665C33.0523 16.8623 33.4694 16.09 33.6331 15.2494C33.802 14.4088 33.7123 13.542 33.3797 12.7487C33.3005 12.4702 33.1632 12.2128 32.9784 11.9921C32.7936 11.7715 32.5665 11.5876 32.3078 11.4562C32.0491 11.3249 31.7693 11.2461 31.4789 11.2251C31.1885 11.2041 30.8981 11.2408 30.6288 11.3354C29.6626 11.5771 28.1948 14.3773 28.1895 15.9797C28.1895 18.4804 30.576 19.321 32.4451 17.4612V17.4665ZM30.18 15.5016C29.7893 15.0708 29.557 14.5139 29.5253 13.936C29.5253 13.1112 29.5728 13.0796 29.9741 13.605C30.4704 14.2565 31.3469 14.3668 31.6848 13.8309C31.7376 13.7101 31.7534 13.5735 31.727 13.4421C31.7006 13.3108 31.632 13.1952 31.537 13.1007C31.0142 12.5805 31.0882 11.8765 31.6478 11.8765C32.2761 11.8765 33.1579 13.1532 33.1579 14.0726C33.0101 14.5559 32.7513 14.9972 32.3976 15.365C32.0438 15.7275 31.6109 16.006 31.1304 16.1688C30.7608 16.0322 30.4282 15.8011 30.1695 15.5016H30.18ZM39.0344 17.3982C39.6944 16.6259 40.0323 15.6277 39.9743 14.6137C39.9162 13.5998 39.4674 12.6488 38.7177 11.9553C38.2794 11.5351 37.7092 11.2776 37.102 11.2303C36.4948 11.1778 35.8929 11.3407 35.3913 11.6822C34.5624 12.9588 34.1716 14.4771 34.2931 15.9954C34.4145 16.4788 34.6574 16.9201 35.0059 17.2826C35.3491 17.6398 35.7873 17.9078 36.2625 18.0496C36.743 18.1915 37.2498 18.2073 37.7356 18.0917C38.2213 17.9761 38.6701 17.7397 39.0344 17.3982ZM36.2308 14.9762C35.9615 14.7818 35.7503 14.5192 35.6236 14.2144C35.4969 13.9097 35.4599 13.5735 35.518 13.2478C35.5339 12.2391 35.5867 12.1497 35.8243 12.7276C36.1674 13.5735 36.8908 13.894 37.5191 13.4789C37.9098 13.2215 37.894 13.1007 37.4082 12.7329C36.7588 12.2391 36.6321 11.5351 37.1812 11.5351C38.1949 12.0972 38.9975 12.9693 39.4674 14.0253C39.4674 14.5559 38.2002 15.4963 37.4769 15.4963C37.0281 15.428 36.6004 15.2494 36.2308 14.9815V14.9762ZM55.719 13.5157L59.1985 12.2128L55.4656 12.197C52.1286 12.1865 51.7327 12.2443 51.7379 12.7592C51.7802 13.4632 51.928 14.1566 52.1867 14.8134C52.2131 14.8134 53.7971 14.2197 55.7137 13.5104L55.719 13.5157ZM10.2166 13.295L10.5704 12.2443L7.42357 12.134C6.38342 12.0342 5.33272 12.0657 4.29785 12.2338C6.07719 13.0849 7.9146 13.8047 9.80481 14.3721C9.83649 14.351 10.0054 13.8677 10.2008 13.2898H10.2114L10.2166 13.295ZM31.6531 10.0378C32.3078 10.1271 32.9361 10.353 33.4958 10.7102C33.9288 11.099 34.1188 11.0727 34.7841 10.5263C35.1379 10.2111 35.5655 9.99572 36.0302 9.89065C36.2836 9.89065 36.479 9.8171 36.479 9.72779C34.9689 6.95383 33.3163 4.25868 31.5264 1.65285C29.6203 4.48459 27.8674 7.4109 26.2676 10.4265C26.2042 10.6787 26.4049 10.768 26.785 10.6682C26.9751 10.6314 27.1757 10.6472 27.3605 10.705C27.5453 10.768 27.709 10.8731 27.841 11.0202C28.2212 11.4773 28.3796 11.4457 29.2877 10.684C29.5781 10.3635 29.9583 10.1376 30.3754 10.022C30.7925 9.90641 31.236 9.91691 31.6478 10.043V10.0325L31.6531 10.0378Z" fill="#404141"/>
<path d="M28.1255 11.2679C28.0305 11.2048 27.9407 11.1313 27.8668 11.042C27.7348 10.8844 27.5606 10.7635 27.3705 10.6952C27.1752 10.6269 26.9692 10.6112 26.7633 10.648C26.6524 10.6847 26.5363 10.69 26.4254 10.6742C26.2776 10.6427 26.2248 10.5586 26.267 10.4063C26.6313 9.62348 27.0432 8.86695 27.5025 8.13143C29.1023 5.36799 31.2513 1.87953 31.4889 1.66938C31.5065 1.65187 31.5241 1.65187 31.5416 1.66938C31.6842 1.79547 32.5132 3.07213 33.6483 4.90041C35.1848 7.38016 36.4625 9.56044 36.4625 9.70229C36.4625 9.7916 36.3253 9.84414 36.0454 9.86515C35.5491 9.95972 35.095 10.1961 34.7254 10.5376C34.567 10.669 34.3981 10.7845 34.2186 10.8791C34.1499 10.9211 34.0707 10.9369 33.9915 10.9317C33.9123 10.9422 33.8331 10.9264 33.7645 10.8844C33.6853 10.8371 33.6114 10.7846 33.5375 10.7268C33.2576 10.5114 32.9461 10.3537 32.6082 10.2592C32.0749 10.0753 31.5152 9.97023 30.945 9.94922C30.6335 9.91769 30.322 9.98074 30.0474 10.1226C29.7042 10.3065 29.3927 10.5324 29.1129 10.7951C28.5321 11.2679 28.3315 11.3625 28.1203 11.2679H28.1255Z" fill="#9FA0A0"/>
<path d="M9.56697 14.3145C7.80348 13.7314 6.07694 13.0484 4.39265 12.2814C4.32401 12.2393 4.31873 12.2341 4.33457 12.2183C5.18464 12.0975 6.04526 12.066 6.90061 12.1237C7.41804 12.1395 10.5438 12.2393 10.549 12.2446C10.549 12.2446 9.87321 14.2147 9.82569 14.325C9.80457 14.3828 9.75705 14.3828 9.56697 14.3145Z" fill="#9FA0A0"/>
<path d="M52.1548 14.7813C51.9383 14.1404 51.8063 13.4731 51.7588 12.8007C51.7588 12.622 51.7799 12.5537 51.8591 12.4802C52.0439 12.3121 52.4082 12.2543 53.4325 12.2228C53.9447 12.207 56.3154 12.207 57.9891 12.2228H59.1612L56.3365 13.2735C53.7599 14.2349 52.2657 14.7918 52.2076 14.8023C52.1917 14.8023 52.1812 14.8023 52.1653 14.7708H52.1495L52.1548 14.7813Z" fill="#9FA0A0"/>
<path d="M14.6416 29.0992C14.9901 28.3794 15.3861 27.6859 15.8296 27.0187C16.8169 24.954 18.2161 23.11 19.9426 21.6022C20.7716 21.061 21.5055 20.3886 22.1232 19.6163L22.5087 19.1434L23.0156 19.6373C23.3007 19.9945 23.665 20.2782 24.0768 20.4726C24.4887 20.667 24.9427 20.7616 25.4021 20.7563C26.5848 20.7563 27.8784 20.1049 27.8784 19.4954C27.8784 19.3588 27.9787 19.217 28.0737 19.217C28.248 19.2538 28.4169 19.3063 28.5806 19.3693C29.0611 19.5585 29.5627 19.6688 30.0801 19.7003C30.5447 19.7318 31.0094 19.6793 31.4529 19.5375C32.0284 19.3483 32.5722 19.0646 33.0527 18.6916C33.4751 18.4132 33.8341 18.182 33.8499 18.182C33.8658 18.182 34.172 18.3554 34.5258 18.5708C34.832 18.7599 35.1488 18.9333 35.4762 19.0856C36.0306 19.3221 36.6272 19.4376 37.2291 19.4219C37.831 19.4061 38.4224 19.259 38.9609 18.9963C39.3199 18.8019 39.6737 18.5918 40.0116 18.3606C40.3918 18.1085 40.7033 17.9141 40.7086 17.9141C40.7138 17.9141 40.8564 18.2135 41.0254 18.5603C41.1679 18.8597 41.3263 19.1487 41.4953 19.4324C41.8701 19.9893 42.3612 20.4569 42.942 20.7983C43.2112 20.9349 43.4436 21.1293 43.6284 21.3657C43.8079 21.6074 43.9346 21.8806 43.9927 22.1748C44.0296 22.6634 43.8184 23.0942 43.2007 23.7772C42.7202 24.3078 42.5988 24.518 42.5988 24.8122C42.6305 25.1747 42.8047 25.5109 43.0792 25.7526C43.4119 26.0153 43.8079 26.1939 44.225 26.2727C44.6421 26.3515 45.0751 26.3252 45.4816 26.1992C45.7192 26.1571 45.9568 26.1361 46.1944 26.1256C46.6432 26.1256 46.9019 26.3515 47.4141 27.0975C47.7678 27.6229 48.5387 28.9101 48.5387 28.9731C48.5387 29.0361 48.5017 29.0309 48.4489 29.0309C48.1374 28.9784 47.8312 28.8943 47.5355 28.784C47.0867 28.6264 41.6589 26.5459 39.8691 25.8366C35.0802 23.9611 33.5068 23.3726 32.7359 23.131C32.1445 22.8946 31.5004 22.8263 30.8774 22.9314C30.3071 23.0785 22.4928 26.0836 17.9363 27.9066C16.97 28.3322 15.988 28.7052 14.9848 29.0256C14.6469 29.1149 14.6627 29.115 14.6627 29.0572V29.0782L14.6416 29.0992Z" fill="#9FA0A0"/>
</svg>
