<svg width="45" height="32" viewBox="0 0 45 32" fill="none" xmlns="http://www.w3.org/2000/svg">
<mask id="mask0_11955_52676" style="mask-type:luminance" maskUnits="userSpaceOnUse" x="2" y="1" width="41" height="30">
<path d="M43 1.42188H2V30.5774H43V1.42188Z" fill="white"/>
</mask>
<g mask="url(#mask0_11955_52676)">
<path d="M6.18444 11.6864C6.07505 11.3272 5.27102 10.2605 5.87814 10.1027C5.97659 10.1135 6.05317 10.2387 6.10786 10.3149C6.54543 11.0224 6.34306 12.4702 7.30023 12.7913C7.57918 12.8838 7.83625 12.7532 8.1152 12.7423C8.41056 12.7314 8.74967 12.7913 9.02862 12.8729C9.67403 13.0525 10.4671 13.3899 11.1235 13.0906C11.2219 13.0471 11.1727 12.813 11.1672 12.6987C10.9703 10.5217 12.8245 9.04137 12.9722 6.88613C12.9941 6.67387 12.9175 6.47794 12.6604 6.5487C11.6431 6.84259 10.9047 7.82224 9.75608 7.64808C9.57558 7.60998 9.48807 7.47936 9.4826 7.29432C9.52635 6.08064 9.52088 4.85063 9.31304 3.66416C9.18724 3.00017 9.05597 2.07494 8.60746 1.54157L8.56371 1.50348C7.74874 0.91569 6.77515 3.53354 6.45792 4.01248C6.05317 4.76899 5.56091 5.55271 5.40229 6.40719C5.35853 6.54325 5.27649 6.61944 5.13975 6.63577C4.37948 6.70108 3.55904 6.52148 2.7933 6.71741C2.62374 6.77184 1.9291 6.96777 2.00021 7.15282C2.34479 7.48481 4.13881 10.1027 4.40682 10.5653C4.39588 10.7503 4.11147 10.7721 3.90362 10.8918C2.81517 11.4252 4.01848 12.6171 4.78422 12.8185C5.70311 13.1994 6.5509 12.7314 6.17897 11.681L6.18444 11.6864ZM4.81704 17.5752C5.06317 18.0106 5.6703 18.9304 6.23913 18.8706C6.78062 17.5263 5.73593 14.9955 7.08692 14.1138C7.09786 14.1029 7.12521 14.0757 7.14162 14.0594C6.60013 13.9396 5.91096 13.9886 5.33665 13.9723C5.17804 13.9886 4.94284 13.9342 4.81704 14.0104C4.85533 15.0934 4.57091 16.5085 4.80063 17.5371L4.81157 17.5752H4.81704ZM4.82798 20.6394C5.22726 20.6829 5.6156 20.2965 5.97112 20.1931L6.01488 20.1659C6.34306 19.8992 6.23913 19.491 5.90549 19.2515C5.57731 18.9903 5.13428 18.7508 4.8061 18.6202C4.82798 18.8488 4.75688 20.2693 4.82798 20.6448V20.6394ZM10.0405 21.3578L10.0296 21.287C9.93657 20.9278 9.65762 20.3237 9.40055 20.0897C8.93017 20.0516 8.23553 20.6122 8.10973 21.0639C8.10426 21.1346 8.12067 21.2108 8.15349 21.2816C8.77702 22.3265 9.25834 23.3334 8.57465 24.46C8.47072 24.6124 8.31211 24.6995 8.13161 24.7158C6.59466 24.7866 6.16803 23.4477 6.23366 22.0435C6.22819 21.7932 6.02035 21.8258 5.88361 21.9782C5.56638 22.3483 5.75781 22.9416 5.70312 23.3824C5.70312 23.5348 5.55544 23.8668 5.39682 23.7525C5.364 23.5293 5.39682 21.9238 5.38588 21.5864C5.39682 21.5102 5.4187 21.4884 5.52262 21.4884C5.6703 21.4503 6.15162 21.5592 6.2446 21.4013C6.25007 21.3034 6.36493 20.5795 6.09145 20.6285C5.68671 20.6503 5.19444 20.9877 4.92096 21.2761C4.82798 21.3741 4.83345 21.4231 4.83345 21.5211C4.83345 22.4626 4.8061 25.6193 4.81157 25.8424C5.90002 25.9023 8.58559 25.8424 9.70138 25.8642C9.88735 25.8533 10.0077 25.8968 10.0296 25.8261C9.95298 24.3947 10.2155 22.7728 10.046 21.3578H10.0405ZM42.9674 16.2146C43.1205 15.5833 42.6884 15.5996 42.136 15.3111C41.7914 15.1588 41.4414 14.9846 41.2609 14.9138C40.9327 14.8268 40.8507 15.2241 40.6483 15.4527C40.4787 15.703 40.331 15.8282 40.1506 15.5887C39.9208 15.2458 39.6692 14.8921 39.3137 14.6635C38.909 14.4567 38.5808 13.9287 38.4167 13.4933C38.3948 13.3301 38.7285 13.3845 38.8378 13.3899C39.6419 13.4933 38.7011 14.2226 39.8497 14.3043C40.1888 14.3097 40.7631 14.3696 40.9983 14.1845C41.1132 14.0703 40.9983 13.9179 40.9108 13.809C40.61 13.4825 40.8616 13.2865 41.1788 13.1178C41.4851 12.9491 41.9336 12.6389 41.7258 12.296C41.4797 12.0783 40.6209 12.4375 40.4459 12.0402C40.0959 10.3367 38.2089 13.3355 37.7166 13.7437C37.5033 13.9668 37.4212 13.9233 37.0766 13.9342C36.0046 13.9723 34.577 13.9124 33.6472 14.0049C33.4777 14.2825 31.6125 20.9169 31.2515 21.4666C29.9388 20.3128 29.3755 16.2092 28.5003 14.2716C28.3691 13.9668 28.38 13.9614 27.9807 13.9777C26.0828 13.9777 20.5147 13.9668 19.9787 13.9832C19.8912 14.0539 19.8584 14.2226 19.8201 14.3587C19.2458 16.4377 18.1574 18.4624 17.594 20.5251C17.5502 20.7264 17.5174 20.9333 17.2822 20.9442C17.1783 20.9333 17.0197 20.9659 16.9595 20.8571C16.7626 20.3237 15.346 16.3289 14.7607 14.6907C14.6349 14.4131 14.5912 14.0648 14.4654 13.9668C14.1974 13.9505 9.70138 13.9668 8.32852 13.9668C8.26835 13.9723 8.30664 14.0376 8.43244 14.1682C8.48713 14.2226 8.55277 14.288 8.62934 14.3533C10.4452 16.035 11.7032 14.5111 13.7598 14.5655C14.0388 14.6199 14.0059 14.7832 13.7817 14.8431C13.0597 14.9465 12.3322 15.2186 11.6157 15.4037C10.9102 15.5833 10.1827 15.6758 9.49354 15.5234C9.24194 15.4526 9.13254 15.654 9.13801 15.888C9.09973 16.9004 7.94017 17.0745 7.91283 18.1249C7.90736 18.8107 8.43244 18.2664 8.80984 18.1086C8.8536 18.1032 8.89735 18.0705 8.93017 18.1086C8.84266 18.4351 8.4926 18.6256 8.241 18.7835C8.01128 18.9141 7.88001 19.11 7.80344 19.3658C7.73233 19.5944 7.67216 19.7414 7.76515 19.7033C8.2957 19.4202 9.3568 18.9304 9.81624 18.6148C9.96939 18.0324 9.9858 16.9167 10.0897 16.2745C10.128 15.8826 10.1171 16.0296 10.2155 16.2037C11.3696 18.4732 14.7334 25.5104 15.0014 25.8696H19.4536C19.574 25.6084 23.1128 18.6583 24.1083 16.7208C24.1192 16.7153 27.9698 24.8791 28.3472 25.6682C28.0135 27.203 26.3125 27.5786 24.8904 27.3445C24.5568 27.301 23.5066 27.116 23.5066 27.116L23.7199 30.3869C24.9834 30.5556 26.575 30.6155 27.8659 30.5774C29.3809 30.5121 30.9288 30.2345 31.9243 29.1351C34.2325 26.2179 35.1842 22 36.7102 18.6202C37.1313 17.7167 38.6136 19.0991 38.5863 19.6652C38.4276 19.8502 37.7986 19.4801 37.6127 19.5237C36.9344 19.6216 36.9126 19.8937 36.5899 20.6067C36.3601 21.1238 36.0702 21.7714 35.8405 22.283C35.753 22.4844 35.6874 22.6041 35.6983 22.6477C35.8733 22.7511 36.4531 22.7075 36.7758 22.7511C37.2134 22.7946 37.6017 22.7565 37.9791 22.849C38.5151 23.3008 38.1542 24.7321 38.9527 25.1621C39.3082 25.3471 39.5161 25.309 39.6255 24.8192C39.7841 24.3675 40.0466 23.5838 40.2052 23.1429C40.2709 22.9524 40.3146 22.8 40.528 22.7456C41.0913 22.566 42.0923 22.8273 42.5572 22.2939C42.7978 21.9347 42.5189 21.8313 42.2181 21.4612C41.7805 21.0258 41.1351 20.1278 40.6975 19.8339H40.6538C40.2599 19.8175 39.6638 20.0461 39.2481 19.9318C39.0676 19.8339 39.1277 19.442 39.0183 19.1427C38.9801 18.9685 38.8707 18.6855 39.1223 18.6256C39.527 18.5603 40.0904 18.5549 40.4569 18.6909C40.8835 18.7617 42.3712 20.4979 42.4259 19.393C42.497 18.5984 41.9883 17.7331 42.1743 17.2378C42.3767 16.8949 42.8361 16.6446 42.9455 16.2255H42.9619L42.9674 16.2146ZM39.7677 15.9915C39.3411 15.9751 38.7722 15.9915 38.5972 16.4595C38.6191 16.6228 38.7503 16.7915 38.7667 16.9602C38.8816 17.412 38.6792 17.8637 38.5698 18.2936L38.5589 18.3209C38.5589 18.3209 37.7439 18.1195 37.4759 18.0487C37.3447 18.0215 37.4048 18.027 37.4103 17.9453C37.4267 17.8855 37.454 17.7875 37.4869 17.6678C37.733 16.8623 38.0119 15.654 38.2909 14.8703C38.8925 14.8322 39.434 15.3547 39.8278 15.7683C39.9974 15.9643 40.0904 16.0132 39.7732 15.9969L39.7677 15.9915Z" fill="#9FA0A0"/>
</g>
</svg>
