<svg width="39" height="22" viewBox="0 0 39 22" fill="none" xmlns="http://www.w3.org/2000/svg">
<path d="M2.09946 16.3066L0 18.2338C0 18.2338 1.03244 19.5369 2.40079 20.3208C3.76914 21.1046 4.52495 21.0447 6.06126 21.0248C7.53829 21.0248 9.04496 20.7452 10.2552 19.6617C11.4655 18.5783 11.6928 18.2787 11.6878 16.9157C11.6878 16.2766 11.5149 14.8586 10.7492 13.945C9.8798 12.9114 8.40277 12.4072 8.40277 12.4072C8.40277 12.4072 3.87782 11.2588 4.34217 9.67111C4.53977 9.00207 5.58209 8.75243 6.60959 8.93716C7.90878 9.16683 9.2228 9.96069 9.2228 9.96069L11.0604 8.1433C11.0604 8.1433 10.2256 7.14973 8.9264 6.50566C7.96312 6.03134 6.63923 5.8516 5.78957 5.8516C3.79385 5.84162 1.29425 7.64902 0.997859 9.51633C0.780503 10.8794 1.21521 12.0327 2.20813 12.9064C3.45793 14.0099 4.34712 14.1547 4.34712 14.1547C4.34712 14.1547 8.33361 15.1932 8.33361 16.4464C8.33361 17.6995 7.3654 18.1639 5.81921 18.1838C4.27302 18.2038 2.10934 16.3165 2.10934 16.3165L2.09946 16.3066Z" fill="#C3C3C3"/>
<path d="M30.8243 6.51581L30.854 9.4366H32.5039L32.5187 18.0891C32.5187 18.0891 32.8052 19.0827 33.5512 19.8217C34.5144 20.7753 35.5172 21.0199 35.5172 21.0199H38.7529L38.7677 18.0392L37.0239 18.0242C37.0239 18.0242 36.6435 18.0392 36.2138 17.6248C35.7692 17.1904 35.784 16.6312 35.784 16.6312L35.8136 9.42162H38.9851L38.9999 6.50083L35.8285 6.48585L35.7988 0.833984H32.499L32.5286 6.51581H30.8145H30.8243Z" fill="#C3C3C3"/>
<path d="M24.1856 7.21461C22.1997 6.77025 20.1793 6.99493 18.89 7.75883L20.5745 0.8338L17.2154 0L12.4385 19.4969L15.768 20.4705L16.2274 18.5633C17.2055 20.4356 18.3219 21.3393 20.4559 21.8286C24.4227 22.7373 27.9597 19.9413 28.918 15.6225C29.738 11.9178 27.2384 7.90362 24.1856 7.21961V7.21461ZM25.1538 18.0141L20.372 19.3471L16.8053 15.6924L18.0206 10.7046L22.8024 9.37151L26.369 13.0262L25.1538 18.0141Z" fill="#C3C3C3"/>
</svg>
