<svg width="16" height="16" viewBox="0 0 16 16" fill="none" xmlns="http://www.w3.org/2000/svg">
<path d="M9.01651 2.4H9.68421C11.7771 2.4 13.4737 4.01178 13.4737 6V6.42836C14.902 6.62245 16 7.78941 16 9.2C16 10.7464 14.6804 12 13.0526 12C11.4248 12 10.1053 10.7464 10.1053 9.2C10.1053 7.78941 11.2032 6.62245 12.6316 6.42836V6C12.6316 4.4536 11.312 3.2 9.68421 3.2H9.01651L9.98194 4.11716C10.1464 4.27337 10.1464 4.52663 9.98194 4.68284C9.81751 4.83905 9.55091 4.83905 9.38648 4.68284L7.70227 3.08284C7.53784 2.92663 7.53784 2.67337 7.70227 2.51716L9.38648 0.917157C9.55091 0.760948 9.81751 0.760948 9.98194 0.917157C10.1464 1.07337 10.1464 1.32663 9.98194 1.48284L9.01651 2.4ZM2.52632 10.4284V5.57164C1.09798 5.37755 0 4.21059 0 2.8C0 1.2536 1.31958 0 2.94737 0C4.57516 0 5.89474 1.2536 5.89474 2.8C5.89474 4.21059 4.79676 5.37755 3.36842 5.57164V10.4284C4.79676 10.6224 5.89474 11.7894 5.89474 13.2C5.89474 14.7464 4.57516 16 2.94737 16C1.31958 16 0 14.7464 0 13.2C0 11.7894 1.09798 10.6224 2.52632 10.4284ZM0.842105 13.2C0.842105 14.3046 1.78466 15.2 2.94737 15.2C4.11007 15.2 5.05263 14.3046 5.05263 13.2C5.05263 12.0954 4.11007 11.2 2.94737 11.2C1.78466 11.2 0.842105 12.0954 0.842105 13.2ZM0.842105 2.8C0.842105 3.90457 1.78466 4.8 2.94737 4.8C4.11007 4.8 5.05263 3.90457 5.05263 2.8C5.05263 1.69543 4.11007 0.8 2.94737 0.8C1.78466 0.8 0.842105 1.69543 0.842105 2.8ZM13.0526 11.2C14.2153 11.2 15.1579 10.3046 15.1579 9.2C15.1579 8.09543 14.2153 7.2 13.0526 7.2C11.8899 7.2 10.9474 8.09543 10.9474 9.2C10.9474 10.3046 11.8899 11.2 13.0526 11.2Z" fill="#FDFDFD"/>
</svg>
