<svg width="22" height="22" viewBox="0 0 22 22" fill="none" xmlns="http://www.w3.org/2000/svg">
<path d="M21.0832 3.66645V9.16645M21.0832 9.16645H15.5832M21.0832 9.16645L16.8298 5.16978C15.8447 4.18411 14.6258 3.46406 13.2871 3.07683C11.9484 2.6896 10.5334 2.64781 9.1741 2.95535C7.81485 3.2629 6.55565 3.90977 5.51402 4.83558C4.47238 5.7614 3.68224 6.936 3.21734 8.24978M0.916504 18.3331V12.8331M0.916504 12.8331H6.4165M0.916504 12.8331L5.16984 16.8298C6.15502 17.8155 7.37385 18.5355 8.71258 18.9227C10.0513 19.31 11.4663 19.3518 12.8256 19.0442C14.1848 18.7367 15.444 18.0898 16.4857 17.164C17.5273 16.2382 18.3174 15.0636 18.7823 13.7498" stroke="#9FA0A0" stroke-linecap="round" stroke-linejoin="round"/>
</svg>
