<svg width="18" height="17" viewBox="0 0 18 17" fill="none" xmlns="http://www.w3.org/2000/svg">
<path d="M16.6359 1.36253C16.4625 1.19035 16.2449 1.06931 16.0073 1.0127C15.7696 0.956109 15.5208 0.966137 15.2884 1.0417L1.87757 5.51503C1.62885 5.59384 1.40907 5.74459 1.24598 5.94824C1.08289 6.15189 0.983803 6.3993 0.961243 6.65923C0.938684 6.91916 0.993657 7.17992 1.11922 7.40863C1.2448 7.63733 1.43532 7.82369 1.66674 7.94423L7.2309 10.6942L9.9809 16.2767C10.0915 16.4952 10.2606 16.6787 10.4694 16.8066C10.6782 16.9344 10.9186 17.0017 11.1634 17.0009H11.2551C11.5173 16.9816 11.7677 16.8838 11.9736 16.7203C12.1796 16.5569 12.3317 16.3352 12.4101 16.0842L16.9476 2.71003C17.0286 2.47897 17.0424 2.22964 16.9872 1.99108C16.932 1.75253 16.8102 1.53455 16.6359 1.36253ZM2.4459 6.78003L14.1517 2.87503L7.65257 9.37423L2.4459 6.78003ZM11.2276 15.5526L8.62424 10.3459L15.1234 3.8467L11.2276 15.5526Z" fill="#9FA0A0"/>
</svg>
