<svg width="18" height="18" viewBox="0 0 18 18" fill="none" xmlns="http://www.w3.org/2000/svg">
<path fill-rule="evenodd" clip-rule="evenodd" d="M7.22171 1L7.12343 1.49942L6.74744 3.32685C6.1463 3.55656 5.60114 3.8823 5.10857 4.26858L3.27086 3.65372L2.77715 3.50057L2.52115 3.94172L1.256 6.05826L1 6.49946L1.37486 6.82744L2.79658 8.03771C2.74515 8.35428 2.67887 8.6674 2.67887 8.99997C2.67887 9.33254 2.74515 9.64573 2.79658 9.96229L1.37486 11.1726L1 11.5006L1.256 11.9416L2.52115 14.0583L2.77715 14.5005L3.27086 14.3463L5.10857 13.7315C5.60114 14.1177 6.1463 14.4434 6.74744 14.6731L7.12343 16.5005L7.22171 17H10.7772L10.8766 16.5005L11.2514 14.6731C11.8526 14.4434 12.3977 14.1177 12.8903 13.7315L14.728 14.3463L15.2217 14.5005L15.4789 14.0583L16.7429 11.9416L17 11.5006L16.624 11.1726L15.2023 9.96229C15.2549 9.64573 15.32 9.33254 15.32 8.99997C15.32 8.6674 15.2549 8.35428 15.2023 8.03771L16.624 6.82744L17 6.49946L16.7429 6.05826L15.4789 3.94172L15.2217 3.50057L14.728 3.65372L12.8903 4.26858C12.3977 3.8823 11.8526 3.55656 11.2514 3.32685L10.8766 1.49942L10.7772 1H7.22171Z" stroke="#FDFDFD" stroke-linecap="square" stroke-linejoin="round"/>
<path fill-rule="evenodd" clip-rule="evenodd" d="M11.2863 8.99855C11.2863 10.2603 10.2623 11.2843 9.00056 11.2843C7.73884 11.2843 6.71484 10.2603 6.71484 8.99855C6.71484 7.73684 7.73884 6.71289 9.00056 6.71289C10.2623 6.71289 11.2863 7.73684 11.2863 8.99855Z" stroke="#FDFDFD" stroke-linecap="square" stroke-linejoin="round"/>
</svg>
