<svg width="69" height="70" viewBox="0 0 69 70" fill="none" xmlns="http://www.w3.org/2000/svg">
<path d="M32.3975 48.8194C33.1971 48.9641 34.0223 49.0406 34.8305 49.0406C35.5876 49.0406 36.3277 48.9811 37.0253 48.845C37.1869 48.8194 37.2975 48.6578 37.2635 48.4962C37.2294 48.326 37.0763 48.224 36.9147 48.258C35.545 48.5132 33.9798 48.5047 32.5081 48.224C32.3379 48.1984 32.1848 48.3005 32.1593 48.4622C32.1253 48.6323 32.2358 48.7854 32.3975 48.8194ZM34.4732 0.5C15.4772 0.5 0.02005 15.9571 0.02005 34.9531C0.02005 47.8326 7.11484 59.5382 18.5227 65.4845C18.6843 65.5781 18.8544 65.6632 19.0161 65.7483L19.1181 65.7993C23.9161 68.1983 29.0883 69.4062 34.4732 69.4062C39.8581 69.4062 45.0303 68.1983 49.8027 65.8078C50.0069 65.7142 50.194 65.6207 50.3982 65.5101C61.8315 59.5467 68.9348 47.8411 68.9348 34.9531C68.9263 15.9571 53.4692 0.5 34.4732 0.5ZM34.4732 68.5556C29.2839 68.5556 24.3074 67.3986 19.6796 65.1187C20.9897 64.0469 22.5124 63.1962 24.2138 62.6773C24.7157 62.5326 25.2261 62.405 25.728 62.3115C26.4937 62.1668 27.3103 62.0903 28.1355 62.0903H31.5893L34.3626 65.1698C34.3626 65.1698 34.3881 65.1953 34.4136 65.2123C34.4647 65.2549 34.5157 65.2719 34.5838 65.2719H34.5923C34.6773 65.2634 34.7539 65.2293 34.822 65.1528L37.357 62.0903H40.7938C41.6275 62.0903 42.4357 62.1668 43.2098 62.3115C43.5756 62.3795 43.9414 62.4561 44.3242 62.5667C46.1702 63.0686 47.8291 63.9618 49.2412 65.1273C44.6305 67.3986 39.6624 68.5556 34.4732 68.5556ZM21.432 36.3738C21.3725 36.3227 21.3044 36.2887 21.2194 36.2887C20.9727 36.2887 20.726 36.3227 20.4963 36.3738C20.3687 36.4078 20.2496 36.4418 20.1305 36.4844C20.0709 36.5014 20.0199 36.5184 19.9688 36.5439C19.9008 36.5694 19.8327 36.6035 19.7647 36.629C19.6881 36.6715 19.6115 36.7141 19.535 36.7566V30.9208C19.535 24.4641 23.6438 18.7729 29.7603 16.7398L30.007 16.6632H30.024C32.8654 15.77 36.0385 15.7615 38.9138 16.6547C39.1265 16.7227 39.3391 16.7908 39.5518 16.8674C45.4471 19.0026 49.4029 24.6512 49.4029 30.9208V36.7566C49.4029 36.7566 49.3858 36.7481 49.3688 36.7396C49.2753 36.6885 49.1817 36.629 49.0796 36.5865C48.9945 36.5439 48.901 36.5099 48.8159 36.4844C48.7648 36.4674 48.7138 36.4418 48.6713 36.4333L48.5522 36.3993C48.4756 36.3823 48.399 36.3653 48.331 36.3483C48.2289 36.3227 48.1268 36.3142 48.0247 36.3057V32.4436C47.9567 29.3811 46.1787 26.8545 43.3799 25.8507C41.6956 25.2382 40.1388 25.57 38.5735 25.9868C38.5565 25.9868 38.5395 26.0038 38.514 26.0123C36.2766 27.1948 35.6301 28.4623 34.9581 29.8064C34.1924 31.3462 33.3077 33.0901 29.6923 35.2083C29.6753 35.2168 29.6667 35.2253 29.6582 35.2253C28.9607 35.6337 28.2971 35.991 27.6081 36.3227C24.6477 37.7689 22.7421 39.6745 21.9424 41.9884C21.8999 42.1415 21.8489 42.2861 21.8148 42.4307C21.7808 42.5328 21.7553 42.6434 21.7383 42.7455C21.7128 42.8135 21.6957 42.8901 21.6872 42.9667C21.6617 43.0687 21.6447 43.1708 21.6277 43.2729C21.6107 43.375 21.5937 43.4856 21.5852 43.5962C21.5426 43.1623 21.5171 42.7285 21.5171 42.2946V36.5865C21.5171 36.5099 21.4916 36.4333 21.432 36.3738ZM20.9216 36.9097V42.737C19.586 42.5839 18.5312 41.4354 18.5312 40.0403V39.5979C18.5312 39.4108 18.5482 39.2321 18.5907 39.0535C18.6928 38.526 18.948 38.0497 19.3308 37.6668C19.3648 37.6413 19.3989 37.6073 19.4329 37.5733C19.8412 37.2075 20.3602 36.9778 20.9216 36.9097ZM28.9862 13.1668C28.9862 10.0023 31.5553 7.43316 34.7114 7.43316C37.8674 7.43316 40.428 10.0023 40.428 13.1668C40.428 14.2472 40.1218 15.3021 39.5348 16.2293C39.3902 16.1698 39.2456 16.1273 39.0924 16.0762C37.6037 15.6168 36.047 15.3786 34.4732 15.3786C32.8994 15.3786 31.3426 15.6168 29.8709 16.0677C29.8624 16.0762 29.8539 16.0762 29.8454 16.0847H29.8029C29.2669 15.2085 28.9862 14.2047 28.9862 13.1668ZM49.5049 37.5818C49.5049 37.5818 49.5645 37.6328 49.6155 37.6839C49.9813 38.0497 50.2365 38.5175 50.3556 39.045C50.3897 39.2321 50.4067 39.4108 50.4067 39.5979V40.0403C50.4067 41.4354 49.3603 42.5839 48.0247 42.737V36.9097C48.0843 36.9097 48.1438 36.9267 48.2119 36.9352C48.2885 36.9523 48.3565 36.9693 48.4331 36.9863C48.5607 37.0288 48.6968 37.0714 48.8159 37.1309C48.8669 37.1564 48.918 37.1734 48.969 37.199C49.0371 37.2415 49.1136 37.2755 49.1817 37.3266C49.2412 37.3606 49.2923 37.4031 49.3433 37.4457C49.4029 37.4882 49.4539 37.5307 49.5049 37.5818ZM22.5124 42.184C23.261 40.0233 25.056 38.2368 27.8718 36.8587C28.5268 36.5354 29.1733 36.1951 29.8454 35.8123C30.0326 35.8804 30.2027 35.9569 30.3558 36.059C30.4069 36.0845 30.4579 36.1016 30.5089 36.1016C30.611 36.1016 30.7131 36.042 30.7641 35.9484C30.8492 35.8038 30.7982 35.6252 30.6536 35.5401C30.594 35.5061 30.5345 35.472 30.4664 35.4465C33.8437 33.3538 34.7199 31.6184 35.494 30.0701C36.149 28.7686 36.719 27.6457 38.7607 26.5568C40.2239 26.1654 41.6615 25.8677 43.1758 26.4122C45.7619 27.3479 47.3527 29.5852 47.4207 32.401C47.4207 32.4181 47.4207 32.4266 47.4207 32.4436V42.2946C47.4207 48.3941 43.0992 53.7109 37.1529 54.97C35.4174 55.3358 33.5204 55.3358 31.7935 54.97C28.1355 54.1958 24.9879 51.8819 23.1589 48.6068C23.1589 48.5898 23.1504 48.5812 23.1419 48.5727C23.1164 48.5387 23.0824 48.4622 23.0313 48.3686C22.674 47.62 21.5511 44.9828 22.5124 42.184ZM36.9147 55.625V61.699L34.5753 64.5062L32.0317 61.6734V55.625C32.0997 55.642 32.1593 55.6505 32.2188 55.659C32.2954 55.676 32.372 55.6845 32.44 55.6931C32.6442 55.7271 32.8484 55.7526 33.0525 55.7696C33.9883 55.8717 34.9496 55.8717 35.8938 55.7696C36.098 55.7441 36.3022 55.7271 36.5148 55.6931C36.5659 55.6845 36.6254 55.676 36.685 55.659C36.7615 55.6505 36.8381 55.642 36.9147 55.625ZM49.9983 64.7615C49.9473 64.787 49.8878 64.8125 49.8367 64.8465C48.314 63.5365 46.5105 62.5411 44.4858 61.9882C44.0775 61.8861 43.6947 61.801 43.3204 61.733C42.5122 61.5799 41.6615 61.5033 40.7938 61.5033H37.5102V55.5059C43.2694 54.1873 47.5143 49.2023 47.9822 43.3495C49.6666 43.2134 51.0107 41.7842 51.0107 40.0488V39.6064C51.0107 39.3767 50.9852 39.1556 50.9426 38.9344C50.8065 38.2793 50.4832 37.7094 50.0154 37.25L49.9983 37.233V30.9293C49.9983 24.5321 46.0341 18.7644 40.1048 16.442C40.7088 15.4552 41.032 14.3323 41.032 13.1753C41.032 9.67899 38.1907 6.84618 34.7114 6.84618C31.232 6.84618 28.3907 9.67899 28.3907 13.1753C28.3907 14.2727 28.6799 15.3446 29.2159 16.3059C23.0569 18.5092 18.931 24.345 18.931 30.9293V37.2245L18.897 37.267C18.4461 37.7179 18.1313 38.2964 17.9952 38.9429C17.9612 39.1556 17.9357 39.3767 17.9357 39.6064V40.0488C17.9357 41.7842 19.2713 43.2134 20.9641 43.3495C21.1088 45.1785 21.6107 46.9649 22.4699 48.5812C22.4784 48.5983 22.4869 48.6238 22.4954 48.6408C22.5039 48.6493 22.5039 48.6578 22.5039 48.6663C22.5294 48.7089 22.5464 48.7514 22.572 48.7854C22.589 48.8194 22.606 48.845 22.623 48.8705C22.623 48.8875 22.6315 48.8875 22.6315 48.896C22.64 48.9045 22.6485 48.93 22.657 48.9385C24.5286 52.2818 27.7102 54.6552 31.4277 55.5059V61.5033H28.1355C27.2678 61.5033 26.4256 61.5799 25.6174 61.733C25.09 61.8266 24.5626 61.9542 24.0352 62.1158C22.1721 62.6858 20.5133 63.63 19.0926 64.838C19.0416 64.8125 18.9905 64.787 18.931 64.7529C7.7954 58.9257 0.870744 47.5094 0.870744 34.9531C0.870744 16.425 15.945 1.35069 34.4732 1.35069C53.0013 1.35069 68.0756 16.425 68.0756 34.9531C68.0756 47.5264 61.151 58.9427 49.9983 64.7615ZM27.0211 42.184C26.247 42.184 25.6174 42.6434 25.6174 43.2049C25.6174 43.7663 26.247 44.2172 27.0211 44.2172C27.7952 44.2172 28.4247 43.7578 28.4247 43.2049C28.4247 42.6519 27.8037 42.184 27.0211 42.184ZM38.7096 36.0675C38.7096 36.0675 41.3638 34.9021 43.397 36.059C43.448 36.0845 43.4905 36.1016 43.5501 36.1016C43.6522 36.1016 43.7542 36.042 43.8053 35.9484C43.8904 35.8038 43.8393 35.6167 43.6947 35.5316C41.3893 34.2215 38.582 35.472 38.4629 35.5231C38.3098 35.5911 38.2503 35.7698 38.3098 35.9144C38.3779 36.076 38.5565 36.1441 38.7096 36.0675ZM34.6178 44.013C34.9411 44.013 35.3069 43.945 35.6897 43.7578C35.8428 43.6898 35.9023 43.5111 35.8343 43.358C35.7662 43.2134 35.5876 43.1538 35.4345 43.2134C34.7029 43.5621 34.0733 43.375 33.6735 43.1623C33.5289 43.0858 33.3503 43.1368 33.2652 43.2814C33.1886 43.4345 33.2397 43.6132 33.3928 43.6898C33.699 43.8599 34.1244 44.013 34.6178 44.013ZM38.4714 38.4325C38.3438 38.526 38.3098 38.7132 38.4119 38.8408C38.5055 38.9854 38.6926 39.0109 38.8287 38.9174C38.9138 38.8493 40.9895 37.3861 43.1843 38.9174C43.2353 38.9514 43.2949 38.9684 43.3544 38.9684C43.448 38.9684 43.5416 38.9259 43.6011 38.8408C43.6947 38.7047 43.6607 38.5175 43.5246 38.424C40.9725 36.646 38.497 38.4155 38.4714 38.4325ZM42.0699 42.184C41.2957 42.184 40.6662 42.6434 40.6662 43.2049C40.6662 43.7663 41.2957 44.2172 42.0699 44.2172C42.844 44.2172 43.4735 43.7578 43.4735 43.2049C43.4735 42.6519 42.8525 42.184 42.0699 42.184ZM25.9237 38.9174C26.0088 38.8493 28.0845 37.3946 30.2707 38.9174C30.3303 38.9514 30.3898 38.9684 30.4494 38.9684C30.543 38.9684 30.6365 38.9259 30.6961 38.8408C30.7897 38.7047 30.7556 38.5175 30.611 38.424C28.0674 36.646 25.5919 38.4155 25.5664 38.4325C25.4303 38.526 25.4048 38.7132 25.4983 38.8408C25.5919 38.9854 25.7791 39.0109 25.9237 38.9174Z" fill="#69FFB4"/>
</svg>
