<svg width="69" height="69" viewBox="0 0 69 69" fill="none" xmlns="http://www.w3.org/2000/svg">
<path d="M34.4531 0C15.4571 0 0 15.4571 0 34.4531C0 48.7193 8.575 61.3095 21.8373 66.5158C22.1861 66.6604 22.5349 66.7965 22.8837 66.9156C23.3175 67.0687 23.7514 67.2219 24.1852 67.3495C24.4319 67.426 24.6786 67.5111 24.9168 67.5621C26.899 68.1406 28.9321 68.5319 30.9568 68.7191C31.0418 68.7276 31.1184 68.7361 31.195 68.7446C31.246 68.7701 31.3056 68.7957 31.3651 68.7957C31.4076 68.7957 31.4417 68.7871 31.4757 68.7786C31.5437 68.7786 31.6033 68.7957 31.6714 68.7957C32.5646 68.8722 33.4748 68.9062 34.4531 68.9062C35.4314 68.9062 36.3417 68.8722 37.2349 68.7957C37.303 68.7957 37.371 68.7786 37.4391 68.7786C37.4731 68.7871 37.5071 68.7957 37.5497 68.7957C37.6177 68.7957 37.6688 68.7786 37.7198 68.7446C37.7878 68.7446 37.8644 68.7361 37.9325 68.7191C39.9656 68.5234 42.0073 68.1321 43.9979 67.5536C44.2446 67.4856 44.4913 67.4175 44.7465 67.3325C45.1804 67.1964 45.6057 67.0517 46.0311 66.8986C46.3799 66.7795 46.7201 66.6519 47.0689 66.5073C60.3398 61.2925 68.9148 48.7023 68.9148 34.4361C68.9062 15.4571 53.4491 0 34.4531 0ZM31.0163 67.8769C29.0427 67.6898 27.0691 67.3069 25.138 66.7455C24.8998 66.6859 24.6701 66.6179 24.4319 66.5413C24.2108 66.4733 23.9896 66.3967 23.7684 66.3201C24.9339 66.0224 26.1674 65.8863 27.3413 65.8863H31.0163V67.8854V67.8769ZM37.2009 67.945C37.2009 67.945 37.1753 67.945 37.1668 67.945C35.4144 68.0896 33.4918 68.0896 31.7394 67.945C31.7309 67.945 31.7224 67.945 31.7054 67.945V58.5958C31.799 58.6128 31.884 58.6214 31.9776 58.6384C32.0372 58.6554 32.0967 58.6639 32.1648 58.6724C32.3434 58.6979 32.5391 58.7319 32.7347 58.7405C32.8113 58.7575 32.8793 58.766 32.9559 58.766C33.1431 58.7915 33.3387 58.8 33.5259 58.8085C33.5769 58.817 33.6365 58.8255 33.6875 58.8255C33.9427 58.8425 34.1894 58.8425 34.4361 58.8425H34.4616C34.7253 58.8425 34.9891 58.8425 35.2443 58.8255C35.2698 58.8255 35.2868 58.8255 35.3038 58.8255C35.525 58.817 35.7462 58.8 35.9674 58.7745C36.0354 58.7745 36.1035 58.766 36.18 58.7575C36.3757 58.7404 36.5714 58.7064 36.7585 58.6724C36.8266 58.6724 36.8861 58.6639 36.9371 58.6469C37.0307 58.6299 37.1158 58.6214 37.2009 58.6043V67.9535V67.945ZM37.4646 57.8387C35.508 58.2641 33.4238 58.2641 31.4417 57.8472C26.8819 56.8859 22.637 52.709 20.7569 47.7069C22.9262 50.6418 26.7543 53.0323 29.4595 53.1344C30.2677 53.1599 30.9738 53.0323 31.5182 52.7516C32.9559 52.0285 35.6526 51.7137 38.1792 52.726C38.613 52.8962 39.0809 52.9983 39.5062 53.0238C39.5318 53.0238 39.5913 53.0238 39.6424 53.0238C42.8665 53.1514 46.5755 49.5615 48.4726 46.8307C46.8222 52.2667 42.4156 56.7924 37.4646 57.8302V57.8387ZM26.9585 23.0623C26.9585 23.0623 27.0436 23.0113 27.1712 22.9432C27.6986 22.688 29.1193 22.1861 30.9057 23.0878C33.7896 24.5595 36.6054 23.5812 37.6858 23.0878C37.7964 23.0453 37.9069 22.9858 38.026 22.9347C38.8767 22.5179 39.7615 22.084 41.8116 22.9858C46.2608 25.5889 49.0255 30.3953 49.0255 35.5505V37.0818V37.0988V44.3977C48.5236 46.3118 43.6406 52.3517 39.77 52.3517C39.7189 52.3517 39.6594 52.3432 39.6083 52.3432C39.2 52.3177 38.8087 52.2411 38.4429 52.088C35.7207 50.9906 32.7858 51.3479 31.2205 52.1391C30.7781 52.3602 30.1741 52.4708 29.4425 52.4453C26.1589 52.3177 20.7654 48.2514 19.9062 44.4062V37.1668C19.9062 31.5523 22.9347 25.4953 26.967 23.0623H26.9585ZM19.8977 32.2924V15.1339L24.4319 17.0479C24.5595 17.1075 24.7127 17.0734 24.8148 16.9628L27.5965 13.8918C28.2005 14.147 29.9189 14.8701 31.6288 15.4826C32.7773 15.891 33.679 15.0318 34.351 14.4023C34.5892 14.1641 34.9465 13.8238 35.0826 13.8238C39.234 13.8238 42.4922 15.0658 44.7806 17.5073C47.4773 20.3911 48.9319 25.0615 49.1446 31.4417C48.6087 29.5616 47.724 27.8007 46.5415 26.2609C45.3931 24.7722 43.9639 23.4792 42.305 22.4924C42.271 22.4668 42.2455 22.4413 42.2115 22.4158C42.2115 22.4158 42.1944 22.4073 42.1689 22.3988C42.1519 22.3903 42.1264 22.3733 42.1094 22.3733C42.0924 22.3733 42.0924 22.3648 42.0839 22.3648C39.7444 21.3354 38.6641 21.8543 37.7198 22.3137C37.6092 22.3733 37.5071 22.4158 37.3965 22.4668C36.4182 22.9092 33.8406 23.8109 31.212 22.4753C29.1533 21.429 27.4944 22.016 26.8649 22.3307C26.6863 22.4158 26.5842 22.4839 26.5842 22.4839C23.5472 24.3214 21.0462 28.124 19.8977 32.2924ZM44.4828 66.5328C44.2446 66.6094 44.0064 66.6774 43.7597 66.7455C41.8457 67.3069 39.872 67.6813 37.8899 67.8769V65.8778H41.5819C42.1179 65.8778 42.6453 65.9033 43.1727 65.9628C43.6491 66.0139 44.1255 66.0649 44.5934 66.1755C44.7806 66.2181 44.9677 66.2606 45.1549 66.3031C44.9337 66.3797 44.704 66.4562 44.4828 66.5328ZM46.7542 65.7332C46.584 65.8012 46.4224 65.8608 46.2523 65.9203C45.6738 65.7417 45.0953 65.58 44.4913 65.4694C44.4743 65.4609 44.4488 65.4609 44.4233 65.4524C44.4062 65.4524 44.3807 65.4354 44.3467 65.4354C43.4535 65.2738 42.5177 65.1887 41.5819 65.1887H37.8899V58.4512C43.6236 57.1071 48.6087 51.3139 49.6465 44.7806C51.5691 44.6189 53.0748 43.0111 53.0748 41.0715V40.5526C53.0748 40.3229 53.0493 40.0677 52.9898 39.804C52.8366 39.0894 52.4878 38.4344 51.9774 37.924C51.3734 37.3115 50.5823 36.9372 49.7231 36.8436C50.3186 27.4859 48.8214 20.825 45.274 17.0309C42.858 14.4533 39.4297 13.1347 35.0826 13.1347C34.6743 13.1347 34.3 13.492 33.8747 13.9003C33.2792 14.4618 32.6071 15.1083 31.8585 14.8361C29.7743 14.0875 27.6646 13.1687 27.6476 13.1602C27.5115 13.1092 27.3583 13.1432 27.2563 13.2453L24.466 16.3248L19.6851 14.2917C19.583 14.2491 19.4554 14.2661 19.3618 14.3257C19.2682 14.3852 19.2087 14.4958 19.2087 14.6064V36.8436C18.341 36.9286 17.5413 37.3115 16.9373 37.924C16.4184 38.4344 16.0696 39.0894 15.925 39.804C15.8654 40.0507 15.8484 40.3059 15.8484 40.5526V41.0715C15.8484 43.0026 17.3457 44.6189 19.2512 44.7806C20.3316 51.3054 25.3252 57.0986 31.0163 58.4512V65.1887H27.3413C26.397 65.1887 25.4698 65.2738 24.5595 65.4354C24.534 65.4354 24.517 65.4439 24.5 65.4524C24.4745 65.4609 24.449 65.4609 24.4319 65.4694C23.8279 65.58 23.241 65.7417 22.6625 65.9203C22.5009 65.8608 22.3307 65.8012 22.1691 65.7332C9.21302 60.646 0.850694 48.3705 0.850694 34.4531C0.850694 15.925 15.925 0.850694 34.4531 0.850694C52.9813 0.850694 68.0556 15.925 68.0556 34.4531C68.0556 48.362 59.6932 60.6375 46.7542 65.7332ZM49.7061 44.083V43.8788C49.7061 43.7852 49.7061 43.6832 49.7061 43.5896V37.5411C50.3866 37.6262 50.9991 37.924 51.484 38.4174C51.9009 38.8257 52.1816 39.3531 52.3092 39.9401C52.3517 40.1613 52.3773 40.3654 52.3773 40.5526V41.0715C52.3773 42.6113 51.2033 43.9043 49.6976 44.083H49.7061ZM19.2087 37.5411V44.083C17.703 43.9043 16.5375 42.6113 16.5375 41.0715V40.5526C16.5375 40.3569 16.5545 40.1358 16.597 39.9401C16.7161 39.3531 17.0054 38.8257 17.4222 38.4089C17.8986 37.924 18.5196 37.6262 19.2087 37.5411ZM24.9934 34.9891C27.6391 33.8832 29.8253 35.8398 29.9189 35.9248C29.987 35.9844 30.0635 36.0099 30.1486 36.0099C30.2422 36.0099 30.3358 35.9759 30.4038 35.8993C30.5314 35.7632 30.5229 35.542 30.3868 35.4144C30.2762 35.3208 27.7837 33.0665 24.7297 34.351C24.551 34.4276 24.466 34.6233 24.5425 34.8019C24.6191 34.972 24.8148 35.0571 24.9934 34.9891ZM24.5425 39.0894C24.6191 39.0894 24.6872 39.0639 24.7467 39.0214C24.7552 39.0128 25.2061 38.6981 25.9036 38.4769C25.742 38.7491 25.6484 39.0809 25.6484 39.4212C25.6484 40.4505 26.4821 41.2842 27.5115 41.2842C28.5408 41.2842 29.3745 40.4505 29.3745 39.4212C29.3745 39.2 29.3319 38.9788 29.2554 38.7747C29.383 38.8512 29.5191 38.9363 29.6467 39.0299C29.7062 39.0639 29.7743 39.0894 29.8339 39.0894C29.9444 39.0894 30.055 39.0299 30.1231 38.9448C30.2337 38.7832 30.1997 38.5705 30.038 38.4599C29.3915 38.009 28.6939 37.7283 27.9623 37.6262H27.9283C27.7837 37.5837 27.6476 37.5582 27.5115 37.5582C27.4604 37.5582 27.4009 37.5667 27.3839 37.5667H27.2563C25.6059 37.5667 24.3979 38.4259 24.3469 38.4599C24.1938 38.579 24.1597 38.7917 24.2703 38.9448C24.3384 39.0384 24.4405 39.0894 24.5425 39.0894ZM27.3498 38.2557H27.4264C27.4774 38.2557 27.537 38.2642 27.5965 38.2642C27.6561 38.2642 27.7156 38.2727 27.7837 38.2812C27.7837 38.2812 27.7894 38.2841 27.8007 38.2898L27.8262 38.2983C28.3281 38.4429 28.6769 38.8937 28.6769 39.4212C28.6769 40.0677 28.1495 40.6036 27.503 40.6036C26.8564 40.6036 26.3205 40.0677 26.3205 39.4212C26.3205 38.8172 26.7799 38.3153 27.3413 38.2557H27.3498ZM31.8075 48.4045C32.7602 48.9745 33.6875 49.2637 34.5722 49.2637C35.4569 49.2637 36.3161 48.966 37.1328 48.3875C37.2859 48.2769 37.32 48.0557 37.2094 47.9026C37.0988 47.7495 36.8776 47.7155 36.7245 47.826C35.3378 48.8299 33.8406 48.8214 32.1648 47.809C32.0031 47.7155 31.7905 47.7665 31.6884 47.9281C31.5948 48.0898 31.6458 48.3024 31.8075 48.4045ZM34.4616 44.9762C34.921 44.9762 35.3804 44.7976 35.8227 44.4318C35.9674 44.3042 35.9844 44.0915 35.8653 43.9469C35.7462 43.8023 35.525 43.7767 35.3804 43.9043C34.5807 44.5679 33.9427 44.2446 33.5599 43.8533C33.4238 43.7172 33.2111 43.7172 33.075 43.8533C32.9389 43.9809 32.9389 44.2021 33.075 44.3382C33.5003 44.7635 33.9767 44.9762 34.4701 44.9762H34.4616ZM39.0724 36.0099C39.1575 36.0099 39.2425 35.9844 39.3021 35.9248C39.3957 35.8398 41.5905 33.8832 44.2276 34.9891C44.4062 35.0571 44.6104 34.972 44.6785 34.8019C44.755 34.6233 44.67 34.4276 44.4998 34.351C41.4373 33.0665 38.9448 35.3208 38.8427 35.4144C38.6981 35.542 38.6896 35.7632 38.8172 35.8993C38.8852 35.9759 38.9788 36.0099 39.0724 36.0099ZM41.7436 37.5667H41.6755C41.5394 37.5582 41.4033 37.5582 41.3012 37.5837C41.2757 37.5837 41.2587 37.5922 41.2417 37.5922H41.1821L41.1481 37.6007C41.1396 37.6007 41.1226 37.6092 41.1226 37.6092H41.1141C41.1141 37.6092 41.1056 37.6092 41.097 37.6092C39.7955 37.7964 38.9108 38.4259 38.8682 38.4514C38.7236 38.5705 38.6896 38.7832 38.7917 38.9363C38.8682 39.0299 38.9703 39.0809 39.0809 39.0809C39.149 39.0809 39.217 39.0554 39.2766 39.0128C39.2766 39.0128 39.4807 38.8682 39.838 38.6981C39.7444 38.9193 39.6934 39.166 39.6934 39.4127C39.6934 40.442 40.5356 41.2757 41.5564 41.2757C42.5773 41.2757 43.4194 40.442 43.4194 39.4127C43.4194 39.0894 43.3259 38.7661 43.1642 38.4939C43.513 38.6215 43.8448 38.8002 44.1681 39.0214C44.2276 39.0554 44.2957 39.0809 44.3637 39.0809C44.4743 39.0809 44.5764 39.0214 44.6444 38.9363C44.755 38.7747 44.7125 38.562 44.5594 38.4514C43.6917 37.8474 42.7474 37.5497 41.7436 37.5582V37.5667ZM41.5564 40.6036C40.9099 40.6036 40.3825 40.0677 40.3825 39.4212C40.3825 38.8852 40.7398 38.4174 41.1991 38.2983H41.2161C41.2161 38.2983 41.2502 38.2812 41.2672 38.2812C41.2842 38.2812 41.2927 38.2812 41.3012 38.2727C41.4203 38.2727 41.5564 38.2557 41.6755 38.2557H41.6925C41.6925 38.2557 41.7351 38.2642 41.7606 38.2727C41.8031 38.2727 41.8542 38.2812 41.9052 38.3068C42.3816 38.4514 42.7304 38.8937 42.7304 39.4212C42.7304 40.0677 42.2029 40.6036 41.5564 40.6036Z" fill="#69FFB4"/>
</svg>
