<svg width="69" height="69" viewBox="0 0 69 69" fill="none" xmlns="http://www.w3.org/2000/svg">
<path d="M39.3865 34.249C39.3865 34.249 39.4375 34.249 39.4716 34.2319C40.2287 34.0023 42.6276 33.3983 43.708 33.5939C43.8782 33.6194 44.0483 33.5174 44.0823 33.3387C44.1079 33.1686 43.9973 32.9984 43.8271 32.9729C42.3724 32.7007 39.3184 33.6194 39.2844 33.6194C39.1228 33.6705 39.0292 33.8491 39.0802 34.0193C39.1143 34.1554 39.2419 34.249 39.3865 34.249ZM34.4695 0C15.4735 0 0.0163574 15.4571 0.0163574 34.4531C0.0163574 47.154 6.96653 58.7745 18.1447 64.7974L18.2552 64.8569C18.4254 64.9505 18.5955 65.0441 18.7657 65.1207C21.8877 66.72 25.1969 67.8259 28.5827 68.3873C28.9144 68.4554 29.2547 68.5064 29.578 68.549C30.0289 68.617 30.4882 68.6681 30.9561 68.7191C31.2113 68.7446 31.475 68.7701 31.7217 68.7871C32.3087 68.8382 32.9042 68.8722 33.5167 68.8892H34.2228H35.5839C36.341 68.8637 37.0216 68.8127 37.6511 68.7531C37.9233 68.7361 38.187 68.7106 38.4507 68.6766C38.9101 68.6255 39.361 68.566 39.8204 68.4979L40.7221 68.3448C44.0058 67.7408 47.1789 66.6604 50.1648 65.1292C50.369 65.0271 50.5731 64.925 50.7603 64.8144C61.9554 58.7915 68.9141 47.154 68.9141 34.4531C68.9226 15.4571 53.4655 0 34.4695 0ZM19.3356 64.4571C20.5947 63.4703 22.0323 62.6792 23.6316 62.1688L28.2169 67.4601C25.1544 66.8901 22.1769 65.8863 19.3356 64.4571ZM31.3219 67.9024C31.2283 67.8939 31.1348 67.8854 31.0327 67.8769C30.5903 67.8344 30.148 67.7833 29.7056 67.7153C29.544 67.6983 29.3823 67.6642 29.2122 67.6387L24.2952 61.9646C24.661 61.871 25.0183 61.7859 25.3926 61.7179C26.2007 61.5648 27.0429 61.4882 27.8936 61.4882H31.4665L34.1632 64.4741L31.3219 67.9024ZM20.0842 34.7679C19.9992 34.7764 19.9311 34.7934 19.846 34.8189C19.761 34.8444 19.6759 34.87 19.5993 34.8955C19.5313 34.9125 19.4547 34.9465 19.3952 34.972C19.3356 34.9891 19.2846 35.0146 19.2335 35.0401C19.14 35.0826 19.0549 35.1337 18.9698 35.1847V29.1278C18.9698 22.3137 23.3339 16.3759 29.8247 14.3342C29.8247 14.3342 29.836 14.3314 29.8587 14.3257C32.8021 13.4069 36.1028 13.4069 39.0802 14.3257C45.5881 16.3589 49.9606 22.3052 49.9606 29.1278V35.1762C49.9011 35.1422 49.833 35.0997 49.765 35.0741L49.7054 35.0486C49.7054 35.0486 49.6118 34.9976 49.5608 34.9806C49.4757 34.9465 49.3992 34.9125 49.3141 34.887L49.0844 34.8189C49.0079 34.7934 48.9313 34.7764 48.8462 34.7679C48.7441 34.7424 48.6421 34.7253 48.5315 34.7168V30.9398C48.5315 30.9398 48.54 30.9057 48.54 30.8802C48.54 30.8462 48.54 30.8036 48.5315 30.7781V30.7016C48.4634 27.4859 46.6599 24.9253 43.7165 23.862C41.7769 23.1644 40.0415 23.6408 38.204 24.1512C37.2172 24.4234 36.2049 24.7042 35.116 24.7977C35.0309 24.7977 34.9374 24.8148 34.8098 24.8233C34.6992 24.8318 34.5801 24.8318 34.4695 24.8318C34.3334 24.8318 34.2313 24.8318 34.0952 24.8148C34.0016 24.8148 33.908 24.7977 33.7889 24.7892C32.7341 24.7042 31.7643 24.4149 30.837 24.1427C29.1356 23.6408 27.5278 23.1644 25.6052 23.862C22.4917 24.9849 20.399 27.8007 20.399 30.8802V34.7168C20.2884 34.7253 20.1863 34.7424 20.0842 34.7679ZM20.399 35.3549V41.3948C19.0124 41.2247 17.932 40.0337 17.932 38.6045V38.1281C17.932 37.941 17.949 37.7538 17.983 37.5752C18.0936 37.0307 18.3573 36.5373 18.7572 36.1545C18.7827 36.112 18.8252 36.0779 18.8592 36.0439C18.9273 35.9929 18.9868 35.9418 19.0549 35.8908C19.157 35.8057 19.2676 35.7377 19.3782 35.6781C19.4462 35.6441 19.5058 35.6101 19.5738 35.5845C19.829 35.4655 20.1013 35.3889 20.399 35.3549ZM50.0712 36.0524C50.0712 36.0524 50.1308 36.112 50.1733 36.1545C50.5646 36.5288 50.8283 37.0222 50.9474 37.5667C50.9815 37.7538 50.9985 37.941 50.9985 38.1281V38.6045C50.9985 40.0337 49.9266 41.2247 48.5315 41.3948V35.3549C49.1099 35.4229 49.6459 35.6611 50.0712 36.0524ZM21.0285 30.8802C21.0285 28.0644 22.9511 25.4953 25.8179 24.4575C25.971 24.4064 26.1242 24.3554 26.2688 24.3214C26.3794 24.2873 26.4985 24.2618 26.6091 24.2448C26.7197 24.2193 26.8302 24.2023 26.9323 24.1938C27.0769 24.1682 27.2301 24.1597 27.3662 24.1597C27.5023 24.1512 27.6299 24.1597 27.7575 24.1597C27.7915 24.1597 27.8171 24.1597 27.8511 24.1682C27.9957 24.1682 28.1403 24.1767 28.2764 24.2023C28.6933 24.2448 29.0931 24.3299 29.5014 24.4234C29.8842 24.5255 30.2671 24.6361 30.6584 24.7552C31.6197 25.0359 32.615 25.3252 33.7549 25.4273C33.857 25.4358 33.9591 25.4443 34.0356 25.4528C34.3079 25.4783 34.6311 25.4783 34.8608 25.4528C34.9799 25.4443 35.0735 25.4358 35.2011 25.4273C36.324 25.3252 37.3618 25.0444 38.3742 24.7637C40.1096 24.2788 41.7514 23.828 43.4954 24.4575C46.1921 25.4273 47.8339 27.7667 47.902 30.7101V40.9354C47.902 47.2561 43.4188 52.7856 37.2427 54.0786C35.4648 54.47 33.4742 54.47 31.6877 54.0786C25.5117 52.7856 21.0285 47.2561 21.0285 40.9354V30.8802ZM36.996 54.7762V61.0714L34.5801 63.9807L31.9344 61.0543V54.7762C31.9855 54.7932 32.0365 54.8017 32.0875 54.8017C32.1896 54.8273 32.2832 54.8443 32.3938 54.8528C32.5384 54.8783 32.6745 54.8953 32.8106 54.9038C33.1169 54.9549 33.4316 54.9804 33.7379 54.9889C33.9846 55.0059 34.2228 55.0059 34.461 55.0059H34.4865C34.7247 55.0059 34.9544 55.0059 35.1841 54.9889C35.4988 54.9889 35.8051 54.9549 36.1198 54.9038C36.2559 54.8953 36.4006 54.8783 36.5367 54.8528C36.6388 54.8443 36.7408 54.8273 36.8344 54.8017C36.894 54.8017 36.945 54.7932 36.996 54.7762ZM32.1046 67.962L32.8447 67.0687L33.3125 68.03C32.9042 68.013 32.5044 67.9875 32.1046 67.962ZM35.082 68.047H34.8693H34.0271L33.2955 66.5328L34.5971 64.959L35.8987 66.3967L35.082 68.047ZM35.7966 68.03L36.3495 66.9071L37.2768 67.9279C36.8089 67.9705 36.3155 68.0045 35.7966 68.0215V68.03ZM40.1181 67.5792L39.7013 67.6472C39.2674 67.7153 38.8165 67.7748 38.3657 67.8259C38.2636 67.8429 38.1615 67.8429 38.0679 67.8514L36.5367 66.15C36.5367 66.15 36.5282 66.133 36.5197 66.1245L36.4856 66.0905L35.0139 64.4486L37.4809 61.4797H41.0454C41.8875 61.4797 42.7382 61.5562 43.5464 61.7094C43.7846 61.7519 44.0143 61.803 44.2525 61.8625L40.1266 67.5707L40.1181 67.5792ZM41.0283 67.4005L44.9075 62.0411C46.6429 62.5431 48.2167 63.3767 49.5778 64.4656C46.8726 65.8352 43.9973 66.8135 41.0283 67.4005ZM50.3519 64.0658C50.3009 64.0913 50.2414 64.1254 50.1903 64.1509C48.6591 62.8918 46.8641 61.922 44.8565 61.3691H44.8394C44.4311 61.2585 44.0313 61.1649 43.64 61.0969C42.7978 60.9352 41.9216 60.8587 41.0283 60.8587H37.6171V54.6486C43.5974 53.279 48.004 48.0983 48.4804 42.0328C50.2414 41.8882 51.628 40.3995 51.628 38.6045V38.1281C51.628 37.9069 51.6025 37.6687 51.5599 37.4391C51.4153 36.767 51.0921 36.163 50.6072 35.6951L50.5901 35.6781V29.1278C50.5901 22.0245 46.0304 15.8314 39.2589 13.7217C36.1624 12.7689 32.7426 12.7689 29.6886 13.7132C29.6801 13.7132 29.6631 13.7132 29.6546 13.7217C22.883 15.8314 18.3233 22.0245 18.3233 29.1278V35.6696C18.3233 35.6696 18.3063 35.6866 18.2978 35.7036C17.8129 36.1715 17.4896 36.7755 17.3535 37.4476C17.311 37.6688 17.2855 37.8984 17.2855 38.1281V38.6045C17.2855 40.3995 18.6721 41.8882 20.433 42.0328C20.9094 48.0983 25.3245 53.279 31.2964 54.6486V60.8587H27.8851C26.9919 60.8587 26.1157 60.9352 25.265 61.0969C24.712 61.199 24.1591 61.3351 23.6316 61.4967C21.7771 62.0582 20.1268 62.9684 18.7061 64.1339C18.6891 64.1339 18.6721 64.1168 18.6636 64.1083L18.5445 64.0403C7.63858 58.179 0.867052 46.8392 0.867052 34.4531C0.867052 15.925 15.9414 0.850694 34.4695 0.850694C52.9976 0.850694 68.0719 15.925 68.0719 34.4531C68.0719 46.8477 61.2834 58.1875 50.3519 64.0658ZM25.3671 33.5939C26.4474 33.3983 28.8464 34.0023 29.612 34.2319C29.6375 34.2405 29.6716 34.249 29.6971 34.249C29.8332 34.249 29.9608 34.1554 30.0033 34.0193C30.0544 33.8491 29.9608 33.6705 29.7907 33.6194C29.7566 33.6194 26.7112 32.7007 25.2565 32.9729C25.0863 32.9984 24.9672 33.1686 25.0013 33.3387C25.0353 33.5174 25.1969 33.6194 25.3671 33.5939ZM25.3671 37.2179C25.3671 37.2179 25.9796 36.784 26.8132 36.6054C26.4304 37.0307 26.1922 37.6602 26.1922 38.3833C26.1922 39.6509 26.9579 40.6802 27.9021 40.6802C28.8464 40.6802 29.6205 39.6509 29.6205 38.3833C29.6205 37.7793 29.4504 37.2349 29.1697 36.8181C29.3993 36.9201 29.646 37.0562 29.8842 37.2179C29.9353 37.2604 29.9948 37.2774 30.0629 37.2774C30.165 37.2774 30.2671 37.2349 30.3181 37.1413C30.4202 36.9967 30.3947 36.801 30.2415 36.699C27.5959 34.853 25.0183 36.699 24.9927 36.7075C24.8566 36.8095 24.8226 37.0052 24.9247 37.1413C25.0268 37.2859 25.2309 37.32 25.3671 37.2179ZM27.9021 36.716C28.4976 36.716 28.991 37.4816 28.991 38.3833C28.991 39.2851 28.4976 40.0507 27.9021 40.0507C27.3066 40.0507 26.8302 39.2851 26.8302 38.3833C26.8302 37.4816 27.3236 36.716 27.9021 36.716ZM39.0122 37.2774C39.0802 37.2774 39.1398 37.2604 39.1993 37.2179C39.344 37.1158 39.4886 37.0307 39.6332 36.9627H39.8204C39.5907 37.354 39.4546 37.8474 39.4546 38.3833C39.4546 39.6509 40.2287 40.6802 41.173 40.6802C42.1172 40.6802 42.8914 39.6764 42.8914 38.3833C42.8914 37.8389 42.7552 37.3455 42.5256 36.9627H43.2742C43.5294 37.0903 43.691 37.2009 43.7165 37.2179C43.8526 37.32 44.0483 37.2859 44.1504 37.1413C44.261 37.0052 44.2269 36.8095 44.0823 36.7075C44.0568 36.6905 41.4877 34.853 38.8421 36.699C38.6889 36.801 38.6549 36.9967 38.757 37.1413C38.8165 37.2349 38.9186 37.2774 39.0122 37.2774ZM40.6115 36.9627H41.7344C42.0407 37.2604 42.2533 37.7878 42.2533 38.3833C42.2533 39.2851 41.7514 40.0507 41.173 40.0507C40.5945 40.0507 40.0841 39.2851 40.0841 38.3833C40.0841 37.7878 40.3052 37.2604 40.6115 36.9627ZM34.5546 48.3875C35.8646 48.3875 37.0641 47.6644 37.6766 46.5075C37.7617 46.3543 37.7021 46.1587 37.5405 46.0821C37.3959 45.997 37.2002 46.0566 37.1236 46.2097C36.6132 47.1625 35.6264 47.7495 34.5546 47.7495C33.4827 47.7495 32.4618 47.1455 31.9599 46.1587C31.8919 46.0056 31.6962 45.9375 31.5431 46.0226C31.39 46.0991 31.3219 46.2863 31.3985 46.4479C32.011 47.6474 33.2105 48.3875 34.5546 48.3875ZM34.546 42.9175C34.9629 42.9175 35.3967 42.7474 35.7966 42.4156C35.9327 42.2965 35.9497 42.0924 35.8391 41.9648C35.7285 41.8286 35.5243 41.8116 35.3967 41.9222C34.6566 42.5432 34.0697 42.2455 33.7124 41.8797C33.5848 41.7521 33.3891 41.7521 33.2615 41.8712C33.1339 41.9988 33.1339 42.1944 33.2615 42.322C33.6528 42.7134 34.0952 42.9175 34.546 42.9175Z" fill="#69FFB4"/>
</svg>
