<svg width="29" height="29" viewBox="0 0 29 29" fill="none" xmlns="http://www.w3.org/2000/svg">
<rect width="29" height="29" rx="14.5" fill="url(#paint0_linear_12628_1455)"/>
<path d="M14.01 20.5C13.8 20.5 13.62 20.425 13.47 20.275C13.32 20.125 13.245 19.94 13.245 19.72V16.225L9.24 10C9.11 9.79 9.06 9.595 9.09 9.415C9.12 9.225 9.205 9.075 9.345 8.965C9.495 8.845 9.665 8.785 9.855 8.785C10.025 8.785 10.16 8.825 10.26 8.905C10.36 8.975 10.455 9.08 10.545 9.22L14.355 15.265H13.755L17.625 9.16C17.705 9.04 17.8 8.95 17.91 8.89C18.02 8.82 18.155 8.785 18.315 8.785C18.495 8.785 18.645 8.85 18.765 8.98C18.885 9.1 18.955 9.255 18.975 9.445C18.995 9.625 18.945 9.81 18.825 10L14.79 16.225V19.72C14.79 19.94 14.715 20.125 14.565 20.275C14.415 20.425 14.23 20.5 14.01 20.5Z" fill="#07080A"/>
<defs>
<linearGradient id="paint0_linear_12628_1455" x1="23.2" y1="23.925" x2="2.9" y2="5.075" gradientUnits="userSpaceOnUse">
<stop stop-color="#FF69B4"/>
<stop offset="1" stop-color="#FFF0F8"/>
</linearGradient>
</defs>
</svg>
