<svg width="42" height="44" viewBox="0 0 42 44" fill="none" xmlns="http://www.w3.org/2000/svg">
<path d="M21.3521 27.388C19.8539 28.1739 11.2636 28.3505 7.99383 21.5921C7.96765 21.5273 7.93856 21.4625 7.91528 21.3978C7.91528 21.3978 13.2475 27.7206 22.2684 24.7682C27.8945 34.1376 40.2055 29.3101 41.9946 20.6854C42.3233 31.2617 27.8159 36.9046 21.3521 27.388ZM37.9219 19.7229C37.9219 19.7229 37.0085 16.1523 32.898 17.4593C32.9126 17.2591 32.9649 17.0648 33.0667 16.8912C34.2798 14.7512 39.1379 17.5917 37.9219 19.7258V19.7229Z" fill="#FF44A0"/>
<path d="M30.8295 40.0337C30.3117 40.4458 28.0921 41.6762 27.8332 41.7675C24.1591 40.6048 20.2843 36.9312 18.9839 33.2458C12.523 34.7588 6.5682 27.9591 7.02492 22.1014C8.45907 27.809 14.5855 32.2097 20.4501 30.317C20.4501 30.317 21.1715 32.139 21.2443 32.295C21.6137 33.0839 22.0704 33.861 22.5533 34.5704C23.2166 35.5448 23.9584 36.4131 24.8602 37.1843C26.3176 38.4295 28.0543 39.3979 29.9161 39.8512C30.0499 39.8836 30.1837 39.916 30.3233 39.9425C30.4921 39.9778 30.6608 40.0072 30.8295 40.0337ZM23.6675 12.3111C23.6675 12.3111 22.754 8.73756 18.6436 10.0445C19.1439 6.9302 25.0085 9.97386 23.6675 12.3111Z" fill="#FF44A0"/>
<path d="M41.4968 17.5947C38.9048 13.6415 32.121 13.7975 28.54 14.8925C27.8331 8.9553 21.4681 5.06094 16.3918 4.81957C21.9365 4.10428 27.7836 7.20093 29.9101 12.5641C34.5587 12.3699 39.5477 11.6134 41.4735 17.5182C41.4822 17.5447 41.4909 17.5712 41.4997 17.5947H41.4968Z" fill="#FCC0E0"/>
<path d="M10.1696 6.95955C10.1696 6.95955 9.65763 6.64165 9.44818 6.4562C7.33913 4.74009 7.77258 0.466015 10.6031 0.015647H10.606C11.499 -0.0726604 12.3281 0.218754 13.0001 0.739768C8.47656 1.81712 10.1085 6.78 10.1696 6.95955Z" fill="#FF44A0"/>
<path d="M25.7243 42.6917C5.09347 50.5511 -10.0277 20.9593 8.1014 8.25478C8.14504 8.22241 8.19158 8.19297 8.23813 8.16059C8.29631 8.11938 8.35449 8.08111 8.41267 8.04285C-4.7216 22.1573 4.60475 44.9966 25.7272 42.6917H25.7243Z" fill="#FCC0E0"/>
<path d="M41.4967 17.5946C38.9048 13.6414 32.1209 13.7974 28.5399 14.8924C27.833 8.95521 21.468 5.06085 16.3918 4.81948C15.7518 4.9019 15.1205 5.03141 14.4951 5.21686C15.01 3.59789 14.2944 1.74638 12.9999 0.742615C8.47632 1.81997 10.1083 6.78284 10.1694 6.9624C9.54976 7.3068 8.96504 7.66886 8.40942 8.04564C-4.72485 22.1601 4.6015 44.9994 25.724 42.6945C26.4192 42.4296 27.1261 42.1205 27.833 41.7703C24.1764 40.6164 20.2986 36.9398 18.9837 33.2486C12.5228 34.7616 6.55636 27.959 7.01308 22.1012C6.66109 20.6972 6.58836 19.2165 6.87345 17.73C7.06835 19.2195 7.46107 20.497 7.99052 21.5949C7.96433 21.5302 7.93524 21.4654 7.91197 21.4007C7.91197 21.4007 13.2442 27.7235 22.2651 24.7711C27.8912 34.1405 40.2022 29.313 41.9913 20.6883C41.9622 19.6993 41.8022 18.6661 41.4938 17.5976L41.4967 17.5946ZM23.6673 12.3109C22.6258 14.236 18.3321 12.0754 18.6434 10.0443C19.1437 6.93002 25.0083 9.97369 23.6673 12.3109ZM37.9215 19.7228C36.883 21.6509 32.5864 19.4873 32.8976 17.4592C32.9122 17.2591 32.9645 17.0648 33.0663 16.8911C34.2794 14.7511 39.1375 17.5917 37.9215 19.7258V19.7228Z" fill="#FF69B4"/>
</svg>
