<svg width="25" height="24" viewBox="0 0 25 24" fill="none" xmlns="http://www.w3.org/2000/svg">
<path fill-rule="evenodd" clip-rule="evenodd" d="M12.4013 0C5.77452 0 0.401306 5.50743 0.401306 12.306C0.401306 17.7438 3.84059 22.3512 8.60845 23.9798C9.20845 24.0923 9.42809 23.712 9.42809 23.3852C9.42809 23.0905 9.41738 22.319 9.41202 21.2904C6.07452 22.0351 5.36738 19.6403 5.36738 19.6403C4.82095 18.2206 4.03345 17.8402 4.03345 17.8402C2.94595 17.0741 4.11381 17.0902 4.11381 17.0902C5.31916 17.1759 5.95131 18.3599 5.95131 18.3599C7.02274 20.2404 8.75845 19.6993 9.44416 19.3832C9.55131 18.5903 9.86202 18.0438 10.2049 17.7384C7.54238 17.4277 4.74059 16.3723 4.74059 11.6578C4.74059 10.313 5.20666 9.21477 5.97273 8.35758C5.84952 8.04685 5.43702 6.79322 6.09059 5.10027C6.09059 5.10027 7.09773 4.76811 9.39059 6.35926C10.3495 6.08604 11.3727 5.9521 12.3959 5.94674C13.4138 5.9521 14.4424 6.08604 15.4013 6.35926C17.6942 4.76811 18.6959 5.10027 18.6959 5.10027C19.3495 6.79322 18.937 8.04685 18.8138 8.35758C19.5799 9.22013 20.0459 10.3184 20.0459 11.6578C20.0459 16.383 17.2388 17.4223 14.5656 17.7277C14.9942 18.1081 15.3799 18.8581 15.3799 20.0046C15.3799 21.6494 15.3638 22.978 15.3638 23.3798C15.3638 23.7066 15.5781 24.0923 16.1888 23.9691C20.9674 22.3458 24.4013 17.7384 24.4013 12.306C24.4013 5.50743 19.0281 0 12.4013 0Z" fill="#9FA0A0"/>
</svg>
