<svg width="26" height="26" viewBox="0 0 26 26" fill="none" xmlns="http://www.w3.org/2000/svg">
<path d="M23.3469 0H2.65306C1.18783 0 0 1.18783 0 2.65306V23.3469C0 24.8122 1.18783 26 2.65306 26H23.3469C24.8122 26 26 24.8122 26 23.3469V2.65306C26 1.18783 24.8122 0 23.3469 0ZM8.06244 21.0498H4.57149V9.81909H8.06244V21.0498ZM6.29396 8.44109C5.19156 8.44109 4.47964 7.66029 4.47964 6.69564C4.47964 5.70811 5.21459 4.95013 6.33991 4.95013C7.46524 4.95013 8.15429 5.70806 8.17721 6.69564C8.17721 7.66029 7.46524 8.44109 6.29396 8.44109ZM21.5204 21.0498H18.0295V14.8258C18.0295 13.3789 17.5242 12.3913 16.2611 12.3913C15.2964 12.3913 14.7223 13.0574 14.4696 13.7005C14.3777 13.9301 14.3548 14.2517 14.3548 14.5732V21.0498H10.8639V13.4018C10.8639 12.0009 10.818 10.8296 10.772 9.81909H13.8036L13.9643 11.3809H14.0333C14.4926 10.6459 15.6179 9.56651 17.5012 9.56651C19.7978 9.56651 21.5204 11.1053 21.5204 14.4124V21.0498Z" fill="#9FA0A0"/>
</svg>
