<svg width="36" height="26" viewBox="0 0 36 26" fill="none" xmlns="http://www.w3.org/2000/svg">
<path d="M35.2635 4.82941H35.263V4.82833C34.7189 2.8297 33.1399 1.2681 31.1191 0.730539C28.4405 0.0198896 19.0607 0 18.0003 0C16.9398 0 7.55949 0.0209647 4.88258 0.731077C2.86117 1.26971 1.28274 2.83131 0.738121 4.82995C0.00815301 7.52418 0 12.7788 0 13.0008C0 13.2228 0.00706597 18.478 0.738121 21.1717C1.28111 23.1714 2.86008 24.733 4.88204 25.27C7.55949 25.9801 16.9393 26 18.0003 26C19.0613 26 28.4405 25.9796 31.1174 25.2689C33.1394 24.7314 34.7189 23.1698 35.263 21.1701C35.9918 18.4758 36 13.2212 36 12.9992C36 12.7772 35.9929 7.5231 35.2635 4.82941ZM23.7721 13.4491C23.6927 13.5851 23.5786 13.698 23.4411 13.777L15.6332 18.2361C15.4951 18.314 15.3386 18.3549 15.1799 18.3549C14.6798 18.3549 14.2743 17.9539 14.2743 17.4593V8.54177C14.2722 8.0483 14.6755 7.64674 15.175 7.64459C15.3359 7.64459 15.494 7.68598 15.6332 7.76608L23.4411 12.2251C23.8743 12.4724 24.0226 13.0207 23.7721 13.4491Z" fill="#9FA0A0"/>
</svg>
