<svg width="264" height="264" viewBox="0 0 264 264" fill="none" xmlns="http://www.w3.org/2000/svg">
<path d="M168.451 116.108C168.302 115.995 166.883 114.969 163.889 114.969C163.098 114.969 162.314 115.037 161.53 115.164C160.95 111.374 157.673 109.524 157.524 109.442L156.725 109L156.2 109.726C155.541 110.708 155.055 111.786 154.773 112.917C154.24 115.082 154.561 117.111 155.714 118.849C154.326 119.59 152.092 119.77 151.646 119.785H114.75C113.786 119.785 113.002 120.534 113.002 121.448C112.963 124.534 113.504 127.605 114.617 130.503C115.887 133.686 117.776 136.03 120.237 137.468C122.996 139.079 127.472 140 132.551 140C134.848 140.007 137.137 139.805 139.386 139.408C142.522 138.861 145.54 137.813 148.306 136.307C150.587 135.042 152.649 133.431 154.397 131.544C157.321 128.383 159.061 124.863 160.354 121.733H160.872C164.07 121.733 166.037 120.512 167.127 119.486C167.848 118.834 168.412 118.033 168.773 117.149L169 116.505L168.451 116.108Z" fill="#9FA0A0"/>
<path opacity="0.047619" d="M230.93 78.3983C224.586 74.7361 220.102 75.1796 215.683 75.6055C211.507 76.0026 207.591 76.4376 201.924 73.166C196.258 69.8943 194.61 66.3031 192.932 62.4701C191.134 58.4552 189.276 54.3493 182.932 50.687C176.589 47.0248 172.062 47.4439 167.686 47.8942C163.51 48.2913 159.593 48.7263 153.927 45.4547C147.837 41.9389 146.279 38.6803 144.426 34.8583C142.765 31.4844 140.912 27.6624 135.605 23.475C124.973 15.0338 122.227 14.5157 108.688 18.0441C96.3651 21.3203 95.4653 22.8789 90.5885 31.5211C89.9562 32.6163 89.2509 33.8379 88.4726 35.1859C84.8245 41.5045 85.2598 46.0244 85.7257 50.3935C86.1376 54.5629 86.5867 58.4729 83.3277 64.1176C80.0688 69.7622 76.4761 71.3949 72.6412 73.0563C68.7091 74.8862 64.5349 76.7448 60.8868 83.0635C57.2388 89.3821 57.674 93.902 58.1399 98.2711C58.5519 102.441 59.0009 106.351 55.7419 111.995C52.483 117.64 48.8903 119.273 45.0311 120.976C41.0811 122.739 36.9069 124.598 33.2588 130.917C32.4805 132.265 31.7752 133.486 31.1429 134.581C26.0303 143.144 25.1548 144.66 28.4546 157.012C31.7786 169.322 33.3433 170.225 42.0188 175.122C43.1183 175.757 44.3446 176.465 45.6979 177.246C52.0411 180.908 56.5684 180.489 60.9444 180.039C65.1206 179.642 69.0368 179.207 74.7034 182.478C80.3701 185.75 82.018 189.341 83.6956 193.174C85.5423 197.105 87.4186 201.277 93.7619 204.939C100.105 208.602 104.632 208.183 109.008 207.732C113.185 207.335 117.101 206.9 122.767 210.172C128.434 213.444 130.082 217.035 131.802 220.892C133.582 224.841 135.458 229.013 141.802 232.675C143.155 233.457 144.381 234.165 145.481 234.799C154.059 239.864 155.599 240.81 167.988 237.516C179.046 234.576 180.907 233.011 184.653 226.524C185.091 225.766 185.577 224.924 186.088 224.039C186.72 222.944 187.425 221.722 188.204 220.374C191.852 214.055 191.416 209.536 190.951 205.167C190.539 200.997 190.09 197.087 193.348 191.442C196.607 185.798 200.2 184.165 204.035 182.504C208.052 180.723 212.159 178.882 215.807 172.563C219.455 166.244 219.02 161.725 218.554 157.355C218.142 153.186 217.693 149.276 220.952 143.631C224.211 137.987 227.804 136.354 231.663 134.65C235.68 132.869 239.812 130.986 243.46 124.668C244.238 123.32 244.943 122.098 245.576 121.003C250.622 112.458 251.564 110.924 248.222 98.5478C244.898 86.238 243.333 85.3347 234.633 80.4803C233.534 79.8455 232.307 79.1375 230.954 78.3562L230.93 78.3983ZM245.866 99.2098C248.939 110.588 248.41 111.406 243.461 119.782C242.829 120.877 242.124 122.099 241.321 123.489C238.062 129.134 234.469 130.766 230.61 132.47C226.593 134.251 222.462 136.134 218.814 142.453C215.165 148.771 215.601 153.291 216.067 157.66C216.479 161.83 216.928 165.74 213.669 171.384C210.41 177.029 206.817 178.662 202.982 180.323C198.965 182.104 194.858 183.945 191.21 190.264C187.562 196.582 187.997 201.102 188.463 205.471C188.875 209.641 189.324 213.551 186.065 219.195C185.262 220.586 184.557 221.807 183.925 222.902C179.169 231.334 178.701 232.243 167.335 235.229C155.945 238.257 155.081 237.703 146.715 232.76C145.615 232.125 144.389 231.417 142.993 230.611C137.327 227.339 135.679 223.748 133.959 219.891C132.161 215.876 130.26 211.746 123.917 208.083C117.574 204.421 113.046 204.84 108.67 205.291C104.494 205.688 100.578 206.123 94.9113 202.851C89.2446 199.579 87.5966 195.988 85.9191 192.155C84.121 188.14 82.2627 184.034 75.9194 180.372C69.5762 176.71 65.0489 177.129 60.6729 177.579C56.4967 177.976 52.5805 178.411 46.9139 175.14C45.5184 174.334 44.292 173.626 43.1925 172.991C34.7285 168.217 33.8161 167.746 30.7859 156.392C28.0791 146.236 28.1807 144.498 31.7801 138.263C32.2179 137.505 32.68 136.705 33.1907 135.82C33.823 134.725 34.5283 133.503 35.3309 132.113C38.5899 126.468 42.1826 124.836 46.0417 123.132C50.0584 121.351 54.1903 119.468 57.8384 113.149C61.4865 106.831 61.0512 102.311 60.5854 97.9418C60.1734 93.7724 59.7243 89.8624 62.9833 84.2177C66.2422 78.5731 69.8349 76.9404 73.6698 75.279C77.6865 73.4979 81.7941 71.657 85.4421 65.3384C89.0902 59.0197 88.655 54.4998 88.1891 50.1308C87.7771 45.9613 87.3281 42.0513 90.587 36.4066C91.3896 35.0165 92.0949 33.7949 92.7272 32.6997C97.4401 24.2437 97.9509 23.3591 109.317 20.373C122.172 16.9551 124.029 17.353 134.075 25.3438C138.941 29.2205 140.602 32.5944 142.203 35.8774C144.134 39.8569 145.969 43.6123 152.693 47.4943C159.036 51.1566 163.563 50.7375 167.939 50.2872C172.116 49.8901 176.032 49.4551 181.698 52.7267C187.365 55.9983 189.013 59.5896 190.691 63.4226C192.489 67.4375 194.347 71.5434 200.69 75.2056C207.033 78.8679 211.561 78.4488 215.937 77.9985C220.113 77.6013 224.029 77.1664 229.696 80.438C231.091 81.2437 232.318 81.9517 233.417 82.5865C241.881 87.3609 242.794 87.8315 245.824 99.1854L245.866 99.2098Z" fill="#9FA0A0"/>
<path opacity="0.0952381" d="M231.782 84.0437C225.742 80.1213 221.316 80.3261 216.955 80.5168C212.834 80.6919 208.967 80.9175 203.571 77.4135C198.175 73.9095 196.742 70.2985 195.292 66.4485C193.733 62.4138 192.12 58.2867 186.08 54.3643C180.04 50.4419 175.573 50.6205 171.253 50.8374C167.132 51.0125 163.264 51.2381 157.869 47.7341C152.07 43.9686 150.708 40.6889 149.085 36.8407C147.628 33.4424 146.005 29.5943 141.01 25.2096C131.005 16.3741 128.335 15.7241 114.859 18.4919C102.591 21.0746 101.628 22.5587 96.3943 30.7935C95.7171 31.8363 94.9617 32.9995 94.1282 34.283C90.221 40.2995 90.4158 44.76 90.6484 49.0739C90.8384 53.1891 91.078 57.0514 87.5876 62.4261C84.0972 67.8009 80.4856 69.2191 76.6347 70.6531C72.6796 72.2475 68.4853 73.8577 64.5782 79.8742C60.671 85.8907 60.8658 90.3511 61.0984 94.6651C61.2884 98.7802 61.528 102.643 58.0376 108.017C54.5472 113.392 50.9356 114.81 47.0586 116.284C43.0894 117.813 38.8951 119.423 34.9879 125.439C34.1544 126.723 33.399 127.886 32.7218 128.929C27.2612 137.073 26.3235 138.517 28.9278 150.815C31.5583 163.073 33.0481 164.04 41.3146 169.295C42.3615 169.975 43.5292 170.733 44.8177 171.57C50.8577 175.492 55.3245 175.313 59.6445 175.096C63.7655 174.921 67.6331 174.696 73.0288 178.2C78.4245 181.704 79.8578 185.315 81.3077 189.165C82.9188 193.119 84.5464 197.313 90.5863 201.235C96.6263 205.157 101.093 204.979 105.413 204.762C109.534 204.587 113.402 204.361 118.797 207.865C124.193 211.369 125.626 214.98 127.117 218.856C128.661 222.825 130.289 227.018 136.329 230.941C137.617 231.777 138.785 232.536 139.832 233.216C147.994 238.63 149.458 239.638 161.792 237.041C172.801 234.724 174.709 233.283 178.721 227.106C179.19 226.384 179.711 225.582 180.258 224.74C180.935 223.697 181.69 222.534 182.524 221.25C186.431 215.234 186.236 210.773 186.004 206.459C185.814 202.344 185.574 198.482 189.064 193.107C192.555 187.732 196.166 186.314 200.017 184.88C204.053 183.338 208.181 181.742 212.088 175.725C215.995 169.709 215.8 165.248 215.568 160.934C215.378 156.819 215.138 152.957 218.628 147.582C222.119 142.207 225.731 140.789 229.607 139.315C233.643 137.773 237.797 136.137 241.704 130.12C242.538 128.837 243.293 127.673 243.97 126.63C249.365 118.5 250.369 117.042 247.724 104.718C245.094 92.4602 243.604 91.4927 235.311 86.2786C234.264 85.5987 233.097 84.8404 231.808 84.0036L231.782 84.0437ZM245.377 105.247C247.808 116.577 247.247 117.353 241.957 125.323C241.28 126.366 240.524 127.529 239.665 128.853C236.175 134.227 232.563 135.646 228.686 137.12C224.65 138.662 220.496 140.298 216.589 146.315C212.682 152.331 212.877 156.792 213.109 161.106C213.299 165.221 213.539 169.083 210.049 174.458C206.558 179.833 202.946 181.251 199.096 182.685C195.06 184.227 190.932 185.823 187.025 191.84C183.118 197.856 183.312 202.317 183.545 206.63C183.735 210.746 183.975 214.608 180.484 219.983C179.625 221.306 178.869 222.47 178.192 223.512C173.089 231.547 172.582 232.415 161.269 234.762C149.929 237.15 149.11 236.56 141.149 231.276C140.102 230.596 138.934 229.838 137.605 228.975C132.21 225.471 130.776 221.86 129.286 217.984C127.727 213.949 126.073 209.796 120.033 205.874C113.994 201.951 109.527 202.13 105.207 202.347C101.086 202.522 97.2181 202.748 91.8224 199.244C86.4267 195.74 84.9934 192.128 83.5434 188.279C81.9845 184.244 80.3711 180.117 74.3312 176.194C68.2912 172.272 63.8244 172.451 59.5044 172.667C55.3834 172.843 51.5158 173.068 46.1201 169.564C44.7913 168.701 43.6236 167.943 42.5767 167.263C34.5116 162.139 33.6399 161.63 31.2488 150.326C29.1137 140.215 29.3029 138.513 33.158 132.577C33.6269 131.855 34.1218 131.092 34.6688 130.25C35.346 129.207 36.1014 128.044 36.961 126.72C40.4514 121.346 44.063 119.928 47.94 118.453C51.9756 116.911 56.1296 115.275 60.0367 109.258C63.9439 103.242 63.7492 98.7816 63.5165 94.4676C63.3266 90.3525 63.0869 86.4901 66.5773 81.1154C70.0677 75.7406 73.6793 74.3224 77.5302 72.8884C81.5658 71.3463 85.6938 69.7501 89.601 63.7336C93.5081 57.7171 93.3134 53.2567 93.0807 48.9427C92.8908 44.8276 92.6511 40.9652 96.1415 35.5905C97.0011 34.2669 97.7564 33.1037 98.4337 32.0608C103.496 24.0005 104.043 23.1582 115.357 20.811C128.156 18.1165 129.958 18.6027 139.411 26.9658C143.99 31.0227 145.447 34.421 146.85 37.7269C148.541 41.7337 150.15 45.5156 156.552 49.6733C162.592 53.5957 167.059 53.4171 171.379 53.2002C175.5 53.0251 179.368 52.7995 184.763 56.3035C190.159 59.8075 191.592 63.4186 193.042 67.2685C194.601 71.3032 196.214 75.4303 202.254 79.3527C208.294 83.2751 212.761 83.0965 217.081 82.8796C221.202 82.7045 225.07 82.4789 230.465 85.9829C231.794 86.8459 232.962 87.6042 234.009 88.2841C242.074 93.4076 242.946 93.9166 245.337 105.221L245.377 105.247Z" fill="#9FA0A0"/>
<path opacity="0.142857" d="M232.302 89.6418C226.575 85.4809 222.22 85.4541 217.93 85.4171C213.875 85.3769 210.067 85.3994 204.951 81.6823C199.835 77.9652 198.614 74.3468 197.389 70.4931C196.066 66.4524 194.695 62.3182 188.967 58.1572C183.24 53.9962 178.846 53.9418 174.595 53.9325C170.541 53.8923 166.733 53.9148 161.616 50.1977C156.118 46.2031 154.95 42.9136 153.555 39.0528C152.299 35.6421 150.904 31.7812 146.226 27.2202C136.86 18.0325 134.273 17.2571 120.902 19.2807C108.727 21.1849 107.705 22.5921 102.144 30.4061C101.426 31.395 100.624 32.4979 99.7401 33.7149C95.5953 39.4198 95.557 43.8082 95.5634 48.0548C95.5382 52.104 95.5747 55.9076 91.872 61.0039C88.1693 66.1003 84.5511 67.3066 80.6973 68.5161C76.733 69.8778 72.533 71.2425 68.3882 76.9474C64.2434 82.6522 64.2051 87.0406 64.2115 91.2872C64.1863 95.3365 64.2229 99.1401 60.5202 104.236C56.8175 109.333 53.1993 110.539 49.3178 111.787C45.3429 113.082 41.1429 114.447 36.9981 120.152C36.1139 121.369 35.3126 122.472 34.5941 123.461C28.815 131.174 27.8203 132.543 29.7441 144.749C31.6955 156.917 33.1082 157.944 40.9523 163.526C41.945 164.248 43.0522 165.052 44.274 165.94C50.0011 170.101 54.3949 170.155 58.6466 170.164C62.7009 170.205 66.5089 170.182 71.6251 173.899C76.7413 177.616 77.9625 181.235 79.1877 185.088C80.5657 189.053 81.9476 193.253 87.6747 197.414C93.4018 201.575 97.7956 201.63 102.047 201.639C106.102 201.679 109.91 201.657 115.026 205.374C120.142 209.091 121.363 212.709 122.627 216.591C123.939 220.566 125.321 224.766 131.048 228.926C132.27 229.814 133.377 230.619 134.369 231.34C142.103 237.075 143.488 238.139 155.729 236.225C166.654 234.516 168.602 233.2 172.857 227.343C173.355 226.659 173.907 225.898 174.488 225.099C175.206 224.111 176.007 223.008 176.892 221.791C181.036 216.086 181.075 211.697 181.068 207.451C181.093 203.402 181.057 199.598 184.76 194.502C188.462 189.405 192.08 188.199 195.934 186.989C199.975 185.683 204.109 184.329 208.254 178.624C212.399 172.919 212.437 168.531 212.431 164.284C212.456 160.235 212.419 156.431 216.122 151.335C219.825 146.239 223.443 145.032 227.324 143.785C231.365 142.479 235.527 141.086 239.672 135.381C240.556 134.164 241.357 133.061 242.076 132.072C247.789 124.369 248.85 122.99 246.887 110.756C244.936 98.5883 243.523 97.562 235.652 92.0172C234.659 91.2959 233.552 90.4915 232.33 89.6038L232.302 89.6418ZM244.556 111.154C246.36 122.401 245.769 123.134 240.167 130.685C239.448 131.674 238.647 132.777 237.735 134.032C234.032 139.129 230.414 140.335 226.533 141.582C222.492 142.889 218.33 144.281 214.185 149.986C210.04 155.691 210.002 160.079 210.009 164.326C209.983 168.375 210.02 172.179 206.317 177.275C202.615 182.371 198.996 183.578 195.143 184.787C191.102 186.093 186.968 187.448 182.823 193.153C178.678 198.857 178.64 203.246 178.646 207.492C178.621 211.542 178.658 215.345 174.955 220.442C174.043 221.697 173.242 222.8 172.523 223.788C167.101 231.412 166.559 232.239 155.332 233.961C144.078 235.721 143.304 235.1 135.762 229.504C134.769 228.783 133.662 227.978 132.402 227.063C127.286 223.346 126.064 219.727 124.801 215.846C123.478 211.805 122.069 207.643 116.342 203.482C110.615 199.321 106.221 199.267 101.969 199.258C97.9148 199.217 94.1067 199.24 88.9905 195.523C83.8743 191.806 82.6531 188.187 81.4279 184.334C80.1052 180.293 78.7338 176.159 73.0067 171.998C67.2797 167.837 62.8858 167.782 58.6341 167.773C54.5799 167.733 50.7718 167.755 45.6556 164.038C44.3957 163.123 43.2884 162.318 42.2957 161.597C34.6426 156.153 33.8131 155.608 32.0475 144.389C30.4718 134.354 30.7451 132.693 34.8347 127.064C35.3321 126.379 35.8571 125.657 36.4374 124.858C37.1558 123.869 37.9571 122.766 38.869 121.511C42.5717 116.415 46.1899 115.209 50.0713 113.961C54.112 112.655 58.2738 111.262 62.4186 105.558C66.5635 99.8528 66.6017 95.4644 66.5953 91.2178C66.6205 87.1686 66.584 83.3649 70.2867 78.2686C73.9894 73.1723 77.6076 71.9659 81.4614 70.7564C85.5021 69.4503 89.6363 68.0958 93.7811 62.3909C97.9259 56.6861 97.9642 52.2977 97.9578 48.0511C97.983 44.0019 97.9464 40.1983 101.649 35.1019C102.561 33.8469 103.362 32.7439 104.081 31.7551C109.465 24.1034 110.045 23.3048 121.272 21.5828C133.973 19.5963 135.718 20.1663 144.567 28.8619C148.853 33.0797 150.108 36.4904 151.315 39.8077C152.769 43.8278 154.153 47.6229 160.224 52.0335C165.951 56.1945 170.345 56.2489 174.597 56.2582C178.651 56.2984 182.459 56.2759 187.575 59.9931C192.691 63.7102 193.913 67.3285 195.138 71.1822C196.461 75.2229 197.832 79.3572 203.559 83.5181C209.286 87.6791 213.68 87.7336 217.932 87.7429C221.986 87.783 225.794 87.7606 230.91 91.4777C232.17 92.3931 233.277 93.1975 234.27 93.9188C241.923 99.3629 242.753 99.9074 244.518 111.127L244.556 111.154Z" fill="#9FA0A0"/>
<path opacity="0.190476" d="M232.496 95.1734C227.09 90.7957 222.817 90.5454 218.609 90.2885C214.633 90.0405 210.895 89.8667 206.065 85.9559C201.236 82.0452 200.224 78.4316 199.22 74.587C198.129 70.5537 196.996 66.4262 191.59 62.0485C186.184 57.6708 181.875 57.3913 177.703 57.1636C173.727 56.9156 169.989 56.7418 165.16 52.831C159.97 48.6284 158.992 45.3403 157.822 41.4799C156.765 38.0683 155.595 34.2079 151.239 29.4915C142.52 19.9938 140.021 19.0999 126.796 20.3981C114.751 21.6404 113.675 22.9688 107.817 30.3508C107.061 31.2842 106.218 32.3254 105.287 33.4742C100.927 38.8592 100.663 43.1637 100.451 47.3312C100.218 51.3035 100.058 55.0379 96.1629 59.8486C92.2673 64.6592 88.6547 65.657 84.8106 66.6457C80.8504 67.778 76.6587 68.9013 72.2979 74.2863C67.9372 79.6714 67.6739 83.9758 67.4618 88.1434C67.2289 92.1156 67.0691 95.8501 63.1735 100.661C59.2779 105.471 55.6653 106.469 51.7922 107.494C47.825 108.561 43.6333 109.684 39.2725 115.069C38.3423 116.218 37.4992 117.259 36.7433 118.193C30.6755 125.465 29.6289 126.757 30.8891 138.834C32.1783 150.875 33.5118 151.954 40.9222 157.836C41.8592 158.595 42.9044 159.442 44.0577 160.375C49.4637 164.753 53.7727 165.033 57.9444 165.26C61.9208 165.508 65.6589 165.682 70.4883 169.593C75.3177 173.504 76.33 177.117 77.3342 180.962C78.4825 184.923 79.6226 189.116 85.0286 193.494C90.4347 197.871 94.7436 198.151 98.9154 198.379C102.892 198.627 106.63 198.8 111.459 202.711C116.289 206.622 117.301 210.235 118.341 214.109C119.424 218.077 120.564 222.27 125.971 226.648C127.124 227.582 128.169 228.428 129.106 229.187C136.4 235.212 137.705 236.328 149.815 235.079C160.624 233.964 162.603 232.773 167.08 227.244C167.603 226.598 168.185 225.88 168.795 225.126C169.551 224.193 170.394 223.152 171.325 222.003C175.685 216.618 175.949 212.313 176.161 208.146C176.394 204.174 176.553 200.439 180.449 195.628C184.345 190.818 187.957 189.82 191.801 188.831C195.834 187.757 199.96 186.641 204.321 181.256C208.682 175.871 208.945 171.566 209.157 167.399C209.39 163.427 209.55 159.692 213.445 154.881C217.341 150.071 220.954 149.073 224.827 148.048C228.859 146.974 233.015 145.822 237.375 140.437C238.306 139.288 239.149 138.247 239.905 137.314C245.907 130.048 247.019 128.749 245.723 116.643C244.434 104.602 243.1 103.523 235.661 97.6766C234.724 96.9178 233.678 96.0714 232.525 95.1375L232.496 95.1734ZM243.415 116.914C244.606 128.044 243.989 128.733 238.103 135.854C237.347 136.788 236.504 137.829 235.544 139.014C231.649 143.824 228.036 144.822 224.163 145.847C220.131 146.921 215.975 148.073 211.614 153.458C207.253 158.843 206.99 163.148 206.778 167.315C206.545 171.287 206.385 175.022 202.49 179.832C198.594 184.643 194.982 185.641 191.138 186.63C187.105 187.704 182.979 188.82 178.618 194.205C174.257 199.59 173.994 203.895 173.782 208.062C173.549 212.034 173.389 215.769 169.493 220.58C168.534 221.764 167.691 222.805 166.935 223.739C161.222 230.941 160.648 231.724 149.542 232.837C138.408 233.985 137.68 233.336 130.567 227.457C129.63 226.698 128.584 225.852 127.395 224.889C122.566 220.978 121.553 217.364 120.513 213.49C119.423 209.457 118.254 205.301 112.848 200.923C107.442 196.545 103.133 196.266 98.961 196.038C94.9846 195.79 91.2465 195.616 86.4171 191.705C81.5877 187.795 80.5754 184.181 79.5713 180.336C78.4811 176.303 77.348 172.176 71.9419 167.798C66.5358 163.42 62.2269 163.141 58.0551 162.913C54.0787 162.665 50.3407 162.491 45.5113 158.58C44.3219 157.617 43.2768 156.771 42.3397 156.012C35.1095 150.276 34.3236 149.699 33.168 138.599C32.1378 128.67 32.4915 127.054 36.7941 121.741C37.3174 121.095 37.8697 120.413 38.4802 119.659C39.2361 118.725 40.0792 117.684 41.0385 116.499C44.9341 111.689 48.5468 110.691 52.4198 109.666C56.4522 108.592 60.6078 107.44 64.9686 102.055C69.3293 96.6698 69.5926 92.3654 69.8047 88.1979C70.0377 84.2256 70.1974 80.4912 74.093 75.6805C77.9886 70.8698 81.6012 69.8721 85.4452 68.8834C89.4776 67.8094 93.6042 66.6929 97.9649 61.3078C102.326 55.9227 102.589 51.6183 102.801 47.4508C103.034 43.4785 103.194 39.7441 107.089 34.9334C108.049 33.7487 108.892 32.7076 109.648 31.7742C115.325 24.5424 115.935 23.7885 127.04 22.676C139.607 21.3799 141.289 22.029 149.526 31.0172C153.515 35.3766 154.571 38.7881 155.585 42.1054C156.805 46.1252 157.969 49.9206 163.699 54.561C169.105 58.9387 173.414 59.2182 177.586 59.4459C181.562 59.6939 185.3 59.8676 190.13 63.7784C194.959 67.6892 195.971 71.3027 196.975 75.1474C198.066 79.1807 199.199 83.3082 204.605 87.6859C210.011 92.0636 214.32 92.3431 218.492 92.5708C222.468 92.8188 226.206 92.9926 231.035 96.9033C232.225 97.8664 233.27 98.7128 234.207 99.4716C241.437 105.208 242.223 105.785 243.379 116.885L243.415 116.914Z" fill="#9FA0A0"/>
<path opacity="0.238095" d="M232.373 100.62C227.295 96.0474 223.116 95.5822 219.001 95.1138C215.113 94.6662 211.455 94.3035 206.918 90.2187C202.382 86.1339 201.574 82.537 200.787 78.7137C199.925 74.701 199.025 70.5937 193.947 66.0211C188.869 61.4486 184.656 60.9529 180.575 60.515C176.687 60.0674 173.029 59.7047 168.492 55.6199C163.617 51.2303 162.827 47.9543 161.878 44.1071C161.017 40.706 160.067 36.8587 156.036 32.008C147.971 22.2423 145.566 21.237 132.525 21.8306C120.645 22.4301 119.521 23.6778 113.394 30.6185C112.605 31.4953 111.724 32.4733 110.753 33.5525C106.198 38.6111 105.718 42.8202 105.296 46.8977C104.863 50.7825 104.514 54.4378 100.445 58.9568C96.3765 63.4758 92.7812 64.2689 88.9594 65.0412C85.0161 65.9484 80.8463 66.8348 76.2915 71.8934C71.7368 76.952 71.2572 81.1611 70.8349 85.2386C70.4021 89.1235 70.0534 92.7788 65.9845 97.2978C61.9155 101.817 58.3202 102.61 54.468 103.416C50.5212 104.259 46.3514 105.145 41.7967 110.204C40.825 111.283 39.9444 112.261 39.1549 113.138C32.8285 119.96 31.7353 121.174 32.3506 133.086C32.9963 144.964 34.249 146.092 41.2162 152.243C42.0964 153.036 43.0782 153.92 44.1616 154.896C49.2399 159.468 53.4526 159.964 57.5334 160.402C61.4216 160.849 65.0797 161.212 69.6163 165.297C74.153 169.382 74.9602 172.979 75.7476 176.802C76.6705 180.747 77.5734 184.919 82.6517 189.491C87.73 194.064 91.9427 194.559 96.0235 194.997C99.9117 195.445 103.57 195.808 108.106 199.892C112.643 203.977 113.45 207.574 114.272 211.428C115.13 215.376 116.033 219.548 121.111 224.12C122.195 225.096 123.177 225.98 124.057 226.772C130.903 233.059 132.125 234.22 144.07 233.617C154.731 233.08 156.733 232.013 161.41 226.819C161.956 226.212 162.563 225.538 163.201 224.83C163.991 223.953 164.871 222.975 165.843 221.896C170.398 216.837 170.877 212.628 171.3 208.55C171.732 204.665 172.081 201.01 176.15 196.491C180.219 191.972 183.814 191.179 187.636 190.407C191.647 189.561 195.753 188.677 200.307 183.619C204.862 178.56 205.342 174.351 205.764 170.274C206.197 166.389 206.545 162.733 210.614 158.214C214.683 153.695 218.279 152.902 222.131 152.096C226.142 151.25 230.278 150.333 234.833 145.275C235.804 144.195 236.685 143.217 237.474 142.341C243.737 135.522 244.894 134.305 244.245 122.362C243.599 110.484 242.346 109.356 235.349 103.238C234.469 102.446 233.487 101.562 232.403 100.586L232.373 100.62ZM241.967 122.509C242.564 133.489 241.922 134.133 235.782 140.816C234.992 141.693 234.112 142.671 233.109 143.784C229.041 148.303 225.445 149.096 221.593 149.902C217.582 150.748 213.446 151.665 208.891 156.724C204.337 161.783 203.857 165.992 203.435 170.069C203.002 173.954 202.653 177.609 198.584 182.128C194.515 186.647 190.92 187.44 187.098 188.213C183.087 189.059 178.982 189.942 174.427 195.001C169.872 200.059 169.392 204.268 168.97 208.346C168.537 212.231 168.189 215.886 164.12 220.405C163.118 221.518 162.237 222.496 161.448 223.373C155.473 230.145 154.869 230.884 143.917 231.404C132.936 231.958 132.255 231.284 125.579 225.15C124.698 224.358 123.717 223.474 122.599 222.468C118.063 218.383 117.255 214.786 116.434 210.932C115.572 206.92 114.639 202.782 109.56 198.209C104.482 193.637 100.269 193.141 96.1886 192.703C92.3005 192.256 88.6424 191.893 84.1057 187.808C79.5691 183.723 78.7618 180.126 77.9744 176.303C77.1123 172.29 76.2129 168.183 71.1346 163.611C66.0563 159.038 61.8436 158.542 57.7628 158.104C53.8746 157.657 50.2165 157.294 45.6799 153.209C44.5626 152.203 43.5808 151.319 42.7006 150.527C35.9026 144.528 35.1613 143.922 34.5983 132.973C34.0982 123.179 34.5282 121.612 39.0223 116.621C39.5688 116.014 40.1458 115.373 40.7834 114.665C41.5729 113.788 42.4535 112.81 43.4556 111.698C47.5245 107.179 51.1198 106.385 54.972 105.579C58.983 104.733 63.119 103.816 67.6737 98.7577C72.2285 93.6991 72.7081 89.49 73.1304 85.4125C73.5632 81.5277 73.9119 77.8724 77.9808 73.3534C82.0498 68.8344 85.6451 68.0413 89.4669 67.269C93.4779 66.4228 97.5835 65.5396 102.138 60.481C106.693 55.4224 107.173 51.2133 107.595 47.1358C108.028 43.2509 108.376 39.5957 112.445 35.0767C113.447 33.9638 114.328 32.9858 115.117 32.109C121.059 25.3064 121.696 24.5982 132.648 24.0778C145.042 23.4524 146.659 24.1756 154.277 33.4166C157.966 37.8983 158.827 41.2993 159.651 44.6057C160.641 48.6119 161.588 52.395 166.971 57.2419C172.049 61.8144 176.262 62.3101 180.343 62.748C184.231 63.1956 187.889 63.5583 192.425 67.6431C196.962 71.7279 197.769 75.3249 198.557 79.1481C199.419 83.1608 200.318 87.2682 205.397 91.8407C210.475 96.4132 214.688 96.9089 218.768 97.3468C222.657 97.7945 226.315 98.1571 230.851 102.242C231.969 103.248 232.95 104.132 233.831 104.924C240.629 110.923 241.37 111.53 241.933 122.479L241.967 122.509Z" fill="#9FA0A0"/>
<path opacity="0.285714" d="M231.942 105.964C227.197 101.218 223.123 100.547 219.112 99.8766C215.322 99.2378 211.753 98.6941 207.514 94.455C203.275 90.2159 202.668 86.6469 202.092 82.857C201.453 78.8775 200.782 74.8032 196.037 70.058C191.292 65.3128 187.186 64.6102 183.206 63.971C179.416 63.3321 175.847 62.7884 171.608 58.5494C167.053 53.9939 166.446 50.7407 165.713 46.9189C165.043 43.5392 164.31 39.7174 160.606 34.7532C153.198 24.7616 150.891 23.652 138.072 23.5639C126.39 23.5412 125.224 24.7072 118.859 31.1989C118.04 32.0182 117.126 32.9321 116.117 33.9405C111.391 38.6673 110.704 42.7705 110.08 46.7475C109.456 50.5351 108.926 54.1019 104.704 58.3245C100.481 62.5472 96.9144 63.1401 93.1266 63.7011C89.2129 64.3881 85.078 65.0431 80.3512 69.7699C75.6244 74.4967 74.9378 78.5999 74.314 82.577C73.6899 86.3646 73.1601 89.9313 68.9375 94.154C64.7148 98.3766 61.1482 98.9695 57.329 99.562C53.4151 100.186 49.2802 100.841 44.5534 105.568C43.545 106.576 42.6312 107.49 41.8119 108.309C35.257 114.674 34.1225 115.809 34.1137 127.522C34.1365 139.205 35.3069 140.375 41.8235 146.766C42.646 147.588 43.5634 148.506 44.5757 149.518C49.321 154.263 53.4269 154.966 57.4064 155.605C61.1964 156.244 64.7653 156.788 69.0044 161.027C73.2434 165.266 73.8503 168.835 74.426 172.625C75.1282 176.541 75.7993 180.678 80.5445 185.424C85.2898 190.169 89.3957 190.872 93.3752 191.511C97.1652 192.15 100.734 192.693 104.973 196.932C109.212 201.171 109.819 204.74 110.426 208.562C111.065 212.478 111.737 216.616 116.482 221.361C117.494 222.373 118.412 223.291 119.234 224.113C125.625 230.63 126.764 231.832 138.509 231.855C148.991 231.875 151.01 230.932 155.863 226.079C156.43 225.512 157.06 224.881 157.722 224.22C158.542 223.4 159.455 222.486 160.464 221.478C165.191 216.751 165.877 212.648 166.501 208.671C167.125 204.883 167.655 201.317 171.878 197.094C176.1 192.871 179.667 192.278 183.455 191.717C187.432 191.094 191.503 190.439 196.23 185.712C200.957 180.985 201.644 176.882 202.267 172.905C202.891 169.117 203.421 165.55 207.644 161.328C211.866 157.105 215.433 156.512 219.252 155.92C223.229 155.296 227.333 154.609 232.059 149.882C233.068 148.874 233.982 147.96 234.801 147.141C241.293 140.776 242.49 139.641 242.467 127.896C242.445 116.214 241.274 115.043 234.726 108.684C233.904 107.862 232.986 106.944 231.974 105.932L231.942 105.964ZM240.226 127.923C240.247 138.721 239.585 139.32 233.219 145.559C232.4 146.379 231.486 147.292 230.446 148.332C226.223 152.555 222.657 153.148 218.838 153.74C214.861 154.364 210.757 155.051 206.031 159.778C201.304 164.504 200.617 168.608 199.993 172.585C199.369 176.372 198.839 179.939 194.617 184.162C190.394 188.384 186.828 188.977 183.04 189.538C179.063 190.162 174.991 190.817 170.264 195.544C165.537 200.271 164.851 204.374 164.227 208.351C163.603 212.138 163.073 215.705 158.851 219.928C157.811 220.968 156.897 221.882 156.077 222.701C149.87 229.035 149.24 229.728 138.473 229.676C127.675 229.655 127.042 228.959 120.81 222.601C119.987 221.778 119.07 220.861 118.026 219.817C113.787 215.578 113.18 212.009 112.573 208.187C111.933 204.208 111.231 200.102 106.486 195.357C101.74 190.611 97.6345 189.909 93.655 189.27C89.8649 188.631 86.2961 188.087 82.057 183.848C77.8179 179.609 77.2111 176.04 76.6354 172.25C75.9962 168.27 75.3252 164.196 70.58 159.451C65.8347 154.706 61.7288 154.003 57.7493 153.364C53.9593 152.725 50.3904 152.181 46.1513 147.942C45.1074 146.898 44.19 145.981 43.3675 145.158C37.0091 138.926 36.3132 138.293 36.3239 127.527C36.3367 117.897 36.839 116.382 41.5028 111.719C42.07 111.151 42.6687 110.553 43.3305 109.891C44.1498 109.072 45.0636 108.158 46.1035 107.118C50.3262 102.895 53.8928 102.302 57.712 101.71C61.6891 101.086 65.7923 100.399 70.5191 95.6726C75.2459 90.9457 75.9326 86.8425 76.5563 82.8655C77.1804 79.0779 77.7102 75.5111 81.9328 71.2885C86.1555 67.0659 89.7221 66.4729 93.5098 65.912C97.4869 65.2882 101.559 64.6331 106.285 59.9063C111.012 55.1795 111.699 51.0763 112.323 47.0992C112.947 43.3116 113.476 39.7449 117.699 35.5222C118.739 34.4823 119.653 33.5685 120.472 32.7492C126.648 26.3833 127.31 25.7216 138.077 25.7741C150.264 25.7978 151.813 26.5901 158.809 36.0442C162.196 40.6289 162.866 44.0086 163.503 47.2935C164.269 51.2732 165.002 55.0319 170.032 60.0618C174.778 64.8071 178.884 65.5096 182.863 66.1489C186.653 66.7877 190.222 67.3314 194.461 71.5705C198.7 75.8095 199.307 79.3785 199.883 83.1684C200.522 87.1479 201.193 91.2222 205.938 95.9675C210.683 100.713 214.789 101.415 218.769 102.055C222.559 102.693 226.128 103.237 230.367 107.476C231.411 108.52 232.328 109.437 233.151 110.26C239.509 116.492 240.205 117.125 240.194 127.892L240.226 127.923Z" fill="#9FA0A0"/>
<path opacity="0.333333" d="M231.214 111.187C226.806 106.292 222.846 105.425 218.948 104.561C215.265 103.74 211.794 103.023 207.856 98.6497C203.918 94.2761 203.507 90.746 203.137 87.001C202.715 83.0668 202.266 79.038 197.858 74.1422C193.45 69.2463 189.461 68.3466 185.592 67.5155C181.909 66.6944 178.439 65.9781 174.501 61.6044C170.269 56.9044 169.841 53.6839 169.319 49.8995C168.836 46.5518 168.313 42.7673 164.937 37.7103C158.188 27.5343 155.983 26.328 143.421 25.5831C131.969 24.9606 130.766 26.0437 124.192 32.0809C123.347 32.8421 122.404 33.691 121.364 34.6278C116.487 39.0189 115.603 43.0063 114.787 46.8732C113.981 50.5543 113.278 54.0238 108.921 57.9466C104.565 61.8693 101.038 62.2674 97.2956 62.6227C93.4234 63.0952 89.3361 63.5249 84.4592 67.916C79.5824 72.3071 78.6984 76.2945 77.8826 80.1614C77.0762 83.8425 76.3735 87.312 72.0168 91.2348C67.6602 95.1575 64.1331 95.5556 60.3584 95.9402C56.4894 96.3507 52.4021 96.7804 47.5252 101.172C46.4848 102.108 45.542 102.957 44.6966 103.718C37.9434 109.622 36.773 110.676 36.1625 122.159C35.5846 133.613 36.672 134.82 42.7322 141.42C43.4963 142.269 44.3486 143.215 45.289 144.26C49.6972 149.156 53.6864 150.055 57.5549 150.887C61.2377 151.708 64.7086 152.424 68.6466 156.798C72.5846 161.171 72.9962 164.701 73.3658 168.446C73.8531 172.322 74.2984 176.413 78.7066 181.308C83.1149 186.204 87.1041 187.104 90.9726 187.935C94.6554 188.756 98.1262 189.473 102.064 193.846C106.002 198.22 106.414 201.75 106.813 205.528C107.238 209.4 107.684 213.491 112.092 218.386C113.032 219.431 113.884 220.377 114.649 221.226C120.579 227.943 121.634 229.18 133.147 229.806C143.423 230.364 145.45 229.543 150.457 225.035C151.042 224.508 151.693 223.923 152.375 223.308C153.221 222.547 154.164 221.698 155.204 220.761C160.081 216.37 160.965 212.382 161.781 208.516C162.587 204.834 163.29 201.365 167.646 197.442C172.003 193.519 175.53 193.121 179.272 192.766C183.203 192.359 187.229 191.926 192.106 187.535C196.982 183.144 197.866 179.156 198.682 175.289C199.489 171.608 200.191 168.139 204.548 164.216C208.905 160.293 212.432 159.895 216.206 159.51C220.137 159.103 224.195 158.641 229.072 154.25C230.112 153.313 231.055 152.464 231.901 151.703C238.592 145.796 239.824 144.746 240.405 133.23C240.983 121.776 239.896 120.568 233.803 113.998C233.039 113.149 232.187 112.203 231.246 111.158L231.214 111.187ZM238.206 133.141C237.672 143.729 236.992 144.281 230.431 150.071C229.586 150.832 228.643 151.681 227.57 152.647C223.213 156.57 219.686 156.968 215.912 157.353C211.981 157.76 207.923 158.222 203.046 162.613C198.169 167.004 197.285 170.992 196.469 174.859C195.663 178.54 194.96 182.009 190.604 185.932C186.247 189.855 182.72 190.253 178.978 190.608C175.047 191.015 171.021 191.448 166.144 195.839C161.268 200.231 160.384 204.218 159.568 208.085C158.761 211.766 158.059 215.236 153.702 219.158C152.629 220.124 151.686 220.973 150.841 221.734C144.43 227.625 143.776 228.273 133.224 227.668C122.639 227.093 122.054 226.378 116.271 219.824C115.507 218.976 114.655 218.029 113.685 216.952C109.747 212.578 109.335 209.048 108.936 205.271C108.514 201.336 108.036 197.275 103.628 192.379C99.2197 187.483 95.2305 186.584 91.362 185.752C87.6792 184.931 84.2084 184.215 80.2703 179.841C76.3323 175.468 75.9208 171.938 75.5511 168.193C75.1289 164.258 74.6805 160.23 70.2722 155.334C65.864 150.438 61.8748 149.538 58.0063 148.707C54.3235 147.886 50.8526 147.17 46.9146 142.796C45.9448 141.719 45.0925 140.772 44.3284 139.924C38.4151 133.487 37.7655 132.831 38.3291 122.277C38.8364 112.836 39.4066 111.377 44.2184 107.045C44.8037 106.518 45.4214 105.962 46.1042 105.347C46.9495 104.586 47.8923 103.737 48.9652 102.771C53.3219 98.8481 56.849 98.45 60.6236 98.0654C64.5546 97.6583 68.6125 97.1959 73.4894 92.8048C78.3662 88.4137 79.2502 84.4263 80.066 80.5594C80.8725 76.8783 81.5751 73.4088 85.9318 69.486C90.2884 65.5633 93.8155 65.1652 97.5577 64.8099C101.489 64.4027 105.514 63.9697 110.391 59.5785C115.268 55.1874 116.152 51.2 116.968 47.3332C117.774 43.652 118.477 40.1825 122.833 36.2598C123.906 35.2937 124.849 34.4448 125.694 33.6836C132.076 27.7601 132.759 27.1454 143.311 27.75C155.258 28.3994 156.736 29.2558 163.109 38.8836C166.194 43.5523 166.677 46.9 167.133 50.1532C167.679 54.0941 168.205 57.8166 172.878 63.0062C177.286 67.9021 181.275 68.8019 185.144 69.633C188.827 70.454 192.298 71.1703 196.236 75.544C200.174 79.9176 200.585 83.4477 200.955 87.1928C201.377 91.1269 201.826 95.1557 206.234 100.052C210.642 104.947 214.631 105.847 218.5 106.678C222.183 107.499 225.653 108.216 229.591 112.589C230.561 113.666 231.413 114.613 232.178 115.462C238.091 121.898 238.741 122.554 238.177 133.109L238.206 133.141Z" fill="#9FA0A0"/>
<path opacity="0.380952" d="M230.199 116.275C226.131 111.251 222.294 110.198 218.519 109.151C214.952 108.157 211.587 107.277 207.952 102.788C204.318 98.2998 204.095 94.8191 203.926 91.1298C203.714 87.2526 203.481 83.2813 199.413 78.2568C195.344 73.2324 191.481 72.1457 187.732 71.1325C184.165 70.1387 180.8 69.2584 177.166 64.7699C173.26 59.9464 173.006 56.7683 172.688 53.0326C172.387 49.727 172.069 45.9913 169.02 40.8619C162.929 30.5426 160.83 29.2472 148.557 27.8719C137.366 26.6737 136.131 27.6734 129.379 33.2524C128.511 33.9549 127.544 34.7385 126.476 35.6031C121.471 39.656 120.4 43.5183 119.402 47.266C118.422 50.8322 117.556 54.1963 113.085 57.8169C108.613 61.4375 105.136 61.6465 101.451 61.8025C97.6317 62.0667 93.604 62.2778 88.599 66.3308C83.5941 70.3837 82.523 74.246 81.5248 77.9937C80.5454 81.5599 79.6786 84.924 75.2075 88.5446C70.7364 92.1652 67.2594 92.3742 63.5404 92.5573C59.7275 92.7608 55.6998 92.972 50.6948 97.025C49.6271 97.8896 48.6595 98.6732 47.792 99.3757C40.8705 104.814 39.6693 105.787 38.4812 117.009C37.3266 128.205 38.3302 129.444 43.9304 136.223C44.6356 137.094 45.4222 138.066 46.2902 139.138C50.359 144.162 54.2222 145.249 57.9708 146.262C61.5378 147.256 64.9025 148.136 68.5372 152.624C72.172 157.113 72.394 160.594 72.5639 164.283C72.8423 168.106 73.0687 172.138 77.1374 177.162C81.2061 182.187 85.0694 183.274 88.8179 184.287C92.385 185.28 95.7497 186.161 99.3844 190.649C103.019 195.138 103.241 198.619 103.438 202.341C103.656 206.158 103.882 210.19 107.951 215.214C108.819 216.286 109.606 217.258 110.311 218.128C115.778 225.016 116.748 226.282 127.999 227.487C138.041 228.562 140.07 227.861 145.209 223.7C145.809 223.214 146.477 222.674 147.177 222.106C148.045 221.404 149.012 220.62 150.08 219.756C155.085 215.703 156.156 211.84 157.154 208.093C158.134 204.526 159.001 201.162 163.472 197.542C167.943 193.921 171.42 193.712 175.105 193.556C178.979 193.359 182.946 193.141 187.951 189.088C192.956 185.036 194.027 181.173 195.025 177.426C196.005 173.859 196.871 170.495 201.342 166.875C205.814 163.254 209.291 163.045 213.01 162.862C216.883 162.665 220.884 162.42 225.889 158.367C226.956 157.503 227.924 156.719 228.791 156.017C235.652 150.572 236.914 149.605 238.075 138.349C239.23 127.154 238.226 125.915 232.592 119.162C231.887 118.291 231.101 117.32 230.233 116.248L230.199 116.275ZM235.924 138.15C234.857 148.498 234.163 149.005 227.435 154.342C226.568 155.044 225.6 155.828 224.499 156.719C220.028 160.34 216.551 160.549 212.832 160.732C208.958 160.929 204.958 161.174 199.953 165.227C194.948 169.28 193.877 173.142 192.879 176.89C191.899 180.456 191.032 183.82 186.561 187.441C182.09 191.061 178.613 191.27 174.928 191.426C171.054 191.623 167.087 191.841 162.082 195.894C157.077 199.947 156.006 203.809 155.008 207.557C154.028 211.123 153.162 214.487 148.691 218.108C147.589 218.999 146.622 219.783 145.754 220.486C139.169 225.929 138.495 226.53 128.184 225.396C117.84 224.288 117.304 223.558 111.973 216.838C111.268 215.967 110.481 214.996 109.586 213.89C105.951 209.402 105.729 205.921 105.532 202.198C105.321 198.321 105.061 194.316 100.992 189.292C96.9235 184.267 93.0602 183.181 89.3117 182.168C85.7446 181.174 82.3799 180.293 78.7452 175.805C75.1105 171.316 74.8885 167.836 74.7185 164.147C74.5069 160.269 74.2743 156.298 70.2056 151.273C66.1368 146.249 62.2736 145.162 58.525 144.149C54.958 143.155 51.5933 142.275 47.9586 137.787C47.0634 136.681 46.2768 135.71 45.5716 134.839C40.107 128.227 39.504 127.551 40.5984 117.236C41.5805 108.011 42.2142 106.61 47.1525 102.611C47.7531 102.125 48.387 101.611 49.0877 101.044C49.9552 100.341 50.9229 99.5579 52.0239 98.6663C56.495 95.0457 59.9721 94.8367 63.6911 94.6537C67.5645 94.4565 71.565 94.2119 76.57 90.1589C81.5749 86.106 82.646 82.2437 83.6442 78.496C84.6236 74.9298 85.4904 71.5657 89.9615 67.9451C94.4326 64.3245 97.9096 64.1155 101.595 63.9595C105.469 63.7623 109.436 63.5447 114.441 59.4917C119.446 55.4388 120.517 51.5765 121.515 47.8288C122.494 44.2626 123.361 40.8985 127.832 37.2779C128.933 36.3863 129.901 35.6027 130.769 34.9002C137.327 29.4228 138.028 28.8554 148.338 29.99C160.013 31.24 161.417 32.1551 167.168 41.9179C169.952 46.6518 170.253 49.9575 170.534 53.169C170.866 57.0593 171.191 60.7344 175.503 66.0604C179.572 71.0848 183.435 72.1715 187.184 73.1847C190.751 74.1785 194.116 75.0588 197.751 79.5473C201.385 84.0358 201.607 87.5165 201.777 91.2057C201.989 95.083 202.221 99.0543 206.29 104.079C210.359 109.103 214.222 110.19 217.971 111.203C221.538 112.197 224.902 113.077 228.537 117.566C229.432 118.671 230.219 119.642 230.924 120.513C236.389 127.125 236.992 127.801 235.897 138.116L235.924 138.15Z" fill="#9FA0A0"/>
<path opacity="0.428571" d="M228.911 121.212C225.183 116.08 221.479 114.852 217.834 113.632C214.39 112.476 211.139 111.44 207.809 106.857C204.478 102.273 204.439 98.8514 204.462 95.2285C204.454 91.4192 204.43 87.5167 200.702 82.3855C196.974 77.2543 193.245 75.9914 189.625 74.8063C186.181 73.6496 182.93 72.6144 179.6 68.0305C176.021 63.1046 175.936 59.9781 175.816 56.3021C175.691 53.0482 175.571 49.3721 172.848 44.1905C167.41 33.7683 165.421 32.3914 153.467 30.4139C142.565 28.6655 141.305 29.5815 134.403 34.7004C133.517 35.344 132.529 36.062 131.438 36.8542C126.327 40.5678 125.08 44.2966 123.909 47.9168C122.767 51.3602 121.745 54.6114 117.179 57.9289C112.613 61.2463 109.196 61.2725 105.577 61.2362C101.822 61.2988 97.8652 61.2989 92.7539 65.0125C87.6426 68.726 86.395 72.4548 85.2247 76.0751C84.0821 79.5185 83.0602 82.7697 78.4941 86.0871C73.9281 89.4046 70.511 89.4308 66.8582 89.4192C63.1124 89.4229 59.1557 89.4229 54.0445 93.1365C52.9541 93.9287 51.9659 94.6467 51.0799 95.2904C44.0199 100.263 42.7932 101.154 41.0532 112.087C39.3472 122.996 40.2667 124.262 45.405 131.191C46.0512 132.08 46.772 133.072 47.5673 134.167C51.2953 139.298 55.0242 140.561 58.6445 141.746C62.088 142.903 65.3391 143.938 68.6695 148.522C71.9999 153.106 72.0387 156.527 72.0157 160.15C72.0922 163.91 72.1069 167.871 75.835 173.002C79.563 178.133 83.2919 179.396 86.9122 180.581C90.3557 181.738 93.6068 182.773 96.9372 187.357C100.268 191.941 100.306 195.362 100.308 199.02C100.326 202.77 100.341 206.731 104.069 211.862C104.864 212.957 105.585 213.949 106.231 214.839C111.233 221.867 112.118 223.157 123.079 224.915C132.861 226.484 134.885 225.902 140.133 222.089C140.746 221.643 141.428 221.148 142.143 220.628C143.029 219.985 144.017 219.267 145.108 218.475C150.219 214.761 151.467 211.032 152.637 207.412C153.78 203.969 154.802 200.717 159.368 197.4C163.934 194.082 167.351 194.056 170.969 194.093C174.774 194.098 178.672 194.089 183.783 190.375C188.894 186.662 190.142 182.933 191.312 179.313C192.455 175.869 193.477 172.618 198.043 169.301C202.609 165.983 206.026 165.957 209.679 165.969C213.484 165.974 217.415 165.94 222.527 162.226C223.617 161.434 224.605 160.716 225.491 160.073C232.492 155.091 233.778 154.209 235.493 143.241C237.199 132.333 236.28 131.067 231.107 124.163C230.461 123.273 229.74 122.281 228.945 121.187L228.911 121.212ZM233.397 142.935C231.82 153.018 231.113 153.479 224.249 158.362C223.363 159.006 222.374 159.724 221.25 160.541C216.684 163.858 213.267 163.884 209.614 163.873C205.809 163.867 201.877 163.901 196.766 167.615C191.655 171.328 190.407 175.057 189.237 178.678C188.094 182.121 187.073 185.372 182.506 188.69C177.94 192.007 174.523 192.033 170.905 191.997C167.1 191.991 163.202 192.001 158.091 195.714C152.98 199.428 151.732 203.157 150.562 206.777C149.419 210.22 148.397 213.471 143.831 216.789C142.707 217.606 141.718 218.324 140.832 218.968C134.101 223.963 133.411 224.517 123.368 222.876C113.291 221.26 112.803 220.517 107.925 213.66C107.279 212.77 106.558 211.778 105.738 210.649C102.408 206.066 102.369 202.644 102.367 198.987C102.359 195.178 102.31 191.241 98.582 186.11C94.854 180.979 91.1251 179.716 87.5048 178.531C84.0613 177.374 80.8102 176.339 77.4798 171.755C74.1494 167.171 74.1106 163.75 74.1336 160.127C74.1252 156.317 74.1013 152.415 70.3733 147.284C66.6452 142.153 62.9163 140.89 59.296 139.705C55.8525 138.548 52.6014 137.513 49.271 132.929C48.4509 131.8 47.7301 130.808 47.0839 129.919C42.0699 123.161 41.5139 122.467 43.1157 112.418C44.5514 103.431 45.2442 102.091 50.2873 98.4272C50.9007 97.9816 51.5481 97.5112 52.2637 96.9913C53.1496 96.3476 54.1378 95.6297 55.2623 94.8127C59.8284 91.4953 63.2454 91.4691 66.8982 91.4807C70.703 91.4864 74.6348 91.4521 79.7461 87.7386C84.8573 84.025 86.1049 80.2962 87.2752 76.6759C88.4178 73.2325 89.4397 69.9814 94.0058 66.6639C98.5719 63.3465 101.989 63.3203 105.608 63.3566C109.412 63.3624 113.31 63.3528 118.421 59.6393C123.533 55.9257 124.78 52.1969 125.951 48.5767C127.093 45.1333 128.115 41.8821 132.681 38.5646C133.806 37.7476 134.794 37.0297 135.68 36.386C142.386 31.3567 143.102 30.8368 153.144 32.4777C164.518 34.3017 165.846 35.2703 170.979 45.1299C173.463 49.9105 173.589 53.1644 173.698 56.3251C173.825 60.1533 173.954 63.7704 177.905 69.2094C181.633 74.3406 185.362 75.6036 188.983 76.7886C192.426 77.9453 195.677 78.9805 199.008 83.5644C202.338 88.1482 202.377 91.5695 202.354 95.1925C202.362 99.0018 202.386 102.904 206.114 108.035C209.842 113.167 213.571 114.43 217.191 115.615C220.635 116.771 223.886 117.807 227.216 122.39C228.037 123.519 228.757 124.511 229.403 125.401C234.417 132.159 234.973 132.852 233.372 142.901L233.397 142.935Z" fill="#9FA0A0"/>
<path opacity="0.47619" d="M227.363 125.982C223.975 120.766 220.411 119.372 216.904 117.991C213.591 116.682 210.46 115.501 207.434 110.841C204.408 106.181 204.545 102.829 204.754 99.2818C204.941 95.5509 205.118 91.728 201.73 86.5117C198.343 81.2954 194.756 79.8672 191.271 78.5209C187.959 77.2114 184.828 76.0308 181.802 71.3709C178.55 66.3632 178.627 63.2971 178.698 59.6909C178.743 56.498 178.814 52.8919 176.413 47.6777C171.623 37.1921 169.745 35.7417 158.141 33.1916C147.554 30.9199 146.273 31.7522 139.251 36.4109C138.35 36.9958 137.346 37.6482 136.237 38.3681C131.041 41.7424 129.628 45.33 128.296 48.8153C127.001 52.1287 125.833 55.2602 121.191 58.2746C116.549 61.2891 113.202 61.1394 109.66 60.918C105.979 60.7867 102.104 60.5837 96.9083 63.9581C91.7122 67.3324 90.299 70.92 88.9672 74.4053C87.6715 77.7188 86.5039 80.8502 81.8621 83.8646C77.2203 86.8791 73.8726 86.7294 70.296 86.5305C66.6275 86.3419 62.7528 86.1389 57.5567 89.5133C56.4482 90.2331 55.4436 90.8855 54.543 91.4704C47.3739 95.9777 46.1269 96.7876 43.8617 107.405C41.6311 118 42.4667 119.287 47.143 126.336C47.7302 127.24 48.3851 128.249 49.1078 129.362C52.4953 134.578 56.0822 136.006 59.5667 137.353C62.8796 138.662 66.0103 139.843 69.0365 144.503C72.0626 149.163 71.9251 152.515 71.7166 156.062C71.5986 159.748 71.4097 163.628 74.7972 168.844C78.1847 174.061 81.7716 175.489 85.2562 176.835C88.5691 178.145 91.6997 179.325 94.7259 183.985C97.7521 188.645 97.6145 191.997 97.4287 195.579C97.2534 199.253 97.0645 203.133 100.452 208.349C101.175 209.462 101.83 210.47 102.417 211.375C106.955 218.514 107.755 219.823 118.399 222.107C127.898 224.145 129.91 223.679 135.245 220.215C135.868 219.81 136.561 219.36 137.289 218.888C138.189 218.303 139.194 217.65 140.302 216.931C145.499 213.556 146.912 209.969 148.244 206.483C149.539 203.17 150.707 200.038 155.349 197.024C159.99 194.01 163.338 194.159 166.88 194.381C170.606 194.582 174.423 194.772 179.619 191.398C184.815 188.023 186.229 184.436 187.56 180.951C188.856 177.637 190.024 174.506 194.666 171.491C199.307 168.477 202.655 168.627 206.232 168.825C209.957 169.026 213.81 169.195 219.006 165.82C220.114 165.1 221.119 164.448 222.019 163.863C229.131 159.343 230.435 158.546 232.678 147.893C234.909 137.298 234.073 136.011 229.362 128.985C228.775 128.081 228.12 127.072 227.397 125.959L227.363 125.982ZM230.641 147.486C228.579 157.279 227.863 157.695 220.89 162.124C219.99 162.709 218.985 163.361 217.842 164.104C213.2 167.118 209.852 166.969 206.276 166.77C202.55 166.569 198.698 166.401 193.502 169.775C188.306 173.149 186.893 176.737 185.561 180.222C184.265 183.536 183.097 186.667 178.456 189.682C173.814 192.696 170.466 192.546 166.924 192.325C163.198 192.124 159.381 191.933 154.185 195.308C148.989 198.682 147.576 202.27 146.244 205.755C144.948 209.068 143.78 212.2 139.139 215.214C137.996 215.957 136.991 216.609 136.09 217.194C129.242 221.74 128.537 222.247 118.786 220.125C109.001 218.025 108.562 217.272 104.137 210.307C103.55 209.403 102.895 208.394 102.149 207.247C99.1232 202.587 99.2608 199.234 99.4466 195.653C99.634 191.922 99.7882 188.064 96.4007 182.848C93.0132 177.632 89.4263 176.203 85.9417 174.857C82.6289 173.548 79.4982 172.367 76.472 167.707C73.4458 163.047 73.5834 159.695 73.7918 156.148C73.9792 152.417 74.156 148.594 70.7685 143.378C67.381 138.162 63.794 136.733 60.3095 135.387C56.9966 134.078 53.866 132.897 50.8398 128.237C50.0945 127.089 49.4396 126.081 48.8524 125.177C44.2891 118.301 43.7802 117.594 45.8645 107.835C47.7318 99.1073 48.479 97.831 53.6058 94.5017C54.2293 94.0967 54.8875 93.6693 55.6149 93.1969C56.5156 92.612 57.5201 91.9596 58.6633 91.2173C63.3051 88.2028 66.6528 88.3526 70.2294 88.5514C73.9551 88.7523 77.8072 88.9205 83.0033 85.5461C88.1994 82.1718 89.6126 78.5842 90.9444 75.0989C92.2401 71.7854 93.4077 68.654 98.0495 65.6396C102.691 62.6251 106.039 62.7748 109.581 62.9962C113.307 63.1971 117.124 63.3878 122.32 60.0134C127.516 56.639 128.93 53.0515 130.261 49.5662C131.557 46.2527 132.725 43.1213 137.366 40.1068C138.51 39.3645 139.514 38.7121 140.415 38.1272C147.241 33.5462 147.968 33.0738 157.719 35.1961C168.763 37.5661 170.014 38.5828 174.535 48.5018C176.722 53.3109 176.678 56.5039 176.623 59.6048C176.55 63.3602 176.491 66.9091 180.082 72.4384C183.469 77.6547 187.056 79.0829 190.541 80.4292C193.854 81.7387 196.984 82.9193 200.011 87.5792C203.037 92.2391 202.899 95.5916 202.691 99.1384C202.503 102.869 202.327 106.692 205.714 111.909C209.102 117.125 212.688 118.553 216.173 119.899C219.486 121.209 222.617 122.389 225.643 127.049C226.388 128.197 227.043 129.205 227.63 130.11C232.193 136.985 232.702 137.693 230.618 147.451L230.641 147.486Z" fill="#9FA0A0"/>
<path opacity="0.52381" d="M225.567 130.573C222.519 125.292 219.101 123.746 215.738 122.214C212.563 120.762 209.559 119.445 206.835 114.729C204.112 110.012 204.419 106.737 204.805 103.276C205.179 99.6329 205.549 95.8996 202.5 90.6195C199.452 85.3394 196.014 83.7573 192.672 82.2606C189.496 80.8087 186.492 79.4924 183.768 74.7754C180.842 69.7065 181.075 66.709 181.33 63.1825C181.537 60.0591 181.791 56.5327 179.708 51.3053C175.557 40.795 173.794 39.2788 162.565 36.1871C152.318 33.4202 151.02 34.1692 143.908 38.3695C142.996 38.8958 141.979 39.4829 140.857 40.1308C135.598 43.1674 134.03 46.6068 132.548 49.9503C131.109 53.1275 129.806 56.133 125.107 58.8458C120.409 61.5585 117.139 61.2402 113.683 60.8418C110.087 60.5244 106.304 60.1269 101.045 63.1636C95.785 66.2003 94.2175 69.6397 92.735 72.9832C91.2966 76.1604 89.993 79.1659 85.2943 81.8786C80.5957 84.5914 77.3263 84.2731 73.8353 83.8949C70.2538 83.5221 66.4712 83.1246 61.2115 86.1613C60.0895 86.8091 59.0726 87.3962 58.1609 87.9225C50.9117 91.967 49.6494 92.6958 46.8873 102.973C44.1602 113.231 44.9121 114.533 49.1282 121.674C49.6566 122.589 50.246 123.61 50.8963 124.736C53.9448 130.016 57.3829 131.599 60.7249 133.095C63.9007 134.547 66.9049 135.863 69.6282 140.58C72.3515 145.297 72.0448 148.572 71.6588 152.033C71.3542 155.636 70.9702 159.424 74.0187 164.704C77.0672 169.985 80.5052 171.567 83.8472 173.063C87.0231 174.515 90.0272 175.832 92.7505 180.548C95.4738 185.265 95.1671 188.54 94.8015 192.037C94.4414 195.624 94.0575 199.413 97.1059 204.693C97.7563 205.819 98.3457 206.84 98.8741 207.755C102.95 214.977 103.667 216.299 113.969 219.081C123.163 221.564 125.157 221.211 130.557 218.093C131.188 217.729 131.889 217.324 132.625 216.899C133.537 216.373 134.554 215.786 135.676 215.138C140.936 212.101 142.503 208.662 143.986 205.318C145.424 202.141 146.728 199.135 151.426 196.423C156.125 193.71 159.394 194.028 162.85 194.427C166.487 194.814 170.214 195.197 175.474 192.16C180.734 189.124 182.301 185.684 183.784 182.341C185.222 179.164 186.526 176.158 191.224 173.445C195.923 170.732 199.192 171.051 202.683 171.429C206.32 171.817 210.083 172.179 215.342 169.142C216.464 168.495 217.481 167.907 218.393 167.381C225.587 163.322 226.904 162.608 229.646 152.295C232.373 142.038 231.621 140.735 227.37 133.615C226.842 132.7 226.252 131.679 225.602 130.552L225.567 130.573ZM227.673 151.792C225.152 161.273 224.43 161.643 217.377 165.621C216.465 166.147 215.448 166.735 214.291 167.403C209.592 170.115 206.323 169.797 202.832 169.419C199.195 169.031 195.433 168.669 190.173 171.705C184.914 174.742 183.346 178.182 181.864 181.525C180.425 184.702 179.122 187.708 174.423 190.42C169.724 193.133 166.455 192.815 162.999 192.417C159.362 192.029 155.635 191.646 150.375 194.683C145.115 197.72 143.548 201.159 142.065 204.502C140.627 207.68 139.323 210.685 134.625 213.398C133.468 214.066 132.451 214.653 131.539 215.179C124.602 219.278 123.886 219.739 114.45 217.161C104.978 214.603 104.587 213.844 100.613 206.798C100.084 205.883 99.4948 204.862 98.8241 203.701C96.1008 198.984 96.4075 195.709 96.7731 192.213C97.1479 188.57 97.4968 184.801 94.4483 179.521C91.3998 174.241 87.9618 172.659 84.6198 171.162C81.4439 169.71 78.4398 168.394 75.7165 163.677C72.9932 158.96 73.2999 155.686 73.6858 152.224C74.0607 148.582 74.4299 144.848 71.3814 139.568C68.3329 134.288 64.8948 132.706 61.5528 131.209C58.377 129.757 55.3729 128.441 52.6496 123.724C51.9789 122.562 51.3895 121.542 50.8611 120.626C46.7466 113.662 46.2848 112.943 48.8258 103.497C51.1015 95.049 51.8984 93.838 57.088 90.8418C57.7191 90.4774 58.3853 90.0928 59.1217 89.6676C60.0334 89.1413 61.0502 88.5542 62.2074 87.8861C66.906 85.1734 70.1754 85.4917 73.6664 85.8698C77.3032 86.2576 81.0656 86.6199 86.3252 83.5832C91.5849 80.5466 93.1523 77.1072 94.6349 73.7637C96.0732 70.5865 97.3769 67.581 102.076 64.8682C106.774 62.1555 110.044 62.4738 113.5 62.8722C117.136 63.26 120.864 63.6425 126.123 60.6058C131.383 57.5692 132.95 54.1297 134.433 50.7862C135.871 47.6091 137.175 44.6036 141.874 41.8908C143.031 41.2227 144.048 40.6356 144.959 40.1093C151.876 35.9751 152.612 35.5499 162.049 38.1277C172.738 41.0144 173.911 42.0739 177.828 52.0156C179.722 56.8356 179.515 59.959 179.303 62.9917C179.038 66.6643 178.798 70.1353 182.03 75.7322C185.078 81.0124 188.516 82.5944 191.858 84.0912C195.034 85.543 198.038 86.8593 200.762 91.5763C203.485 96.2932 203.178 99.568 202.792 103.029C202.417 106.672 202.048 110.405 205.097 115.685C208.145 120.965 211.583 122.548 214.925 124.044C218.101 125.496 221.105 126.812 223.829 131.529C224.499 132.691 225.089 133.712 225.617 134.627C229.731 141.592 230.193 142.311 227.652 151.757L227.673 151.792Z" fill="#9FA0A0"/>
<path opacity="0.571429" d="M223.539 134.972C220.827 129.649 217.562 127.96 214.351 126.288C211.317 124.705 208.445 123.262 206.022 118.507C203.599 113.752 204.067 110.563 204.623 107.196C205.176 103.651 205.729 100.017 203.017 94.6936C200.304 89.3705 197.021 87.6461 193.828 86.0102C190.795 84.4266 187.923 82.9845 185.5 78.2292C182.896 73.1191 183.278 70.1979 183.708 66.7602C184.071 63.7146 184.501 60.2769 182.731 55.0549C179.208 44.5575 177.56 42.9834 166.73 39.3823C156.846 36.1493 155.538 36.8157 148.363 40.561C147.443 41.0293 146.418 41.5517 145.287 42.128C139.985 44.8298 138.275 48.1149 136.652 51.3106C135.082 54.3458 133.652 57.2199 128.915 59.6334C124.179 62.047 120.996 61.5678 117.634 61.0008C114.132 60.5057 110.451 59.9228 105.148 62.6245C99.8458 65.3263 98.1357 68.6114 96.5135 71.8071C94.9431 74.8422 93.5133 77.7164 88.7765 80.1299C84.0397 82.5434 80.8568 82.0643 77.4601 81.5153C73.9747 80.9667 70.2937 80.3838 64.9913 83.0855C63.8601 83.6619 62.8349 84.1842 61.9159 84.6525C54.615 88.2384 53.3424 88.8868 50.1125 98.8021C46.918 108.699 47.587 110.012 51.3463 117.216C51.8164 118.138 52.3408 119.168 52.9194 120.303C55.6317 125.626 58.9147 127.351 62.1082 128.987C65.1414 130.57 68.0135 132.012 70.4364 136.768C72.8594 141.523 72.3913 144.711 71.8361 148.079C71.3533 151.588 70.7833 155.275 73.4955 160.599C76.2077 165.922 79.4908 167.646 82.6843 169.282C85.7175 170.866 88.5896 172.308 91.0125 177.063C93.4354 181.818 92.9674 185.007 92.4303 188.41C91.894 191.901 91.324 195.589 94.0362 200.912C94.6148 202.048 95.1392 203.077 95.6093 203.999C99.2273 211.275 99.861 212.606 109.799 215.856C118.669 218.757 120.638 218.514 126.081 215.74C126.718 215.416 127.425 215.056 128.167 214.678C129.086 214.209 130.111 213.687 131.242 213.111C136.545 210.409 138.255 207.124 139.877 203.928C141.447 200.893 142.877 198.019 147.614 195.605C152.351 193.192 155.534 193.671 158.895 194.238C162.434 194.804 166.062 195.369 171.364 192.668C176.666 189.966 178.377 186.681 179.999 183.485C181.569 180.45 182.999 177.576 187.736 175.162C192.473 172.749 195.655 173.228 199.052 173.777C202.591 174.343 206.254 174.89 211.556 172.189C212.688 171.612 213.713 171.09 214.632 170.622C221.879 167.018 223.205 166.387 226.417 156.437C229.612 146.539 228.943 145.226 225.148 138.041C224.678 137.118 224.153 136.089 223.575 134.954L223.539 134.972ZM224.512 155.843C221.559 164.991 220.834 165.316 213.728 168.847C212.809 169.316 211.783 169.838 210.617 170.432C205.88 172.846 202.697 172.367 199.301 171.818C195.762 171.252 192.099 170.704 186.796 173.406C181.494 176.108 179.784 179.393 178.162 182.588C176.591 185.624 175.161 188.498 170.425 190.911C165.688 193.325 162.505 192.846 159.144 192.279C155.605 191.713 151.977 191.147 146.675 193.849C141.372 196.551 139.662 199.836 138.04 203.031C136.47 206.067 135.04 208.941 130.303 211.354C129.136 211.949 128.111 212.471 127.192 212.939C120.194 216.595 119.47 217.008 110.368 214.002C101.231 211.014 100.887 210.25 97.3595 203.152C96.8894 202.23 96.3651 201.201 95.7684 200.029C93.3454 195.274 93.8135 192.085 94.3506 188.683C94.9041 185.138 95.4388 181.468 92.7266 176.145C90.0143 170.822 86.7312 169.097 83.5378 167.461C80.5046 165.878 77.6325 164.436 75.2095 159.681C72.7866 154.925 73.2546 151.737 73.8098 148.369C74.3634 144.824 74.9161 141.19 72.2039 135.867C69.4917 130.544 66.2086 128.819 63.0151 127.183C59.9819 125.6 57.1098 124.158 54.6869 119.403C54.0902 118.231 53.5658 117.202 53.0957 116.28C49.4268 109.254 49.0117 108.527 51.9826 99.4137C54.6426 91.2639 55.4845 90.1198 60.7162 87.4541C61.3525 87.1299 62.0242 86.7877 62.7665 86.4094C63.6856 85.9411 64.7107 85.4188 65.8773 84.8244C70.6141 82.4109 73.797 82.89 77.1936 83.4391C80.7325 84.0051 84.3954 84.5525 89.6978 81.8508C95.0003 79.1491 96.7104 75.8639 98.3326 72.6682C99.903 69.6331 101.333 66.7589 106.07 64.3454C110.806 61.9319 113.989 62.411 117.351 62.9781C120.889 63.544 124.517 64.1095 129.819 61.4078C135.122 58.7061 136.832 55.4209 138.454 52.2252C140.025 49.1901 141.454 46.3159 146.191 43.9024C147.358 43.308 148.383 42.7857 149.302 42.3174C156.282 38.6267 157.025 38.2484 166.126 41.2548C176.438 44.6276 177.531 45.7245 180.854 55.6536C182.461 60.4672 182.098 63.5129 181.734 66.4696C181.288 70.0497 180.875 73.4338 183.75 79.0763C186.462 84.3994 189.745 86.1238 192.938 87.7598C195.971 89.3433 198.844 90.7854 201.267 95.5407C203.689 100.296 203.221 103.485 202.666 106.852C202.113 110.397 201.56 114.031 204.272 119.354C206.984 124.677 210.267 126.402 213.461 128.038C216.494 129.621 219.366 131.063 221.789 135.819C222.386 136.99 222.91 138.019 223.38 138.942C227.049 145.967 227.464 146.695 224.493 155.807L224.512 155.843Z" fill="#9FA0A0"/>
<path opacity="0.619048" d="M221.294 139.167C218.914 133.822 215.807 132.002 212.752 130.203C209.866 128.498 207.131 126.941 205.005 122.165C202.879 117.39 203.5 114.295 204.216 111.03C204.939 107.591 205.666 104.065 203.286 98.719C200.906 93.3734 197.783 91.5184 194.743 89.7546C191.858 88.0502 189.122 86.4924 186.996 81.7171C184.711 76.5853 185.234 73.7476 185.831 70.4073C186.342 67.4469 186.939 64.1065 185.476 58.9081C182.568 48.4599 181.037 46.8358 170.629 42.7584C161.126 39.0895 159.813 39.6743 152.603 42.9698C151.68 43.3807 150.65 43.8391 149.514 44.3448C144.19 46.7156 142.348 49.8412 140.598 52.8837C138.906 55.772 137.36 58.5099 132.604 60.6278C127.847 62.7457 124.758 62.1139 121.499 61.3869C118.099 60.7232 114.528 59.9643 109.203 62.3351C103.879 64.7059 102.037 67.8315 100.287 70.874C98.5954 73.7622 97.0496 76.5002 92.2927 78.6181C87.5359 80.7359 84.4472 80.1041 81.1531 79.393C77.7721 78.6778 74.2015 77.919 68.8767 80.2897C67.7407 80.7955 66.7112 81.2538 65.7883 81.6648C58.4634 84.7979 57.1854 85.3669 53.518 94.8996C49.886 104.416 50.4731 105.735 53.7809 112.973C54.1934 113.9 54.6536 114.933 55.1613 116.074C57.5413 121.419 60.6641 123.274 63.7038 125.038C66.5894 126.743 69.3247 128.3 71.4509 133.076C73.577 137.851 72.9558 140.946 72.2401 144.211C71.5879 147.619 70.8414 151.196 73.2214 156.542C75.6014 161.887 78.7242 163.742 81.7639 165.506C84.6495 167.211 87.3848 168.768 89.511 173.544C91.6371 178.319 91.0159 181.414 90.3161 184.715C89.6125 188.103 88.866 191.68 91.246 197.026C91.7537 198.166 92.2139 199.2 92.6264 200.126C95.7922 207.428 96.3438 208.762 105.898 212.451C114.424 215.743 116.363 215.606 121.83 213.172C122.468 212.888 123.178 212.572 123.924 212.24C124.847 211.829 125.876 211.37 127.012 210.865C132.337 208.494 134.178 205.368 135.929 202.326C137.62 199.437 139.166 196.7 143.923 194.582C148.68 192.464 151.769 193.096 155.027 193.823C158.46 194.558 161.979 195.297 167.304 192.926C172.628 190.555 174.47 187.429 176.22 184.387C177.912 181.499 179.457 178.761 184.214 176.643C188.971 174.525 192.06 175.157 195.354 175.868C198.786 176.603 202.341 177.326 207.666 174.955C208.802 174.45 209.831 173.991 210.754 173.58C218.028 170.427 219.357 169.878 223.009 160.31C226.641 150.793 226.054 149.474 222.71 142.252C222.298 141.325 221.838 140.292 221.33 139.151L221.294 139.167ZM221.175 159.632C217.818 168.428 217.092 168.709 209.961 171.798C209.038 172.209 208.009 172.668 206.837 173.189C202.08 175.307 198.992 174.675 195.697 173.964C192.265 173.229 188.71 172.506 183.385 174.877C178.061 177.248 176.22 180.373 174.469 183.416C172.777 186.304 171.232 189.042 166.475 191.16C161.718 193.278 158.629 192.646 155.371 191.919C151.938 191.184 148.419 190.445 143.094 192.816C137.769 195.186 135.928 198.312 134.178 201.355C132.486 204.243 130.94 206.981 126.184 209.099C125.012 209.62 123.983 210.078 123.06 210.489C116.027 213.706 115.297 214.073 106.549 210.666C97.7659 207.275 97.4682 206.511 94.3817 199.387C93.9692 198.461 93.509 197.427 92.9854 196.251C90.8593 191.476 91.4805 188.381 92.1803 185.08C92.9035 181.641 93.6146 178.079 91.2345 172.734C88.8545 167.388 85.7317 165.533 82.692 163.769C79.8064 162.065 77.0711 160.507 74.945 155.732C72.8188 150.956 73.4401 147.862 74.1557 144.596C74.8789 141.157 75.6058 137.631 73.2258 132.285C70.8458 126.94 67.723 125.085 64.6833 123.321C61.7977 121.617 59.0624 120.059 56.9362 115.284C56.4126 114.108 55.9525 113.074 55.54 112.147C52.3115 105.087 51.9428 104.355 55.3158 95.5937C58.3354 87.7586 59.2175 86.6827 64.4713 84.3435C65.1103 84.059 65.7848 83.7587 66.5302 83.4268C67.4532 83.0159 68.4827 82.5575 69.6541 82.036C74.411 79.9181 77.4997 80.5499 80.7938 81.261C84.2261 81.996 87.7809 82.7192 93.1057 80.3485C98.4305 77.9777 100.272 74.8521 102.022 71.8095C103.714 68.9213 105.26 66.1834 110.016 64.0655C114.773 61.9476 117.862 62.5794 121.121 63.3064C124.553 64.0414 128.072 64.7804 133.397 62.4096C138.722 60.0389 140.563 56.9133 142.313 53.8707C144.005 50.9825 145.551 48.2446 150.308 46.1267C151.479 45.6051 152.509 45.1468 153.432 44.7358C160.448 41.4837 161.194 41.1518 169.942 44.5589C179.855 48.3865 180.868 49.5154 183.609 59.3975C184.934 64.1881 184.423 67.1485 183.916 70.0218C183.295 73.5007 182.718 76.7896 185.241 82.4559C187.621 87.8015 190.744 89.6564 193.783 91.4203C196.669 93.1246 199.404 94.6824 201.53 99.4578C203.657 104.233 203.035 107.328 202.32 110.593C201.596 114.032 200.869 117.559 203.25 122.904C205.63 128.25 208.752 130.105 211.792 131.869C214.678 133.573 217.413 135.131 219.539 139.906C220.063 141.082 220.523 142.116 220.935 143.042C224.164 150.102 224.533 150.835 221.16 159.596L221.175 159.632Z" fill="#9FA0A0"/>
<path opacity="0.666667" d="M218.849 143.149C216.796 137.801 213.851 135.863 210.956 133.947C208.222 132.133 205.628 130.47 203.794 125.692C201.96 120.914 202.726 117.92 203.593 114.765C204.476 111.439 205.367 108.029 203.314 102.681C201.261 97.3326 198.303 95.3591 195.422 93.4788C192.688 91.6647 190.094 90.0015 188.26 85.2238C186.289 80.0895 186.945 77.342 187.7 74.1068C188.352 71.2386 189.106 68.0034 187.942 62.8461C185.634 52.482 184.22 50.8157 174.254 46.2961C165.151 42.2222 163.837 42.7266 156.619 45.5791C155.696 45.9336 154.666 46.329 153.529 46.7652C148.202 48.8103 146.242 51.7718 144.374 54.6567C142.573 57.3938 140.921 59.9914 136.162 61.8183C131.403 63.6452 128.415 62.8692 125.267 61.9915C121.976 61.1684 118.524 60.2435 113.196 62.2885C107.869 64.3335 105.909 67.295 104.041 70.18C102.24 72.9171 100.588 75.5147 95.8288 77.3415C91.0696 79.1684 88.0823 78.3925 84.8981 77.5284C81.6292 76.656 78.1772 75.7311 72.8497 77.7761C71.7132 78.2124 70.6832 78.6078 69.7598 78.9622C62.4379 81.6501 61.1593 82.1409 57.0853 91.2729C53.0468 100.391 53.5532 101.71 56.4163 108.957C56.7721 109.884 57.169 110.918 57.607 112.059C59.66 117.407 62.6181 119.38 65.4995 121.261C68.2334 123.075 70.8278 124.738 72.6618 129.516C74.4958 134.294 73.7299 137.287 72.8629 140.443C72.0507 143.741 71.1375 147.201 73.1905 152.549C75.2435 157.897 78.2015 159.871 81.083 161.751C83.8169 163.565 86.4113 165.228 88.2453 170.006C90.0793 174.784 89.3134 177.778 88.4601 180.969C87.5987 184.245 86.6855 187.705 88.7384 193.053C89.1764 194.194 89.5733 195.228 89.9292 196.155C92.6502 203.456 93.1211 204.788 102.273 208.884C110.441 212.54 112.342 212.505 117.812 210.406C118.451 210.16 119.162 209.888 119.907 209.601C120.831 209.247 121.861 208.851 122.997 208.415C128.325 206.37 130.285 203.409 132.152 200.524C133.954 197.787 135.606 195.189 140.365 193.362C145.124 191.535 148.112 192.311 151.26 193.189C154.578 194.083 157.981 194.986 163.309 192.941C168.636 190.896 170.596 187.935 172.463 185.05C174.265 182.313 175.917 179.715 180.676 177.888C185.435 176.061 188.423 176.837 191.607 177.701C194.925 178.596 198.363 179.485 203.691 177.44C204.827 177.004 205.857 176.608 206.781 176.254C214.053 173.544 215.381 173.075 219.441 163.908C223.48 154.789 222.974 153.47 220.075 146.237C219.719 145.31 219.322 144.276 218.884 143.135L218.849 143.149ZM217.684 163.15C213.951 171.579 213.227 171.816 206.096 174.471C205.173 174.826 204.143 175.221 202.971 175.671C198.212 177.498 195.224 176.722 192.04 175.858C188.722 174.963 185.284 174.074 179.956 176.119C174.629 178.164 172.669 181.126 170.801 184.011C168.999 186.748 167.348 189.345 162.589 191.172C157.829 192.999 154.842 192.223 151.693 191.345C148.375 190.451 144.973 189.548 139.645 191.593C134.318 193.638 132.357 196.6 130.49 199.485C128.688 202.222 127.037 204.819 122.278 206.646C121.106 207.096 120.076 207.491 119.152 207.846C112.112 210.63 111.38 210.952 103.001 207.173C94.5877 203.407 94.3358 202.645 91.6832 195.522C91.3273 194.595 90.9304 193.561 90.4788 192.385C88.6447 187.607 89.4107 184.613 90.264 181.422C91.1472 178.096 92.0249 174.65 89.9719 169.302C87.919 163.954 84.9609 161.98 82.0794 160.1C79.3455 158.286 76.7511 156.623 74.9171 151.845C73.0831 147.067 73.8491 144.073 74.716 140.918C75.5993 137.593 76.4907 134.182 74.4377 128.834C72.3847 123.486 69.4266 121.512 66.5451 119.632C63.8112 117.818 61.2168 116.155 59.3828 111.377C58.9312 110.2 58.5343 109.166 58.1784 108.239C55.3837 101.171 55.0608 100.436 58.8074 92.0436C62.161 84.5382 63.0786 83.5314 68.335 81.5137C68.9743 81.2683 69.6491 81.0093 70.395 80.7229C71.3184 80.3685 72.3484 79.9731 73.5204 79.5232C78.2796 77.6963 81.2669 78.4723 84.4511 79.3363C87.7692 80.2308 91.2075 81.12 96.535 79.075C101.862 77.03 103.823 74.0685 105.69 71.1835C107.492 68.4464 109.143 65.8488 113.903 64.022C118.662 62.1951 121.649 62.971 124.798 63.8487C128.116 64.7432 131.519 65.646 136.846 63.601C142.174 61.556 144.134 58.5945 146.001 55.7095C147.803 52.9725 149.454 50.3749 154.214 48.548C155.386 48.0981 156.416 47.7027 157.339 47.3482C164.366 44.5282 165.112 44.2419 173.49 48.0212C182.986 52.2713 183.919 53.4269 186.092 63.2289C187.142 67.9804 186.49 70.8485 185.847 73.6317C185.062 77.0012 184.329 80.1871 186.506 85.8562C188.559 91.2044 191.517 93.1779 194.398 95.0582C197.132 96.8723 199.726 98.5355 201.56 103.313C203.394 108.091 202.628 111.085 201.761 114.24C200.878 117.566 199.987 120.976 202.04 126.324C204.093 131.673 207.051 133.646 209.932 135.526C212.666 137.341 215.261 139.004 217.095 143.781C217.546 144.958 217.943 145.992 218.299 146.919C221.094 153.987 221.417 154.722 217.67 163.115L217.684 163.15Z" fill="#9FA0A0"/>
<path opacity="0.714286" d="M216.218 146.908C214.486 141.576 211.708 139.532 208.977 137.511C206.398 135.598 203.948 133.84 202.4 129.077C200.853 124.314 201.755 121.428 202.764 118.388C203.797 115.184 204.843 111.897 203.11 106.565C201.378 101.234 198.588 99.1537 195.869 97.1687C193.29 95.2558 190.84 93.4977 189.292 88.7348C187.629 83.6165 188.412 80.9651 189.315 77.8423C190.099 75.0728 191.002 71.9499 190.128 66.8503C188.404 56.6041 187.107 54.9033 177.599 49.9762C168.913 45.5288 167.603 45.9545 160.403 48.3724C159.482 48.6715 158.456 49.0051 157.323 49.3733C152.012 51.0989 149.944 53.8925 147.972 56.6162C146.071 59.1986 144.324 61.6525 139.58 63.1941C134.835 64.7356 131.956 63.8243 128.924 62.8054C125.75 61.8324 122.424 60.7518 117.113 62.4774C111.802 64.203 109.735 66.9967 107.762 69.7203C105.861 72.3028 104.114 74.7567 99.37 76.2982C94.6256 77.8398 91.746 76.9285 88.6786 75.9211C85.5288 74.9011 82.2028 73.8205 76.8919 75.5461C75.7589 75.9142 74.7321 76.2478 73.8116 76.5469C66.5187 78.7986 65.2441 79.2128 60.7951 87.9282C56.3816 96.632 56.8089 97.9472 59.2357 105.175C59.536 106.099 59.8709 107.13 60.2404 108.267C61.9728 113.599 64.7624 115.679 67.482 117.664C70.0607 119.577 72.5109 121.335 74.0584 126.098C75.606 130.861 74.7041 133.747 73.6953 136.787C72.7327 139.968 71.6631 143.302 73.3954 148.634C75.1277 153.965 77.9174 156.045 80.637 158.03C83.2157 159.943 85.6658 161.701 87.2134 166.464C88.761 171.227 87.8591 174.114 86.8618 177.189C85.8522 180.346 84.7826 183.68 86.515 189.012C86.8845 190.149 87.2194 191.18 87.5197 192.104C89.8049 199.378 90.1968 200.705 98.9304 205.176C106.725 209.167 108.585 209.23 114.038 207.458C114.675 207.251 115.383 207.021 116.127 206.78C117.047 206.481 118.074 206.147 119.207 205.779C124.518 204.053 126.585 201.26 128.558 198.536C130.459 195.953 132.206 193.5 136.95 191.958C141.695 190.416 144.574 191.328 147.606 192.347C150.803 193.391 154.082 194.447 159.393 192.722C164.704 190.996 166.771 188.202 168.743 185.479C170.644 182.896 172.391 180.442 177.136 178.901C181.88 177.359 184.76 178.271 187.827 179.278C191.024 180.322 194.338 181.367 199.649 179.642C200.782 179.273 201.809 178.94 202.73 178.641C209.976 176.365 211.297 175.975 215.735 167.224C220.148 158.52 219.721 157.205 217.259 149.989C216.958 149.064 216.623 148.034 216.254 146.896L216.218 146.908ZM214.056 166.394C209.976 174.439 209.256 174.634 202.152 176.864C201.232 177.163 200.205 177.496 199.036 177.876C194.292 179.417 191.412 178.506 188.345 177.499C185.148 176.455 181.834 175.41 176.523 177.135C171.212 178.861 169.145 181.655 167.172 184.378C165.271 186.961 163.524 189.414 158.78 190.956C154.036 192.498 151.156 191.586 148.124 190.567C144.927 189.523 141.648 188.467 136.337 190.192C131.026 191.918 128.959 194.712 126.987 197.435C125.086 200.018 123.339 202.472 118.594 204.013C117.426 204.393 116.399 204.726 115.479 205.026C108.456 207.386 107.724 207.663 99.73 203.541C91.7007 199.43 91.4936 198.672 89.2662 191.576C88.9659 190.652 88.631 189.621 88.2499 188.448C86.7023 183.685 87.6042 180.798 88.6014 177.724C89.6349 174.519 90.6691 171.197 88.9367 165.865C87.2044 160.534 84.4148 158.453 81.6952 156.468C79.1165 154.556 76.6663 152.797 75.1187 148.035C73.5712 143.272 74.473 140.385 75.4819 137.346C76.5153 134.141 77.5611 130.854 75.8287 125.523C74.0964 120.191 71.3068 118.111 68.5872 116.126C66.0085 114.213 63.5583 112.455 62.0107 107.692C61.6296 106.519 61.2947 105.488 60.9944 104.564C58.6254 97.5141 58.3475 96.7792 62.4386 88.7695C66.1002 81.6068 67.0484 80.6699 72.2885 78.9673C72.9258 78.7602 73.5985 78.5417 74.3421 78.3001C75.2626 78.001 76.2894 77.6674 77.4578 77.2877C82.2022 75.7462 85.0818 76.6575 88.1492 77.6649C91.3459 78.7089 94.6604 79.754 99.9713 78.0284C105.282 76.3028 107.349 73.5091 109.322 70.7855C111.223 68.203 112.97 65.7491 117.714 64.2076C122.459 62.666 125.338 63.5773 128.37 64.5963C131.567 65.6403 134.846 66.6969 140.157 64.9713C145.468 63.2456 147.535 60.452 149.508 57.7283C151.409 55.1459 153.156 52.692 157.9 51.1504C159.068 50.7708 160.095 50.4372 161.016 50.1381C168.027 47.7421 168.77 47.5006 176.764 51.6229C185.827 56.2626 186.679 57.4396 188.301 67.1297C189.083 71.8268 188.3 74.5963 187.529 77.2832C186.589 80.5357 185.71 83.6115 187.546 89.263C189.278 94.5945 192.068 96.6747 194.788 98.6597C197.366 100.573 199.816 102.331 201.364 107.094C202.912 111.856 202.01 114.743 201.001 117.782C199.967 120.987 198.922 124.274 200.654 129.605C202.386 134.937 205.176 137.017 207.896 139.002C210.474 140.915 212.924 142.673 214.472 147.436C214.853 148.609 215.188 149.64 215.488 150.564C217.857 157.614 218.135 158.349 214.044 166.359L214.056 166.394Z" fill="#9FA0A0"/>
<path opacity="0.761905" d="M213.419 150.435C211.999 145.139 209.391 143 206.826 140.886C204.405 138.886 202.102 137.043 200.834 132.312C199.567 127.58 200.595 124.807 201.736 121.89C202.91 118.813 204.099 115.656 202.68 110.359C201.261 105.063 198.643 102.888 196.088 100.81C193.667 98.8099 191.364 96.9672 190.096 92.2358C188.734 87.1512 189.634 84.6016 190.676 81.5975C191.583 78.9325 192.625 75.9284 192.033 70.9026C190.873 60.8062 189.694 59.0786 180.659 53.7793C172.402 48.9906 171.1 49.3393 163.944 51.3324C163.03 51.5775 162.01 51.8508 160.884 52.1524C155.608 53.566 153.446 56.1889 151.38 58.7483C149.391 61.1735 147.559 63.4809 142.846 64.7437C138.133 66.0066 135.367 64.9691 132.458 63.8186C129.407 62.7058 126.214 61.4801 120.938 62.8937C115.662 64.3073 113.5 66.9303 111.434 69.4896C109.445 71.9148 107.613 74.2222 102.9 75.4851C98.187 76.7479 95.4209 75.7104 92.4764 74.5694C89.452 73.4118 86.2586 72.1861 80.9828 73.5997C79.8573 73.9013 78.8373 74.1746 77.9228 74.4196C70.6842 76.2457 69.418 76.585 64.6263 84.8701C59.8697 93.1458 60.2198 94.4522 62.2202 101.636C62.4662 102.554 62.7405 103.578 63.0433 104.708C64.4624 110.005 67.0808 112.179 69.6356 114.257C72.0564 116.258 74.3597 118.1 75.6274 122.832C76.8952 127.563 75.8666 130.337 74.7256 133.254C73.6225 136.312 72.4071 139.514 73.8262 144.81C75.2454 150.106 77.8637 152.281 80.4185 154.359C82.8393 156.359 85.1426 158.202 86.4104 162.934C87.6781 167.665 86.6495 170.438 85.518 173.391C84.3702 176.423 83.1548 179.625 84.574 184.921C84.8767 186.051 85.1511 187.075 85.3971 187.993C87.2568 195.215 87.5717 196.531 95.8734 201.345C103.283 205.642 105.096 205.8 110.513 204.348C111.146 204.179 111.849 203.99 112.588 203.792C113.503 203.547 114.523 203.274 115.648 202.972C120.924 201.559 123.086 198.936 125.152 196.376C127.141 193.951 128.973 191.644 133.686 190.381C138.399 189.118 141.165 190.156 144.075 191.306C147.144 192.489 150.293 193.689 155.568 192.276C160.844 190.862 163.006 188.239 165.072 185.68C167.061 183.255 168.893 180.947 173.607 179.684C178.32 178.421 181.086 179.459 184.03 180.6C187.099 181.783 190.283 182.974 195.559 181.56C196.684 181.259 197.704 180.985 198.619 180.74C205.813 178.888 207.124 178.575 211.906 170.255C216.663 161.979 216.312 160.672 214.277 153.498C214.031 152.58 213.757 151.556 213.454 150.426L213.419 150.435ZM210.309 169.358C205.912 177.007 205.199 177.161 198.146 178.975C197.231 179.22 196.211 179.493 195.051 179.804C190.338 181.067 187.572 180.029 184.627 178.888C181.558 177.705 178.374 176.515 173.098 177.928C167.822 179.342 165.66 181.965 163.594 184.524C161.605 186.949 159.773 189.257 155.06 190.52C150.347 191.782 147.581 190.745 144.672 189.594C141.603 188.411 138.454 187.211 133.178 188.625C127.902 190.038 125.74 192.661 123.674 195.221C121.685 197.646 119.853 199.953 115.14 201.216C113.979 201.527 112.959 201.801 112.045 202.046C105.064 203.992 104.335 204.225 96.7381 199.789C89.1059 195.363 88.9424 194.612 87.13 187.567C86.884 186.649 86.6096 185.625 86.2974 184.459C85.0296 179.728 86.0583 176.955 87.1898 174.002C88.3632 170.925 89.5435 167.733 88.1243 162.436C86.7052 157.14 84.0868 154.966 81.5321 152.887C79.1112 150.887 76.808 149.044 75.5402 144.313C74.2724 139.581 75.3011 136.808 76.442 133.891C77.6155 130.814 78.8052 127.657 77.386 122.361C75.9669 117.064 73.3485 114.89 70.7938 112.812C68.3729 110.811 66.0697 108.969 64.8019 104.237C64.4897 103.072 64.2153 102.048 63.9693 101.13C62.0162 94.1222 61.7824 93.3902 66.1884 85.7761C70.1317 78.9671 71.1058 78.1006 76.3113 76.7058C76.9444 76.5362 77.6126 76.3571 78.3512 76.1592C79.2657 75.9142 80.2857 75.6409 81.4464 75.3299C86.1594 74.067 88.9254 75.1045 91.87 76.2456C94.939 77.429 98.123 78.6194 103.399 77.2058C108.675 75.7922 110.837 73.1692 112.903 70.6099C114.892 68.1847 116.724 65.8773 121.437 64.6144C126.15 63.3516 128.916 64.3891 131.825 65.5396C134.894 66.723 138.043 67.9228 143.319 66.5092C148.595 65.0955 150.757 62.4726 152.823 59.9132C154.812 57.4881 156.644 55.1807 161.357 53.9178C162.518 53.6068 163.538 53.3335 164.452 53.0885C171.423 51.1071 172.162 50.9092 179.759 55.3449C188.373 60.3407 189.145 61.534 190.233 71.0819C190.757 75.7099 189.85 78.375 188.96 80.96C187.876 84.0888 186.859 87.0481 188.363 92.6622C189.782 97.9586 192.401 100.133 194.956 102.211C197.376 104.212 199.68 106.054 200.947 110.786C202.215 115.517 201.187 118.291 200.046 121.208C198.872 124.285 197.682 127.442 199.102 132.738C200.521 138.034 203.139 140.209 205.694 142.287C208.115 144.287 210.418 146.13 211.686 150.862C211.998 152.027 212.272 153.051 212.518 153.969C214.471 160.976 214.705 161.709 210.299 169.323L210.309 169.358Z" fill="#9FA0A0"/>
<path opacity="0.809524" d="M210.468 153.724C209.353 148.481 206.916 146.259 204.52 144.064C202.259 141.988 200.105 140.071 199.109 135.387C198.114 130.703 199.26 128.048 200.523 125.258C201.826 122.314 203.149 119.293 202.035 114.05C200.92 108.806 198.475 106.549 196.087 104.39C193.826 102.313 191.672 100.396 190.676 95.7123C189.606 90.6788 190.616 88.2356 191.787 85.3562C192.808 82.8008 193.98 79.9214 193.658 74.9844C193.043 65.0683 191.98 63.3213 183.43 57.6855C175.614 52.5879 174.326 52.8618 167.238 54.4415C166.332 54.6339 165.322 54.8486 164.208 55.0854C158.985 56.1956 156.74 58.6457 154.592 61.0386C152.526 63.3044 150.62 65.4634 145.954 66.4551C141.288 67.4469 138.641 66.2924 135.859 65.0204C132.938 63.778 129.883 62.4179 124.661 63.5281C119.438 64.6382 117.193 67.0883 115.044 69.4812C112.979 71.7471 111.072 73.906 106.406 74.8978C101.74 75.8895 99.093 74.7351 96.2767 73.4705C93.3833 72.1857 90.3283 70.8256 85.1054 71.9358C83.9912 72.1726 82.9814 72.3873 82.0761 72.5797C74.9158 73.9921 73.6622 74.2585 68.5603 82.1018C63.4932 89.9378 63.7682 91.2312 65.3535 98.3472C65.5467 99.2561 65.7622 100.27 65.9999 101.388C67.1144 106.632 69.5594 108.889 71.9472 111.048C74.2083 113.125 76.3626 115.042 77.3582 119.726C78.3538 124.41 77.2077 127.065 75.9445 129.854C74.7111 132.783 73.3607 135.847 74.4752 141.09C75.5897 146.334 78.0346 148.59 80.4225 150.75C82.6836 152.827 84.8378 154.744 85.8335 159.428C86.8291 164.112 85.6829 166.767 84.4272 169.591C83.1516 172.493 81.8012 175.556 82.9157 180.8C83.1534 181.918 83.3689 182.932 83.5621 183.841C85.0082 190.986 85.2482 192.287 93.1067 197.412C100.12 201.986 101.883 202.233 107.245 201.093C107.872 200.96 108.568 200.812 109.3 200.656C110.205 200.464 111.215 200.249 112.329 200.012C117.552 198.902 119.797 196.452 121.945 194.059C124.011 191.793 125.917 189.634 130.583 188.642C135.249 187.651 137.896 188.805 140.678 190.077C143.614 191.39 146.626 192.722 151.849 191.612C157.072 190.502 159.317 188.052 161.465 185.659C163.531 183.393 165.438 181.234 170.104 180.242C174.769 179.25 177.417 180.405 180.233 181.669C183.169 182.982 186.216 184.307 191.439 183.197C192.553 182.96 193.563 182.745 194.468 182.553C201.587 181.113 202.882 180.874 207.977 172.996C213.044 165.16 212.769 163.866 211.149 156.758C210.956 155.849 210.74 154.835 210.502 153.717L210.468 153.724ZM206.463 172.039C201.78 179.282 201.076 179.395 194.097 180.805C193.192 180.998 192.182 181.212 191.033 181.456C186.367 182.448 183.72 181.294 180.903 180.029C177.968 178.717 174.92 177.392 169.697 178.502C164.474 179.612 162.229 182.062 160.081 184.455C158.015 186.721 156.109 188.88 151.443 189.872C146.777 190.863 144.13 189.709 141.348 188.437C138.413 187.124 135.4 185.792 130.177 186.902C124.954 188.012 122.709 190.462 120.561 192.855C118.495 195.121 116.588 197.28 111.923 198.272C110.773 198.516 109.764 198.731 108.858 198.923C101.944 200.466 101.22 200.656 94.0305 195.937C86.8058 191.225 86.6846 190.484 85.2757 183.513C85.0825 182.604 84.867 181.59 84.6218 180.437C83.6262 175.753 84.7724 173.098 86.0281 170.274C87.3311 167.33 88.6467 164.273 87.5322 159.03C86.4177 153.787 83.9728 151.53 81.5849 149.37C79.3238 147.293 77.1696 145.377 76.1739 140.693C75.1783 136.009 76.3245 133.354 77.5876 130.564C78.8907 127.62 80.2137 124.599 79.0992 119.356C77.9847 114.112 75.5397 111.855 73.1519 109.696C70.8908 107.619 68.7365 105.702 67.7409 101.018C67.4957 99.8648 67.2802 98.8511 67.0871 97.9422C65.5389 91.0009 65.348 90.2743 70.0391 83.0662C74.2371 76.6207 75.2325 75.8245 80.3858 74.7292C81.0125 74.5959 81.6741 74.4553 82.4053 74.2999C83.3106 74.1075 84.3204 73.8928 85.4695 73.6486C90.1353 72.6568 92.7826 73.8113 95.5989 75.0759C98.5345 76.3883 101.582 77.7134 106.805 76.6032C112.028 75.493 114.273 73.0429 116.421 70.65C118.487 68.3842 120.394 66.2252 125.059 65.2335C129.725 64.2417 132.373 65.3962 135.154 66.6682C138.09 67.9806 141.102 69.3131 146.325 68.2029C151.548 67.0927 153.793 64.6426 155.941 62.2497C158.007 59.9839 159.914 57.8249 164.58 56.8332C165.729 56.5889 166.739 56.3743 167.644 56.1819C174.551 54.6042 175.282 54.4488 182.472 59.1679C190.626 64.4859 191.319 65.6904 191.893 75.0675C192.167 79.6125 191.145 82.1678 190.144 84.6459C188.925 87.645 187.781 90.4821 188.963 96.04C190.077 101.283 192.522 103.54 194.91 105.7C197.171 107.777 199.325 109.693 200.321 114.377C201.317 119.061 200.17 121.716 198.907 124.506C197.604 127.45 196.281 130.471 197.396 135.714C198.51 140.958 200.955 143.215 203.343 145.374C205.604 147.451 207.758 149.368 208.754 154.052C208.999 155.205 209.215 156.219 209.408 157.128C210.956 164.069 211.147 164.796 206.456 172.004L206.463 172.039Z" fill="#9FA0A0"/>
<path opacity="0.857143" d="M207.382 156.769C206.563 151.595 204.298 149.303 202.073 147.039C199.973 144.897 197.969 142.916 197.237 138.295C196.505 133.673 197.759 131.141 199.134 128.484C200.556 125.678 202.001 122.798 201.182 117.625C200.363 112.451 198.093 110.124 195.873 107.895C193.773 105.753 191.769 103.772 191.037 99.1509C190.25 94.1846 191.36 91.8523 192.65 89.1026C193.778 86.6614 195.068 83.9116 195.007 79.078C194.913 69.3707 193.965 67.6117 185.911 61.6753C178.545 56.3016 177.274 56.5029 170.277 57.6819C169.384 57.8234 168.387 57.9812 167.288 58.1553C162.135 58.9715 159.819 61.2473 157.601 63.4724C155.469 65.5777 153.498 67.5868 148.895 68.3159C144.291 69.045 141.767 67.7832 139.118 66.3997C136.332 65.0381 133.42 63.5547 128.267 64.3709C123.114 65.1871 120.798 67.463 118.58 69.688C116.448 71.7933 114.477 73.8024 109.874 74.5315C105.27 75.2607 102.746 73.9988 100.063 72.6208C97.3054 71.2192 94.3941 69.7359 89.2409 70.5521C88.1416 70.7262 87.1453 70.884 86.2521 71.0255C79.1932 72.0374 77.9564 72.2333 72.5771 79.6256C67.2321 87.0125 67.4342 88.2886 68.6172 95.3133C68.7593 96.21 68.9177 97.2101 69.0925 98.3137C69.9118 103.487 72.1821 105.814 74.4016 108.043C76.5017 110.186 78.5057 112.166 79.2377 116.787C79.9696 121.409 78.7155 123.941 77.3404 126.598C75.987 129.393 74.5127 132.313 75.3321 137.487C76.1514 142.66 78.4217 144.987 80.6412 147.216C82.7413 149.358 84.7453 151.339 85.4773 155.96C86.2092 160.582 84.9551 163.114 83.5854 165.805C82.1923 168.571 80.7179 171.492 81.5373 176.665C81.7121 177.769 81.8705 178.769 82.0125 179.665C83.0581 186.712 83.2259 187.993 90.6318 193.396C97.2413 198.218 98.9488 198.548 104.239 197.71C104.858 197.613 105.545 197.504 106.266 197.389C107.159 197.248 108.156 197.09 109.255 196.916C114.408 196.1 116.724 193.824 118.942 191.599C121.074 189.494 123.045 187.485 127.648 186.755C132.252 186.026 134.776 187.288 137.425 188.672C140.222 190.102 143.094 191.557 148.247 190.74C153.4 189.924 155.716 187.648 157.934 185.423C160.066 183.318 162.037 181.309 166.64 180.58C171.244 179.851 173.768 181.112 176.451 182.49C179.249 183.921 182.154 185.37 187.308 184.554C188.407 184.38 189.403 184.222 190.296 184.08C197.316 183.039 198.592 182.873 203.966 175.446C209.311 168.059 209.109 166.783 207.892 159.764C207.749 158.867 207.591 157.867 207.416 156.763L207.382 156.769ZM202.538 174.434C197.598 181.262 196.905 181.337 190.023 182.356C189.13 182.497 188.134 182.655 187 182.835C182.397 183.564 179.873 182.302 177.189 180.924C174.392 179.493 171.486 178.045 166.333 178.861C161.18 179.677 158.864 181.953 156.645 184.178C154.514 186.283 152.543 188.292 147.939 189.021C143.336 189.751 140.812 188.489 138.163 187.105C135.366 185.675 132.494 184.22 127.341 185.036C122.188 185.853 119.872 188.129 117.654 190.354C115.522 192.459 113.551 194.468 108.948 195.197C107.814 195.377 106.818 195.534 105.924 195.676C99.0989 196.828 98.3829 196.976 91.6086 192.004C84.8 187.037 84.7196 186.307 83.7013 179.433C83.5593 178.537 83.4009 177.536 83.2207 176.398C82.4887 171.777 83.7428 169.245 85.1125 166.553C86.5345 163.747 87.9745 160.832 87.1552 155.659C86.3358 150.486 84.0655 148.159 81.846 145.93C79.746 143.787 77.7419 141.807 77.0099 137.186C76.278 132.564 77.5321 130.032 78.9073 127.375C80.3293 124.569 81.7747 121.689 80.9554 116.515C80.136 111.342 77.8658 109.015 75.6462 106.786C73.5462 104.644 71.5421 102.663 70.8102 98.0417C70.6299 96.9036 70.4715 95.9034 70.3295 95.0067C69.1738 88.1545 69.0247 87.4357 73.9707 80.6423C78.3966 74.5676 79.4085 73.8417 84.4929 73.0364C85.1113 72.9385 85.764 72.8351 86.4854 72.7208C87.3786 72.5793 88.3749 72.4215 89.5086 72.242C94.1121 71.5129 96.6362 72.7747 99.3195 74.1527C102.117 75.5834 105.023 77.0322 110.176 76.216C115.329 75.3998 117.645 73.124 119.863 70.8989C121.995 68.7936 123.966 66.7845 128.569 66.0554C133.173 65.3263 135.697 66.5881 138.346 67.9715C141.143 69.4022 144.015 70.8565 149.168 70.0403C154.321 69.2241 156.637 66.9482 158.855 64.7232C160.987 62.6179 162.958 60.6088 167.561 59.8797C168.695 59.7001 169.691 59.5423 170.584 59.4009C177.404 58.2146 178.126 58.1003 184.9 63.0728C192.585 68.6788 193.199 69.8896 193.279 79.0687C193.315 83.5175 192.187 85.9587 191.083 88.3255C189.741 91.1896 188.48 93.8994 189.348 99.383C190.167 104.556 192.438 106.883 194.657 109.113C196.757 111.255 198.761 113.235 199.493 117.857C200.225 122.478 198.971 125.01 197.596 127.667C196.174 130.473 194.729 133.354 195.548 138.527C196.367 143.7 198.638 146.027 200.857 148.257C202.957 150.399 204.961 152.379 205.693 157.001C205.873 158.139 206.032 159.139 206.174 160.036C207.33 166.888 207.479 167.607 202.533 174.4L202.538 174.434Z" fill="#9FA0A0"/>
<path opacity="0.904762" d="M204.179 159.564C203.645 154.477 201.553 152.125 199.499 149.804C197.561 147.608 195.707 145.574 195.23 141.029C194.752 136.485 196.105 134.08 197.581 131.559C199.112 128.895 200.669 126.16 200.134 121.073C199.599 115.986 197.504 113.6 195.454 111.313C193.515 109.117 191.662 107.083 191.184 102.538C190.671 97.655 191.872 95.4372 193.271 92.8215C194.495 90.4984 195.894 87.8827 196.081 83.1657C196.486 73.6941 195.652 71.9303 188.101 65.7293C181.192 60.1123 179.942 60.2437 173.058 61.0358C172.18 61.1281 171.2 61.2311 170.119 61.3447C165.052 61.8773 162.677 63.9784 160.4 66.035C158.213 67.9791 156.189 69.8377 151.662 70.3135C147.135 70.7893 144.738 69.4297 142.226 67.9452C139.578 66.4748 136.814 64.8794 131.747 65.412C126.68 65.9446 124.305 68.0457 122.028 70.1023C119.842 72.0465 117.817 73.9051 113.29 74.3808C108.764 74.8566 106.367 73.497 103.82 72.016C101.203 70.5082 98.4391 68.9128 93.3719 69.4454C92.291 69.559 91.3113 69.662 90.433 69.7543C83.4972 70.3804 82.2811 70.5083 76.6572 77.4425C71.0671 84.3732 71.199 85.628 71.9937 92.5391C72.0864 93.4208 72.1897 94.4043 72.3038 95.4895C72.8384 100.576 74.9335 102.962 76.9841 105.249C78.9227 107.446 80.7758 109.48 81.2535 114.024C81.7311 118.568 80.3786 120.973 78.9017 123.494C77.4391 126.151 75.852 128.924 76.3867 134.011C76.9213 139.098 79.0164 141.483 81.067 143.771C83.0056 145.967 84.8587 148.001 85.3364 152.545C85.814 157.09 84.4615 159.495 82.9882 162.05C81.4882 164.676 79.9011 167.449 80.4358 172.536C80.5499 173.621 80.6532 174.604 80.7459 175.486C81.4055 182.411 81.5036 183.67 88.4498 189.317C94.6492 194.357 96.2975 194.767 101.5 194.22C102.108 194.156 102.783 194.085 103.493 194.01C104.371 193.918 105.351 193.815 106.432 193.702C111.499 193.169 113.874 191.068 116.151 189.011C118.337 187.067 120.362 185.209 124.889 184.733C129.415 184.257 131.812 185.617 134.325 187.101C136.98 188.639 139.706 190.204 144.773 189.672C149.84 189.139 152.215 187.038 154.492 184.981C156.679 183.037 158.704 181.179 163.23 180.703C167.757 180.227 170.154 181.587 172.7 183.068C175.355 184.606 178.115 186.167 183.182 185.635C184.263 185.521 185.243 185.418 186.121 185.326C193.02 184.669 194.273 184.572 199.894 177.604C205.484 170.673 205.352 169.418 204.523 162.511C204.431 161.629 204.327 160.646 204.213 159.56L204.179 159.564ZM198.553 176.545C193.386 182.951 192.706 182.988 185.943 183.63C185.065 183.723 184.085 183.825 182.97 183.943C178.444 184.418 176.047 183.059 173.5 181.578C170.845 180.04 168.085 178.478 163.018 179.011C157.951 179.543 155.576 181.645 153.299 183.701C151.113 185.645 149.088 187.504 144.561 187.98C140.035 188.455 137.638 187.096 135.125 185.611C132.47 184.073 129.744 182.508 124.677 183.041C119.61 183.573 117.235 185.674 114.958 187.731C112.771 189.675 110.746 191.534 106.22 192.009C105.105 192.127 104.125 192.23 103.247 192.322C96.5318 193.096 95.8259 193.205 89.4736 188.009C83.0876 182.817 83.0465 182.102 82.4047 175.346C82.3121 174.464 82.2087 173.481 82.0911 172.362C81.6134 167.817 82.9659 165.412 84.4392 162.857C85.9694 160.193 87.5227 157.424 86.9881 152.337C86.4534 147.251 84.3583 144.865 82.3077 142.577C80.3692 140.381 78.516 138.347 78.0384 133.803C77.5608 129.259 78.9132 126.853 80.3901 124.332C81.9203 121.669 83.4772 118.933 82.9425 113.846C82.4079 108.76 80.3128 106.374 78.2622 104.087C76.3236 101.89 74.4705 99.8562 73.9928 95.3119C73.8752 94.1928 73.7718 93.2094 73.6792 92.3276C72.9023 85.5861 72.7937 84.8775 77.9643 78.5052C82.591 72.8072 83.615 72.151 88.6146 71.6255C89.2226 71.5616 89.8645 71.4942 90.5739 71.4196C91.4522 71.3273 92.4318 71.2243 93.5466 71.1071C98.0733 70.6314 100.47 71.9909 103.017 73.4719C105.672 75.0101 108.432 76.5716 113.499 76.039C118.566 75.5064 120.941 73.4053 123.218 71.3487C125.404 69.4046 127.429 67.546 131.956 67.0702C136.482 66.5944 138.879 67.954 141.392 69.4385C144.047 70.9767 146.773 72.5417 151.84 72.0091C156.907 71.4766 159.282 69.3754 161.559 67.3189C163.746 65.3747 165.771 63.5161 170.297 63.0403C171.412 62.9232 172.392 62.8202 173.27 62.7279C179.982 61.9196 180.691 61.845 187.043 67.0405C194.251 72.9004 194.788 74.1126 194.398 83.0683C194.205 87.4088 192.98 89.7319 191.783 91.9836C190.327 94.7081 188.959 97.2864 189.525 102.678C190.06 107.765 192.155 110.151 194.206 112.438C196.144 114.635 197.997 116.669 198.475 121.213C198.953 125.757 197.6 128.162 196.123 130.684C194.593 133.347 193.036 136.082 193.571 141.169C194.106 146.256 196.201 148.642 198.251 150.929C200.19 153.126 202.043 155.16 202.521 159.704C202.638 160.823 202.742 161.807 202.834 162.688C203.611 169.43 203.72 170.138 198.549 176.511L198.553 176.545Z" fill="#9FA0A0"/>
<path opacity="0.952381" d="M200.878 162.106C200.616 157.121 198.698 154.722 196.815 152.355C195.037 150.115 193.335 148.038 193.102 143.584C192.868 139.131 194.309 136.856 195.877 134.474C197.505 131.956 199.162 129.369 198.901 124.384C198.64 119.399 196.719 116.967 194.838 114.632C193.06 112.393 191.358 110.316 191.125 105.862C190.874 101.076 192.158 98.9759 193.655 96.4979C194.967 94.2962 196.464 91.8183 196.887 87.2303C197.766 78.0194 197.043 76.2577 190 69.8281C183.553 64.0005 182.328 64.0647 175.578 64.4851C174.717 64.5302 173.757 64.5806 172.697 64.6361C167.731 64.8963 165.309 66.8229 162.985 68.711C160.754 70.4943 158.686 72.2024 154.25 72.4349C149.814 72.6673 147.547 71.2198 145.174 69.6445C142.668 68.0761 140.056 66.3801 135.09 66.6403C130.124 66.9006 127.702 68.8271 125.378 70.7153C123.147 72.4985 121.079 74.2066 116.643 74.4391C112.206 74.6716 109.939 73.224 107.533 71.6505C105.059 70.0471 102.447 68.3511 97.4811 68.6113C96.4217 68.6668 95.4616 68.7172 94.6008 68.7623C87.8088 69.0182 86.6169 69.0807 80.7814 75.552C74.9789 82.0215 75.0433 83.2512 75.4649 90.0278C75.5102 90.8919 75.5607 91.8558 75.6164 92.9193C75.8777 97.9046 77.7978 100.337 79.6796 102.671C81.4568 104.911 83.1592 106.988 83.3926 111.441C83.626 115.895 82.1849 118.17 80.6167 120.552C79.0554 123.066 77.3669 125.688 77.6282 130.673C77.8895 135.658 79.8096 138.091 81.6914 140.425C83.4686 142.665 85.171 144.742 85.4044 149.195C85.6378 153.649 84.1967 155.924 82.6302 158.339C81.0341 160.822 79.3456 163.443 79.6069 168.429C79.6626 169.492 79.7131 170.456 79.7584 171.32C80.0475 178.104 80.0789 179.335 86.5606 185.194C92.3455 190.423 93.9311 190.907 99.0295 190.64C99.6254 190.608 100.288 190.574 100.983 190.537C101.844 190.492 102.804 190.442 103.863 190.386C108.829 190.126 111.251 188.199 113.576 186.311C115.806 184.528 117.874 182.82 122.31 182.587C126.747 182.355 129.014 183.802 131.387 185.378C133.896 187.013 136.473 188.677 141.439 188.417C146.405 188.157 148.827 186.23 151.151 184.342C153.382 182.559 155.45 180.851 159.886 180.618C164.323 180.386 166.589 181.833 168.996 183.407C171.505 185.042 174.115 186.704 179.081 186.444C180.14 186.389 181.1 186.338 181.961 186.293C188.718 186.006 189.945 185.975 195.779 179.47C201.581 173.001 201.517 171.771 201.062 164.996C201.017 164.132 200.967 163.168 200.911 162.105L200.878 162.106ZM194.526 178.369C189.163 184.349 188.499 184.351 181.874 184.631C181.013 184.677 180.053 184.727 178.961 184.784C174.525 185.017 172.258 183.569 169.851 181.996C167.342 180.361 164.732 178.698 159.766 178.958C154.8 179.218 152.378 181.145 150.054 183.033C147.823 184.816 145.755 186.524 141.319 186.757C136.882 186.989 134.616 185.542 132.242 183.967C129.733 182.332 127.156 180.667 122.19 180.927C117.224 181.188 114.802 183.114 112.478 185.002C110.247 186.786 108.179 188.494 103.743 188.726C102.65 188.783 101.69 188.834 100.829 188.879C94.2448 189.291 93.5513 189.36 87.6253 183.972C81.6662 178.585 81.6628 177.886 81.3824 171.268C81.3371 170.404 81.2866 169.44 81.2291 168.344C80.9957 163.89 82.4367 161.615 84.0032 159.2C85.6307 156.682 87.2861 154.062 87.0248 149.077C86.7636 144.092 84.8434 141.659 82.9617 139.325C81.1844 137.085 79.4821 135.008 79.2487 130.555C79.0153 126.101 80.4563 123.826 82.0246 121.444C83.6521 118.926 85.3092 116.34 85.0479 111.355C84.7866 106.369 82.8665 103.937 80.9847 101.603C79.2075 99.3631 77.5051 97.2861 77.2717 92.8326C77.2142 91.7358 77.1637 90.772 77.1185 89.9078C76.7056 83.2974 76.6359 82.6012 82.001 76.6545C86.8016 71.3372 87.8331 70.75 92.7329 70.4932C93.3288 70.4619 93.9578 70.429 94.6531 70.3925C95.5138 70.3474 96.4739 70.2971 97.5664 70.2399C102.003 70.0074 104.27 71.4549 106.676 73.0285C109.185 74.6633 111.795 76.3262 116.761 76.0659C121.727 75.8056 124.149 73.8791 126.474 71.9909C128.704 70.2077 130.772 68.4996 135.209 68.2671C139.645 68.0346 141.912 69.4822 144.285 71.0575C146.794 72.6923 149.371 74.3569 154.337 74.0966C159.303 73.8364 161.725 71.9098 164.049 70.0217C166.28 68.2384 168.348 66.5303 172.784 66.2978C173.877 66.2406 174.837 66.1903 175.698 66.1452C182.281 65.7002 182.976 65.6637 188.902 71.0521C195.628 77.1317 196.089 78.3405 195.251 87.0494C194.842 91.2701 193.529 93.4718 192.247 95.6052C190.689 98.1864 189.224 100.629 189.501 105.914C189.762 110.899 191.682 113.331 193.564 115.666C195.341 117.905 197.043 119.982 197.277 124.436C197.51 128.889 196.069 131.165 194.501 133.546C192.873 136.064 191.216 138.651 191.478 143.636C191.739 148.621 193.659 151.054 195.541 153.388C197.318 155.628 199.02 157.705 199.254 162.158C199.311 163.255 199.362 164.219 199.407 165.083C199.82 171.693 199.89 172.39 194.524 178.336L194.526 178.369Z" fill="#9FA0A0"/>
<path d="M197.493 164.393C197.493 159.524 195.747 157.089 194.033 154.687C192.416 152.415 190.864 150.305 190.864 145.955C190.864 141.605 192.384 139.462 194.033 137.222C195.747 134.852 197.493 132.418 197.493 127.548C197.493 122.679 195.747 120.212 194.033 117.842C192.416 115.57 190.864 113.459 190.864 109.109C190.864 104.435 192.222 102.455 193.807 100.117C195.197 98.0397 196.782 95.7023 197.429 91.2549C198.754 82.3277 198.14 80.5747 191.608 73.9523C185.626 67.9467 184.429 67.9467 177.833 68.0116C176.992 68.0116 176.054 68.0116 175.019 68.0116C170.169 68.0116 167.711 69.7646 165.351 71.4851C163.087 73.1083 160.985 74.6665 156.652 74.6665C152.319 74.6665 150.185 73.1407 147.953 71.4851C145.593 69.8296 143.135 68.0441 138.285 68.0441C133.434 68.0441 130.977 69.7971 128.616 71.5176C126.353 73.1407 124.251 74.699 119.918 74.699C115.584 74.699 113.45 73.1732 111.187 71.5176C108.858 69.8296 106.401 68.0441 101.55 68.0441C100.516 68.0441 99.5778 68.0441 98.737 68.0441C92.108 67.9467 90.9439 67.9467 84.9292 73.9523C78.9469 79.9579 78.9469 81.159 79.0116 87.7814C79.0116 88.6255 79.0116 89.5669 79.0116 90.6057C79.0116 95.4751 80.7578 97.9423 82.4716 100.312C84.0885 102.584 85.6406 104.695 85.6406 109.045C85.6406 113.395 84.1208 115.537 82.4716 117.777C80.8225 120.147 79.0439 122.614 79.0439 127.483C79.0439 132.353 80.7901 134.82 82.504 137.19C84.1208 139.462 85.673 141.572 85.673 145.922C85.673 150.272 84.1531 152.415 82.504 154.687C80.8225 157.024 79.0439 159.492 79.0439 164.361C79.0439 165.4 79.0439 166.341 79.0439 167.185C78.9793 173.808 78.9469 175.009 84.9616 181.047C90.3295 186.436 91.8493 186.988 96.8291 186.988C97.4112 186.988 98.0579 186.988 98.737 186.988C99.5778 186.988 100.516 186.988 101.55 186.988C106.401 186.988 108.858 185.235 111.219 183.514C113.483 181.891 115.584 180.333 119.918 180.333C124.251 180.333 126.385 181.858 128.616 183.514C130.977 185.235 133.402 186.988 138.252 186.988C143.103 186.988 145.561 185.235 147.921 183.514C150.185 181.891 152.287 180.333 156.62 180.333C160.953 180.333 163.087 181.858 165.351 183.514C167.711 185.235 170.169 186.988 175.019 186.988C176.054 186.988 176.992 186.988 177.833 186.988C184.429 187.052 185.626 187.085 191.64 181.047C197.623 175.041 197.623 173.84 197.526 167.218C197.526 166.374 197.526 165.432 197.526 164.393H197.493ZM190.476 179.911C184.947 185.462 184.3 185.429 177.833 185.364C176.992 185.364 176.054 185.364 174.987 185.364C170.654 185.364 168.52 183.839 166.256 182.183C163.895 180.462 161.438 178.71 156.587 178.71C151.737 178.71 149.279 180.462 146.919 182.183C144.655 183.806 142.553 185.364 138.22 185.364C133.887 185.364 131.753 183.839 129.522 182.183C127.161 180.462 124.736 178.71 119.885 178.71C115.035 178.71 112.577 180.462 110.217 182.183C107.953 183.806 105.851 185.364 101.518 185.364C100.451 185.364 99.5131 185.364 98.6723 185.364C92.2373 185.429 91.5583 185.462 86.061 179.911C80.5314 174.36 80.5638 173.678 80.6284 167.218C80.6284 166.374 80.6284 165.432 80.6284 164.361C80.6284 160.011 82.1483 157.868 83.7974 155.596C85.5113 153.226 87.2575 150.759 87.2575 145.89C87.2575 141.02 85.5113 138.553 83.7974 136.183C82.1806 133.911 80.6284 131.801 80.6284 127.451C80.6284 123.101 82.1483 120.958 83.7974 118.718C85.5113 116.349 87.2575 113.914 87.2575 109.045C87.2575 104.175 85.5113 101.708 83.7974 99.3382C82.1806 97.0658 80.6284 94.9557 80.6284 90.6057C80.6284 89.5344 80.6284 88.593 80.6284 87.749C80.5638 81.2889 80.5314 80.6072 86.061 75.0885C91.0085 70.1542 92.0433 69.6348 96.8291 69.6348C97.4112 69.6348 98.0256 69.6348 98.7047 69.6348C99.5454 69.6348 100.483 69.6348 101.55 69.6348C105.883 69.6348 108.018 71.1605 110.281 72.8161C112.642 74.5366 115.099 76.2896 119.95 76.2896C124.8 76.2896 127.258 74.5366 129.619 72.8161C131.882 71.193 133.984 69.6348 138.317 69.6348C142.65 69.6348 144.785 71.1605 147.016 72.8161C149.376 74.5366 151.802 76.2896 156.652 76.2896C161.503 76.2896 163.96 74.5366 166.321 72.8161C168.584 71.193 170.686 69.6348 175.019 69.6348C176.086 69.6348 177.024 69.6348 177.865 69.6348C184.3 69.5374 184.979 69.5374 190.476 75.0885C196.717 81.3538 197.105 82.5549 195.844 90.9952C195.23 95.0855 193.839 97.1632 192.481 99.1759C190.832 101.611 189.28 103.915 189.28 109.077C189.28 113.946 191.026 116.414 192.74 118.783C194.357 121.056 195.909 123.166 195.909 127.516C195.909 131.866 194.389 134.008 192.74 136.248C191.026 138.618 189.28 141.053 189.28 145.922C189.28 150.792 191.026 153.259 192.74 155.629C194.357 157.901 195.909 160.011 195.909 164.361C195.909 165.432 195.909 166.374 195.909 167.218C195.974 173.678 196.006 174.36 190.476 179.878V179.911Z" fill="#9FA0A0"/>
<g style="mix-blend-mode:plus-lighter" filter="url(#filter0_f_10992_9089)">
<ellipse cx="89.9809" cy="180.123" rx="41.4037" ry="36.1688" fill="#69FFB4"/>
</g>
<g style="mix-blend-mode:plus-lighter" filter="url(#filter1_f_10992_9089)">
<ellipse cx="174.692" cy="83.9904" rx="41.4037" ry="36.1688" fill="#FF69B4"/>
</g>
<defs>
<filter id="filter0_f_10992_9089" x="0.986629" y="96.3639" width="177.989" height="167.519" filterUnits="userSpaceOnUse" color-interpolation-filters="sRGB">
<feFlood flood-opacity="0" result="BackgroundImageFix"/>
<feBlend mode="normal" in="SourceGraphic" in2="BackgroundImageFix" result="shape"/>
<feGaussianBlur stdDeviation="23.7953" result="effect1_foregroundBlur_10992_9089"/>
</filter>
<filter id="filter1_f_10992_9089" x="85.6976" y="0.231045" width="177.989" height="167.519" filterUnits="userSpaceOnUse" color-interpolation-filters="sRGB">
<feFlood flood-opacity="0" result="BackgroundImageFix"/>
<feBlend mode="normal" in="SourceGraphic" in2="BackgroundImageFix" result="shape"/>
<feGaussianBlur stdDeviation="23.7953" result="effect1_foregroundBlur_10992_9089"/>
</filter>
</defs>
</svg>
