<svg width="177" height="160" viewBox="0 0 177 160" fill="none" xmlns="http://www.w3.org/2000/svg">
<rect x="0.5" y="0.5" width="175.79" height="159" rx="19.5" fill="#101112"/>
<rect x="0.5" y="0.5" width="175.79" height="159" rx="19.5" stroke="#9FA0A0"/>
<path fill-rule="evenodd" clip-rule="evenodd" d="M94.3951 53H82.3951V61.3077H66.3951V69.6154H58.3951V84.1538C58.3951 90.213 60.7129 96.024 64.8387 100.309C68.9645 104.593 74.5603 107 80.3951 107H82.507C88.0416 107 93.4749 105.458 98.2407 102.536C103.006 99.6137 106.93 95.4174 109.603 90.3846H118.395V84.1538C118.395 82.5013 117.763 80.9165 116.638 79.748C115.512 78.5795 113.986 77.9231 112.395 77.9231H110.395V75.8462C110.395 74.1937 109.763 72.6088 108.638 71.4403C107.512 70.2718 105.986 69.6154 104.395 69.6154H94.3951V53ZM62.3951 77.9231H66.3951V73.7692H62.3951V77.9231ZM70.3951 77.9231H74.3951V73.7692H70.3951V77.9231ZM78.3951 77.9231H82.3951V73.7692H78.3951V77.9231ZM86.3951 77.9231H90.3951V73.7692H86.3951V77.9231ZM94.3951 77.9231H98.3951V73.7692H94.3951V77.9231ZM90.3951 61.3077V57.1538H86.3951V61.3077H90.3951ZM82.3951 65.4615H78.3951V69.6154H82.3951V65.4615ZM86.3951 69.6154V65.4615H90.3951V69.6154H86.3951ZM74.3951 69.6154V65.4615H70.3951V69.6154H74.3951ZM70.3951 90.3846H74.3951V86.2308H70.3951V90.3846Z" fill="#9FA0A0"/>
</svg>
