<svg width="329" height="315" viewBox="0 0 329 315" fill="none" xmlns="http://www.w3.org/2000/svg">
<circle cx="125" cy="172" r="7" fill="#D9D9D9"/>
<circle cx="210" cy="172" r="7" fill="#D9D9D9"/>
<circle cx="165" cy="172" r="5" fill="#D9D9D9"/>
<path opacity="0.047619" d="M103.68 90.3415C96.5133 102.755 93.6555 116.63 94.5155 130.595C81.9913 136.833 71.4047 146.245 64.2375 158.659C42.1738 196.874 60.3555 248.859 104.749 274.49C149.143 300.121 203.255 289.874 225.318 251.659C232.485 239.245 235.343 225.37 234.483 211.405C247.007 205.167 257.594 195.755 264.761 183.341C286.825 145.126 268.643 93.1408 224.249 67.5101C179.856 41.8793 125.768 52.0855 103.68 90.3415ZM222.962 250.298C201.531 287.418 149.042 297.358 105.92 272.462C62.7991 247.566 45.1626 197.139 66.5939 160.019C73.3394 148.335 83.1509 139.395 94.7579 133.331C97.4663 161.4 115.162 189.412 144.192 206.173C173.223 222.934 206.377 224.279 231.992 212.564C232.544 225.648 229.684 238.655 222.962 250.298ZM97.2488 132.173C122.299 120.239 155.029 121.34 183.635 137.856C212.241 154.371 229.56 182.166 231.75 209.827C206.7 221.761 173.97 220.66 145.363 204.144C116.757 187.629 99.4386 159.834 97.2488 132.173ZM262.405 181.981C255.659 193.665 245.848 202.605 234.241 208.669C231.532 180.601 213.837 152.588 184.806 135.827C155.776 119.067 122.621 117.721 97.0064 129.437C96.4547 116.353 99.3147 103.345 106.037 91.7019C127.468 54.5818 179.957 44.6423 223.078 69.5385C266.2 94.4346 283.836 144.861 262.405 181.981Z" fill="#9FA0A0"/>
<path opacity="0.0952381" d="M109.303 88.9118C101.627 100.732 98.089 114.197 98.1838 127.934C85.596 133.435 74.7344 142.143 67.058 153.964C43.4267 190.353 58.4376 242.225 100.505 269.544C142.572 296.862 196.065 289.477 219.696 253.088C227.372 241.267 230.91 227.803 230.815 214.066C243.403 208.565 254.265 199.857 261.941 188.036C285.573 151.647 270.562 99.7748 228.495 72.4561C186.428 45.1375 132.96 52.4842 109.303 88.9118ZM217.463 251.638C194.509 286.984 142.62 294.148 101.759 267.612C60.8976 241.077 46.3369 190.76 69.2908 155.414C76.5157 144.289 86.5936 136.005 98.2747 130.629C99.4243 158.287 115.241 186.627 142.75 204.492C170.259 222.356 202.627 225.307 228.316 215.079C228.157 227.937 224.663 240.551 217.463 251.638ZM100.774 129.616C125.922 119.146 157.888 121.836 184.995 139.44C212.102 157.043 227.562 185.152 228.225 212.384C203.077 222.854 171.111 220.164 144.004 202.56C116.897 184.957 101.438 156.848 100.774 129.616ZM259.708 186.586C252.484 197.711 242.406 205.995 230.725 211.371C229.575 183.713 213.758 155.373 186.249 137.508C158.741 119.644 126.372 116.692 100.683 126.921C100.843 114.063 104.336 101.448 111.536 90.3618C134.49 55.0158 186.379 47.852 227.24 74.3876C268.102 100.923 282.662 151.24 259.708 186.586Z" fill="#9FA0A0"/>
<path opacity="0.142857" d="M114.905 87.8452C106.761 99.0537 102.578 112.076 101.934 125.544C89.3248 130.318 78.2322 138.32 70.0887 149.529C45.0194 184.034 56.9222 235.607 96.6099 264.441C136.298 293.276 189.024 288.66 214.094 254.155C222.237 242.946 226.42 229.924 227.064 216.456C239.673 211.682 250.766 203.68 258.91 192.471C283.979 157.966 272.076 106.393 232.388 77.5585C192.701 48.7237 140 53.3037 114.905 87.8452ZM211.987 252.624C187.636 286.14 136.491 290.618 97.9406 262.61C59.3904 234.602 47.8445 184.575 72.1952 151.059C79.8597 140.51 90.1629 132.885 101.878 128.19C101.52 155.352 115.473 183.902 141.426 202.758C167.379 221.614 198.885 226.092 224.565 217.327C223.719 229.92 219.625 242.112 211.987 252.624ZM104.378 127.319C129.541 118.29 160.668 122.493 186.242 141.074C211.816 159.654 225.432 187.959 224.621 214.681C199.458 223.71 168.33 219.507 142.756 200.926C117.183 182.346 103.567 154.041 104.378 127.319ZM256.803 190.94C249.139 201.49 238.835 209.114 227.12 213.81C227.479 186.648 213.525 158.098 187.572 139.242C161.619 120.386 130.113 115.908 104.433 124.673C105.279 112.08 109.373 99.8883 117.011 89.3757C141.362 55.8598 192.507 51.3816 231.058 79.39C269.608 107.398 281.154 157.425 256.803 190.94Z" fill="#9FA0A0"/>
<path opacity="0.190476" d="M120.464 87.1353C111.896 97.7158 107.104 110.266 105.75 123.425C93.1599 127.486 81.8798 134.782 73.3119 145.363C46.9359 177.935 55.8041 229.027 93.0717 259.206C130.339 289.385 182.159 287.436 208.535 254.865C217.103 244.284 221.895 231.734 223.249 218.575C235.839 214.514 247.119 207.218 255.687 196.637C282.063 164.065 273.195 112.973 235.927 82.7939C198.66 52.6153 146.868 54.5291 120.464 87.1353ZM206.557 253.263C180.937 284.901 130.671 286.791 94.4717 257.477C58.2723 228.164 49.67 178.603 75.29 146.965C83.354 137.007 93.8415 130.042 105.553 126.014C103.741 152.6 115.853 181.244 140.224 200.978C164.594 220.713 195.169 226.637 220.758 219.305C219.254 231.598 214.593 243.339 206.557 253.263ZM108.044 125.284C133.142 117.669 163.361 123.304 187.375 142.751C211.39 162.197 223.185 190.584 220.955 216.717C195.857 224.331 165.638 218.696 141.624 199.249C117.609 179.803 105.814 151.416 108.044 125.284ZM253.709 195.035C245.645 204.993 235.157 211.958 223.446 215.986C225.258 189.4 213.146 160.756 188.775 141.022C164.405 121.287 133.83 115.363 108.241 122.695C109.746 110.402 114.406 98.6607 122.442 88.7371C148.062 57.0991 198.328 55.2091 234.527 84.5228C270.727 113.836 279.329 163.397 253.709 195.035Z" fill="#9FA0A0"/>
<path opacity="0.238095" d="M125.958 86.7743C117.009 96.7137 111.646 108.765 109.612 121.579C97.0811 124.941 85.6565 131.534 76.707 141.473C49.1567 172.071 55.0741 222.511 89.8919 253.861C124.71 285.211 175.491 285.823 203.042 255.226C211.991 245.286 217.354 233.235 219.388 220.421C231.919 217.059 243.343 210.466 252.293 200.527C279.843 169.929 273.926 119.489 239.108 88.1393C204.29 56.7892 153.538 56.1441 125.958 86.7743ZM201.194 253.562C174.433 283.282 125.174 282.688 91.3542 252.237C57.5344 221.785 51.7945 172.858 78.5551 143.137C86.9781 133.783 97.6099 127.475 109.28 124.103C106.075 150.036 116.375 178.661 139.143 199.162C161.912 219.662 191.493 226.947 216.912 221.015C214.778 232.974 209.587 244.239 201.194 253.562ZM111.756 123.509C136.71 117.276 165.959 124.261 188.394 144.462C210.83 164.664 220.835 193.022 217.244 218.491C192.29 224.724 163.041 217.739 140.606 197.537C118.17 177.336 108.165 148.978 111.756 123.509ZM250.445 198.862C242.022 208.217 231.39 214.525 219.72 217.897C222.925 191.964 212.625 163.339 189.857 142.838C167.088 122.338 137.507 115.053 112.088 120.985C114.222 109.026 119.413 97.7606 127.806 88.4383C154.567 58.7176 203.826 59.3119 237.646 89.7634C271.466 120.215 277.205 169.142 250.445 198.862Z" fill="#9FA0A0"/>
<path opacity="0.285714" d="M131.366 86.7537C122.079 96.0415 116.184 107.569 113.503 120.003C101.068 122.684 89.5413 128.579 80.2536 137.867C51.6619 166.458 54.7219 216.078 87.0717 248.428C119.422 280.778 169.042 283.838 197.633 255.246C206.921 245.959 212.816 234.432 215.497 221.997C227.931 219.316 239.458 213.421 248.746 204.133C277.338 175.542 274.278 125.922 241.928 93.5719C209.578 61.222 159.989 58.1317 131.366 86.7537ZM195.916 253.529C168.144 281.301 120.012 278.333 88.5893 246.911C57.1667 215.488 54.1985 167.356 81.9707 139.584C90.7121 130.842 101.448 125.189 113.042 122.456C108.506 147.665 117.03 176.161 138.185 197.315C159.339 218.47 187.869 227.028 213.044 222.458C210.311 234.052 204.627 244.818 195.916 253.529ZM115.494 121.995C140.231 117.107 168.452 125.357 189.298 146.202C210.143 167.048 218.393 195.269 213.505 220.006C188.769 224.893 160.548 216.643 139.702 195.798C118.857 174.952 110.607 146.731 115.494 121.995ZM247.029 202.416C238.288 211.158 227.551 216.812 215.958 219.545C220.494 194.335 211.97 165.839 190.815 144.685C169.661 123.53 141.13 114.972 115.955 119.542C118.688 107.949 124.373 97.1819 133.084 88.4708C160.856 60.6987 208.988 63.6669 240.41 95.0895C271.833 126.512 274.801 174.644 247.029 202.416Z" fill="#9FA0A0"/>
<path opacity="0.333333" d="M136.669 87.0631C127.086 95.6915 120.699 106.672 117.404 118.695C105.103 120.715 93.5146 125.919 83.9318 134.547C54.4318 161.109 54.7369 209.752 84.6117 242.932C114.486 276.111 162.831 281.499 192.331 254.937C201.914 246.309 208.301 235.328 211.595 223.305C223.897 221.285 235.485 216.081 245.068 207.453C274.568 180.891 274.263 132.248 244.388 99.0685C214.513 65.8892 166.2 60.4729 136.669 87.0631ZM190.745 253.176C162.091 278.976 115.196 273.75 86.1775 241.522C57.159 209.293 56.863 162.109 85.5175 136.309C94.5366 128.188 105.339 123.181 116.821 121.07C111.022 145.489 117.813 173.75 137.348 195.447C156.884 217.144 184.313 226.887 209.172 223.637C205.873 234.835 199.733 245.083 190.745 253.176ZM119.244 120.738C143.691 117.157 170.835 126.583 190.085 147.963C209.336 169.343 215.873 197.323 209.756 221.262C185.308 224.843 158.165 215.417 138.914 194.037C119.664 172.657 113.127 144.677 119.244 120.738ZM243.482 205.691C234.463 213.812 223.661 218.819 212.179 220.93C217.978 196.511 211.187 168.25 191.651 146.553C172.115 124.856 144.686 115.113 119.827 118.363C123.127 107.165 129.266 96.9168 138.254 88.8242C166.909 63.0236 213.803 68.25 242.822 100.478C271.84 132.707 272.136 179.891 243.482 205.691Z" fill="#9FA0A0"/>
<path opacity="0.380952" d="M141.846 87.6913C132.011 95.6553 125.172 106.071 121.3 117.653C109.166 119.032 97.5568 123.556 87.722 131.52C57.4462 156.037 55.1076 203.553 82.5112 237.393C109.915 271.234 156.879 278.826 187.155 254.309C196.989 246.345 203.828 235.929 207.7 224.348C219.834 222.968 231.443 218.444 241.278 210.48C271.554 185.963 273.893 138.447 246.489 104.607C219.085 70.7661 172.154 63.1484 141.846 87.6913ZM185.7 252.513C156.292 276.327 110.736 268.963 84.1182 236.092C57.5001 203.221 59.7686 157.13 89.1766 133.316C98.4329 125.82 109.263 121.452 120.601 119.944C113.609 143.51 118.715 171.436 136.635 193.565C154.555 215.694 180.838 226.531 205.314 224.555C201.481 235.331 194.924 245.043 185.7 252.513ZM122.987 119.736C147.079 117.417 173.1 127.93 190.758 149.736C208.417 171.542 213.29 199.181 206.013 222.264C181.921 224.583 155.9 214.07 138.242 192.264C120.584 170.458 115.71 142.819 122.987 119.736ZM239.824 208.684C230.567 216.18 219.737 220.548 208.399 222.056C215.391 198.49 210.285 170.564 192.365 148.435C174.445 126.306 148.162 115.469 123.687 117.445C127.519 106.669 134.076 96.9571 143.3 89.4875C172.708 65.6733 218.264 73.0374 244.882 105.908C271.5 138.779 269.232 184.87 239.824 208.684Z" fill="#9FA0A0"/>
<path opacity="0.428571" d="M146.878 88.6258C136.834 95.9232 129.585 105.756 125.172 116.871C113.239 117.633 101.647 121.488 91.6025 128.785C60.6826 151.25 55.8193 197.499 80.7663 231.836C105.713 266.172 151.202 275.839 182.121 253.374C192.166 246.077 199.414 236.243 203.827 225.129C215.761 224.367 227.353 220.512 237.397 213.214C268.317 190.75 273.18 144.501 248.233 110.164C223.286 75.8276 177.83 66.1373 146.878 88.6258ZM180.797 251.552C150.764 273.372 106.639 263.996 82.4075 230.643C58.1755 197.291 62.893 152.429 92.9267 130.608C102.38 123.74 113.202 119.998 124.365 119.072C116.253 141.729 119.728 169.222 136.041 191.676C152.355 214.13 177.455 225.967 201.483 225.217C197.153 235.547 190.218 244.707 180.797 251.552ZM126.708 118.985C150.38 117.881 175.241 129.391 191.317 151.516C207.392 173.642 210.655 200.843 202.291 223.015C178.619 224.119 153.758 212.609 137.683 190.484C121.607 168.358 118.344 141.157 126.708 118.985ZM236.072 211.392C226.619 218.26 215.797 222.002 204.634 222.927C212.747 200.27 209.271 172.778 192.958 150.324C176.644 127.87 151.544 116.033 127.516 116.783C131.846 106.453 138.781 97.2926 148.202 90.4483C178.235 68.6275 222.36 78.0041 246.592 111.357C270.824 144.709 266.106 189.571 236.072 211.392Z" fill="#9FA0A0"/>
<path opacity="0.47619" d="M151.748 89.8533C141.537 96.4844 133.92 105.722 129.005 116.344C117.302 116.514 105.765 119.715 95.5545 126.346C64.1206 146.759 56.8589 191.61 79.3743 226.281C101.89 260.951 145.816 272.56 177.25 252.147C187.461 245.515 195.078 236.278 199.993 225.656C211.696 225.486 223.233 222.285 233.444 215.654C264.878 195.24 272.14 150.39 249.624 115.719C227.109 81.0484 183.216 69.4182 151.748 89.8533ZM176.055 250.306C145.522 270.135 102.913 258.874 81.0428 225.197C59.1727 191.52 66.2167 148.015 96.7496 128.186C106.36 121.945 117.138 118.818 128.097 118.452C118.94 140.148 120.845 167.116 135.568 189.788C150.292 212.46 174.177 225.205 197.698 225.629C192.907 235.491 185.632 244.087 176.055 250.306ZM130.392 118.479C153.583 118.54 177.254 130.954 191.762 153.295C206.27 175.636 207.984 202.309 198.607 223.521C175.415 223.459 151.745 211.045 137.237 188.705C122.728 166.364 121.015 139.691 130.392 118.479ZM232.249 213.814C222.639 220.055 211.86 223.182 200.902 223.548C210.058 201.851 208.154 174.884 193.431 152.212C178.707 129.54 154.822 116.794 131.3 116.371C136.092 106.509 143.366 97.9129 152.943 91.6935C183.476 71.8652 226.086 83.1257 247.956 116.803C269.826 150.479 262.782 193.985 232.249 213.814Z" fill="#9FA0A0"/>
<path opacity="0.52381" d="M156.441 91.3593C146.105 97.327 138.162 105.957 132.784 116.066C121.34 115.67 109.894 118.233 99.5579 124.201C67.7384 142.572 58.2113 185.903 78.3301 220.75C98.4489 255.597 140.738 269.012 172.558 250.641C182.894 244.673 190.837 236.043 196.216 225.934C207.659 226.33 219.105 223.767 229.441 217.799C261.261 199.428 270.788 156.097 250.669 121.25C230.55 86.4033 188.295 72.9688 156.441 91.3593ZM171.49 248.791C140.583 266.636 99.5611 253.623 80.019 219.775C60.4769 185.927 69.7183 143.895 100.626 126.051C110.354 120.434 121.055 117.906 131.782 118.075C121.659 138.766 122.057 165.121 135.213 187.908C148.37 210.696 171.016 224.255 193.975 225.797C188.758 235.171 181.185 243.194 171.49 248.791ZM134.022 118.212C156.679 119.386 179.133 132.612 192.097 155.067C205.061 177.521 205.288 203.58 194.977 223.788C172.32 222.614 149.866 209.388 136.902 186.933C123.938 164.479 123.711 138.42 134.022 118.212ZM228.373 215.949C218.645 221.566 207.944 224.094 197.218 223.925C207.34 203.234 206.942 176.879 193.786 154.092C180.63 131.304 157.983 117.745 135.024 116.203C140.241 106.829 147.815 98.8061 157.509 93.209C188.417 75.3645 229.438 88.3772 248.98 122.225C268.522 156.073 259.281 198.105 228.373 215.949Z" fill="#9FA0A0"/>
<path opacity="0.571429" d="M160.94 93.1284C150.519 98.438 142.292 106.453 136.491 116.03C125.333 115.094 114.012 117.039 103.592 122.349C71.5124 138.694 59.8589 180.394 77.6259 215.264C95.3929 250.134 135.979 265.217 168.058 248.872C178.479 243.562 186.706 235.547 192.508 225.97C203.665 226.905 214.986 224.961 225.406 219.651C257.486 203.306 269.139 161.606 251.372 126.736C233.605 91.8662 193.053 76.7658 160.94 93.1284ZM167.115 247.021C135.955 262.897 96.5864 248.267 79.3286 214.396C62.0709 180.526 73.3749 140.076 104.535 124.199C114.343 119.202 124.933 117.256 135.403 117.937C124.393 137.581 123.355 163.242 134.974 186.044C146.592 208.846 167.981 223.126 190.326 225.729C184.722 234.599 176.889 242.041 167.115 247.021ZM137.584 118.177C159.654 120.407 180.873 134.355 192.322 156.824C203.77 179.293 202.581 204.657 191.414 223.823C169.344 221.593 148.125 207.645 136.676 185.176C125.228 162.707 126.417 137.343 137.584 118.177ZM224.463 217.8C214.656 222.798 204.065 224.743 193.595 224.063C204.605 204.419 205.643 178.758 194.024 155.956C182.406 133.154 161.017 118.874 138.672 116.271C144.276 107.401 152.109 99.9592 161.883 94.9792C193.043 79.1025 232.412 93.7332 249.669 127.603C266.927 161.474 255.623 201.924 224.463 217.8Z" fill="#9FA0A0"/>
<path opacity="0.619048" d="M165.231 95.1445C154.766 99.8038 146.297 107.198 140.113 116.227C129.266 114.781 118.104 116.127 107.639 120.786C75.4226 135.13 61.7869 175.099 77.2562 209.843C92.7256 244.588 131.552 261.199 163.768 246.856C174.234 242.196 182.702 234.802 188.886 225.773C199.734 227.219 210.896 225.873 221.361 221.214C253.577 206.87 267.213 166.901 251.743 132.157C236.274 97.412 197.482 80.7857 165.231 95.1445ZM162.947 245.011C131.655 258.944 93.9922 242.831 78.9662 209.082C63.9403 175.333 77.1671 136.563 108.46 122.63C118.309 118.245 128.759 116.863 138.948 118.028C127.133 136.591 124.733 161.481 134.849 184.202C144.964 206.922 165.084 221.83 186.768 225.434C180.816 233.785 172.763 240.641 162.947 245.011ZM141.066 118.367C162.501 121.595 182.473 136.171 192.441 158.56C202.409 180.948 199.877 205.543 187.934 223.633C166.498 220.405 146.527 205.829 136.559 183.44C126.591 161.052 129.122 136.457 141.066 118.367ZM220.54 219.37C210.69 223.755 200.241 225.137 190.052 223.972C201.866 205.409 204.267 180.519 194.151 157.798C184.035 135.078 163.916 120.17 142.231 116.566C148.184 108.215 156.237 101.359 166.052 96.9887C197.345 83.0562 235.007 99.1692 250.033 132.918C265.059 166.667 251.833 205.437 220.54 219.37Z" fill="#9FA0A0"/>
<path opacity="0.666667" d="M169.3 97.3904C158.83 101.41 150.161 108.181 143.636 116.649C133.121 114.722 122.148 115.49 111.678 119.51C79.4443 131.883 63.9752 170.03 77.2099 204.507C90.4445 238.985 127.466 256.983 159.699 244.61C170.17 240.59 178.838 233.819 185.363 225.351C195.878 227.278 206.851 226.51 217.322 222.49C249.555 210.117 265.024 171.97 251.789 137.493C238.555 103.015 201.568 85.0041 169.3 97.3904ZM158.996 242.78C127.687 254.798 91.7761 237.34 78.9208 203.851C66.0654 170.361 81.0707 133.358 112.38 121.34C122.235 117.557 132.513 116.719 142.401 118.34C129.863 135.793 126.178 159.842 134.833 182.388C143.487 204.934 162.332 220.377 183.313 224.921C177.05 232.742 168.817 239.01 158.996 242.78ZM144.451 118.771C165.21 122.939 183.928 138.052 192.456 160.269C200.984 182.485 197.186 206.241 184.548 223.229C163.79 219.061 145.072 203.948 136.544 181.731C128.016 159.515 131.813 135.759 144.451 118.771ZM216.619 220.66C206.765 224.443 196.486 225.281 186.598 223.66C199.136 206.207 202.821 182.158 194.167 159.612C185.512 137.066 166.668 121.623 145.686 117.08C151.949 109.258 160.182 102.99 170.003 99.2205C201.312 87.2019 237.223 104.66 250.079 138.149C262.934 171.639 247.929 208.642 216.619 220.66Z" fill="#9FA0A0"/>
<path opacity="0.714286" d="M173.136 99.8487C162.698 103.24 153.871 109.388 147.046 117.284C136.883 114.907 126.129 115.122 115.69 118.514C83.5561 128.955 66.4063 165.201 77.4777 199.275C88.5492 233.35 123.728 252.592 155.863 242.151C166.301 238.76 175.128 232.612 181.953 224.716C192.116 227.093 202.87 226.878 213.308 223.486C245.443 213.045 262.593 176.799 251.521 142.725C240.45 108.651 205.305 89.3966 173.136 99.8487ZM155.275 240.343C124.062 250.485 89.9375 231.819 79.1833 198.721C68.4292 165.623 85.0648 130.464 116.278 120.323C126.102 117.13 136.183 116.815 145.749 118.865C132.572 135.184 127.684 158.328 134.924 180.61C142.164 202.892 159.733 218.779 179.975 224.199C173.44 231.481 165.065 237.162 155.275 240.343ZM147.728 119.382C167.771 124.427 185.235 139.988 192.37 161.944C199.504 183.901 194.521 206.755 181.271 222.618C161.227 217.573 143.763 202.012 136.629 180.056C129.495 158.099 134.477 135.245 147.728 119.382ZM212.721 221.677C202.896 224.87 192.816 225.186 183.249 223.135C196.427 206.816 201.315 183.673 194.075 161.39C186.835 139.108 169.265 123.222 149.024 117.801C155.559 110.519 163.934 104.838 173.724 101.657C204.937 91.5156 239.061 110.181 249.815 143.279C260.57 176.377 243.934 211.536 212.721 221.677Z" fill="#9FA0A0"/>
<path opacity="0.761905" d="M176.729 102.501C166.359 105.279 157.415 110.805 150.332 118.123C140.539 115.327 130.03 115.014 119.66 117.792C87.7369 126.346 69.0621 160.622 78.0497 194.164C87.0374 227.707 120.348 248.053 152.271 239.499C162.641 236.72 171.585 231.194 178.669 223.877C188.462 226.672 198.97 226.986 209.34 224.207C241.263 215.654 259.938 181.378 250.95 147.836C241.963 114.293 208.686 93.9379 176.729 102.501ZM151.794 237.719C120.786 246.027 88.4742 226.291 79.7442 193.71C71.0142 161.129 89.1289 127.881 120.137 119.573C129.897 116.958 139.753 117.141 148.982 119.591C135.248 134.758 129.241 156.938 135.119 178.873C140.996 200.807 157.297 217.048 176.765 223.28C169.998 230.017 161.52 235.113 151.794 237.719ZM150.885 120.188C170.18 126.047 186.396 141.967 192.187 163.581C197.979 185.195 191.896 207.09 178.115 221.812C158.82 215.953 142.604 200.032 136.813 178.419C131.022 156.805 137.105 134.91 150.885 120.188ZM208.863 222.427C199.103 225.042 189.247 224.859 180.018 222.409C193.752 207.241 199.759 185.061 193.882 163.127C188.004 141.193 171.703 124.952 152.235 118.719C159.002 111.983 167.48 106.887 177.206 104.281C208.214 95.9726 240.526 115.709 249.256 148.29C257.986 180.871 239.871 214.118 208.863 222.427Z" fill="#9FA0A0"/>
<path opacity="0.809524" d="M180.066 105.328C169.8 107.511 160.779 112.42 153.479 119.154C144.071 115.972 133.833 115.155 123.567 117.338C91.9619 124.055 71.9205 156.304 78.9111 189.192C85.9018 222.081 117.327 243.389 148.932 236.672C159.198 234.489 168.219 229.58 175.519 222.846C184.927 226.028 195.165 226.845 205.431 224.662C237.036 217.945 257.078 185.696 250.087 152.808C243.096 119.919 211.704 98.6034 180.066 105.328ZM148.561 234.926C117.862 241.451 87.3789 220.781 80.5887 188.836C73.7984 156.89 93.2389 125.609 123.938 119.083C133.6 117.029 143.208 117.688 152.084 120.508C137.877 134.512 130.839 155.676 135.411 177.183C139.982 198.69 155.028 215.197 173.694 222.176C166.733 228.363 158.19 232.879 148.561 234.926ZM153.909 121.179C172.427 127.788 187.405 143.981 191.91 165.174C196.415 186.366 189.317 207.251 175.089 220.821C156.571 214.212 141.593 198.019 137.088 176.826C132.584 155.634 139.681 134.749 153.909 121.179ZM205.06 222.917C195.398 224.971 185.79 224.312 176.915 221.492C191.121 207.488 198.159 186.324 193.588 164.817C189.016 143.31 173.971 126.803 155.304 119.824C162.265 113.637 170.808 109.121 180.437 107.074C211.136 100.549 241.619 121.219 248.409 153.164C255.2 185.11 235.759 216.391 205.06 222.917Z" fill="#9FA0A0"/>
<path opacity="0.857143" d="M183.143 108.312C173.013 109.916 163.955 114.217 156.479 120.364C147.47 116.828 137.526 115.537 127.396 117.141C96.2127 122.08 74.9645 152.255 80.0519 184.375C85.1393 216.496 114.672 238.627 145.856 233.688C155.985 232.084 165.043 227.783 172.519 221.636C181.529 225.172 191.472 226.463 201.602 224.859C232.786 219.92 254.034 189.745 248.947 157.625C243.859 125.504 214.36 103.367 183.143 108.312ZM145.586 231.983C115.296 236.781 86.6486 215.313 81.7071 184.113C76.7655 152.913 97.3766 123.643 127.666 118.846C137.2 117.336 146.538 118.444 155.047 121.605C140.452 134.438 132.472 154.541 135.798 175.546C139.125 196.55 152.933 213.238 170.774 220.898C163.658 226.535 155.086 230.479 145.586 231.983ZM156.793 122.342C174.508 129.638 188.267 146.019 191.545 166.716C194.823 187.414 186.8 207.245 172.206 219.658C154.491 212.362 140.732 195.981 137.454 175.284C134.175 154.586 142.199 134.755 156.793 122.342ZM201.332 223.154C191.798 224.664 182.461 223.556 173.952 220.395C188.547 207.563 196.527 187.459 193.2 166.454C189.873 145.45 176.066 128.762 158.225 121.102C165.341 115.466 173.912 111.521 183.413 110.017C213.703 105.219 242.35 126.687 247.291 157.887C252.233 189.087 231.622 218.357 201.332 223.154Z" fill="#9FA0A0"/>
<path opacity="0.904762" d="M185.951 111.431C175.99 112.478 166.933 116.18 159.323 121.742C150.722 117.884 141.093 116.146 131.132 117.193C100.467 120.416 78.173 148.482 81.4571 179.728C84.7413 210.974 112.383 233.792 143.048 230.569C153.009 229.522 162.066 225.82 169.677 220.258C178.278 224.116 187.906 225.854 197.867 224.807C228.532 221.584 250.826 193.518 247.542 162.272C244.258 131.026 216.649 108.205 185.951 111.431ZM142.874 228.91C113.088 232.041 86.2748 209.908 83.0848 179.557C79.8948 149.206 101.52 121.982 131.306 118.852C140.682 117.866 149.729 119.397 157.861 122.869C142.96 134.529 134.129 153.534 136.276 173.966C138.424 194.399 151.016 211.185 168.013 219.46C160.781 224.546 152.217 227.928 142.874 228.91ZM159.525 123.666C176.418 131.583 188.979 148.07 191.095 168.205C193.212 188.339 184.353 207.078 169.475 218.334C152.581 210.417 140.02 193.93 137.904 173.795C135.788 153.661 144.646 134.922 159.525 123.666ZM197.693 223.148C188.318 224.134 179.271 222.603 171.138 219.132C186.04 207.471 194.871 188.466 192.723 168.034C190.576 147.601 177.983 130.815 160.986 122.54C168.219 117.454 176.783 114.072 186.126 113.09C215.911 109.959 242.725 132.092 245.915 162.443C249.105 192.794 227.479 220.018 197.693 223.148Z" fill="#9FA0A0"/>
<path opacity="0.952381" d="M188.484 114.667C178.722 115.179 169.703 118.294 161.998 123.274C153.815 119.127 144.52 116.972 134.757 117.483C104.703 119.058 81.5243 144.991 83.1109 175.265C84.6975 205.54 110.46 228.907 140.514 227.332C150.277 226.821 159.295 223.706 167 218.726C175.184 222.873 184.478 225.028 194.241 224.517C224.295 222.942 247.474 197.009 245.888 166.735C244.301 136.46 218.57 113.091 188.484 114.667ZM140.43 225.725C111.237 227.255 86.2473 204.588 84.7061 175.182C83.165 145.775 105.649 120.62 134.841 119.09C144.03 118.609 152.769 120.535 160.515 124.287C145.389 134.78 135.8 152.652 136.838 172.45C137.876 192.247 149.282 209.052 165.42 217.874C158.108 222.414 149.586 225.246 140.43 225.725ZM162.096 125.138C178.152 133.61 189.543 150.126 190.565 169.634C191.588 189.142 181.985 206.758 166.903 216.862C150.847 208.389 139.456 191.874 138.433 172.366C137.411 152.858 147.013 135.242 162.096 125.138ZM194.157 222.91C184.969 223.391 176.23 221.465 168.483 217.713C183.609 207.22 193.198 189.348 192.16 169.55C191.123 149.753 179.717 132.948 163.578 124.126C170.89 119.586 179.412 116.754 188.569 116.274C217.761 114.744 242.751 137.411 244.292 166.818C245.833 196.225 223.35 221.38 194.157 222.91Z" fill="#9FA0A0"/>
<path d="M190.74 118C181.204 118 172.26 120.543 164.5 124.947C156.74 120.543 147.796 118 138.26 118C108.903 118 85 141.786 85 171C85 200.214 108.903 224 138.26 224C147.796 224 156.74 221.457 164.5 217.053C172.26 221.457 181.204 224 190.74 224C220.097 224 244 200.214 244 171C244 141.786 220.128 118 190.74 118ZM138.26 222.449C109.744 222.449 86.5582 199.376 86.5582 171C86.5582 142.624 109.744 119.551 138.26 119.551C147.235 119.551 155.649 121.846 163.004 125.846C147.734 135.181 137.481 151.896 137.481 171C137.481 190.104 147.734 206.85 163.004 216.154C155.649 220.154 147.204 222.449 138.26 222.449ZM164.5 126.745C179.708 135.708 189.961 152.176 189.961 171C189.961 189.824 179.708 206.292 164.5 215.255C149.292 206.292 139.039 189.824 139.039 171C139.039 152.176 149.292 135.708 164.5 126.745ZM190.74 222.449C181.765 222.449 173.351 220.154 165.996 216.154C181.266 206.819 191.519 190.104 191.519 171C191.519 151.896 181.266 135.15 165.996 125.846C173.351 121.846 181.796 119.551 190.74 119.551C219.256 119.551 242.442 142.624 242.442 171C242.442 199.376 219.256 222.449 190.74 222.449Z" fill="#9FA0A0"/>
<g style="mix-blend-mode:plus-lighter" filter="url(#filter0_f_10992_9117)">
<ellipse cx="107.007" cy="206.832" rx="41.0178" ry="35.8316" fill="#FF69B4"/>
</g>
<g style="mix-blend-mode:plus-lighter" filter="url(#filter1_f_10992_9117)">
<ellipse cx="223.018" cy="142.832" rx="41.0178" ry="35.8316" fill="#69FFB4"/>
</g>
<defs>
<filter id="filter0_f_10992_9117" x="18.8424" y="123.853" width="176.329" height="165.957" filterUnits="userSpaceOnUse" color-interpolation-filters="sRGB">
<feFlood flood-opacity="0" result="BackgroundImageFix"/>
<feBlend mode="normal" in="SourceGraphic" in2="BackgroundImageFix" result="shape"/>
<feGaussianBlur stdDeviation="23.5735" result="effect1_foregroundBlur_10992_9117"/>
</filter>
<filter id="filter1_f_10992_9117" x="134.853" y="59.8531" width="176.329" height="165.957" filterUnits="userSpaceOnUse" color-interpolation-filters="sRGB">
<feFlood flood-opacity="0" result="BackgroundImageFix"/>
<feBlend mode="normal" in="SourceGraphic" in2="BackgroundImageFix" result="shape"/>
<feGaussianBlur stdDeviation="23.5735" result="effect1_foregroundBlur_10992_9117"/>
</filter>
</defs>
</svg>
