<svg width="101" height="87" viewBox="0 0 101 87" fill="none" xmlns="http://www.w3.org/2000/svg">
<path fill-rule="evenodd" clip-rule="evenodd" d="M60.5 0H40.5V13.3333H13.8333V26.6667H0.5V50C0.5 59.7246 4.36308 69.0509 11.2394 75.9272C18.1158 82.8036 27.4421 86.6667 37.1667 86.6667H40.6867C49.911 86.6666 58.9665 84.1925 66.9094 79.5023C74.8523 74.812 81.3919 68.0773 85.8467 60H100.5V50C100.5 47.3478 99.4464 44.8043 97.5711 42.9289C95.6957 41.0536 93.1522 40 90.5 40H87.1667V36.6667C87.1667 34.0145 86.1131 31.471 84.2377 29.5956C82.3624 27.7202 79.8188 26.6667 77.1667 26.6667H60.5V0ZM7.16667 40H13.8333V33.3333H7.16667V40ZM20.5 40H27.1667V33.3333H20.5V40ZM33.8333 40H40.5V33.3333H33.8333V40ZM47.1667 40H53.8333V33.3333H47.1667V40ZM60.5 40H67.1667V33.3333H60.5V40ZM53.8333 13.3333V6.66667H47.1667V13.3333H53.8333ZM40.5 20H33.8333V26.6667H40.5V20ZM47.1667 26.6667V20H53.8333V26.6667H47.1667ZM27.1667 26.6667V20H20.5V26.6667H27.1667ZM20.5 60H27.1667V53.3333H20.5V60Z" fill="#FDFDFD"/>
</svg>
